<svg width="738" height="290" viewBox="0 0 738 290" fill="none" xmlns="http://www.w3.org/2000/svg">
  <rect y="288" width="4" height="2" fill="url(#paint0_linear_4473_11114)" />
  <rect x="5" y="288" width="4" height="2" fill="url(#paint1_linear_4473_11114)" />
  <rect x="10" y="288" width="4" height="2" fill="url(#paint2_linear_4473_11114)" />
  <rect x="15" y="288" width="4" height="2" fill="url(#paint3_linear_4473_11114)" />
  <rect x="20" y="288" width="4" height="2" fill="url(#paint4_linear_4473_11114)" />
  <rect x="25" y="288" width="4" height="2" fill="url(#paint5_linear_4473_11114)" />
  <rect x="30" y="288" width="4" height="2" fill="url(#paint6_linear_4473_11114)" />
  <rect x="35" y="288" width="4" height="2" fill="url(#paint7_linear_4473_11114)" />
  <rect x="40" y="288" width="4" height="2" fill="url(#paint8_linear_4473_11114)" />
  <rect x="45" y="286" width="4" height="4" fill="url(#paint9_linear_4473_11114)" />
  <rect x="50" y="285" width="4" height="5" fill="url(#paint10_linear_4473_11114)" />
  <rect x="55" y="283" width="4" height="7" fill="url(#paint11_linear_4473_11114)" />
  <rect x="60" y="282" width="4" height="8" fill="url(#paint12_linear_4473_11114)" />
  <rect x="65" y="279" width="4" height="11" fill="url(#paint13_linear_4473_11114)" />
  <rect x="70" y="278" width="4" height="12" fill="url(#paint14_linear_4473_11114)" />
  <rect x="75" y="277" width="4" height="13" fill="url(#paint15_linear_4473_11114)" />
  <rect x="80" y="274" width="4" height="16" fill="url(#paint16_linear_4473_11114)" />
  <rect x="85" y="272" width="4" height="18" fill="url(#paint17_linear_4473_11114)" />
  <rect x="90" y="270" width="4" height="20" fill="url(#paint18_linear_4473_11114)" />
  <rect x="95" y="268" width="4" height="22" fill="url(#paint19_linear_4473_11114)" />
  <rect x="100" y="268" width="4" height="22" fill="url(#paint20_linear_4473_11114)" />
  <rect x="105" y="267" width="4" height="23" fill="url(#paint21_linear_4473_11114)" />
  <rect x="110" y="265" width="4" height="25" fill="url(#paint22_linear_4473_11114)" />
  <rect x="115" y="263" width="4" height="27" fill="url(#paint23_linear_4473_11114)" />
  <rect x="120" y="262" width="4" height="28" fill="url(#paint24_linear_4473_11114)" />
  <rect x="125" y="262" width="4" height="28" fill="url(#paint25_linear_4473_11114)" />
  <rect x="130" y="260" width="4" height="30" fill="url(#paint26_linear_4473_11114)" />
  <rect x="135" y="259" width="4" height="31" fill="url(#paint27_linear_4473_11114)" />
  <rect x="140" y="257" width="4" height="33" fill="url(#paint28_linear_4473_11114)" />
  <rect x="145" y="256" width="4" height="34" fill="url(#paint29_linear_4473_11114)" />
  <rect x="150" y="254" width="4" height="36" fill="url(#paint30_linear_4473_11114)" />
  <rect x="155" y="252" width="4" height="38" fill="url(#paint31_linear_4473_11114)" />
  <rect x="160" y="251" width="4" height="39" fill="url(#paint32_linear_4473_11114)" />
  <rect x="165" y="250" width="4" height="40" fill="url(#paint33_linear_4473_11114)" />
  <rect x="170" y="248" width="4" height="42" fill="url(#paint34_linear_4473_11114)" />
  <rect x="175" y="245" width="4" height="45" fill="url(#paint35_linear_4473_11114)" />
  <rect x="180" y="242" width="4" height="48" fill="url(#paint36_linear_4473_11114)" />
  <rect x="185" y="241" width="4" height="49" fill="url(#paint37_linear_4473_11114)" />
  <rect x="190" y="238" width="4" height="52" fill="url(#paint38_linear_4473_11114)" />
  <rect x="195" y="237" width="4" height="53" fill="url(#paint39_linear_4473_11114)" />
  <rect x="200" y="236" width="4" height="54" fill="url(#paint40_linear_4473_11114)" />
  <rect x="205" y="236" width="4" height="54" fill="url(#paint41_linear_4473_11114)" />
  <rect x="210" y="235" width="4" height="55" fill="url(#paint42_linear_4473_11114)" />
  <rect x="215" y="234" width="4" height="56" fill="url(#paint43_linear_4473_11114)" />
  <rect x="220" y="233" width="4" height="57" fill="url(#paint44_linear_4473_11114)" />
  <rect x="225" y="233" width="4" height="57" fill="url(#paint45_linear_4473_11114)" />
  <rect x="230" y="231" width="4" height="59" fill="url(#paint46_linear_4473_11114)" />
  <rect x="235" y="230" width="4" height="60" fill="url(#paint47_linear_4473_11114)" />
  <rect x="240" y="229" width="4" height="61" fill="url(#paint48_linear_4473_11114)" />
  <rect x="245" y="228" width="4" height="62" fill="url(#paint49_linear_4473_11114)" />
  <rect x="250" y="226" width="4" height="64" fill="url(#paint50_linear_4473_11114)" />
  <rect x="255" y="225" width="4" height="65" fill="url(#paint51_linear_4473_11114)" />
  <rect x="260" y="223" width="4" height="67" fill="url(#paint52_linear_4473_11114)" />
  <rect x="265" y="204" width="4" height="86" fill="#6851B4" />
  <rect x="270" y="202" width="4" height="88" fill="#6851B4" />
  <rect x="275" y="200" width="4" height="90" fill="#6851B4" />
  <rect x="280" y="200" width="4" height="90" fill="#6851B4" />
  <rect x="285" y="198" width="4" height="92" fill="#6851B4" />
  <rect x="290" y="195" width="4" height="95" fill="#6851B4" />
  <rect x="295" y="193" width="4" height="97" fill="#6851B4" />
  <rect x="300" y="191" width="4" height="99" fill="#6851B4" />
  <rect x="305" y="158" width="4" height="132" fill="#6851B4" />
  <rect x="310" y="157" width="4" height="133" fill="#6851B4" />
  <rect x="315" y="154" width="4" height="136" fill="#6851B4" />
  <rect x="320" y="142" width="4" height="148" fill="#6851B4" />
  <rect x="325" y="139" width="4" height="151" fill="#6851B4" />
  <rect x="330" y="128" width="4" height="162" fill="#6851B4" />
  <rect x="335" y="86" width="4" height="204" fill="#6851B4" />
  <rect x="340" y="75" width="4" height="215" fill="#6851B4" />
  <rect x="345" y="50" width="4" height="240" fill="#6851B4" />
  <rect x="350" y="34" width="4" height="256" fill="#6851B4" />
  <rect x="355" y="19" width="4" height="271" fill="#6851B4" />
  <rect x="360" y="13" width="4" height="277" fill="#6851B4" />
  <rect opacity="0.5" x="365" y="1" width="4" height="289" fill="#6851B4" />
  <path
    d="M369 1L362.009 12.7623L357.016 19.0355L352.023 33.9344L347.03 48.8333L342.037 73.9262L337.043 85.6885L331.551 128.817L326.558 139.011L322.064 142.932L317.071 154.694L312.077 157.046L307.084 157.831L302.091 190.765L297.098 192.333L292.104 194.686L287.111 197.038L282.118 199.391L277.125 200.175L272.132 201.743L267.138 203.311L262 223L257.152 224.876L252.159 226.052L247.166 227.62L242.672 228.404L237.179 229.189L232.186 230.757L227.193 232.325L222.199 233.109L217.206 233.893L212.213 234.678L206.72 235.462L202.227 236.246L197.233 237.03L192.739 237.814L187.247 240.951L182.254 242.519L177.76 244.872L172.267 247.224L167.274 248.792L162.281 250.361L157.288 251.929L152.294 253.497L147.301 255.066L142.308 256.634L137.315 258.202L132.322 259.77L127.328 261.339L122.335 262.123L117.841 262.907L112.349 264.475L107.355 266.828L102.362 267.612L97.3691 268.396L92.3758 269.964L87.3826 271.533L82.3894 273.885L77.3962 275.454L72.403 277.022L67.4098 278.59L62.4166 280.943L57.4233 282.511L51.9308 284.079L47.4369 284.863L42.4437 287.216L37.4505 288H1"
    stroke="#6851B4" stroke-linecap="round" />
  <rect width="4" height="2" transform="matrix(-1 0 0 1 738 288)" fill="url(#paint53_linear_4473_11114)" />
  <rect width="4" height="2" transform="matrix(-1 0 0 1 733 288)" fill="url(#paint54_linear_4473_11114)" />
  <rect width="4" height="2" transform="matrix(-1 0 0 1 728 288)" fill="url(#paint55_linear_4473_11114)" />
  <rect width="4" height="2" transform="matrix(-1 0 0 1 723 288)" fill="url(#paint56_linear_4473_11114)" />
  <rect width="4" height="2" transform="matrix(-1 0 0 1 718 288)" fill="url(#paint57_linear_4473_11114)" />
  <rect width="4" height="2" transform="matrix(-1 0 0 1 713 288)" fill="url(#paint58_linear_4473_11114)" />
  <rect width="4" height="2" transform="matrix(-1 0 0 1 708 288)" fill="url(#paint59_linear_4473_11114)" />
  <rect width="4" height="2" transform="matrix(-1 0 0 1 703 288)" fill="url(#paint60_linear_4473_11114)" />
  <rect width="4" height="3" transform="matrix(-1 0 0 1 698 287)" fill="url(#paint61_linear_4473_11114)" />
  <rect width="4" height="5" transform="matrix(-1 0 0 1 693 285)" fill="url(#paint62_linear_4473_11114)" />
  <rect width="4" height="6" transform="matrix(-1 0 0 1 688 284)" fill="url(#paint63_linear_4473_11114)" />
  <rect width="4" height="8" transform="matrix(-1 0 0 1 683 282)" fill="url(#paint64_linear_4473_11114)" />
  <rect width="4" height="10" transform="matrix(-1 0 0 1 678 280)" fill="url(#paint65_linear_4473_11114)" />
  <rect width="4" height="11" transform="matrix(-1 0 0 1 673 279)" fill="url(#paint66_linear_4473_11114)" />
  <rect width="4" height="13" transform="matrix(-1 0 0 1 668 277)" fill="url(#paint67_linear_4473_11114)" />
  <rect width="4" height="15" transform="matrix(-1 0 0 1 663 275)" fill="url(#paint68_linear_4473_11114)" />
  <rect width="4" height="16" transform="matrix(-1 0 0 1 658 274)" fill="url(#paint69_linear_4473_11114)" />
  <rect width="4" height="18" transform="matrix(-1 0 0 1 653 272)" fill="url(#paint70_linear_4473_11114)" />
  <rect width="4" height="20" transform="matrix(-1 0 0 1 648 270)" fill="url(#paint71_linear_4473_11114)" />
  <rect width="4" height="22" transform="matrix(-1 0 0 1 643 268)" fill="url(#paint72_linear_4473_11114)" />
  <rect width="4" height="23" transform="matrix(-1 0 0 1 638 267)" fill="url(#paint73_linear_4473_11114)" />
  <rect width="4" height="24" transform="matrix(-1 0 0 1 633 266)" fill="url(#paint74_linear_4473_11114)" />
  <rect width="4" height="26" transform="matrix(-1 0 0 1 628 264)" fill="url(#paint75_linear_4473_11114)" />
  <rect width="4" height="28" transform="matrix(-1 0 0 1 623 262)" fill="url(#paint76_linear_4473_11114)" />
  <rect width="4" height="28" transform="matrix(-1 0 0 1 618 262)" fill="url(#paint77_linear_4473_11114)" />
  <rect width="4" height="29" transform="matrix(-1 0 0 1 613 261)" fill="url(#paint78_linear_4473_11114)" />
  <rect width="4" height="31" transform="matrix(-1 0 0 1 608 259)" fill="url(#paint79_linear_4473_11114)" />
  <rect width="4" height="32" transform="matrix(-1 0 0 1 603 258)" fill="url(#paint80_linear_4473_11114)" />
  <rect width="4" height="33" transform="matrix(-1 0 0 1 598 257)" fill="url(#paint81_linear_4473_11114)" />
  <rect width="4" height="35" transform="matrix(-1 0 0 1 593 255)" fill="url(#paint82_linear_4473_11114)" />
  <rect width="4" height="37" transform="matrix(-1 0 0 1 588 253)" fill="url(#paint83_linear_4473_11114)" />
  <rect width="4" height="38" transform="matrix(-1 0 0 1 583 252)" fill="url(#paint84_linear_4473_11114)" />
  <rect width="4" height="40" transform="matrix(-1 0 0 1 578 250)" fill="url(#paint85_linear_4473_11114)" />
  <rect width="4" height="42" transform="matrix(-1 0 0 1 573 248)" fill="url(#paint86_linear_4473_11114)" />
  <rect width="4" height="44" transform="matrix(-1 0 0 1 568 246)" fill="url(#paint87_linear_4473_11114)" />
  <rect width="4" height="46" transform="matrix(-1 0 0 1 563 244)" fill="url(#paint88_linear_4473_11114)" />
  <rect width="4" height="48" transform="matrix(-1 0 0 1 558 242)" fill="url(#paint89_linear_4473_11114)" />
  <rect width="4" height="50" transform="matrix(-1 0 0 1 553 240)" fill="url(#paint90_linear_4473_11114)" />
  <rect width="4" height="52" transform="matrix(-1 0 0 1 548 238)" fill="url(#paint91_linear_4473_11114)" />
  <rect width="4" height="53" transform="matrix(-1 0 0 1 543 237)" fill="url(#paint92_linear_4473_11114)" />
  <rect width="4" height="54" transform="matrix(-1 0 0 1 538 236)" fill="url(#paint93_linear_4473_11114)" />
  <rect width="4" height="55" transform="matrix(-1 0 0 1 533 235)" fill="url(#paint94_linear_4473_11114)" />
  <rect width="4" height="56" transform="matrix(-1 0 0 1 528 234)" fill="url(#paint95_linear_4473_11114)" />
  <rect width="4" height="57" transform="matrix(-1 0 0 1 523 233)" fill="url(#paint96_linear_4473_11114)" />
  <rect width="4" height="58" transform="matrix(-1 0 0 1 518 232)" fill="url(#paint97_linear_4473_11114)" />
  <rect width="4" height="58" transform="matrix(-1 0 0 1 513 232)" fill="url(#paint98_linear_4473_11114)" />
  <rect width="4" height="59" transform="matrix(-1 0 0 1 508 231)" fill="url(#paint99_linear_4473_11114)" />
  <rect width="4" height="61" transform="matrix(-1 0 0 1 503 229)" fill="url(#paint100_linear_4473_11114)" />
  <rect width="4" height="62" transform="matrix(-1 0 0 1 498 228)" fill="url(#paint101_linear_4473_11114)" />
  <rect width="4" height="63" transform="matrix(-1 0 0 1 493 227)" fill="url(#paint102_linear_4473_11114)" />
  <rect width="4" height="64" transform="matrix(-1 0 0 1 488 226)" fill="url(#paint103_linear_4473_11114)" />
  <rect width="4" height="65" transform="matrix(-1 0 0 1 483 225)" fill="url(#paint104_linear_4473_11114)" />
  <rect width="4" height="66" transform="matrix(-1 0 0 1 478 224)" fill="url(#paint105_linear_4473_11114)" />
  <rect width="4" height="86" transform="matrix(-1 0 0 1 473 204)" fill="url(#paint106_linear_4473_11114)" />
  <rect width="4" height="88" transform="matrix(-1 0 0 1 468 202)" fill="url(#paint107_linear_4473_11114)" />
  <rect width="4" height="90" transform="matrix(-1 0 0 1 463 200)" fill="url(#paint108_linear_4473_11114)" />
  <rect width="4" height="91" transform="matrix(-1 0 0 1 458 199)" fill="url(#paint109_linear_4473_11114)" />
  <rect width="4" height="93" transform="matrix(-1 0 0 1 453 197)" fill="url(#paint110_linear_4473_11114)" />
  <rect width="4" height="96" transform="matrix(-1 0 0 1 448 194)" fill="url(#paint111_linear_4473_11114)" />
  <rect width="4" height="98" transform="matrix(-1 0 0 1 443 192)" fill="url(#paint112_linear_4473_11114)" />
  <rect width="4" height="100" transform="matrix(-1 0 0 1 438 190)" fill="url(#paint113_linear_4473_11114)" />
  <rect width="4" height="132" transform="matrix(-1 0 0 1 433 158)" fill="url(#paint114_linear_4473_11114)" />
  <rect width="4" height="133" transform="matrix(-1 0 0 1 428 157)" fill="url(#paint115_linear_4473_11114)" />
  <rect width="4" height="136" transform="matrix(-1 0 0 1 423 154)" fill="url(#paint116_linear_4473_11114)" />
  <rect width="4" height="147" transform="matrix(-1 0 0 1 418 143)" fill="url(#paint117_linear_4473_11114)" />
  <rect width="4" height="151" transform="matrix(-1 0 0 1 413 139)" fill="url(#paint118_linear_4473_11114)" />
  <rect width="4" height="161" transform="matrix(-1 0 0 1 408 129)" fill="url(#paint119_linear_4473_11114)" />
  <rect width="4" height="205" transform="matrix(-1 0 0 1 403 85)" fill="url(#paint120_linear_4473_11114)" />
  <rect width="4" height="216" transform="matrix(-1 0 0 1 398 74)" fill="url(#paint121_linear_4473_11114)" />
  <rect width="4" height="242" transform="matrix(-1 0 0 1 393 48)" fill="url(#paint122_linear_4473_11114)" />
  <rect width="4" height="256" transform="matrix(-1 0 0 1 388 34)" fill="url(#paint123_linear_4473_11114)" />
  <rect width="4" height="271" transform="matrix(-1 0 0 1 383 19)" fill="url(#paint124_linear_4473_11114)" />
  <rect width="4" height="278" transform="matrix(-1 0 0 1 378 12)" fill="url(#paint125_linear_4473_11114)" />
  <rect opacity="0.5" width="4" height="289" transform="matrix(-1 0 0 1 373 1)" fill="#EB8D27" />
  <path
    d="M369 1L375.991 12.7623L380.984 19.0355L385.977 33.9344L390.97 48.8333L395.963 73.9262L400.957 85.6885L406.449 128.817L411.442 139.011L415.936 142.932L420.929 154.694L425.923 157.046L430.916 157.831L435.909 190.765L440.902 192.333L445.896 194.686L450.889 197.038L455.882 199.391L460.875 200.175L465.868 201.743L470.862 203.311L475.855 223.699L480.848 224.876L485.841 226.052L490.834 227.62L495.328 228.404L500.821 229.189L505.814 230.757L510.807 232.325L515.801 233.109L520.794 233.893L525.787 234.678L531.28 235.462L535.773 236.246L540.767 237.03L545.261 237.814L550.753 240.951L555.746 242.519L560.24 244.872L565.733 247.224L570.726 248.792L575.719 250.361L580.712 251.929L585.706 253.497L590.699 255.066L595.692 256.634L600.685 258.202L605.678 259.77L610.672 261.339L615.665 262.123L620.159 262.907L625.651 264.475L630.645 266.828L635.638 267.612L640.631 268.396L645.624 269.964L650.617 271.533L655.611 273.885L660.604 275.454L665.597 277.022L670.59 278.59L675.583 280.943L680.577 282.511L686.069 284.079L690.563 284.863L695.556 287.216L700.55 288H737"
    stroke="#EB8D27" stroke-linecap="round" />
  <defs>
    <linearGradient id="paint0_linear_4473_11114" x1="2" y1="288" x2="2" y2="290" gradientUnits="userSpaceOnUse">
      <stop stop-color="#6851B4" stop-opacity="0.3" />
      <stop offset="1" stop-color="#6851B4" stop-opacity="0.08" />
    </linearGradient>
    <linearGradient id="paint1_linear_4473_11114" x1="7" y1="288" x2="7" y2="290" gradientUnits="userSpaceOnUse">
      <stop stop-color="#6851B4" stop-opacity="0.3" />
      <stop offset="1" stop-color="#6851B4" stop-opacity="0.08" />
    </linearGradient>
    <linearGradient id="paint2_linear_4473_11114" x1="12" y1="288" x2="12" y2="290" gradientUnits="userSpaceOnUse">
      <stop stop-color="#6851B4" stop-opacity="0.3" />
      <stop offset="1" stop-color="#6851B4" stop-opacity="0.08" />
    </linearGradient>
    <linearGradient id="paint3_linear_4473_11114" x1="17" y1="288" x2="17" y2="290" gradientUnits="userSpaceOnUse">
      <stop stop-color="#6851B4" stop-opacity="0.3" />
      <stop offset="1" stop-color="#6851B4" stop-opacity="0.08" />
    </linearGradient>
    <linearGradient id="paint4_linear_4473_11114" x1="22" y1="288" x2="22" y2="290" gradientUnits="userSpaceOnUse">
      <stop stop-color="#6851B4" stop-opacity="0.3" />
      <stop offset="1" stop-color="#6851B4" stop-opacity="0.08" />
    </linearGradient>
    <linearGradient id="paint5_linear_4473_11114" x1="27" y1="288" x2="27" y2="290" gradientUnits="userSpaceOnUse">
      <stop stop-color="#6851B4" stop-opacity="0.3" />
      <stop offset="1" stop-color="#6851B4" stop-opacity="0.08" />
    </linearGradient>
    <linearGradient id="paint6_linear_4473_11114" x1="32" y1="288" x2="32" y2="290" gradientUnits="userSpaceOnUse">
      <stop stop-color="#6851B4" stop-opacity="0.3" />
      <stop offset="1" stop-color="#6851B4" stop-opacity="0.08" />
    </linearGradient>
    <linearGradient id="paint7_linear_4473_11114" x1="37" y1="288" x2="37" y2="290" gradientUnits="userSpaceOnUse">
      <stop stop-color="#6851B4" stop-opacity="0.3" />
      <stop offset="1" stop-color="#6851B4" stop-opacity="0.08" />
    </linearGradient>
    <linearGradient id="paint8_linear_4473_11114" x1="42" y1="288" x2="42" y2="290" gradientUnits="userSpaceOnUse">
      <stop stop-color="#6851B4" stop-opacity="0.3" />
      <stop offset="1" stop-color="#6851B4" stop-opacity="0.08" />
    </linearGradient>
    <linearGradient id="paint9_linear_4473_11114" x1="47" y1="286" x2="47" y2="290" gradientUnits="userSpaceOnUse">
      <stop stop-color="#6851B4" stop-opacity="0.3" />
      <stop offset="1" stop-color="#6851B4" stop-opacity="0.08" />
    </linearGradient>
    <linearGradient id="paint10_linear_4473_11114" x1="52" y1="285" x2="52" y2="290" gradientUnits="userSpaceOnUse">
      <stop stop-color="#6851B4" stop-opacity="0.3" />
      <stop offset="1" stop-color="#6851B4" stop-opacity="0.08" />
    </linearGradient>
    <linearGradient id="paint11_linear_4473_11114" x1="57" y1="283" x2="57" y2="290" gradientUnits="userSpaceOnUse">
      <stop stop-color="#6851B4" stop-opacity="0.3" />
      <stop offset="1" stop-color="#6851B4" stop-opacity="0.08" />
    </linearGradient>
    <linearGradient id="paint12_linear_4473_11114" x1="62" y1="282" x2="62" y2="290" gradientUnits="userSpaceOnUse">
      <stop stop-color="#6851B4" stop-opacity="0.3" />
      <stop offset="1" stop-color="#6851B4" stop-opacity="0.08" />
    </linearGradient>
    <linearGradient id="paint13_linear_4473_11114" x1="67" y1="279" x2="67" y2="290" gradientUnits="userSpaceOnUse">
      <stop stop-color="#6851B4" stop-opacity="0.3" />
      <stop offset="1" stop-color="#6851B4" stop-opacity="0.08" />
    </linearGradient>
    <linearGradient id="paint14_linear_4473_11114" x1="72" y1="278" x2="72" y2="290" gradientUnits="userSpaceOnUse">
      <stop stop-color="#6851B4" stop-opacity="0.3" />
      <stop offset="1" stop-color="#6851B4" stop-opacity="0.08" />
    </linearGradient>
    <linearGradient id="paint15_linear_4473_11114" x1="77" y1="277" x2="77" y2="290" gradientUnits="userSpaceOnUse">
      <stop stop-color="#6851B4" stop-opacity="0.3" />
      <stop offset="1" stop-color="#6851B4" stop-opacity="0.08" />
    </linearGradient>
    <linearGradient id="paint16_linear_4473_11114" x1="82" y1="274" x2="82" y2="290" gradientUnits="userSpaceOnUse">
      <stop stop-color="#6851B4" stop-opacity="0.3" />
      <stop offset="1" stop-color="#6851B4" stop-opacity="0.08" />
    </linearGradient>
    <linearGradient id="paint17_linear_4473_11114" x1="87" y1="272" x2="87" y2="290" gradientUnits="userSpaceOnUse">
      <stop stop-color="#6851B4" stop-opacity="0.3" />
      <stop offset="1" stop-color="#6851B4" stop-opacity="0.08" />
    </linearGradient>
    <linearGradient id="paint18_linear_4473_11114" x1="92" y1="270" x2="92" y2="290" gradientUnits="userSpaceOnUse">
      <stop stop-color="#6851B4" stop-opacity="0.3" />
      <stop offset="1" stop-color="#6851B4" stop-opacity="0.08" />
    </linearGradient>
    <linearGradient id="paint19_linear_4473_11114" x1="97" y1="268" x2="97" y2="290" gradientUnits="userSpaceOnUse">
      <stop stop-color="#6851B4" stop-opacity="0.3" />
      <stop offset="1" stop-color="#6851B4" stop-opacity="0.08" />
    </linearGradient>
    <linearGradient id="paint20_linear_4473_11114" x1="102" y1="268" x2="102" y2="290" gradientUnits="userSpaceOnUse">
      <stop stop-color="#6851B4" stop-opacity="0.3" />
      <stop offset="1" stop-color="#6851B4" stop-opacity="0.08" />
    </linearGradient>
    <linearGradient id="paint21_linear_4473_11114" x1="107" y1="267" x2="107" y2="290" gradientUnits="userSpaceOnUse">
      <stop stop-color="#6851B4" stop-opacity="0.3" />
      <stop offset="1" stop-color="#6851B4" stop-opacity="0.08" />
    </linearGradient>
    <linearGradient id="paint22_linear_4473_11114" x1="112" y1="265" x2="112" y2="290" gradientUnits="userSpaceOnUse">
      <stop stop-color="#6851B4" stop-opacity="0.3" />
      <stop offset="1" stop-color="#6851B4" stop-opacity="0.08" />
    </linearGradient>
    <linearGradient id="paint23_linear_4473_11114" x1="117" y1="263" x2="117" y2="290" gradientUnits="userSpaceOnUse">
      <stop stop-color="#6851B4" stop-opacity="0.3" />
      <stop offset="1" stop-color="#6851B4" stop-opacity="0.08" />
    </linearGradient>
    <linearGradient id="paint24_linear_4473_11114" x1="122" y1="262" x2="122" y2="290" gradientUnits="userSpaceOnUse">
      <stop stop-color="#6851B4" stop-opacity="0.3" />
      <stop offset="1" stop-color="#6851B4" stop-opacity="0.08" />
    </linearGradient>
    <linearGradient id="paint25_linear_4473_11114" x1="127" y1="262" x2="127" y2="290" gradientUnits="userSpaceOnUse">
      <stop stop-color="#6851B4" stop-opacity="0.3" />
      <stop offset="1" stop-color="#6851B4" stop-opacity="0.08" />
    </linearGradient>
    <linearGradient id="paint26_linear_4473_11114" x1="132" y1="260" x2="132" y2="290" gradientUnits="userSpaceOnUse">
      <stop stop-color="#6851B4" stop-opacity="0.3" />
      <stop offset="1" stop-color="#6851B4" stop-opacity="0.08" />
    </linearGradient>
    <linearGradient id="paint27_linear_4473_11114" x1="137" y1="259" x2="137" y2="290" gradientUnits="userSpaceOnUse">
      <stop stop-color="#6851B4" stop-opacity="0.3" />
      <stop offset="1" stop-color="#6851B4" stop-opacity="0.08" />
    </linearGradient>
    <linearGradient id="paint28_linear_4473_11114" x1="142" y1="257" x2="142" y2="290" gradientUnits="userSpaceOnUse">
      <stop stop-color="#6851B4" stop-opacity="0.3" />
      <stop offset="1" stop-color="#6851B4" stop-opacity="0.08" />
    </linearGradient>
    <linearGradient id="paint29_linear_4473_11114" x1="147" y1="256" x2="147" y2="290" gradientUnits="userSpaceOnUse">
      <stop stop-color="#6851B4" stop-opacity="0.3" />
      <stop offset="1" stop-color="#6851B4" stop-opacity="0.08" />
    </linearGradient>
    <linearGradient id="paint30_linear_4473_11114" x1="152" y1="254" x2="152" y2="290" gradientUnits="userSpaceOnUse">
      <stop stop-color="#6851B4" stop-opacity="0.3" />
      <stop offset="1" stop-color="#6851B4" stop-opacity="0.08" />
    </linearGradient>
    <linearGradient id="paint31_linear_4473_11114" x1="157" y1="252" x2="157" y2="290" gradientUnits="userSpaceOnUse">
      <stop stop-color="#6851B4" stop-opacity="0.3" />
      <stop offset="1" stop-color="#6851B4" stop-opacity="0.08" />
    </linearGradient>
    <linearGradient id="paint32_linear_4473_11114" x1="162" y1="251" x2="162" y2="290" gradientUnits="userSpaceOnUse">
      <stop stop-color="#6851B4" stop-opacity="0.3" />
      <stop offset="1" stop-color="#6851B4" stop-opacity="0.08" />
    </linearGradient>
    <linearGradient id="paint33_linear_4473_11114" x1="167" y1="250" x2="167" y2="290" gradientUnits="userSpaceOnUse">
      <stop stop-color="#6851B4" stop-opacity="0.3" />
      <stop offset="1" stop-color="#6851B4" stop-opacity="0.08" />
    </linearGradient>
    <linearGradient id="paint34_linear_4473_11114" x1="172" y1="248" x2="172" y2="290" gradientUnits="userSpaceOnUse">
      <stop stop-color="#6851B4" stop-opacity="0.3" />
      <stop offset="1" stop-color="#6851B4" stop-opacity="0.08" />
    </linearGradient>
    <linearGradient id="paint35_linear_4473_11114" x1="177" y1="245" x2="177" y2="290" gradientUnits="userSpaceOnUse">
      <stop stop-color="#6851B4" stop-opacity="0.3" />
      <stop offset="1" stop-color="#6851B4" stop-opacity="0.08" />
    </linearGradient>
    <linearGradient id="paint36_linear_4473_11114" x1="182" y1="242" x2="182" y2="290" gradientUnits="userSpaceOnUse">
      <stop stop-color="#6851B4" stop-opacity="0.3" />
      <stop offset="1" stop-color="#6851B4" stop-opacity="0.08" />
    </linearGradient>
    <linearGradient id="paint37_linear_4473_11114" x1="187" y1="241" x2="187" y2="290" gradientUnits="userSpaceOnUse">
      <stop stop-color="#6851B4" stop-opacity="0.3" />
      <stop offset="1" stop-color="#6851B4" stop-opacity="0.08" />
    </linearGradient>
    <linearGradient id="paint38_linear_4473_11114" x1="192" y1="238" x2="192" y2="290" gradientUnits="userSpaceOnUse">
      <stop stop-color="#6851B4" stop-opacity="0.3" />
      <stop offset="1" stop-color="#6851B4" stop-opacity="0.08" />
    </linearGradient>
    <linearGradient id="paint39_linear_4473_11114" x1="197" y1="237" x2="197" y2="290" gradientUnits="userSpaceOnUse">
      <stop stop-color="#6851B4" stop-opacity="0.3" />
      <stop offset="1" stop-color="#6851B4" stop-opacity="0.08" />
    </linearGradient>
    <linearGradient id="paint40_linear_4473_11114" x1="202" y1="236" x2="202" y2="290" gradientUnits="userSpaceOnUse">
      <stop stop-color="#6851B4" stop-opacity="0.3" />
      <stop offset="1" stop-color="#6851B4" stop-opacity="0.08" />
    </linearGradient>
    <linearGradient id="paint41_linear_4473_11114" x1="207" y1="236" x2="207" y2="290" gradientUnits="userSpaceOnUse">
      <stop stop-color="#6851B4" stop-opacity="0.3" />
      <stop offset="1" stop-color="#6851B4" stop-opacity="0.08" />
    </linearGradient>
    <linearGradient id="paint42_linear_4473_11114" x1="212" y1="235" x2="212" y2="290" gradientUnits="userSpaceOnUse">
      <stop stop-color="#6851B4" stop-opacity="0.3" />
      <stop offset="1" stop-color="#6851B4" stop-opacity="0.08" />
    </linearGradient>
    <linearGradient id="paint43_linear_4473_11114" x1="217" y1="234" x2="217" y2="290" gradientUnits="userSpaceOnUse">
      <stop stop-color="#6851B4" stop-opacity="0.3" />
      <stop offset="1" stop-color="#6851B4" stop-opacity="0.08" />
    </linearGradient>
    <linearGradient id="paint44_linear_4473_11114" x1="222" y1="233" x2="222" y2="290" gradientUnits="userSpaceOnUse">
      <stop stop-color="#6851B4" stop-opacity="0.3" />
      <stop offset="1" stop-color="#6851B4" stop-opacity="0.08" />
    </linearGradient>
    <linearGradient id="paint45_linear_4473_11114" x1="227" y1="233" x2="227" y2="290" gradientUnits="userSpaceOnUse">
      <stop stop-color="#6851B4" stop-opacity="0.3" />
      <stop offset="1" stop-color="#6851B4" stop-opacity="0.08" />
    </linearGradient>
    <linearGradient id="paint46_linear_4473_11114" x1="232" y1="231" x2="232" y2="290" gradientUnits="userSpaceOnUse">
      <stop stop-color="#6851B4" stop-opacity="0.3" />
      <stop offset="1" stop-color="#6851B4" stop-opacity="0.08" />
    </linearGradient>
    <linearGradient id="paint47_linear_4473_11114" x1="237" y1="230" x2="237" y2="290" gradientUnits="userSpaceOnUse">
      <stop stop-color="#6851B4" stop-opacity="0.3" />
      <stop offset="1" stop-color="#6851B4" stop-opacity="0.08" />
    </linearGradient>
    <linearGradient id="paint48_linear_4473_11114" x1="242" y1="229" x2="242" y2="290" gradientUnits="userSpaceOnUse">
      <stop stop-color="#6851B4" stop-opacity="0.3" />
      <stop offset="1" stop-color="#6851B4" stop-opacity="0.08" />
    </linearGradient>
    <linearGradient id="paint49_linear_4473_11114" x1="247" y1="228" x2="247" y2="290" gradientUnits="userSpaceOnUse">
      <stop stop-color="#6851B4" stop-opacity="0.3" />
      <stop offset="1" stop-color="#6851B4" stop-opacity="0.08" />
    </linearGradient>
    <linearGradient id="paint50_linear_4473_11114" x1="252" y1="226" x2="252" y2="290" gradientUnits="userSpaceOnUse">
      <stop stop-color="#6851B4" stop-opacity="0.3" />
      <stop offset="1" stop-color="#6851B4" stop-opacity="0.08" />
    </linearGradient>
    <linearGradient id="paint51_linear_4473_11114" x1="257" y1="225" x2="257" y2="290" gradientUnits="userSpaceOnUse">
      <stop stop-color="#6851B4" stop-opacity="0.3" />
      <stop offset="1" stop-color="#6851B4" stop-opacity="0.08" />
    </linearGradient>
    <linearGradient id="paint52_linear_4473_11114" x1="262" y1="223" x2="262" y2="290" gradientUnits="userSpaceOnUse">
      <stop stop-color="#6851B4" stop-opacity="0.3" />
      <stop offset="1" stop-color="#6851B4" stop-opacity="0.08" />
    </linearGradient>
    <linearGradient id="paint53_linear_4473_11114" x1="2" y1="0" x2="2" y2="2" gradientUnits="userSpaceOnUse">
      <stop stop-color="#EB8D27" stop-opacity="0.3" />
      <stop offset="1" stop-color="#EB8D27" stop-opacity="0.08" />
    </linearGradient>
    <linearGradient id="paint54_linear_4473_11114" x1="2" y1="0" x2="2" y2="2" gradientUnits="userSpaceOnUse">
      <stop stop-color="#EB8D27" stop-opacity="0.3" />
      <stop offset="1" stop-color="#EB8D27" stop-opacity="0.08" />
    </linearGradient>
    <linearGradient id="paint55_linear_4473_11114" x1="2" y1="0" x2="2" y2="2" gradientUnits="userSpaceOnUse">
      <stop stop-color="#EB8D27" stop-opacity="0.3" />
      <stop offset="1" stop-color="#EB8D27" stop-opacity="0.08" />
    </linearGradient>
    <linearGradient id="paint56_linear_4473_11114" x1="2" y1="0" x2="2" y2="2" gradientUnits="userSpaceOnUse">
      <stop stop-color="#EB8D27" stop-opacity="0.3" />
      <stop offset="1" stop-color="#EB8D27" stop-opacity="0.08" />
    </linearGradient>
    <linearGradient id="paint57_linear_4473_11114" x1="2" y1="0" x2="2" y2="2" gradientUnits="userSpaceOnUse">
      <stop stop-color="#EB8D27" stop-opacity="0.3" />
      <stop offset="1" stop-color="#EB8D27" stop-opacity="0.08" />
    </linearGradient>
    <linearGradient id="paint58_linear_4473_11114" x1="2" y1="0" x2="2" y2="2" gradientUnits="userSpaceOnUse">
      <stop stop-color="#EB8D27" stop-opacity="0.3" />
      <stop offset="1" stop-color="#EB8D27" stop-opacity="0.08" />
    </linearGradient>
    <linearGradient id="paint59_linear_4473_11114" x1="2" y1="0" x2="2" y2="2" gradientUnits="userSpaceOnUse">
      <stop stop-color="#EB8D27" stop-opacity="0.3" />
      <stop offset="1" stop-color="#EB8D27" stop-opacity="0.08" />
    </linearGradient>
    <linearGradient id="paint60_linear_4473_11114" x1="2" y1="0" x2="2" y2="2" gradientUnits="userSpaceOnUse">
      <stop stop-color="#EB8D27" stop-opacity="0.3" />
      <stop offset="1" stop-color="#EB8D27" stop-opacity="0.08" />
    </linearGradient>
    <linearGradient id="paint61_linear_4473_11114" x1="2" y1="0" x2="2" y2="3" gradientUnits="userSpaceOnUse">
      <stop stop-color="#EB8D27" stop-opacity="0.3" />
      <stop offset="1" stop-color="#EB8D27" stop-opacity="0.08" />
    </linearGradient>
    <linearGradient id="paint62_linear_4473_11114" x1="2" y1="0" x2="2" y2="5" gradientUnits="userSpaceOnUse">
      <stop stop-color="#EB8D27" stop-opacity="0.3" />
      <stop offset="1" stop-color="#EB8D27" stop-opacity="0.08" />
    </linearGradient>
    <linearGradient id="paint63_linear_4473_11114" x1="2" y1="0" x2="2" y2="6" gradientUnits="userSpaceOnUse">
      <stop stop-color="#EB8D27" stop-opacity="0.3" />
      <stop offset="1" stop-color="#EB8D27" stop-opacity="0.08" />
    </linearGradient>
    <linearGradient id="paint64_linear_4473_11114" x1="2" y1="0" x2="2" y2="8" gradientUnits="userSpaceOnUse">
      <stop stop-color="#EB8D27" stop-opacity="0.3" />
      <stop offset="1" stop-color="#EB8D27" stop-opacity="0.08" />
    </linearGradient>
    <linearGradient id="paint65_linear_4473_11114" x1="2" y1="0" x2="2" y2="10" gradientUnits="userSpaceOnUse">
      <stop stop-color="#EB8D27" stop-opacity="0.3" />
      <stop offset="1" stop-color="#EB8D27" stop-opacity="0.08" />
    </linearGradient>
    <linearGradient id="paint66_linear_4473_11114" x1="2" y1="0" x2="2" y2="11" gradientUnits="userSpaceOnUse">
      <stop stop-color="#EB8D27" stop-opacity="0.3" />
      <stop offset="1" stop-color="#EB8D27" stop-opacity="0.08" />
    </linearGradient>
    <linearGradient id="paint67_linear_4473_11114" x1="2" y1="0" x2="2" y2="13" gradientUnits="userSpaceOnUse">
      <stop stop-color="#EB8D27" stop-opacity="0.3" />
      <stop offset="1" stop-color="#EB8D27" stop-opacity="0.08" />
    </linearGradient>
    <linearGradient id="paint68_linear_4473_11114" x1="2" y1="0" x2="2" y2="15" gradientUnits="userSpaceOnUse">
      <stop stop-color="#EB8D27" stop-opacity="0.3" />
      <stop offset="1" stop-color="#EB8D27" stop-opacity="0.08" />
    </linearGradient>
    <linearGradient id="paint69_linear_4473_11114" x1="2" y1="0" x2="2" y2="16" gradientUnits="userSpaceOnUse">
      <stop stop-color="#EB8D27" stop-opacity="0.3" />
      <stop offset="1" stop-color="#EB8D27" stop-opacity="0.08" />
    </linearGradient>
    <linearGradient id="paint70_linear_4473_11114" x1="2" y1="0" x2="2" y2="18" gradientUnits="userSpaceOnUse">
      <stop stop-color="#EB8D27" stop-opacity="0.3" />
      <stop offset="1" stop-color="#EB8D27" stop-opacity="0.08" />
    </linearGradient>
    <linearGradient id="paint71_linear_4473_11114" x1="2" y1="0" x2="2" y2="20" gradientUnits="userSpaceOnUse">
      <stop stop-color="#EB8D27" stop-opacity="0.3" />
      <stop offset="1" stop-color="#EB8D27" stop-opacity="0.08" />
    </linearGradient>
    <linearGradient id="paint72_linear_4473_11114" x1="2" y1="0" x2="2" y2="22" gradientUnits="userSpaceOnUse">
      <stop stop-color="#EB8D27" stop-opacity="0.3" />
      <stop offset="1" stop-color="#EB8D27" stop-opacity="0.08" />
    </linearGradient>
    <linearGradient id="paint73_linear_4473_11114" x1="2" y1="0" x2="2" y2="23" gradientUnits="userSpaceOnUse">
      <stop stop-color="#EB8D27" stop-opacity="0.3" />
      <stop offset="1" stop-color="#EB8D27" stop-opacity="0.08" />
    </linearGradient>
    <linearGradient id="paint74_linear_4473_11114" x1="2" y1="0" x2="2" y2="24" gradientUnits="userSpaceOnUse">
      <stop stop-color="#EB8D27" stop-opacity="0.3" />
      <stop offset="1" stop-color="#EB8D27" stop-opacity="0.08" />
    </linearGradient>
    <linearGradient id="paint75_linear_4473_11114" x1="2" y1="0" x2="2" y2="26" gradientUnits="userSpaceOnUse">
      <stop stop-color="#EB8D27" stop-opacity="0.3" />
      <stop offset="1" stop-color="#EB8D27" stop-opacity="0.08" />
    </linearGradient>
    <linearGradient id="paint76_linear_4473_11114" x1="2" y1="0" x2="2" y2="28" gradientUnits="userSpaceOnUse">
      <stop stop-color="#EB8D27" stop-opacity="0.3" />
      <stop offset="1" stop-color="#EB8D27" stop-opacity="0.08" />
    </linearGradient>
    <linearGradient id="paint77_linear_4473_11114" x1="2" y1="0" x2="2" y2="28" gradientUnits="userSpaceOnUse">
      <stop stop-color="#EB8D27" stop-opacity="0.3" />
      <stop offset="1" stop-color="#EB8D27" stop-opacity="0.08" />
    </linearGradient>
    <linearGradient id="paint78_linear_4473_11114" x1="2" y1="0" x2="2" y2="29" gradientUnits="userSpaceOnUse">
      <stop stop-color="#EB8D27" stop-opacity="0.3" />
      <stop offset="1" stop-color="#EB8D27" stop-opacity="0.08" />
    </linearGradient>
    <linearGradient id="paint79_linear_4473_11114" x1="2" y1="0" x2="2" y2="31" gradientUnits="userSpaceOnUse">
      <stop stop-color="#EB8D27" stop-opacity="0.3" />
      <stop offset="1" stop-color="#EB8D27" stop-opacity="0.08" />
    </linearGradient>
    <linearGradient id="paint80_linear_4473_11114" x1="2" y1="0" x2="2" y2="32" gradientUnits="userSpaceOnUse">
      <stop stop-color="#EB8D27" stop-opacity="0.3" />
      <stop offset="1" stop-color="#EB8D27" stop-opacity="0.08" />
    </linearGradient>
    <linearGradient id="paint81_linear_4473_11114" x1="2" y1="0" x2="2" y2="33" gradientUnits="userSpaceOnUse">
      <stop stop-color="#EB8D27" stop-opacity="0.3" />
      <stop offset="1" stop-color="#EB8D27" stop-opacity="0.08" />
    </linearGradient>
    <linearGradient id="paint82_linear_4473_11114" x1="2" y1="0" x2="2" y2="35" gradientUnits="userSpaceOnUse">
      <stop stop-color="#EB8D27" stop-opacity="0.3" />
      <stop offset="1" stop-color="#EB8D27" stop-opacity="0.08" />
    </linearGradient>
    <linearGradient id="paint83_linear_4473_11114" x1="2" y1="0" x2="2" y2="37" gradientUnits="userSpaceOnUse">
      <stop stop-color="#EB8D27" stop-opacity="0.3" />
      <stop offset="1" stop-color="#EB8D27" stop-opacity="0.08" />
    </linearGradient>
    <linearGradient id="paint84_linear_4473_11114" x1="2" y1="0" x2="2" y2="38" gradientUnits="userSpaceOnUse">
      <stop stop-color="#EB8D27" stop-opacity="0.3" />
      <stop offset="1" stop-color="#EB8D27" stop-opacity="0.08" />
    </linearGradient>
    <linearGradient id="paint85_linear_4473_11114" x1="2" y1="0" x2="2" y2="40" gradientUnits="userSpaceOnUse">
      <stop stop-color="#EB8D27" stop-opacity="0.3" />
      <stop offset="1" stop-color="#EB8D27" stop-opacity="0.08" />
    </linearGradient>
    <linearGradient id="paint86_linear_4473_11114" x1="2" y1="0" x2="2" y2="42" gradientUnits="userSpaceOnUse">
      <stop stop-color="#EB8D27" stop-opacity="0.3" />
      <stop offset="1" stop-color="#EB8D27" stop-opacity="0.08" />
    </linearGradient>
    <linearGradient id="paint87_linear_4473_11114" x1="2" y1="0" x2="2" y2="44" gradientUnits="userSpaceOnUse">
      <stop stop-color="#EB8D27" stop-opacity="0.3" />
      <stop offset="1" stop-color="#EB8D27" stop-opacity="0.08" />
    </linearGradient>
    <linearGradient id="paint88_linear_4473_11114" x1="2" y1="0" x2="2" y2="46" gradientUnits="userSpaceOnUse">
      <stop stop-color="#EB8D27" stop-opacity="0.3" />
      <stop offset="1" stop-color="#EB8D27" stop-opacity="0.08" />
    </linearGradient>
    <linearGradient id="paint89_linear_4473_11114" x1="2" y1="0" x2="2" y2="48" gradientUnits="userSpaceOnUse">
      <stop stop-color="#EB8D27" stop-opacity="0.3" />
      <stop offset="1" stop-color="#EB8D27" stop-opacity="0.08" />
    </linearGradient>
    <linearGradient id="paint90_linear_4473_11114" x1="2" y1="0" x2="2" y2="50" gradientUnits="userSpaceOnUse">
      <stop stop-color="#EB8D27" stop-opacity="0.3" />
      <stop offset="1" stop-color="#EB8D27" stop-opacity="0.08" />
    </linearGradient>
    <linearGradient id="paint91_linear_4473_11114" x1="2" y1="0" x2="2" y2="52" gradientUnits="userSpaceOnUse">
      <stop stop-color="#EB8D27" stop-opacity="0.3" />
      <stop offset="1" stop-color="#EB8D27" stop-opacity="0.08" />
    </linearGradient>
    <linearGradient id="paint92_linear_4473_11114" x1="2" y1="0" x2="2" y2="53" gradientUnits="userSpaceOnUse">
      <stop stop-color="#EB8D27" stop-opacity="0.3" />
      <stop offset="1" stop-color="#EB8D27" stop-opacity="0.08" />
    </linearGradient>
    <linearGradient id="paint93_linear_4473_11114" x1="2" y1="0" x2="2" y2="54" gradientUnits="userSpaceOnUse">
      <stop stop-color="#EB8D27" stop-opacity="0.3" />
      <stop offset="1" stop-color="#EB8D27" stop-opacity="0.08" />
    </linearGradient>
    <linearGradient id="paint94_linear_4473_11114" x1="2" y1="0" x2="2" y2="55" gradientUnits="userSpaceOnUse">
      <stop stop-color="#EB8D27" stop-opacity="0.3" />
      <stop offset="1" stop-color="#EB8D27" stop-opacity="0.08" />
    </linearGradient>
    <linearGradient id="paint95_linear_4473_11114" x1="2" y1="0" x2="2" y2="56" gradientUnits="userSpaceOnUse">
      <stop stop-color="#EB8D27" stop-opacity="0.3" />
      <stop offset="1" stop-color="#EB8D27" stop-opacity="0.08" />
    </linearGradient>
    <linearGradient id="paint96_linear_4473_11114" x1="2" y1="0" x2="2" y2="57" gradientUnits="userSpaceOnUse">
      <stop stop-color="#EB8D27" stop-opacity="0.3" />
      <stop offset="1" stop-color="#EB8D27" stop-opacity="0.08" />
    </linearGradient>
    <linearGradient id="paint97_linear_4473_11114" x1="2" y1="0" x2="2" y2="58" gradientUnits="userSpaceOnUse">
      <stop stop-color="#EB8D27" stop-opacity="0.3" />
      <stop offset="1" stop-color="#EB8D27" stop-opacity="0.08" />
    </linearGradient>
    <linearGradient id="paint98_linear_4473_11114" x1="2" y1="0" x2="2" y2="58" gradientUnits="userSpaceOnUse">
      <stop stop-color="#EB8D27" stop-opacity="0.3" />
      <stop offset="1" stop-color="#EB8D27" stop-opacity="0.08" />
    </linearGradient>
    <linearGradient id="paint99_linear_4473_11114" x1="2" y1="0" x2="2" y2="59" gradientUnits="userSpaceOnUse">
      <stop stop-color="#EB8D27" stop-opacity="0.3" />
      <stop offset="1" stop-color="#EB8D27" stop-opacity="0.08" />
    </linearGradient>
    <linearGradient id="paint100_linear_4473_11114" x1="2" y1="0" x2="2" y2="61" gradientUnits="userSpaceOnUse">
      <stop stop-color="#EB8D27" stop-opacity="0.3" />
      <stop offset="1" stop-color="#EB8D27" stop-opacity="0.08" />
    </linearGradient>
    <linearGradient id="paint101_linear_4473_11114" x1="2" y1="0" x2="2" y2="62" gradientUnits="userSpaceOnUse">
      <stop stop-color="#EB8D27" stop-opacity="0.3" />
      <stop offset="1" stop-color="#EB8D27" stop-opacity="0.08" />
    </linearGradient>
    <linearGradient id="paint102_linear_4473_11114" x1="2" y1="0" x2="2" y2="63" gradientUnits="userSpaceOnUse">
      <stop stop-color="#EB8D27" stop-opacity="0.3" />
      <stop offset="1" stop-color="#EB8D27" stop-opacity="0.08" />
    </linearGradient>
    <linearGradient id="paint103_linear_4473_11114" x1="2" y1="0" x2="2" y2="64" gradientUnits="userSpaceOnUse">
      <stop stop-color="#EB8D27" stop-opacity="0.3" />
      <stop offset="1" stop-color="#EB8D27" stop-opacity="0.08" />
    </linearGradient>
    <linearGradient id="paint104_linear_4473_11114" x1="2" y1="0" x2="2" y2="65" gradientUnits="userSpaceOnUse">
      <stop stop-color="#EB8D27" stop-opacity="0.3" />
      <stop offset="1" stop-color="#EB8D27" stop-opacity="0.08" />
    </linearGradient>
    <linearGradient id="paint105_linear_4473_11114" x1="2" y1="0" x2="2" y2="66" gradientUnits="userSpaceOnUse">
      <stop stop-color="#EB8D27" stop-opacity="0.3" />
      <stop offset="1" stop-color="#EB8D27" stop-opacity="0.08" />
    </linearGradient>
    <linearGradient id="paint106_linear_4473_11114" x1="2" y1="0" x2="2" y2="86" gradientUnits="userSpaceOnUse">
      <stop stop-color="#EB8D27" stop-opacity="0.3" />
      <stop offset="1" stop-color="#EB8D27" stop-opacity="0.08" />
    </linearGradient>
    <linearGradient id="paint107_linear_4473_11114" x1="2" y1="0" x2="2" y2="88" gradientUnits="userSpaceOnUse">
      <stop stop-color="#EB8D27" stop-opacity="0.3" />
      <stop offset="1" stop-color="#EB8D27" stop-opacity="0.08" />
    </linearGradient>
    <linearGradient id="paint108_linear_4473_11114" x1="2" y1="0" x2="2" y2="90" gradientUnits="userSpaceOnUse">
      <stop stop-color="#EB8D27" stop-opacity="0.3" />
      <stop offset="1" stop-color="#EB8D27" stop-opacity="0.08" />
    </linearGradient>
    <linearGradient id="paint109_linear_4473_11114" x1="2" y1="0" x2="2" y2="91" gradientUnits="userSpaceOnUse">
      <stop stop-color="#EB8D27" stop-opacity="0.3" />
      <stop offset="1" stop-color="#EB8D27" stop-opacity="0.08" />
    </linearGradient>
    <linearGradient id="paint110_linear_4473_11114" x1="2" y1="0" x2="2" y2="93" gradientUnits="userSpaceOnUse">
      <stop stop-color="#EB8D27" stop-opacity="0.3" />
      <stop offset="1" stop-color="#EB8D27" stop-opacity="0.08" />
    </linearGradient>
    <linearGradient id="paint111_linear_4473_11114" x1="2" y1="0" x2="2" y2="96" gradientUnits="userSpaceOnUse">
      <stop stop-color="#EB8D27" stop-opacity="0.3" />
      <stop offset="1" stop-color="#EB8D27" stop-opacity="0.08" />
    </linearGradient>
    <linearGradient id="paint112_linear_4473_11114" x1="2" y1="0" x2="2" y2="98" gradientUnits="userSpaceOnUse">
      <stop stop-color="#EB8D27" stop-opacity="0.3" />
      <stop offset="1" stop-color="#EB8D27" stop-opacity="0.08" />
    </linearGradient>
    <linearGradient id="paint113_linear_4473_11114" x1="2" y1="0" x2="2" y2="100" gradientUnits="userSpaceOnUse">
      <stop stop-color="#EB8D27" stop-opacity="0.3" />
      <stop offset="1" stop-color="#EB8D27" stop-opacity="0.08" />
    </linearGradient>
    <linearGradient id="paint114_linear_4473_11114" x1="2" y1="0" x2="2" y2="132" gradientUnits="userSpaceOnUse">
      <stop stop-color="#EB8D27" stop-opacity="0.3" />
      <stop offset="1" stop-color="#EB8D27" stop-opacity="0.08" />
    </linearGradient>
    <linearGradient id="paint115_linear_4473_11114" x1="2" y1="0" x2="2" y2="133" gradientUnits="userSpaceOnUse">
      <stop stop-color="#EB8D27" stop-opacity="0.3" />
      <stop offset="1" stop-color="#EB8D27" stop-opacity="0.08" />
    </linearGradient>
    <linearGradient id="paint116_linear_4473_11114" x1="2" y1="0" x2="2" y2="136" gradientUnits="userSpaceOnUse">
      <stop stop-color="#EB8D27" stop-opacity="0.3" />
      <stop offset="1" stop-color="#EB8D27" stop-opacity="0.08" />
    </linearGradient>
    <linearGradient id="paint117_linear_4473_11114" x1="2" y1="0" x2="2" y2="147" gradientUnits="userSpaceOnUse">
      <stop stop-color="#EB8D27" stop-opacity="0.3" />
      <stop offset="1" stop-color="#EB8D27" stop-opacity="0.08" />
    </linearGradient>
    <linearGradient id="paint118_linear_4473_11114" x1="2" y1="0" x2="2" y2="151" gradientUnits="userSpaceOnUse">
      <stop stop-color="#EB8D27" stop-opacity="0.3" />
      <stop offset="1" stop-color="#EB8D27" stop-opacity="0.08" />
    </linearGradient>
    <linearGradient id="paint119_linear_4473_11114" x1="2" y1="0" x2="2" y2="161" gradientUnits="userSpaceOnUse">
      <stop stop-color="#EB8D27" stop-opacity="0.3" />
      <stop offset="1" stop-color="#EB8D27" stop-opacity="0.08" />
    </linearGradient>
    <linearGradient id="paint120_linear_4473_11114" x1="2" y1="0" x2="2" y2="205" gradientUnits="userSpaceOnUse">
      <stop stop-color="#EB8D27" stop-opacity="0.3" />
      <stop offset="1" stop-color="#EB8D27" stop-opacity="0.08" />
    </linearGradient>
    <linearGradient id="paint121_linear_4473_11114" x1="2" y1="0" x2="2" y2="216" gradientUnits="userSpaceOnUse">
      <stop stop-color="#EB8D27" stop-opacity="0.3" />
      <stop offset="1" stop-color="#EB8D27" stop-opacity="0.08" />
    </linearGradient>
    <linearGradient id="paint122_linear_4473_11114" x1="2" y1="0" x2="2" y2="242" gradientUnits="userSpaceOnUse">
      <stop stop-color="#EB8D27" stop-opacity="0.3" />
      <stop offset="1" stop-color="#EB8D27" stop-opacity="0.08" />
    </linearGradient>
    <linearGradient id="paint123_linear_4473_11114" x1="2" y1="0" x2="2" y2="256" gradientUnits="userSpaceOnUse">
      <stop stop-color="#EB8D27" stop-opacity="0.3" />
      <stop offset="1" stop-color="#EB8D27" stop-opacity="0.08" />
    </linearGradient>
    <linearGradient id="paint124_linear_4473_11114" x1="2" y1="0" x2="2" y2="271" gradientUnits="userSpaceOnUse">
      <stop stop-color="#EB8D27" stop-opacity="0.3" />
      <stop offset="1" stop-color="#EB8D27" stop-opacity="0.08" />
    </linearGradient>
    <linearGradient id="paint125_linear_4473_11114" x1="2" y1="0" x2="2" y2="278" gradientUnits="userSpaceOnUse">
      <stop stop-color="#EB8D27" stop-opacity="0.3" />
      <stop offset="1" stop-color="#EB8D27" stop-opacity="0.08" />
    </linearGradient>
  </defs>
</svg>