<svg width="737" height="220" viewBox="0 0 737 220" fill="none" xmlns="http://www.w3.org/2000/svg">
  <rect x="28.5" y="214" width="40" height="6" fill="url(#paint0_linear_3900_354238)" />
  <rect x="88.5" y="208" width="40" height="12" fill="url(#paint1_linear_3900_354238)" />
  <rect x="148.5" y="201" width="40" height="19" fill="url(#paint2_linear_3900_354238)" />
  <rect x="208.5" y="188" width="40" height="32" fill="url(#paint3_linear_3900_354238)" />
  <rect x="268.5" y="170" width="40" height="50" fill="url(#paint4_linear_3900_354238)" />
  <rect x="328.5" width="40" height="220" fill="url(#paint5_linear_3900_354238)" />
  <rect width="40" height="6" transform="matrix(-1 0 0 1 708.5 214)" fill="url(#paint6_linear_3900_354238)" />
  <rect width="40" height="12" transform="matrix(-1 0 0 1 648.5 208)" fill="url(#paint7_linear_3900_354238)" />
  <rect width="40" height="19" transform="matrix(-1 0 0 1 588.5 201)" fill="url(#paint8_linear_3900_354238)" />
  <rect width="40" height="32" transform="matrix(-1 0 0 1 528.5 188)" fill="url(#paint9_linear_3900_354238)" />
  <rect width="40" height="50" transform="matrix(-1 0 0 1 468.5 170)" fill="url(#paint10_linear_3900_354238)" />
  <rect width="40" height="220" transform="matrix(-1 0 0 1 408.5 0)" fill="url(#paint11_linear_3900_354238)" />
  <defs>
    <linearGradient id="paint0_linear_3900_354238" x1="48.5" y1="214" x2="48.5" y2="220" gradientUnits="userSpaceOnUse">
      <stop stop-color="#6851B4" stop-opacity="0.6" />
      <stop offset="1" stop-color="#6851B4" stop-opacity="0.04" />
    </linearGradient>
    <linearGradient id="paint1_linear_3900_354238" x1="108.5" y1="208" x2="108.5" y2="220"
      gradientUnits="userSpaceOnUse">
      <stop stop-color="#6851B4" stop-opacity="0.6" />
      <stop offset="1" stop-color="#6851B4" stop-opacity="0.04" />
    </linearGradient>
    <linearGradient id="paint2_linear_3900_354238" x1="168.5" y1="201" x2="168.5" y2="220"
      gradientUnits="userSpaceOnUse">
      <stop stop-color="#6851B4" stop-opacity="0.6" />
      <stop offset="1" stop-color="#6851B4" stop-opacity="0.04" />
    </linearGradient>
    <linearGradient id="paint3_linear_3900_354238" x1="228.5" y1="188" x2="228.5" y2="220"
      gradientUnits="userSpaceOnUse">
      <stop stop-color="#6851B4" stop-opacity="0.6" />
      <stop offset="1" stop-color="#6851B4" stop-opacity="0.04" />
    </linearGradient>
    <linearGradient id="paint4_linear_3900_354238" x1="288.5" y1="170" x2="288.5" y2="220"
      gradientUnits="userSpaceOnUse">
      <stop stop-color="#6851B4" stop-opacity="0.6" />
      <stop offset="1" stop-color="#6851B4" stop-opacity="0.04" />
    </linearGradient>
    <linearGradient id="paint5_linear_3900_354238" x1="348.5" y1="0" x2="348.5" y2="220" gradientUnits="userSpaceOnUse">
      <stop stop-color="#6851B4" stop-opacity="0.6" />
      <stop offset="1" stop-color="#6851B4" stop-opacity="0.04" />
    </linearGradient>
    <linearGradient id="paint6_linear_3900_354238" x1="20" y1="0" x2="20" y2="6" gradientUnits="userSpaceOnUse">
      <stop stop-color="#EB8D27" stop-opacity="0.6" />
      <stop offset="1" stop-color="#EB8D27" stop-opacity="0.04" />
    </linearGradient>
    <linearGradient id="paint7_linear_3900_354238" x1="20" y1="0" x2="20" y2="12" gradientUnits="userSpaceOnUse">
      <stop stop-color="#EB8D27" stop-opacity="0.6" />
      <stop offset="1" stop-color="#EB8D27" stop-opacity="0.04" />
    </linearGradient>
    <linearGradient id="paint8_linear_3900_354238" x1="20" y1="0" x2="20" y2="19" gradientUnits="userSpaceOnUse">
      <stop stop-color="#EB8D27" stop-opacity="0.6" />
      <stop offset="1" stop-color="#EB8D27" stop-opacity="0.04" />
    </linearGradient>
    <linearGradient id="paint9_linear_3900_354238" x1="20" y1="0" x2="20" y2="32" gradientUnits="userSpaceOnUse">
      <stop stop-color="#EB8D27" stop-opacity="0.6" />
      <stop offset="1" stop-color="#EB8D27" stop-opacity="0.04" />
    </linearGradient>
    <linearGradient id="paint10_linear_3900_354238" x1="20" y1="0" x2="20" y2="50" gradientUnits="userSpaceOnUse">
      <stop stop-color="#EB8D27" stop-opacity="0.6" />
      <stop offset="1" stop-color="#EB8D27" stop-opacity="0.04" />
    </linearGradient>
    <linearGradient id="paint11_linear_3900_354238" x1="20" y1="0" x2="20" y2="220" gradientUnits="userSpaceOnUse">
      <stop stop-color="#EB8D27" stop-opacity="0.6" />
      <stop offset="1" stop-color="#EB8D27" stop-opacity="0.04" />
    </linearGradient>
  </defs>
</svg>