<svg width="737" height="220" viewBox="0 0 737 220" fill="none" xmlns="http://www.w3.org/2000/svg">
<rect x="28.5" y="216" width="40" height="4" fill="white" fill-opacity="0.1"/>
<rect x="88.5" y="216" width="40" height="4" fill="white" fill-opacity="0.1"/>
<rect x="148.5" y="216" width="40" height="4" fill="white" fill-opacity="0.1"/>
<rect x="208.5" y="216" width="40" height="4" fill="white" fill-opacity="0.1"/>
<rect x="268.5" y="216" width="40" height="4" fill="white" fill-opacity="0.1"/>
<rect x="328.5" y="216" width="40" height="4" fill="white" fill-opacity="0.1"/>
<rect width="40" height="20" transform="matrix(-1 0 0 1 708.5 200)" fill="url(#paint0_linear_5229_28865)"/>
<rect width="40" height="40" transform="matrix(-1 0 0 1 648.5 180)" fill="url(#paint1_linear_5229_28865)"/>
<rect width="40" height="60" transform="matrix(-1 0 0 1 588.5 160)" fill="url(#paint2_linear_5229_28865)"/>
<rect width="40" height="100" transform="matrix(-1 0 0 1 528.5 120)" fill="url(#paint3_linear_5229_28865)"/>
<rect width="40" height="160" transform="matrix(-1 0 0 1 468.5 60)" fill="url(#paint4_linear_5229_28865)"/>
<rect width="40" height="220" transform="matrix(-1 0 0 1 408.5 0)" fill="url(#paint5_linear_5229_28865)"/>
<defs>
<linearGradient id="paint0_linear_5229_28865" x1="20" y1="0" x2="20" y2="20" gradientUnits="userSpaceOnUse">
<stop stop-color="#FFE804" stop-opacity="0.6"/>
<stop offset="1" stop-color="#FFE804" stop-opacity="0.04"/>
</linearGradient>
<linearGradient id="paint1_linear_5229_28865" x1="20" y1="0" x2="20" y2="40" gradientUnits="userSpaceOnUse">
<stop stop-color="#FFE804" stop-opacity="0.6"/>
<stop offset="1" stop-color="#FFE804" stop-opacity="0.04"/>
</linearGradient>
<linearGradient id="paint2_linear_5229_28865" x1="20" y1="0" x2="20" y2="60" gradientUnits="userSpaceOnUse">
<stop stop-color="#FFE804" stop-opacity="0.6"/>
<stop offset="1" stop-color="#FFE804" stop-opacity="0.04"/>
</linearGradient>
<linearGradient id="paint3_linear_5229_28865" x1="20" y1="0" x2="20" y2="100" gradientUnits="userSpaceOnUse">
<stop stop-color="#FFE804" stop-opacity="0.6"/>
<stop offset="1" stop-color="#FFE804" stop-opacity="0.04"/>
</linearGradient>
<linearGradient id="paint4_linear_5229_28865" x1="20" y1="0" x2="20" y2="160" gradientUnits="userSpaceOnUse">
<stop stop-color="#FFE804" stop-opacity="0.6"/>
<stop offset="1" stop-color="#FFE804" stop-opacity="0.04"/>
</linearGradient>
<linearGradient id="paint5_linear_5229_28865" x1="20" y1="0" x2="20" y2="220" gradientUnits="userSpaceOnUse">
<stop stop-color="#FFE804" stop-opacity="0.6"/>
<stop offset="1" stop-color="#FFE804" stop-opacity="0.04"/>
</linearGradient>
</defs>
</svg>
