<svg width="32" height="32" viewBox="0 0 32 32" fill="none" xmlns="http://www.w3.org/2000/svg">
  <g id="Frame">
    <path id="Vector"
      d="M16.3673 25.3385C16.634 25.3163 16.8618 25.2108 17.0507 25.0219C17.2395 24.833 17.334 24.6052 17.334 24.3385C17.334 24.0274 17.234 23.7774 17.034 23.5885C16.834 23.3997 16.5784 23.3163 16.2673 23.3385C15.3562 23.4052 14.3895 23.1552 13.3673 22.5885C12.3451 22.0219 11.7007 20.9941 11.434 19.5052C11.3895 19.2608 11.2729 19.0608 11.084 18.9052C10.8951 18.7497 10.6784 18.6719 10.434 18.6719C10.1229 18.6719 9.86732 18.7885 9.66732 19.0219C9.46732 19.2552 9.40065 19.5274 9.46732 19.8385C9.8451 21.8608 10.734 23.3052 12.134 24.1719C13.534 25.0385 14.9451 25.4274 16.3673 25.3385ZM16.0007 29.3385C12.9562 29.3385 10.4173 28.2941 8.38398 26.2052C6.35065 24.1163 5.33398 21.5163 5.33398 18.4052C5.33398 16.183 6.21732 13.7663 7.98398 11.1552C9.75065 8.5441 12.4229 5.71632 16.0007 2.67188C19.5784 5.71632 22.2507 8.5441 24.0173 11.1552C25.784 13.7663 26.6673 16.183 26.6673 18.4052C26.6673 21.5163 25.6507 24.1163 23.6173 26.2052C21.584 28.2941 19.0451 29.3385 16.0007 29.3385Z"
      fill="currentColor" />
  </g>
</svg>