<svg width="32" height="32" viewBox="0 0 32 32" fill="none" xmlns="http://www.w3.org/2000/svg">
  <g id="Frame">
    <path id="Vector"
      d="M2.66602 27.1339V24.5339C3.31046 24.5339 3.86046 24.4339 4.31602 24.2339C4.77157 24.0339 5.23268 23.8172 5.69935 23.5839C6.16602 23.3505 6.68268 23.1394 7.24935 22.9505C7.81602 22.7616 8.51046 22.6672 9.33268 22.6672C10.1771 22.6672 10.8716 22.7616 11.416 22.9505C11.9605 23.1394 12.466 23.3505 12.9327 23.5839C13.3993 23.8172 13.866 24.0339 14.3327 24.2339C14.7993 24.4339 15.3549 24.5339 15.9993 24.5339C16.6438 24.5339 17.1993 24.4339 17.666 24.2339C18.1327 24.0339 18.5993 23.8172 19.066 23.5839C19.5327 23.3505 20.0438 23.1394 20.5993 22.9505C21.1549 22.7616 21.8438 22.6672 22.666 22.6672C23.5105 22.6672 24.2105 22.7616 24.766 22.9505C25.3216 23.1394 25.8327 23.3505 26.2993 23.5839C26.766 23.8172 27.2327 24.0339 27.6993 24.2339C28.166 24.4339 28.7105 24.5339 29.3327 24.5339V27.1339C28.4882 27.1339 27.7827 27.0339 27.216 26.8339C26.6493 26.6339 26.1327 26.4172 25.666 26.1839C25.1993 25.9505 24.7438 25.7394 24.2993 25.5505C23.8549 25.3616 23.3105 25.2672 22.666 25.2672C22.0438 25.2672 21.5049 25.3616 21.0493 25.5505C20.5938 25.7394 20.1382 25.9505 19.6827 26.1839C19.2271 26.4172 18.716 26.6339 18.1493 26.8339C17.5827 27.0339 16.866 27.1339 15.9993 27.1339C15.1327 27.1339 14.416 27.0339 13.8493 26.8339C13.2827 26.6339 12.7716 26.4172 12.316 26.1839C11.8605 25.9505 11.4105 25.7394 10.966 25.5505C10.5216 25.3616 9.97713 25.2672 9.33268 25.2672C8.71046 25.2672 8.17157 25.3616 7.71602 25.5505C7.26046 25.7394 6.79935 25.9505 6.33268 26.1839C5.86602 26.4172 5.34935 26.6339 4.78268 26.8339C4.21602 27.0339 3.51046 27.1339 2.66602 27.1339ZM2.66602 21.2005V18.6005C3.31046 18.6005 3.86046 18.5005 4.31602 18.3005C4.77157 18.1005 5.23268 17.8839 5.69935 17.6505C6.16602 17.4172 6.68268 17.2061 7.24935 17.0172C7.81602 16.8283 8.51046 16.7339 9.33268 16.7339C10.1771 16.7339 10.8716 16.8283 11.416 17.0172C11.9605 17.2061 12.466 17.4172 12.9327 17.6505C13.3993 17.8839 13.866 18.1005 14.3327 18.3005C14.7993 18.5005 15.3549 18.6005 15.9993 18.6005C16.6438 18.6005 17.1993 18.5005 17.666 18.3005C18.1327 18.1005 18.5993 17.8839 19.066 17.6505C19.5327 17.4172 20.0438 17.2061 20.5993 17.0172C21.1549 16.8283 21.8438 16.7339 22.666 16.7339C23.5105 16.7339 24.2105 16.8283 24.766 17.0172C25.3216 17.2061 25.8327 17.4172 26.2993 17.6505C26.766 17.8839 27.2327 18.1005 27.6993 18.3005C28.166 18.5005 28.7105 18.6005 29.3327 18.6005V21.2005C28.4882 21.2005 27.7827 21.1005 27.216 20.9005C26.6493 20.7005 26.1327 20.4839 25.666 20.2505C25.1993 20.0172 24.7438 19.8061 24.2993 19.6172C23.8549 19.4283 23.3105 19.3339 22.666 19.3339C22.0216 19.3339 21.4716 19.4283 21.016 19.6172C20.5605 19.8061 20.1049 20.0172 19.6493 20.2505C19.1938 20.4839 18.6882 20.7005 18.1327 20.9005C17.5771 21.1005 16.866 21.2005 15.9993 21.2005C15.1327 21.2005 14.416 21.1005 13.8493 20.9005C13.2827 20.7005 12.7716 20.4839 12.316 20.2505C11.8605 20.0172 11.4105 19.8061 10.966 19.6172C10.5216 19.4283 9.97713 19.3339 9.33268 19.3339C8.71046 19.3339 8.17157 19.4283 7.71602 19.6172C7.26046 19.8061 6.79935 20.0172 6.33268 20.2505C5.86602 20.4839 5.34935 20.7005 4.78268 20.9005C4.21602 21.1005 3.51046 21.2005 2.66602 21.2005ZM2.66602 15.2672V12.6672C3.31046 12.6672 3.86046 12.5672 4.31602 12.3672C4.77157 12.1672 5.23268 11.9505 5.69935 11.7172C6.16602 11.4839 6.68268 11.2727 7.24935 11.0839C7.81602 10.895 8.51046 10.8005 9.33268 10.8005C10.1771 10.8005 10.8716 10.895 11.416 11.0839C11.9605 11.2727 12.466 11.4839 12.9327 11.7172C13.3993 11.9505 13.866 12.1672 14.3327 12.3672C14.7993 12.5672 15.3549 12.6672 15.9993 12.6672C16.6438 12.6672 17.1993 12.5672 17.666 12.3672C18.1327 12.1672 18.5993 11.9505 19.066 11.7172C19.5327 11.4839 20.0438 11.2727 20.5993 11.0839C21.1549 10.895 21.8438 10.8005 22.666 10.8005C23.5105 10.8005 24.2105 10.895 24.766 11.0839C25.3216 11.2727 25.8327 11.4839 26.2993 11.7172C26.766 11.9505 27.2327 12.1672 27.6993 12.3672C28.166 12.5672 28.7105 12.6672 29.3327 12.6672V15.2672C28.4882 15.2672 27.7827 15.1672 27.216 14.9672C26.6493 14.7672 26.1327 14.5505 25.666 14.3172C25.1993 14.0839 24.7438 13.8727 24.2993 13.6839C23.8549 13.495 23.3105 13.4005 22.666 13.4005C22.0438 13.4005 21.5049 13.495 21.0493 13.6839C20.5938 13.8727 20.1382 14.0839 19.6827 14.3172C19.2271 14.5505 18.716 14.7672 18.1493 14.9672C17.5827 15.1672 16.866 15.2672 15.9993 15.2672C15.1327 15.2672 14.416 15.1672 13.8493 14.9672C13.2827 14.7672 12.7716 14.5505 12.316 14.3172C11.8605 14.0839 11.4105 13.8727 10.966 13.6839C10.5216 13.495 9.97713 13.4005 9.33268 13.4005C8.71046 13.4005 8.17157 13.495 7.71602 13.6839C7.26046 13.8727 6.79935 14.0839 6.33268 14.3172C5.86602 14.5505 5.34935 14.7672 4.78268 14.9672C4.21602 15.1672 3.51046 15.2672 2.66602 15.2672ZM2.66602 9.33385V6.73385C3.31046 6.73385 3.86046 6.63385 4.31602 6.43385C4.77157 6.23385 5.23268 6.01719 5.69935 5.78385C6.16602 5.55052 6.68268 5.33941 7.24935 5.15052C7.81602 4.96163 8.51046 4.86719 9.33268 4.86719C10.1771 4.86719 10.8716 4.96163 11.416 5.15052C11.9605 5.33941 12.466 5.55052 12.9327 5.78385C13.3993 6.01719 13.866 6.23385 14.3327 6.43385C14.7993 6.63385 15.3549 6.73385 15.9993 6.73385C16.6438 6.73385 17.1993 6.63385 17.666 6.43385C18.1327 6.23385 18.5993 6.01719 19.066 5.78385C19.5327 5.55052 20.0438 5.33941 20.5993 5.15052C21.1549 4.96163 21.8438 4.86719 22.666 4.86719C23.5105 4.86719 24.2105 4.96163 24.766 5.15052C25.3216 5.33941 25.8327 5.55052 26.2993 5.78385C26.766 6.01719 27.2327 6.23385 27.6993 6.43385C28.166 6.63385 28.7105 6.73385 29.3327 6.73385V9.33385C28.4882 9.33385 27.7827 9.23385 27.216 9.03385C26.6493 8.83385 26.1327 8.61719 25.666 8.38385C25.1993 8.15052 24.7438 7.93941 24.2993 7.75052C23.8549 7.56163 23.3105 7.46719 22.666 7.46719C22.0438 7.46719 21.5049 7.56163 21.0493 7.75052C20.5938 7.93941 20.1382 8.15052 19.6827 8.38385C19.2271 8.61719 18.716 8.83385 18.1493 9.03385C17.5827 9.23385 16.866 9.33385 15.9993 9.33385C15.1327 9.33385 14.416 9.23385 13.8493 9.03385C13.2827 8.83385 12.7716 8.61719 12.316 8.38385C11.8605 8.15052 11.4105 7.93941 10.966 7.75052C10.5216 7.56163 9.97713 7.46719 9.33268 7.46719C8.71046 7.46719 8.17157 7.56163 7.71602 7.75052C7.26046 7.93941 6.79935 8.15052 6.33268 8.38385C5.86602 8.61719 5.34935 8.83385 4.78268 9.03385C4.21602 9.23385 3.51046 9.33385 2.66602 9.33385Z"
      fill="currentColor" />
  </g>
</svg>