<svg width="32" height="32" viewBox="0 0 32 32" fill="none"
  xmlns="http://www.w3.org/2000/svg">
  <rect width="32" height="32" rx="8" fill="#2F3749"/>
  <path d="M17.8559 15.312L19.0719 13.256L22.3359 18.344V12.6C22.3313 12.5187 22.308 12.4396 22.2677 12.3688C22.2275 12.298 22.1714 12.2375 22.1039 12.192L16.2159 8.8C16.1467 8.76422 16.0699 8.74555 15.9919 8.74555C15.914 8.74555 15.8372 8.76422 15.7679 8.8H15.7119L9.98392 12.168L9.89592 12.216C9.79211 12.2944 9.72089 12.4083 9.69592 12.536C9.69592 12.536 9.69592 12.576 9.69592 12.6V18.08L12.7439 13.368C12.9815 13.0774 13.2887 12.8516 13.637 12.7118C13.9853 12.5719 14.3634 12.5224 14.7359 12.568H15.6399L10.2639 21.168L10.8959 21.528L16.3119 12.584H18.7119L13.3039 21.744L15.5599 23.04L15.8239 23.2C15.9426 23.2441 16.0732 23.2441 16.1919 23.2L22.1519 19.744L21.0159 20.4L17.8559 15.312ZM18.3199 21.968L16.0479 18.4L17.4319 16.04L20.4239 20.752L18.3199 21.968Z" fill="#2F3749"/>
  <path d="M16.048 18.4L18.32 21.968L20.424 20.752L17.432 16.04L16.048 18.4Z" fill="#4F9EE9"/>
  <path d="M22.336 19.32V18.344L19.072 13.256L17.856 15.312L21.016 20.408L22.152 19.752C22.2076 19.7078 22.2529 19.6519 22.2846 19.5883C22.3164 19.5248 22.3339 19.455 22.336 19.384V19.32Z" fill="#4F9EE9"/>
  <path d="M8.64795 20.24L10.2479 21.168L15.5999 12.576H14.6959C14.3234 12.5304 13.9453 12.5799 13.597 12.7198C13.2487 12.8596 12.9415 13.0854 12.7039 13.376L9.67195 18.08L8.64795 19.68V20.264V20.24Z" fill="white"/>
  <path d="M18.712 12.576L16.312 12.584L10.896 21.528L12.784 22.624L13.304 21.744L18.712 12.576Z" fill="white"/>
  <path d="M23.352 12.56C23.3386 12.3133 23.2663 12.0733 23.141 11.8603C23.0157 11.6473 22.8412 11.4675 22.632 11.336L16.672 7.904C16.4581 7.80288 16.2245 7.75043 15.9879 7.75043C15.7514 7.75043 15.5178 7.80288 15.3039 7.904L9.51195 11.264C9.43285 11.3016 9.3578 11.3472 9.28795 11.4C9.10022 11.5321 8.94502 11.7052 8.83414 11.9062C8.72325 12.1072 8.65958 12.3308 8.64795 12.56V19.656L9.67195 18.056V12.608C9.67195 12.608 9.67195 12.608 9.67195 12.544C9.69692 12.4163 9.76814 12.3024 9.87195 12.224L15.7679 8.8C15.8372 8.76423 15.914 8.74556 15.9919 8.74556C16.0699 8.74556 16.1467 8.76423 16.216 8.8L22.096 12.176C22.1635 12.2215 22.2195 12.282 22.2598 12.3528C22.3 12.4236 22.3234 12.5027 22.3279 12.584V19.368C22.3259 19.4382 22.3092 19.5072 22.2788 19.5706C22.2485 19.634 22.2053 19.6903 22.1519 19.736L21.016 20.392L20.424 20.736L18.3199 21.968L16.1919 23.2C16.0733 23.2441 15.9426 23.2441 15.8239 23.2L13.3039 21.744L12.7999 22.624L15.0719 23.928L15.2639 24.04L15.4319 24.128C15.8014 24.2775 16.2145 24.2775 16.5839 24.128L22.7839 20.544C22.9581 20.4068 23.1005 20.2335 23.2013 20.036C23.3021 19.8385 23.3589 19.6215 23.3679 19.4L23.352 12.56Z" fill="#9DBCD8"/>
</svg>
