<svg width="32" height="32" viewBox="0 0 32 32" fill="none" xmlns="http://www.w3.org/2000/svg">
<path d="M0 8C0 3.58172 3.58172 0 8 0H24C28.4183 0 32 3.58172 32 8V24C32 28.4183 28.4183 32 24 32H8C3.58172 32 0 28.4183 0 24V8Z" fill="#D74F49"/>
<path d="M12.5136 22H10.1596C9.66495 22 9.42061 22 9.27161 21.9002C9.11072 21.7912 9.01237 21.6102 9.00046 21.4107C8.99152 21.2268 9.11369 21.0023 9.35803 20.5534L15.1704 9.83471C15.4177 9.37956 15.5429 9.15197 15.7008 9.06781C15.8707 8.9774 16.0733 8.9774 16.2431 9.06781C16.4011 9.15197 16.5262 9.37956 16.7735 9.83471L17.9685 12.017C18.2396 12.5127 18.3767 12.7621 18.4363 13.0239C18.5018 13.3076 18.5018 13.6069 18.4363 13.8906C18.3767 14.1525 18.2426 14.4019 17.9714 14.8976L14.9183 20.5441C14.6442 21.046 14.5071 21.2985 14.3164 21.4886C14.1108 21.6944 13.8635 21.844 13.5923 21.9282C13.345 22 13.0679 22 12.5136 22Z" fill="white"/>
<path d="M21.8314 22H18.4583C17.9607 22 17.7104 22 17.5644 21.9004C17.4034 21.7912 17.3051 21.6071 17.2932 21.4077C17.2843 21.2238 17.4094 20.9993 17.6597 20.5473L19.3432 17.5233C19.5906 17.0775 19.7158 16.8561 19.8707 16.7719C20.0406 16.6815 20.2402 16.6815 20.4101 16.7719C20.5681 16.8561 20.6901 17.0775 20.9405 17.5202L22.6301 20.5442C22.8802 20.9962 23.0085 21.2206 22.9996 21.4046C22.9906 21.6041 22.8892 21.7881 22.7284 21.8971C22.5794 22 22.329 22 21.8314 22Z" fill="white"/>
</svg>
