<svg width="32" height="32" viewBox="0 0 32 32" fill="none" xmlns="http://www.w3.org/2000/svg">
<path fill-rule="evenodd" clip-rule="evenodd" d="M8 0C3.58172 0 0 3.58172 0 8V24C0 28.4183 3.58172 32 8 32H24C28.4183 32 32 28.4183 32 24V8C32 3.58172 28.4183 0 24 0H8ZM12.8895 18.5706C12.9451 18.9168 13.224 19.1672 13.5542 19.1672C13.593 19.1672 13.6308 19.1628 13.6674 19.1561C13.8446 19.1238 13.9998 19.0203 14.1046 18.8644C14.2095 18.7086 14.2503 18.5194 14.2199 18.3301L14.1746 18.0471C14.3113 18.4365 14.6823 18.7157 15.1184 18.7157C15.6707 18.7157 16.1184 18.268 16.1184 17.7157C16.1184 17.1634 15.6707 16.7157 15.1184 16.7157C14.5724 16.7157 14.1285 17.1534 14.1186 17.6971L12.3412 6.59668C12.2783 6.20709 11.9292 5.94439 11.5623 6.01006C11.3851 6.04234 11.23 6.14586 11.1251 6.3017C11.0203 6.45754 10.9794 6.64677 11.0098 6.836L12.8895 18.5706ZM14.1186 17.6971C14.1185 17.7033 14.1184 17.7095 14.1184 17.7157C14.1184 17.8318 14.1382 17.9434 14.1746 18.0471L14.1186 17.6971ZM16.7046 13.7541C15.63 13.7541 14.6309 14.0958 13.7954 14.6824L14.0229 16.1028C14.741 15.4382 15.6793 15.0342 16.7046 15.0342C18.9597 15.0342 20.7944 16.9821 20.7944 19.3765C20.7944 21.7708 18.9597 23.7188 16.7046 23.7188C14.4495 23.7188 12.6149 21.7708 12.6149 19.3765C12.6149 19.057 12.6484 18.7465 12.7103 18.447L12.3475 16.1863C11.7562 17.0935 11.4092 18.1932 11.4092 19.3776C11.4092 22.4777 13.7849 25 16.7046 25C19.6244 25 22 22.4777 22 19.3776C22 16.2775 19.6254 13.7541 16.7046 13.7541ZM17.4153 21.8933C17.4153 22.4455 16.9675 22.8933 16.4153 22.8933C15.863 22.8933 15.4153 22.4455 15.4153 21.8933C15.4153 21.341 15.863 20.8933 16.4153 20.8933C16.9675 20.8933 17.4153 21.341 17.4153 21.8933ZM18.6682 22.0016C19.2205 22.0016 19.6682 21.5539 19.6682 21.0016C19.6682 20.4494 19.2205 20.0016 18.6682 20.0016C18.116 20.0016 17.6682 20.4494 17.6682 21.0016C17.6682 21.5539 18.116 22.0016 18.6682 22.0016ZM17.8965 19.3598C17.8965 19.9121 17.4488 20.3598 16.8965 20.3598C16.3442 20.3598 15.8965 19.9121 15.8965 19.3598C15.8965 18.8075 16.3442 18.3598 16.8965 18.3598C17.4488 18.3598 17.8965 18.8075 17.8965 19.3598ZM14.6582 21.1423C15.2105 21.1423 15.6582 20.6946 15.6582 20.1423C15.6582 19.59 15.2105 19.1423 14.6582 19.1423C14.1059 19.1423 13.6582 19.59 13.6582 20.1423C13.6582 20.6946 14.1059 21.1423 14.6582 21.1423ZM20.1295 18.575C20.1295 19.1273 19.6818 19.575 19.1295 19.575C18.5772 19.575 18.1295 19.1273 18.1295 18.575C18.1295 18.0227 18.5772 17.575 19.1295 17.575C19.6818 17.575 20.1295 18.0227 20.1295 18.575ZM17.3787 17.8263C17.931 17.8263 18.3787 17.3786 18.3787 16.8263C18.3787 16.274 17.931 15.8263 17.3787 15.8263C16.8264 15.8263 16.3787 16.274 16.3787 16.8263C16.3787 17.3786 16.8264 17.8263 17.3787 17.8263Z" fill="black"/>
<path d="M13.5542 19.1672C13.224 19.1672 12.9451 18.9168 12.8895 18.5706L11.0098 6.836C10.9794 6.64677 11.0203 6.45754 11.1251 6.3017C11.23 6.14586 11.3851 6.04234 11.5623 6.01006C11.9292 5.94439 12.2783 6.20709 12.3412 6.59668L14.2199 18.3301C14.2503 18.5194 14.2095 18.7086 14.1046 18.8644C13.9998 19.0203 13.8446 19.1238 13.6674 19.1561C13.6308 19.1628 13.593 19.1672 13.5542 19.1672Z" fill="#CCFF00"/>
<path d="M16.7046 13.7541C15.63 13.7541 14.6309 14.0958 13.7953 14.6824L14.0228 16.1028C14.7409 15.4383 15.6792 15.0342 16.7046 15.0342C18.9596 15.0342 20.7943 16.9822 20.7943 19.3765C20.7943 21.7708 18.9596 23.7188 16.7046 23.7188C14.4495 23.7188 12.6148 21.7708 12.6148 19.3765C12.6148 19.057 12.6484 18.7465 12.7102 18.447L12.3475 16.1863C11.7562 17.0935 11.4092 18.1932 11.4092 19.3776C11.4092 22.4777 13.7848 25 16.7046 25C19.6243 25 21.9999 22.4777 21.9999 19.3776C21.9999 16.2775 19.6254 13.7541 16.7046 13.7541Z" fill="#CCFF00"/>
<path d="M16.4153 22.8933C16.9676 22.8933 17.4153 22.4455 17.4153 21.8933C17.4153 21.341 16.9676 20.8933 16.4153 20.8933C15.863 20.8933 15.4153 21.341 15.4153 21.8933C15.4153 22.4455 15.863 22.8933 16.4153 22.8933Z" fill="#1CD8D2"/>
<path d="M18.6682 22.0016C19.2205 22.0016 19.6682 21.5539 19.6682 21.0016C19.6682 20.4494 19.2205 20.0016 18.6682 20.0016C18.1159 20.0016 17.6682 20.4494 17.6682 21.0016C17.6682 21.5539 18.1159 22.0016 18.6682 22.0016Z" fill="#1CD8D2"/>
<path d="M16.8965 20.3598C17.4488 20.3598 17.8965 19.9121 17.8965 19.3598C17.8965 18.8075 17.4488 18.3598 16.8965 18.3598C16.3442 18.3598 15.8965 18.8075 15.8965 19.3598C15.8965 19.9121 16.3442 20.3598 16.8965 20.3598Z" fill="#1CD8D2"/>
<path d="M14.6582 21.1423C15.2105 21.1423 15.6582 20.6946 15.6582 20.1423C15.6582 19.59 15.2105 19.1423 14.6582 19.1423C14.1059 19.1423 13.6582 19.59 13.6582 20.1423C13.6582 20.6946 14.1059 21.1423 14.6582 21.1423Z" fill="#1CD8D2"/>
<path d="M19.1295 19.575C19.6818 19.575 20.1295 19.1273 20.1295 18.575C20.1295 18.0227 19.6818 17.575 19.1295 17.575C18.5772 17.575 18.1295 18.0227 18.1295 18.575C18.1295 19.1273 18.5772 19.575 19.1295 19.575Z" fill="#1CD8D2"/>
<path d="M17.3788 17.8263C17.9311 17.8263 18.3788 17.3786 18.3788 16.8263C18.3788 16.274 17.9311 15.8263 17.3788 15.8263C16.8265 15.8263 16.3788 16.274 16.3788 16.8263C16.3788 17.3786 16.8265 17.8263 17.3788 17.8263Z" fill="#1CD8D2"/>
<path d="M15.1184 18.7157C15.6707 18.7157 16.1184 18.268 16.1184 17.7157C16.1184 17.1634 15.6707 16.7157 15.1184 16.7157C14.5661 16.7157 14.1184 17.1634 14.1184 17.7157C14.1184 18.268 14.5661 18.7157 15.1184 18.7157Z" fill="#1CD8D2"/>
</svg>
