<svg width="24" height="25" viewBox="0 0 24 25" fill="none" xmlns="http://www.w3.org/2000/svg">
<path d="M10.2675 16.7858V15.0715C10.2675 14.5915 10.6618 14.2143 11.1247 14.2143H12.839C13.319 14.2143 13.6961 14.5915 13.6961 15.0715V20.2143C13.6961 20.6943 13.319 21.0715 12.839 21.0715H4.26755C3.78755 21.0715 3.4104 20.6943 3.4104 20.2143V8.21433C3.4104 7.73433 3.03326 7.35719 2.55326 7.35719H2.05612C1.30183 7.35719 0.907546 6.43148 1.45612 5.90005L4.52469 2.81433C4.60378 2.73295 4.69838 2.66825 4.80291 2.62407C4.90745 2.57989 5.01978 2.55713 5.13326 2.55713C5.24674 2.55713 5.35908 2.57989 5.46361 2.62407C5.56814 2.66825 5.66275 2.73295 5.74183 2.81433L8.79326 5.90005C9.34183 6.43148 8.96469 7.35719 8.19326 7.35719H7.69612C7.21612 7.35719 6.83897 7.73433 6.83897 8.21433V16.7858C6.83897 17.2658 7.21612 17.6429 7.69612 17.6429H9.4104C9.8904 17.6429 10.2675 17.2658 10.2675 16.7858Z" fill="#615CCD"/>
<path d="M20.5533 16.7858C20.5533 17.2658 20.9304 17.6429 21.4104 17.6429H21.9247C22.679 17.6429 23.0561 18.5686 22.5247 19.1001L19.4561 22.1686C19.1133 22.5115 18.5818 22.5115 18.239 22.1686L15.1704 19.1001C14.6218 18.5686 14.999 17.6429 15.7704 17.6429H16.2676C16.7476 17.6429 17.1247 17.2658 17.1247 16.7858V8.21436C17.1247 7.73436 16.7476 7.35721 16.2676 7.35721H14.5533C14.0733 7.35721 13.6961 7.73436 13.6961 8.21436V9.92864C13.6961 10.4086 13.319 10.7858 12.839 10.7858H11.1247C10.6447 10.7858 10.2676 10.4086 10.2676 9.92864V4.78578C10.2676 4.30578 10.6447 3.92864 11.1247 3.92864H19.6961C20.1761 3.92864 20.5533 4.30578 20.5533 4.78578V16.7858Z" fill="#615CCD"/>
</svg>
