<svg width="24" height="24" viewBox="0 0 24 24" fill="none" xmlns="http://www.w3.org/2000/svg">
<path d="M14.0802 2.71222C14.0802 2.71222 12.9826 1.61464 11.6884 1.51537C10.3941 1.4161 9.89405 1.81505 9.99332 2.214C10.0926 2.61295 10.5421 2.66165 11.1396 2.2627C11.7371 1.86375 13.0332 1.96489 14.0802 2.71222Z" fill="#0999FF"/>
<path d="M13.5408 2.87517C13.5408 2.87517 12.668 2.33013 11.8176 2.45936C10.9673 2.5886 10.6938 2.92012 10.8268 3.16174C10.9598 3.40336 11.2482 3.36964 11.576 3.02314C11.9038 2.67663 12.7523 2.54927 13.5408 2.87517Z" fill="#0999FF"/>
<path d="M12.2597 2.99879C12.6341 2.88498 13.0346 2.89022 13.4059 3.01377C12.8628 2.91825 12.3439 3.13364 12.1866 3.39399C12.0293 3.65434 11.8476 3.71615 11.7352 3.58129C11.6228 3.44644 11.7408 3.1992 12.2597 2.99879Z" fill="#0999FF"/>
<path fill-rule="evenodd" clip-rule="evenodd" d="M19.7592 6.10048C17.8075 5.65096 17.1089 5.82703 16.1218 6.25033C15.425 6.5575 15.6236 7.84238 16.0225 8.93996C16.4215 10.0375 17.2194 13.8248 15.425 15.8176C13.9914 17.4099 12.8137 17.6032 10.5679 17.972C10.0027 18.0648 9.36998 18.1687 8.6485 18.3087C5.05982 19.0055 4.86128 21.697 4.86128 21.697C3.17126 12.5314 7.83234 10.1212 10.1284 8.93399C10.4049 8.79097 10.6472 8.6657 10.8399 8.5485C11.9352 7.87375 12.0384 6.61486 12.0958 5.91511C12.1082 5.7641 12.1184 5.63913 12.136 5.55169C12.1467 5.49883 12.1573 5.4355 12.1694 5.36375C12.2698 4.76704 12.4681 3.58853 13.5783 3.01003C16.9703 1.41797 19.7592 6.10048 19.7592 6.10048ZM10.8009 15.8525C11.5854 15.8693 12.9238 15.898 13.6045 14.5964C14.3724 13.1261 13.5221 11.8075 12.3084 11.3917C11.0946 10.9759 9.25161 11.5509 8.04352 13.2366C6.83543 14.9223 6.68934 16.9826 6.68934 16.9826C6.7545 16.9197 6.81451 16.8522 6.87696 16.782C7.13404 16.4929 7.4325 16.1574 8.302 15.8982C8.96656 15.7001 9.67011 15.7718 10.1431 15.82C10.3006 15.836 10.4326 15.8495 10.529 15.8495C10.6088 15.8484 10.7003 15.8504 10.8009 15.8525ZM18.5642 5.503C18.5642 5.503 16.62 5.24639 15.8727 5.9956C15.8727 5.9956 16.472 4.30989 18.5642 5.503Z" fill="#0999FF"/>
</svg>
