<svg width="24" height="25" viewBox="0 0 24 25" fill="none" xmlns="http://www.w3.org/2000/svg">
<g clip-path="url(#clip0_1106_26400)">
<path d="M24 4.5C24 2.29086 22.2091 0.5 20 0.5H4C1.79086 0.5 0 2.29086 0 4.5V20.5C0 22.7091 1.79086 24.5 4 24.5H20C22.2091 24.5 24 22.7091 24 20.5V4.5Z" fill="#FEA700"/>
<path d="M3.26157 14.6479C4.44801 14.6479 5.40958 13.6862 5.40958 12.4999C5.40958 11.3137 4.44779 10.3519 3.26157 10.3519C2.07824 10.3519 1.1189 11.3088 1.11401 12.491V12.509C1.1189 13.691 2.07824 14.6479 3.26157 14.6479Z" fill="#ED1E7F"/>
<path d="M20.7367 14.6477C21.923 14.6477 22.8847 13.686 22.8847 12.4997C22.8847 11.3134 21.923 10.3517 20.7367 10.3517C19.5504 10.3517 18.5887 11.3134 18.5887 12.4997C18.5887 13.686 19.5504 14.6477 20.7367 14.6477Z" fill="#4CB85D"/>
<path d="M9.59911 15.9941C10.2391 15.9941 10.8329 15.7967 11.3251 15.4612V15.9438H12.672V12.9378C12.672 12.9314 12.6726 12.9252 12.6726 12.9187V12.0794C12.6726 11.1272 13.4471 10.3527 14.3993 10.3527C15.3535 10.3527 16.126 11.1272 16.126 12.0794V15.9438H17.4747V12.0794C17.4747 10.3825 16.0982 9.00586 14.3993 9.00586C13.7591 9.00586 13.1646 9.20338 12.6722 9.53919V9.05539H11.3253V12.9307C11.3189 13.8792 10.5475 14.6454 9.5993 14.6454C8.6453 14.6454 7.87264 13.873 7.87264 12.9187V9.05607H6.52399V12.9187C6.52375 14.6176 7.90019 15.9941 9.59911 15.9941Z" fill="black"/>
</g>
<defs>
<clipPath id="clip0_1106_26400">
<rect width="24" height="24" fill="white" transform="translate(0 0.5)"/>
</clipPath>
</defs>
</svg>
