<svg width="201" height="201" viewBox="0 0 201 201" fill="none" xmlns="http://www.w3.org/2000/svg">
<g clip-path="url(#clip0_708_158666)">
<path d="M199.385 53.7164L98.8115 9.53663C98.5264 9.41217 98.2147 9.36059 97.9046 9.38654C97.5946 9.41249 97.2958 9.51516 97.0353 9.68529C96.7748 9.85542 96.5607 10.0877 96.4123 10.3611C96.2639 10.6346 96.1858 10.9407 96.1851 11.2518V83.5448C96.1854 83.9084 96.2912 84.2641 96.4899 84.5686C96.6885 84.8731 96.9714 85.1133 97.304 85.26L197.905 129.44C198.19 129.564 198.501 129.616 198.811 129.59C199.121 129.564 199.42 129.461 199.681 129.291C199.941 129.121 200.155 128.889 200.304 128.615C200.452 128.342 200.53 128.036 200.531 127.725V55.4316C200.529 55.0649 200.42 54.7067 200.216 54.4017C200.012 54.0967 199.723 53.8584 199.385 53.7164Z" fill="white" stroke="black" stroke-width="1.005" stroke-linecap="round" stroke-linejoin="round"/>
<path d="M94.2756 10.7091L97.304 9.53662" stroke="black" stroke-width="1.005" stroke-linecap="round" stroke-linejoin="round"/>
<path d="M197.476 55.3848L200.156 54.3463" stroke="black" stroke-width="1.005" stroke-linecap="round" stroke-linejoin="round"/>
<path d="M196.263 130.679L199.292 129.507" stroke="black" stroke-width="1.005" stroke-linecap="round" stroke-linejoin="round"/>
<path d="M196.357 54.9023L95.7563 10.6823C95.4711 10.5579 95.1595 10.5063 94.8494 10.5322C94.5393 10.5582 94.2406 10.6608 93.9801 10.831C93.7196 11.0011 93.5055 11.2334 93.3571 11.5068C93.2086 11.7803 93.1306 12.0864 93.1299 12.3975V84.724C93.1307 85.0883 93.2376 85.4445 93.4375 85.7491C93.6373 86.0537 93.9216 86.2935 94.2555 86.4392L194.849 130.612C195.134 130.737 195.446 130.788 195.756 130.762C196.066 130.736 196.365 130.634 196.625 130.464C196.886 130.294 197.1 130.061 197.248 129.788C197.397 129.514 197.475 129.208 197.476 128.897V56.6041C197.472 56.243 197.365 55.8906 197.166 55.5889C196.968 55.2871 196.687 55.0488 196.357 54.9023Z" fill="white" stroke="black" stroke-width="1.005" stroke-linecap="round" stroke-linejoin="round"/>
<ellipse cx="99.2506" cy="19.7075" rx="1.34" ry="1.005" transform="rotate(68.2044 99.2506 19.7075)" fill="#E7704D"/>
<ellipse cx="101.787" cy="21.0474" rx="1.34" ry="1.005" transform="rotate(68.2044 101.787 21.0474)" fill="#F0A644"/>
<ellipse cx="104.467" cy="22.3874" rx="1.34" ry="1.005" transform="rotate(68.2044 104.467 22.3874)" fill="#7AD055"/>
<path d="M196.357 66.2924L95.7563 22.0724C95.4711 21.9479 95.1595 21.8964 94.8494 21.9223C94.5393 21.9483 94.2406 22.0509 93.9801 22.2211C93.7196 22.3912 93.5055 22.6234 93.3571 22.8969C93.2086 23.1704 93.1306 23.4764 93.1299 23.7876V83.3841C93.1307 83.7484 93.2376 84.1046 93.4375 84.4092C93.6373 84.7138 93.9216 84.9536 94.2555 85.0993L194.849 129.272C195.134 129.397 195.446 129.448 195.756 129.422C196.066 129.397 196.365 129.294 196.625 129.124C196.886 128.954 197.1 128.721 197.248 128.448C197.397 128.174 197.475 127.868 197.476 127.557V67.9942C197.472 67.6331 197.365 67.2807 197.166 66.9789C196.968 66.6772 196.687 66.4389 196.357 66.2924Z" fill="#FFE804" stroke="black" stroke-width="1.005" stroke-linecap="round" stroke-linejoin="round"/>
<path d="M130.025 45.7001L106.924 35.546C106.859 35.5175 106.787 35.5056 106.716 35.5116C106.645 35.5175 106.576 35.5411 106.517 35.5802C106.457 35.6192 106.408 35.6726 106.374 35.7354C106.339 35.7982 106.322 35.8684 106.321 35.9399V40.7877C106.322 40.8714 106.346 40.9532 106.392 41.0231C106.438 41.0931 106.503 41.1481 106.58 41.1816L129.679 51.3249C129.744 51.3535 129.816 51.3653 129.887 51.3594C129.958 51.3534 130.027 51.3298 130.087 51.2908C130.147 51.2517 130.196 51.1984 130.23 51.1356C130.264 51.0728 130.282 51.0025 130.282 50.931V46.0909C130.281 46.008 130.256 45.9271 130.211 45.8578C130.165 45.7885 130.101 45.7338 130.025 45.7001Z" fill="#FEF8C1" stroke="black" stroke-width="0.67" stroke-linecap="round" stroke-linejoin="round"/>
<path d="M179.814 66.4701L156.713 56.3161C156.648 56.2875 156.576 56.2756 156.505 56.2816C156.434 56.2876 156.365 56.3111 156.305 56.3502C156.245 56.3893 156.196 56.4426 156.162 56.5054C156.128 56.5682 156.11 56.6385 156.11 56.7099V61.5577C156.11 61.6414 156.135 61.7232 156.181 61.7931C156.227 61.8631 156.292 61.9181 156.368 61.9516L179.467 72.0949C179.533 72.1235 179.605 72.1353 179.676 72.1294C179.747 72.1234 179.816 72.0998 179.875 72.0608C179.935 72.0217 179.984 71.9684 180.018 71.9056C180.052 71.8428 180.07 71.7725 180.071 71.7011V66.8609C180.07 66.778 180.045 66.6971 180 66.6278C179.954 66.5585 179.889 66.5038 179.814 66.4701Z" fill="#FEF8C1" stroke="black" stroke-width="0.67" stroke-linecap="round" stroke-linejoin="round"/>
<path d="M155.987 67.1027L107.55 45.8119C107.413 45.7519 107.263 45.7271 107.114 45.7396C106.964 45.7521 106.821 45.8015 106.695 45.8834C106.57 45.9653 106.467 46.0772 106.395 46.2088C106.324 46.3405 106.286 46.4879 106.286 46.6377V52.2006C106.286 52.3761 106.338 52.5476 106.434 52.6942C106.53 52.8409 106.667 52.9563 106.828 53.0265L155.261 74.2947C155.398 74.3547 155.549 74.3795 155.698 74.367C155.847 74.3545 155.991 74.3051 156.116 74.2232C156.242 74.1412 156.345 74.0294 156.416 73.8978C156.488 73.7661 156.525 73.6187 156.526 73.4689V67.9221C156.524 67.7482 156.472 67.5785 156.377 67.4333C156.281 67.288 156.146 67.1732 155.987 67.1027Z" fill="#FEF8C1" stroke="black" stroke-width="0.67" stroke-linecap="round" stroke-linejoin="round"/>
<path d="M156.231 78.3163L107.795 57.0254C107.657 56.9655 107.507 56.9407 107.358 56.9532C107.209 56.9657 107.065 57.0151 106.939 57.097C106.814 57.1789 106.711 57.2907 106.639 57.4224C106.568 57.5541 106.53 57.7014 106.53 57.8512V80.1642C106.53 80.3396 106.582 80.5111 106.678 80.6578C106.774 80.8044 106.911 80.9199 107.072 80.99L155.505 102.258C155.643 102.318 155.793 102.343 155.942 102.331C156.091 102.318 156.235 102.269 156.361 102.187C156.486 102.105 156.589 101.993 156.661 101.861C156.732 101.73 156.77 101.582 156.77 101.432V79.1356C156.768 78.9618 156.716 78.7921 156.621 78.6468C156.525 78.5015 156.39 78.3868 156.231 78.3163Z" fill="#FEF8C0" stroke="black" stroke-width="0.67" stroke-linecap="round" stroke-linejoin="round"/>
<path d="M189.623 94.3189L164.145 83.1197C164.073 83.0882 163.994 83.0752 163.915 83.0817C163.837 83.0883 163.761 83.1143 163.695 83.1574C163.629 83.2005 163.575 83.2593 163.538 83.3286C163.5 83.3978 163.48 83.4753 163.48 83.5541V106.929C163.48 107.021 163.507 107.111 163.558 107.188C163.608 107.266 163.68 107.326 163.765 107.363L189.241 118.55C189.314 118.582 189.393 118.595 189.471 118.588C189.55 118.582 189.625 118.556 189.691 118.513C189.757 118.47 189.811 118.411 189.849 118.342C189.887 118.272 189.906 118.195 189.907 118.116V94.7499C189.906 94.6584 189.878 94.5692 189.828 94.4927C189.778 94.4163 189.707 94.356 189.623 94.3189Z" fill="#FEF8C1" stroke="black" stroke-width="0.67" stroke-linecap="round" stroke-linejoin="round"/>
<path d="M96.4799 14.7024L194.126 57.5824V126.639L96.4799 83.7593V14.7024ZM95.0059 10.5685C94.5095 10.5685 94.0333 10.7652 93.6817 11.1156C93.3301 11.4659 93.1317 11.9414 93.1299 12.4378V84.7241C93.1307 85.0884 93.2376 85.4446 93.4375 85.7492C93.6373 86.0537 93.9216 86.2935 94.2555 86.4393L194.849 130.612C195.134 130.739 195.446 130.792 195.757 130.766C196.068 130.741 196.367 130.639 196.629 130.468C196.89 130.298 197.104 130.065 197.252 129.79C197.4 129.516 197.477 129.209 197.476 128.897V56.6042C197.472 56.2431 197.365 55.8906 197.166 55.5889C196.968 55.2872 196.687 55.0489 196.357 54.9024L95.7563 10.6824C95.5194 10.5801 95.2639 10.5277 95.0059 10.5283V10.5685Z" fill="black"/>
<path d="M170.18 64.32L164.378 64.3548L167.309 69.3623L170.18 64.32ZM142.964 80.8337L166.531 67.0384L166.023 66.171L142.456 79.9664L142.964 80.8337Z" fill="#1A1A1B"/>
<path d="M173.53 96.48L167.728 96.4527L170.605 101.491L173.53 96.48ZM154.349 108.013L169.852 99.1592L169.354 98.2865L153.851 107.14L154.349 108.013Z" fill="#1A1A1B"/>
<path d="M115.702 65.5884L109.905 65.3423L112.59 70.4858L115.702 65.5884ZM88.0025 80.617L111.925 68.127L111.46 67.2361L87.5374 79.7261L88.0025 80.617Z" fill="#1A1A1B"/>
<path d="M125.685 107.316L25.1116 63.1367C24.8264 63.0122 24.5148 62.9606 24.2047 62.9866C23.8946 63.0125 23.5959 63.1152 23.3354 63.2853C23.0749 63.4555 22.8608 63.6877 22.7124 63.9612C22.5639 64.2346 22.4859 64.5407 22.4852 64.8519V137.145C22.4854 137.508 22.5913 137.864 22.7899 138.169C22.9886 138.473 23.2714 138.713 23.6041 138.86L124.205 183.04C124.49 183.164 124.801 183.216 125.111 183.19C125.422 183.164 125.72 183.061 125.981 182.891C126.241 182.721 126.455 182.489 126.604 182.215C126.752 181.942 126.83 181.636 126.831 181.325V109.032C126.829 108.665 126.72 108.307 126.516 108.002C126.312 107.697 126.023 107.458 125.685 107.316Z" fill="white" stroke="black" stroke-width="1.005" stroke-linecap="round" stroke-linejoin="round"/>
<path d="M20.5757 64.3092L23.6041 63.1367" stroke="black" stroke-width="1.005" stroke-linecap="round" stroke-linejoin="round"/>
<path d="M123.776 108.985L126.456 107.946" stroke="black" stroke-width="1.005" stroke-linecap="round" stroke-linejoin="round"/>
<path d="M122.563 184.279L125.591 183.107" stroke="black" stroke-width="1.005" stroke-linecap="round" stroke-linejoin="round"/>
<path d="M122.657 108.502L22.0564 64.2824C21.7712 64.1579 21.4596 64.1063 21.1495 64.1323C20.8395 64.1582 20.5407 64.2609 20.2802 64.431C20.0197 64.6011 19.8056 64.8334 19.6572 65.1069C19.5088 65.3803 19.4307 65.6864 19.43 65.9976V138.324C19.4308 138.688 19.5377 139.045 19.7376 139.349C19.9374 139.654 20.2217 139.894 20.5556 140.039L121.149 184.212C121.435 184.337 121.746 184.388 122.056 184.362C122.366 184.336 122.665 184.234 122.926 184.064C123.186 183.894 123.4 183.661 123.549 183.388C123.697 183.114 123.775 182.808 123.776 182.497V110.204C123.772 109.843 123.665 109.491 123.466 109.189C123.268 108.887 122.987 108.649 122.657 108.502Z" fill="white" stroke="black" stroke-width="1.005" stroke-linecap="round" stroke-linejoin="round"/>
<path fill-rule="evenodd" clip-rule="evenodd" d="M21.44 67.67H22.11V71.2528L25.46 72.7268V68.34H26.13V73.0216L29.48 74.4956V69.68H30.15V74.7904L33.5 76.2644V71.69H34.17V76.5592L37.52 78.0332V73.7H38.19V78.328L41.54 79.802V75.04H42.21V80.0968L45.56 81.5708V77.05H46.23V81.8656L49.58 83.3396V79.06H50.25V83.6344L53.6 85.1084V81.07H54.27V85.4032L57.62 86.8772V83.08H58.29V87.172L61.64 88.646V84.42H62.31V88.9408L65.66 90.4148V85.76H66.33V90.7096L69.68 92.1836V87.1H70.35V92.4784L73.7 93.9524V89.11H74.37V94.2472L77.72 95.7212V90.45H78.39V96.016L81.74 97.49V92.46H82.41V97.7848L85.76 99.2588V94.47H86.43V99.5536L89.78 101.028V96.48H90.45V101.322L93.8 102.796V98.49H94.47V103.091L97.82 104.565V99.83H98.49V104.86L101.84 106.334V101.84H102.51V106.629L105.86 108.103V103.85H106.53V108.398L109.88 109.872V105.19H110.55V110.166L113.9 111.64V107.2H114.57V111.935L117.92 113.409V108.54H118.59V113.704L122.21 115.297L121.94 115.91L118.59 114.436V117.724L122.21 119.317L121.94 119.93L118.59 118.456V121.744L122.21 123.337L121.94 123.95L118.59 122.476V125.764L122.21 127.357L121.94 127.97L118.59 126.496V129.784L122.21 131.377L121.94 131.99L118.59 130.516V133.804L122.21 135.397L121.94 136.01L118.59 134.536V137.824L122.21 139.417L121.94 140.03L118.59 138.556V141.844L122.21 143.437L121.94 144.05L118.59 142.576V145.864L122.21 147.457L121.94 148.07L118.59 146.596V149.884L122.21 151.477L121.94 152.09L118.59 150.616V153.904L122.21 155.497L121.94 156.11L118.59 154.636V157.924L122.21 159.517L121.94 160.13L118.59 158.656V161.944L122.21 163.537L121.94 164.15L118.59 162.676V165.964L122.21 167.557L121.94 168.17L118.59 166.696V169.984L122.21 171.577L121.94 172.19L118.59 170.716V174.004L122.21 175.597L121.94 176.21L118.59 174.736V178.024L122.21 179.617L121.94 180.23L118.59 178.756V180.23H117.92V178.461L114.57 176.987V178.22H113.9V176.692L110.55 175.218V176.88H109.88V174.924L106.53 173.45V175.54H105.86V173.155L102.51 171.681V173.53H101.84V171.386L98.49 169.912V171.52H97.82V169.617L94.47 168.143V169.51H93.8V167.848L90.45 166.374V167.5H89.78V166.08L86.43 164.606V166.16H85.76V164.311L82.41 162.837V164.15H81.74V162.542L78.39 161.068V162.81H77.72V160.773L74.37 159.299V160.8H73.7V159.004L70.35 157.53V159.46H69.68V157.236L66.33 155.762V157.45H65.66V155.467L62.31 153.993V155.44H61.64V153.698L58.29 152.224V153.43H57.62V151.929L54.27 150.455V152.09H53.6V150.16L50.25 148.686V150.08H49.58V148.392L46.23 146.918V148.74H45.56V146.623L42.21 145.149V146.73H41.54V144.854L38.19 143.38V144.72H37.52V143.085L34.17 141.611V143.38H33.5V141.316L30.15 139.842V141.37H29.48V139.548L26.13 138.074V140.03H25.46V137.779L22.11 136.305V138.69H21.44V67.67ZM22.11 71.9848V75.2728L25.46 76.7468V73.4588L22.11 71.9848ZM26.13 73.7536V77.0416L29.48 78.5156V75.2276L26.13 73.7536ZM30.15 75.5224V78.8104L33.5 80.2844V76.9964L30.15 75.5224ZM34.17 77.2912V80.5792L37.52 82.0532V78.7652L34.17 77.2912ZM38.19 79.06V82.348L41.54 83.822V80.534L38.19 79.06ZM42.21 80.8288V84.1168L45.56 85.5908V82.3028L42.21 80.8288ZM46.23 82.5976V85.8856L49.58 87.3596V84.0716L46.23 82.5976ZM50.25 84.3664V87.6544L53.6 89.1284V85.8404L50.25 84.3664ZM54.27 86.1352V89.4232L57.62 90.8972V87.6092L54.27 86.1352ZM58.29 87.904V91.192L61.64 92.666V89.378L58.29 87.904ZM62.31 89.6728V92.9608L65.66 94.4348V91.1468L62.31 89.6728ZM66.33 91.4416V94.7296L69.68 96.2036V92.9156L66.33 91.4416ZM70.35 93.2104V96.4984L73.7 97.9724V94.6844L70.35 93.2104ZM74.37 94.9792V98.2672L77.72 99.7412V96.4532L74.37 94.9792ZM78.39 96.748V100.036L81.74 101.51V98.222L78.39 96.748ZM82.41 98.5168V101.805L85.76 103.279V99.9908L82.41 98.5168ZM86.43 100.286V103.574L89.78 105.048V101.76L86.43 100.286ZM90.45 102.054V105.342L93.8 106.816V103.528L90.45 102.054ZM94.47 103.823V107.111L97.82 108.585V105.297L94.47 103.823ZM98.49 105.592V108.88L101.84 110.354V107.066L98.49 105.592ZM102.51 107.361V110.649L105.86 112.123V108.835L102.51 107.361ZM106.53 109.13V112.418L109.88 113.892V110.604L106.53 109.13ZM110.55 110.898V114.186L113.9 115.66V112.372L110.55 110.898ZM114.57 112.667V115.955L117.92 117.429V114.141L114.57 112.667ZM117.92 118.161L114.57 116.687V119.975L117.92 121.449V118.161ZM117.92 122.181L114.57 120.707V123.995L117.92 125.469V122.181ZM117.92 126.201L114.57 124.727V128.015L117.92 129.489V126.201ZM117.92 130.221L114.57 128.747V132.035L117.92 133.509V130.221ZM117.92 134.241L114.57 132.767V136.055L117.92 137.529V134.241ZM117.92 138.261L114.57 136.787V140.075L117.92 141.549V138.261ZM117.92 142.281L114.57 140.807V144.095L117.92 145.569V142.281ZM117.92 146.301L114.57 144.827V148.115L117.92 149.589V146.301ZM117.92 150.321L114.57 148.847V152.135L117.92 153.609V150.321ZM117.92 154.341L114.57 152.867V156.155L117.92 157.629V154.341ZM117.92 158.361L114.57 156.887V160.175L117.92 161.649V158.361ZM117.92 162.381L114.57 160.907V164.195L117.92 165.669V162.381ZM117.92 166.401L114.57 164.927V168.215L117.92 169.689V166.401ZM117.92 170.421L114.57 168.947V172.235L117.92 173.709V170.421ZM117.92 174.441L114.57 172.967V176.255L117.92 177.729V174.441ZM113.9 175.96V172.672L110.55 171.198V174.486L113.9 175.96ZM109.88 174.192V170.904L106.53 169.43V172.718L109.88 174.192ZM105.86 172.423V169.135L102.51 167.661V170.949L105.86 172.423ZM101.84 170.654V167.366L98.49 165.892V169.18L101.84 170.654ZM97.82 168.885V165.597L94.47 164.123V167.411L97.82 168.885ZM93.8 167.116V163.828L90.45 162.354V165.642L93.8 167.116ZM89.78 165.348V162.06L86.43 160.586V163.874L89.78 165.348ZM85.76 163.579V160.291L82.41 158.817V162.105L85.76 163.579ZM81.74 161.81V158.522L78.39 157.048V160.336L81.74 161.81ZM77.72 160.041V156.753L74.37 155.279V158.567L77.72 160.041ZM73.7 158.272V154.984L70.35 153.51V156.798L73.7 158.272ZM69.68 156.504V153.216L66.33 151.742V155.03L69.68 156.504ZM65.66 154.735V151.447L62.31 149.973V153.261L65.66 154.735ZM61.64 152.966V149.678L58.29 148.204V151.492L61.64 152.966ZM57.62 151.197V147.909L54.27 146.435V149.723L57.62 151.197ZM53.6 149.428V146.14L50.25 144.666V147.954L53.6 149.428ZM49.58 147.66V144.372L46.23 142.898V146.186L49.58 147.66ZM45.56 145.891V142.603L42.21 141.129V144.417L45.56 145.891ZM41.54 144.122V140.834L38.19 139.36V142.648L41.54 144.122ZM37.52 142.353V139.065L34.17 137.591V140.879L37.52 142.353ZM33.5 140.584V137.296L30.15 135.822V139.11L33.5 140.584ZM29.48 138.816V135.528L26.13 134.054V137.342L29.48 138.816ZM25.46 137.047V133.759L22.11 132.285V135.573L25.46 137.047ZM22.11 131.553L25.46 133.027V129.739L22.11 128.265V131.553ZM22.11 127.533L25.46 129.007V125.719L22.11 124.245V127.533ZM22.11 123.513L25.46 124.987V121.699L22.11 120.225V123.513ZM22.11 119.493L25.46 120.967V117.679L22.11 116.205V119.493ZM22.11 115.473L25.46 116.947V113.659L22.11 112.185V115.473ZM22.11 111.453L25.46 112.927V109.639L22.11 108.165V111.453ZM22.11 107.433L25.46 108.907V105.619L22.11 104.145V107.433ZM22.11 103.413L25.46 104.887V101.599L22.11 100.125V103.413ZM22.11 99.3928L25.46 100.867V97.5788L22.11 96.1048V99.3928ZM22.11 95.3728L25.46 96.8468V93.5588L22.11 92.0848V95.3728ZM22.11 91.3528L25.46 92.8268V89.5388L22.11 88.0648V91.3528ZM22.11 87.3328L25.46 88.8068V85.5188L22.11 84.0448V87.3328ZM22.11 83.3128L25.46 84.7868V81.4988L22.11 80.0248V83.3128ZM22.11 79.2928L25.46 80.7668V77.4788L22.11 76.0048V79.2928ZM26.13 77.7736V81.0616L29.48 82.5356V79.2476L26.13 77.7736ZM30.15 79.5424V82.8304L33.5 84.3044V81.0164L30.15 79.5424ZM34.17 81.3112V84.5992L37.52 86.0732V82.7852L34.17 81.3112ZM38.19 83.08V86.368L41.54 87.842V84.554L38.19 83.08ZM42.21 84.8488V88.1368L45.56 89.6108V86.3228L42.21 84.8488ZM46.23 86.6176V89.9056L49.58 91.3796V88.0916L46.23 86.6176ZM50.25 88.3864V91.6744L53.6 93.1484V89.8604L50.25 88.3864ZM54.27 90.1552V93.4432L57.62 94.9172V91.6292L54.27 90.1552ZM58.29 91.924V95.212L61.64 96.686V93.398L58.29 91.924ZM62.31 93.6928V96.9808L65.66 98.4548V95.1668L62.31 93.6928ZM66.33 95.4616V98.7496L69.68 100.224V96.9356L66.33 95.4616ZM70.35 97.2304V100.518L73.7 101.992V98.7044L70.35 97.2304ZM74.37 98.9992V102.287L77.72 103.761V100.473L74.37 98.9992ZM78.39 100.768V104.056L81.74 105.53V102.242L78.39 100.768ZM82.41 102.537V105.825L85.76 107.299V104.011L82.41 102.537ZM86.43 104.306V107.594L89.78 109.068V105.78L86.43 104.306ZM90.45 106.074V109.362L93.8 110.836V107.548L90.45 106.074ZM94.47 107.843V111.131L97.82 112.605V109.317L94.47 107.843ZM98.49 109.612V112.9L101.84 114.374V111.086L98.49 109.612ZM102.51 111.381V114.669L105.86 116.143V112.855L102.51 111.381ZM106.53 113.15V116.438L109.88 117.912V114.624L106.53 113.15ZM110.55 114.918V118.206L113.9 119.68V116.392L110.55 114.918ZM113.9 120.412L110.55 118.938V122.226L113.9 123.7V120.412ZM113.9 124.432L110.55 122.958V126.246L113.9 127.72V124.432ZM113.9 128.452L110.55 126.978V130.266L113.9 131.74V128.452ZM113.9 132.472L110.55 130.998V134.286L113.9 135.76V132.472ZM113.9 136.492L110.55 135.018V138.306L113.9 139.78V136.492ZM113.9 140.512L110.55 139.038V142.326L113.9 143.8V140.512ZM113.9 144.532L110.55 143.058V146.346L113.9 147.82V144.532ZM113.9 148.552L110.55 147.078V150.366L113.9 151.84V148.552ZM113.9 152.572L110.55 151.098V154.386L113.9 155.86V152.572ZM113.9 156.592L110.55 155.118V158.406L113.9 159.88V156.592ZM113.9 160.612L110.55 159.138V162.426L113.9 163.9V160.612ZM113.9 164.632L110.55 163.158V166.446L113.9 167.92V164.632ZM113.9 168.652L110.55 167.178V170.466L113.9 171.94V168.652ZM109.88 170.172V166.884L106.53 165.41V168.698L109.88 170.172ZM105.86 168.403V165.115L102.51 163.641V166.929L105.86 168.403ZM101.84 166.634V163.346L98.49 161.872V165.16L101.84 166.634ZM97.82 164.865V161.577L94.47 160.103V163.391L97.82 164.865ZM93.8 163.096V159.808L90.45 158.334V161.622L93.8 163.096ZM89.78 161.328V158.04L86.43 156.566V159.854L89.78 161.328ZM85.76 159.559V156.271L82.41 154.797V158.085L85.76 159.559ZM81.74 157.79V154.502L78.39 153.028V156.316L81.74 157.79ZM77.72 156.021V152.733L74.37 151.259V154.547L77.72 156.021ZM73.7 154.252V150.964L70.35 149.49V152.778L73.7 154.252ZM69.68 152.484V149.196L66.33 147.722V151.01L69.68 152.484ZM65.66 150.715V147.427L62.31 145.953V149.241L65.66 150.715ZM61.64 148.946V145.658L58.29 144.184V147.472L61.64 148.946ZM57.62 147.177V143.889L54.27 142.415V145.703L57.62 147.177ZM53.6 145.408V142.12L50.25 140.646V143.934L53.6 145.408ZM49.58 143.64V140.352L46.23 138.878V142.166L49.58 143.64ZM45.56 141.871V138.583L42.21 137.109V140.397L45.56 141.871ZM41.54 140.102V136.814L38.19 135.34V138.628L41.54 140.102ZM37.52 138.333V135.045L34.17 133.571V136.859L37.52 138.333ZM33.5 136.564V133.276L30.15 131.802V135.09L33.5 136.564ZM29.48 134.796V131.508L26.13 130.034V133.322L29.48 134.796ZM26.13 129.302L29.48 130.776V127.488L26.13 126.014V129.302ZM26.13 125.282L29.48 126.756V123.468L26.13 121.994V125.282ZM26.13 121.262L29.48 122.736V119.448L26.13 117.974V121.262ZM26.13 117.242L29.48 118.716V115.428L26.13 113.954V117.242ZM26.13 113.222L29.48 114.696V111.408L26.13 109.934V113.222ZM26.13 109.202L29.48 110.676V107.388L26.13 105.914V109.202ZM26.13 105.182L29.48 106.656V103.368L26.13 101.894V105.182ZM26.13 101.162L29.48 102.636V99.3476L26.13 97.8736V101.162ZM26.13 97.1416L29.48 98.6156V95.3276L26.13 93.8536V97.1416ZM26.13 93.1216L29.48 94.5956V91.3076L26.13 89.8336V93.1216ZM26.13 89.1016L29.48 90.5756V87.2876L26.13 85.8136V89.1016ZM26.13 85.0816L29.48 86.5556V83.2676L26.13 81.7936V85.0816ZM30.15 83.5624V86.8504L33.5 88.3244V85.0364L30.15 83.5624ZM34.17 85.3312V88.6192L37.52 90.0932V86.8052L34.17 85.3312ZM38.19 87.1V90.388L41.54 91.862V88.574L38.19 87.1ZM42.21 88.8688V92.1568L45.56 93.6308V90.3428L42.21 88.8688ZM46.23 90.6376V93.9256L49.58 95.3996V92.1116L46.23 90.6376ZM50.25 92.4064V95.6944L53.6 97.1684V93.8804L50.25 92.4064ZM54.27 94.1752V97.4632L57.62 98.9372V95.6492L54.27 94.1752ZM58.29 95.944V99.232L61.64 100.706V97.418L58.29 95.944ZM62.31 97.7128V101.001L65.66 102.475V99.1868L62.31 97.7128ZM66.33 99.4816V102.77L69.68 104.244V100.956L66.33 99.4816ZM70.35 101.25V104.538L73.7 106.012V102.724L70.35 101.25ZM74.37 103.019V106.307L77.72 107.781V104.493L74.37 103.019ZM78.39 104.788V108.076L81.74 109.55V106.262L78.39 104.788ZM82.41 106.557V109.845L85.76 111.319V108.031L82.41 106.557ZM86.43 108.326V111.614L89.78 113.088V109.8L86.43 108.326ZM90.45 110.094V113.382L93.8 114.856V111.568L90.45 110.094ZM94.47 111.863V115.151L97.82 116.625V113.337L94.47 111.863ZM98.49 113.632V116.92L101.84 118.394V115.106L98.49 113.632ZM102.51 115.401V118.689L105.86 120.163V116.875L102.51 115.401ZM106.53 117.17V120.458L109.88 121.932V118.644L106.53 117.17ZM109.88 122.664L106.53 121.19V124.478L109.88 125.952V122.664ZM109.88 126.684L106.53 125.21V128.498L109.88 129.972V126.684ZM109.88 130.704L106.53 129.23V132.518L109.88 133.992V130.704ZM109.88 134.724L106.53 133.25V136.538L109.88 138.012V134.724ZM109.88 138.744L106.53 137.27V140.558L109.88 142.032V138.744ZM109.88 142.764L106.53 141.29V144.578L109.88 146.052V142.764ZM109.88 146.784L106.53 145.31V148.598L109.88 150.072V146.784ZM109.88 150.804L106.53 149.33V152.618L109.88 154.092V150.804ZM109.88 154.824L106.53 153.35V156.638L109.88 158.112V154.824ZM109.88 158.844L106.53 157.37V160.658L109.88 162.132V158.844ZM109.88 162.864L106.53 161.39V164.678L109.88 166.152V162.864ZM105.86 164.383V161.095L102.51 159.621V162.909L105.86 164.383ZM101.84 162.614V159.326L98.49 157.852V161.14L101.84 162.614ZM97.82 160.845V157.557L94.47 156.083V159.371L97.82 160.845ZM93.8 159.076V155.788L90.45 154.314V157.602L93.8 159.076ZM89.78 157.308V154.02L86.43 152.546V155.834L89.78 157.308ZM85.76 155.539V152.251L82.41 150.777V154.065L85.76 155.539ZM81.74 153.77V150.482L78.39 149.008V152.296L81.74 153.77ZM77.72 152.001V148.713L74.37 147.239V150.527L77.72 152.001ZM73.7 150.232V146.944L70.35 145.47V148.758L73.7 150.232ZM69.68 148.464V145.176L66.33 143.702V146.99L69.68 148.464ZM65.66 146.695V143.407L62.31 141.933V145.221L65.66 146.695ZM61.64 144.926V141.638L58.29 140.164V143.452L61.64 144.926ZM57.62 143.157V139.869L54.27 138.395V141.683L57.62 143.157ZM53.6 141.388V138.1L50.25 136.626V139.914L53.6 141.388ZM49.58 139.62V136.332L46.23 134.858V138.146L49.58 139.62ZM45.56 137.851V134.563L42.21 133.089V136.377L45.56 137.851ZM41.54 136.082V132.794L38.19 131.32V134.608L41.54 136.082ZM37.52 134.313V131.025L34.17 129.551V132.839L37.52 134.313ZM33.5 132.544V129.256L30.15 127.782V131.07L33.5 132.544ZM30.15 127.05L33.5 128.524V125.236L30.15 123.762V127.05ZM30.15 123.03L33.5 124.504V121.216L30.15 119.742V123.03ZM30.15 119.01L33.5 120.484V117.196L30.15 115.722V119.01ZM30.15 114.99L33.5 116.464V113.176L30.15 111.702V114.99ZM30.15 110.97L33.5 112.444V109.156L30.15 107.682V110.97ZM30.15 106.95L33.5 108.424V105.136L30.15 103.662V106.95ZM30.15 102.93L33.5 104.404V101.116L30.15 99.6424V102.93ZM30.15 98.9104L33.5 100.384V97.0964L30.15 95.6224V98.9104ZM30.15 94.8904L33.5 96.3644V93.0764L30.15 91.6024V94.8904ZM30.15 90.8704L33.5 92.3444V89.0564L30.15 87.5824V90.8704ZM34.17 89.3512V92.6392L37.52 94.1132V90.8252L34.17 89.3512ZM38.19 91.12V94.408L41.54 95.882V92.594L38.19 91.12ZM42.21 92.8888V96.1768L45.56 97.6508V94.3628L42.21 92.8888ZM46.23 94.6576V97.9456L49.58 99.4196V96.1316L46.23 94.6576ZM50.25 96.4264V99.7144L53.6 101.188V97.9004L50.25 96.4264ZM54.27 98.1952V101.483L57.62 102.957V99.6692L54.27 98.1952ZM58.29 99.964V103.252L61.64 104.726V101.438L58.29 99.964ZM62.31 101.733V105.021L65.66 106.495V103.207L62.31 101.733ZM66.33 103.502V106.79L69.68 108.264V104.976L66.33 103.502ZM70.35 105.27V108.558L73.7 110.032V106.744L70.35 105.27ZM74.37 107.039V110.327L77.72 111.801V108.513L74.37 107.039ZM78.39 108.808V112.096L81.74 113.57V110.282L78.39 108.808ZM82.41 110.577V113.865L85.76 115.339V112.051L82.41 110.577ZM86.43 112.346V115.634L89.78 117.108V113.82L86.43 112.346ZM90.45 114.114V117.402L93.8 118.876V115.588L90.45 114.114ZM94.47 115.883V119.171L97.82 120.645V117.357L94.47 115.883ZM98.49 117.652V120.94L101.84 122.414V119.126L98.49 117.652ZM102.51 119.421V122.709L105.86 124.183V120.895L102.51 119.421ZM105.86 124.915L102.51 123.441V126.729L105.86 128.203V124.915ZM105.86 128.935L102.51 127.461V130.749L105.86 132.223V128.935ZM105.86 132.955L102.51 131.481V134.769L105.86 136.243V132.955ZM105.86 136.975L102.51 135.501V138.789L105.86 140.263V136.975ZM105.86 140.995L102.51 139.521V142.809L105.86 144.283V140.995ZM105.86 145.015L102.51 143.541V146.829L105.86 148.303V145.015ZM105.86 149.035L102.51 147.561V150.849L105.86 152.323V149.035ZM105.86 153.055L102.51 151.581V154.869L105.86 156.343V153.055ZM105.86 157.075L102.51 155.601V158.889L105.86 160.363V157.075ZM101.84 158.594V155.306L98.49 153.832V157.12L101.84 158.594ZM97.82 156.825V153.537L94.47 152.063V155.351L97.82 156.825ZM93.8 155.056V151.768L90.45 150.294V153.582L93.8 155.056ZM89.78 153.288V150L86.43 148.526V151.814L89.78 153.288ZM85.76 151.519V148.231L82.41 146.757V150.045L85.76 151.519ZM81.74 149.75V146.462L78.39 144.988V148.276L81.74 149.75ZM77.72 147.981V144.693L74.37 143.219V146.507L77.72 147.981ZM73.7 146.212V142.924L70.35 141.45V144.738L73.7 146.212ZM69.68 144.444V141.156L66.33 139.682V142.97L69.68 144.444ZM65.66 142.675V139.387L62.31 137.913V141.201L65.66 142.675ZM61.64 140.906V137.618L58.29 136.144V139.432L61.64 140.906ZM57.62 139.137V135.849L54.27 134.375V137.663L57.62 139.137ZM53.6 137.368V134.08L50.25 132.606V135.894L53.6 137.368ZM49.58 135.6V132.312L46.23 130.838V134.126L49.58 135.6ZM45.56 133.831V130.543L42.21 129.069V132.357L45.56 133.831ZM41.54 132.062V128.774L38.19 127.3V130.588L41.54 132.062ZM37.52 130.293V127.005L34.17 125.531V128.819L37.52 130.293ZM34.17 124.799L37.52 126.273V122.985L34.17 121.511V124.799ZM34.17 120.779L37.52 122.253V118.965L34.17 117.491V120.779ZM34.17 116.759L37.52 118.233V114.945L34.17 113.471V116.759ZM34.17 112.739L37.52 114.213V110.925L34.17 109.451V112.739ZM34.17 108.719L37.52 110.193V106.905L34.17 105.431V108.719ZM34.17 104.699L37.52 106.173V102.885L34.17 101.411V104.699ZM34.17 100.679L37.52 102.153V98.8652L34.17 97.3912V100.679ZM34.17 96.6592L37.52 98.1332V94.8452L34.17 93.3712V96.6592ZM38.19 95.14V98.428L41.54 99.902V96.614L38.19 95.14ZM42.21 96.9088V100.197L45.56 101.671V98.3828L42.21 96.9088ZM46.23 98.6776V101.966L49.58 103.44V100.152L46.23 98.6776ZM50.25 100.446V103.734L53.6 105.208V101.92L50.25 100.446ZM54.27 102.215V105.503L57.62 106.977V103.689L54.27 102.215ZM58.29 103.984V107.272L61.64 108.746V105.458L58.29 103.984ZM62.31 105.753V109.041L65.66 110.515V107.227L62.31 105.753ZM66.33 107.522V110.81L69.68 112.284V108.996L66.33 107.522ZM70.35 109.29V112.578L73.7 114.052V110.764L70.35 109.29ZM74.37 111.059V114.347L77.72 115.821V112.533L74.37 111.059ZM78.39 112.828V116.116L81.74 117.59V114.302L78.39 112.828ZM82.41 114.597V117.885L85.76 119.359V116.071L82.41 114.597ZM86.43 116.366V119.654L89.78 121.128V117.84L86.43 116.366ZM90.45 118.134V121.422L93.8 122.896V119.608L90.45 118.134ZM94.47 119.903V123.191L97.82 124.665V121.377L94.47 119.903ZM98.49 121.672V124.96L101.84 126.434V123.146L98.49 121.672ZM101.84 127.166L98.49 125.692V128.98L101.84 130.454V127.166ZM101.84 131.186L98.49 129.712V133L101.84 134.474V131.186ZM101.84 135.206L98.49 133.732V137.02L101.84 138.494V135.206ZM101.84 139.226L98.49 137.752V141.04L101.84 142.514V139.226ZM101.84 143.246L98.49 141.772V145.06L101.84 146.534V143.246ZM101.84 147.266L98.49 145.792V149.08L101.84 150.554V147.266ZM101.84 151.286L98.49 149.812V153.1L101.84 154.574V151.286ZM97.82 152.805V149.517L94.47 148.043V151.331L97.82 152.805ZM93.8 151.036V147.748L90.45 146.274V149.562L93.8 151.036ZM89.78 149.268V145.98L86.43 144.506V147.794L89.78 149.268ZM85.76 147.499V144.211L82.41 142.737V146.025L85.76 147.499ZM81.74 145.73V142.442L78.39 140.968V144.256L81.74 145.73ZM77.72 143.961V140.673L74.37 139.199V142.487L77.72 143.961ZM73.7 142.192V138.904L70.35 137.43V140.718L73.7 142.192ZM69.68 140.424V137.136L66.33 135.662V138.95L69.68 140.424ZM65.66 138.655V135.367L62.31 133.893V137.181L65.66 138.655ZM61.64 136.886V133.598L58.29 132.124V135.412L61.64 136.886ZM57.62 135.117V131.829L54.27 130.355V133.643L57.62 135.117ZM53.6 133.348V130.06L50.25 128.586V131.874L53.6 133.348ZM49.58 131.58V128.292L46.23 126.818V130.106L49.58 131.58ZM45.56 129.811V126.523L42.21 125.049V128.337L45.56 129.811ZM41.54 128.042V124.754L38.19 123.28V126.568L41.54 128.042ZM38.19 122.548L41.54 124.022V120.734L38.19 119.26V122.548ZM38.19 118.528L41.54 120.002V116.714L38.19 115.24V118.528ZM38.19 114.508L41.54 115.982V112.694L38.19 111.22V114.508ZM38.19 110.488L41.54 111.962V108.674L38.19 107.2V110.488ZM38.19 106.468L41.54 107.942V104.654L38.19 103.18V106.468ZM38.19 102.448L41.54 103.922V100.634L38.19 99.16V102.448ZM42.21 100.929V104.217L45.56 105.691V102.403L42.21 100.929ZM46.23 102.698V105.986L49.58 107.46V104.172L46.23 102.698ZM50.25 104.466V107.754L53.6 109.228V105.94L50.25 104.466ZM54.27 106.235V109.523L57.62 110.997V107.709L54.27 106.235ZM58.29 108.004V111.292L61.64 112.766V109.478L58.29 108.004ZM62.31 109.773V113.061L65.66 114.535V111.247L62.31 109.773ZM66.33 111.542V114.83L69.68 116.304V113.016L66.33 111.542ZM70.35 113.31V116.598L73.7 118.072V114.784L70.35 113.31ZM74.37 115.079V118.367L77.72 119.841V116.553L74.37 115.079ZM78.39 116.848V120.136L81.74 121.61V118.322L78.39 116.848ZM82.41 118.617V121.905L85.76 123.379V120.091L82.41 118.617ZM86.43 120.386V123.674L89.78 125.148V121.86L86.43 120.386ZM90.45 122.154V125.442L93.8 126.916V123.628L90.45 122.154ZM94.47 123.923V127.211L97.82 128.685V125.397L94.47 123.923ZM97.82 129.417L94.47 127.943V131.231L97.82 132.705V129.417ZM97.82 133.437L94.47 131.963V135.251L97.82 136.725V133.437ZM97.82 137.457L94.47 135.983V139.271L97.82 140.745V137.457ZM97.82 141.477L94.47 140.003V143.291L97.82 144.765V141.477ZM97.82 145.497L94.47 144.023V147.311L97.82 148.785V145.497ZM93.8 147.016V143.728L90.45 142.254V145.542L93.8 147.016ZM89.78 145.248V141.96L86.43 140.486V143.774L89.78 145.248ZM85.76 143.479V140.191L82.41 138.717V142.005L85.76 143.479ZM81.74 141.71V138.422L78.39 136.948V140.236L81.74 141.71ZM77.72 139.941V136.653L74.37 135.179V138.467L77.72 139.941ZM73.7 138.172V134.884L70.35 133.41V136.698L73.7 138.172ZM69.68 136.404V133.116L66.33 131.642V134.93L69.68 136.404ZM65.66 134.635V131.347L62.31 129.873V133.161L65.66 134.635ZM61.64 132.866V129.578L58.29 128.104V131.392L61.64 132.866ZM57.62 131.097V127.809L54.27 126.335V129.623L57.62 131.097ZM53.6 129.328V126.04L50.25 124.566V127.854L53.6 129.328ZM49.58 127.56V124.272L46.23 122.798V126.086L49.58 127.56ZM45.56 125.791V122.503L42.21 121.029V124.317L45.56 125.791ZM42.21 120.297L45.56 121.771V118.483L42.21 117.009V120.297ZM42.21 116.277L45.56 117.751V114.463L42.21 112.989V116.277ZM42.21 112.257L45.56 113.731V110.443L42.21 108.969V112.257ZM42.21 108.237L45.56 109.711V106.423L42.21 104.949V108.237ZM46.23 106.718V110.006L49.58 111.48V108.192L46.23 106.718ZM50.25 108.486V111.774L53.6 113.248V109.96L50.25 108.486ZM54.27 110.255V113.543L57.62 115.017V111.729L54.27 110.255ZM58.29 112.024V115.312L61.64 116.786V113.498L58.29 112.024ZM62.31 113.793V117.081L65.66 118.555V115.267L62.31 113.793ZM66.33 115.562V118.85L69.68 120.324V117.036L66.33 115.562ZM70.35 117.33V120.618L73.7 122.092V118.804L70.35 117.33ZM74.37 119.099V122.387L77.72 123.861V120.573L74.37 119.099ZM78.39 120.868V124.156L81.74 125.63V122.342L78.39 120.868ZM82.41 122.637V125.925L85.76 127.399V124.111L82.41 122.637ZM86.43 124.406V127.694L89.78 129.168V125.88L86.43 124.406ZM90.45 126.174V129.462L93.8 130.936V127.648L90.45 126.174ZM93.8 131.668L90.45 130.194V133.482L93.8 134.956V131.668ZM93.8 135.688L90.45 134.214V137.502L93.8 138.976V135.688ZM93.8 139.708L90.45 138.234V141.522L93.8 142.996V139.708ZM89.78 141.228V137.94L86.43 136.466V139.754L89.78 141.228ZM85.76 139.459V136.171L82.41 134.697V137.985L85.76 139.459ZM81.74 137.69V134.402L78.39 132.928V136.216L81.74 137.69ZM77.72 135.921V132.633L74.37 131.159V134.447L77.72 135.921ZM73.7 134.152V130.864L70.35 129.39V132.678L73.7 134.152ZM69.68 132.384V129.096L66.33 127.622V130.91L69.68 132.384ZM65.66 130.615V127.327L62.31 125.853V129.141L65.66 130.615ZM61.64 128.846V125.558L58.29 124.084V127.372L61.64 128.846ZM57.62 127.077V123.789L54.27 122.315V125.603L57.62 127.077ZM53.6 125.308V122.02L50.25 120.546V123.834L53.6 125.308ZM49.58 123.54V120.252L46.23 118.778V122.066L49.58 123.54ZM46.23 118.046L49.58 119.52V116.232L46.23 114.758V118.046ZM46.23 114.026L49.58 115.5V112.212L46.23 110.738V114.026ZM50.25 112.506V115.794L53.6 117.268V113.98L50.25 112.506ZM54.27 114.275V117.563L57.62 119.037V115.749L54.27 114.275ZM58.29 116.044V119.332L61.64 120.806V117.518L58.29 116.044ZM62.31 117.813V121.101L65.66 122.575V119.287L62.31 117.813ZM66.33 119.582V122.87L69.68 124.344V121.056L66.33 119.582ZM70.35 121.35V124.638L73.7 126.112V122.824L70.35 121.35ZM74.37 123.119V126.407L77.72 127.881V124.593L74.37 123.119ZM78.39 124.888V128.176L81.74 129.65V126.362L78.39 124.888ZM82.41 126.657V129.945L85.76 131.419V128.131L82.41 126.657ZM86.43 128.426V131.714L89.78 133.188V129.9L86.43 128.426ZM89.78 133.92L86.43 132.446V135.734L89.78 137.208V133.92ZM85.76 135.439V132.151L82.41 130.677V133.965L85.76 135.439ZM81.74 133.67V130.382L78.39 128.908V132.196L81.74 133.67ZM77.72 131.901V128.613L74.37 127.139V130.427L77.72 131.901ZM73.7 130.132V126.844L70.35 125.37V128.658L73.7 130.132ZM69.68 128.364V125.076L66.33 123.602V126.89L69.68 128.364ZM65.66 126.595V123.307L62.31 121.833V125.121L65.66 126.595ZM61.64 124.826V121.538L58.29 120.064V123.352L61.64 124.826ZM57.62 123.057V119.769L54.27 118.295V121.583L57.62 123.057ZM53.6 121.288V118L50.25 116.526V119.814L53.6 121.288Z" fill="#F8F5FF"/>
<ellipse opacity="0.2" cx="57.5023" cy="113.751" rx="18.616" ry="11.2574" transform="rotate(49.4837 57.5023 113.751)" fill="#FFE804"/>
<ellipse opacity="0.2" cx="84.786" cy="148.952" rx="11.8049" ry="7.1386" transform="rotate(49.4837 84.786 148.952)" fill="#FFE804"/>
<ellipse opacity="0.2" cx="110.371" cy="114.304" rx="17.9354" ry="11.2656" transform="rotate(56.5185 110.371 114.304)" fill="#FFE804"/>
<ellipse opacity="0.2" cx="111.436" cy="113.599" rx="9.23204" ry="5.79884" transform="rotate(56.5185 111.436 113.599)" fill="#FFE804"/>
<ellipse opacity="0.2" cx="57.3787" cy="113.857" rx="8.99951" ry="5.44216" transform="rotate(49.4837 57.3787 113.857)" fill="#FFE804"/>
<ellipse opacity="0.2" cx="84.7075" cy="149.019" rx="5.70679" ry="3.451" transform="rotate(49.4837 84.7075 149.019)" fill="#FFE804"/>
<path d="M22.78 68.3024L120.426 111.182V180.239L22.78 137.359V68.3024ZM21.306 64.1685C20.8096 64.1685 20.3334 64.3652 19.9818 64.7156C19.6302 65.066 19.4318 65.5414 19.43 66.0378V138.324C19.4308 138.688 19.5377 139.045 19.7376 139.349C19.9374 139.654 20.2217 139.894 20.5556 140.039L121.149 184.212C121.434 184.339 121.747 184.392 122.057 184.367C122.368 184.341 122.668 184.239 122.929 184.068C123.19 183.898 123.404 183.665 123.552 183.39C123.7 183.116 123.777 182.809 123.776 182.497V110.204C123.772 109.843 123.665 109.491 123.466 109.189C123.268 108.887 122.987 108.649 122.657 108.502L22.0564 64.2824C21.8195 64.1802 21.564 64.1277 21.306 64.1283V64.1685Z" fill="black"/>
<path d="M57.6201 112.56L51.8179 112.517L54.6819 117.563L57.6201 112.56ZM33.0781 127.067L53.935 115.229L53.4389 114.355L32.582 126.193L33.0781 127.067Z" fill="#1A1A1B"/>
<path d="M103.18 115.91L97.3776 115.883L100.255 120.921L103.18 115.91ZM83.9991 127.443L99.502 118.589L99.0036 117.717L83.5007 126.57L83.9991 127.443Z" fill="#1A1A1B"/>
<path d="M141.182 163.191L136.359 156.9L133.322 164.222L141.182 163.191ZM112.225 151.18L112.488 150.546L112.203 150.428L111.925 150.563L112.225 151.18ZM100.8 157.493L112.525 151.798L111.925 150.563L100.2 156.258L100.8 157.493ZM111.962 151.814L135.212 161.458L135.738 160.19L112.488 150.546L111.962 151.814Z" fill="#EB8D27"/>
<path d="M-0.547933 87.1001L7.31732 86.1152L4.2376 93.4191L-0.547933 87.1001ZM26.465 98.4901L26.7318 97.8576L27.8301 98.3207L26.8783 99.0382L26.465 98.4901ZM16.2011 105.369L26.0518 97.942L26.8783 99.0382L17.0276 106.465L16.2011 105.369ZM26.1983 99.1227L4.87821 90.133L5.41163 88.8679L26.7318 97.8576L26.1983 99.1227Z" fill="#EB8D27"/>
<path d="M49.3528 136.608L43.5551 136.376L46.2525 141.513L49.3528 136.608ZM18.3237 153.469L45.5823 139.156L45.1151 138.266L17.8565 152.579L18.3237 153.469Z" fill="#EB8D27"/>
<path d="M80.4 150.75L74.5984 150.842L77.5792 155.821L80.4 150.75ZM59.8881 163.618L76.778 153.504L76.2617 152.642L59.3719 162.755L59.8881 163.618Z" fill="#1A1A1B"/>
<path d="M123.615 183.58L197.65 129.98" stroke="black" stroke-width="1.005" stroke-dasharray="2.68 2.68"/>
<path d="M182.24 139.771V165.012C182.24 165.25 182.181 165.485 182.068 165.694C181.954 165.904 181.79 166.082 181.591 166.212C181.391 166.342 181.163 166.421 180.925 166.441C180.688 166.46 180.449 166.421 180.231 166.325L154.294 155.282C154.039 155.171 153.822 154.988 153.669 154.755C153.517 154.522 153.436 154.25 153.436 153.972V128.731C153.436 128.493 153.495 128.259 153.609 128.05C153.722 127.841 153.885 127.663 154.085 127.533C154.284 127.403 154.512 127.324 154.749 127.305C154.987 127.285 155.225 127.325 155.443 127.421L181.388 138.461C181.642 138.573 181.857 138.757 182.009 138.99C182.16 139.222 182.24 139.494 182.24 139.771Z" fill="white" stroke="black" stroke-width="0.440655" stroke-linecap="round" stroke-linejoin="round"/>
<path d="M153.43 132.397L182.24 144.695" stroke="black" stroke-width="0.440655" stroke-linecap="round" stroke-linejoin="round"/>
<path d="M167.402 141.795C170.58 142.506 173.18 146.554 173.204 150.837C173.227 155.12 170.668 158.017 167.487 157.3C164.305 156.583 161.708 152.544 161.685 148.261C161.661 143.978 164.226 141.087 167.402 141.795Z" fill="#FFE804" stroke="black" stroke-width="0.440655" stroke-linecap="round" stroke-linejoin="round"/>
<path d="M167.449 149.553L170.204 143.384C170.204 143.384 171.547 144.371 172.607 147.3C173.668 150.229 173.127 152.174 173.127 152.174L167.449 149.553Z" fill="#FA8800" stroke="black" stroke-width="0.440655" stroke-linecap="round" stroke-linejoin="round"/>
<path d="M167.449 149.553L170.216 156.998C170.216 156.998 171.423 156.501 172.313 154.832C173.204 153.164 173.127 152.189 173.127 152.189L167.449 149.553Z" fill="#D0BCFF" stroke="black" stroke-width="0.440655" stroke-linecap="round" stroke-linejoin="round"/>
<path d="M21.775 63.65L94.135 10.72" stroke="black" stroke-width="1.005" stroke-dasharray="2.68 2.68"/>
<path d="M44.4684 7.46882L66.3637 14.208C66.8292 14.3475 67.2373 14.6336 67.5272 15.0237C67.8171 15.4139 67.9733 15.8871 67.9726 16.3731V38.7925C67.9721 39.1575 67.8834 39.5169 67.714 39.8402C67.5446 40.1634 67.2996 40.441 66.9998 40.6491C66.7 40.8573 66.3543 40.9898 65.9922 41.0356C65.6301 41.0813 65.2624 41.0388 64.9202 40.9117L43.0249 32.7567C42.5928 32.5951 42.2202 32.3058 41.9566 31.9272C41.693 31.5487 41.5509 31.0988 41.5493 30.6375V9.63399C41.5497 9.27994 41.633 8.9309 41.7926 8.61484C41.9521 8.29879 42.1835 8.02452 42.4682 7.81403C42.7529 7.60353 43.0829 7.46266 43.4319 7.40272C43.7808 7.34277 44.139 7.36541 44.4776 7.46882H44.4684ZM65.8304 38.604V16.7915L44.0179 9.7765V30.9225L65.8304 38.604Z" fill="#D6D6D6"/>
<path d="M44.0178 15.8124V30.9502L65.8303 38.6225V30.9502H63.5158C63.5158 30.9502 62.9319 24.2341 60.8771 24.4179C58.8223 24.6018 59.9577 28.9873 57.4294 28.9459C54.9011 28.9046 55.0619 20.0416 52.6991 19.9681C50.3363 19.8945 51.0672 23.9123 48.8698 23.186C47.1368 22.6021 46.6081 15.8308 46.6081 15.8308L44.0178 15.8124Z" fill="#FFE804"/>
<path d="M44.0178 9.77655V15.8124H46.5967C46.5967 15.8124 47.1253 22.5699 48.8584 23.1675C51.0557 23.9076 50.3202 19.8945 52.6876 19.9496C55.0551 20.0048 54.9125 28.8953 57.4179 28.9275C59.9232 28.9597 58.797 24.5787 60.8656 24.3995C62.9342 24.2202 63.5157 30.9501 63.5157 30.9501H65.8418V16.7915L44.0178 9.77655Z" fill="#FFE804"/>
<path d="M60.0681 15.063L65.7131 25.3877L65.8372 16.7914L60.0681 15.063Z" fill="white"/>
<path d="M57.8409 14.3413L65.8304 29.6262V33.4232L54.9265 13.3897L57.8409 14.3413Z" fill="white"/>
<path d="M67.9633 16.3735V38.7882C67.9633 39.154 67.8747 39.5143 67.7053 39.8383C67.5358 40.1624 67.2904 40.4407 66.99 40.6494C66.6897 40.858 66.3433 40.9909 65.9804 41.0366C65.6176 41.0824 65.249 41.0396 64.9063 40.912L43.0156 32.757C42.5829 32.5963 42.2098 32.3072 41.946 31.9284C41.6823 31.5497 41.5406 31.0994 41.54 30.6378V9.63434C41.5407 9.28058 41.6241 8.93189 41.7836 8.61612C41.9422 8.29963 42.1738 8.02545 42.4594 7.81625C42.7438 7.60546 43.0739 7.46461 43.4229 7.40512C43.7719 7.34562 44.13 7.36914 44.4682 7.47377L66.3635 14.2083C66.8281 14.3495 67.2352 14.636 67.5248 15.0258C67.8144 15.4155 67.9713 15.8879 67.9725 16.3735H67.9633Z" stroke="black" stroke-width="0.689544" stroke-linecap="round" stroke-linejoin="round"/>
<path d="M65.8303 16.7915L44.0178 9.77655V30.9225L65.8303 38.5949V16.7915Z" stroke="black" stroke-width="0.689544" stroke-linecap="round" stroke-linejoin="round"/>
<path d="M57.3995 30.9087C57.5565 30.9571 57.7226 30.9681 57.8845 30.9409C58.0468 30.9118 58.2002 30.8458 58.3327 30.7478C58.4641 30.6497 58.5705 30.522 58.6432 30.375C58.7159 30.228 58.7528 30.0659 58.751 29.9019C58.7189 27.2863 58.751 23.3053 54.4023 22.2894C50.0536 21.2735 49.4652 25.4337 49.2216 27.3966C49.1927 27.6389 49.2496 27.8837 49.3822 28.0886C49.5149 28.2934 49.715 28.4454 49.9479 28.5183L50.5501 28.7481L50.5731 28.7757L50.1846 29.0883C49.9686 29.2997 49.8307 29.548 50.0053 29.833C50.0599 29.925 50.1449 29.995 50.2456 30.0311C50.3463 30.0672 50.4564 30.067 50.557 30.0307L52.3958 29.3411L57.3995 30.9087Z" fill="#FFE804"/>
<path d="M55.0598 20.3632C55.0598 20.3632 54.6598 17.9981 55.7263 17.9728C56.5883 17.9544 56.8066 18.5474 56.5768 19.2071" stroke="black" stroke-width="0.459696" stroke-linecap="round" stroke-linejoin="round"/>
<path d="M53.7887 20.2483C53.7887 20.2483 53.1221 19.152 53.8048 18.6969C54.3104 18.359 54.9724 19.0531 54.9954 19.7702" stroke="black" stroke-width="0.459696" stroke-linecap="round" stroke-linejoin="round"/>
<path d="M57.3099 20.8919C62.0448 23.2456 61.484 29.8146 61.2174 33.0095C61.1976 33.2107 61.1331 33.405 61.0285 33.578C60.9239 33.751 60.7819 33.8984 60.6129 34.0093C60.4444 34.1179 60.2538 34.1876 60.0551 34.2135C59.8563 34.2393 59.6543 34.2206 59.4636 34.1587L48.1689 30.3709C47.8783 30.2798 47.626 30.0952 47.4514 29.8457C47.2768 29.5962 47.1896 29.296 47.2035 28.9918C47.3552 26.491 48.5826 19.8852 53.5037 20.1472" stroke="black" stroke-width="0.551635" stroke-linecap="round" stroke-linejoin="round"/>
<path d="M52.2257 30.5661L58.3879 32.529C58.5825 32.5909 58.789 32.6051 58.9901 32.5704C59.1902 32.5382 59.38 32.4595 59.5441 32.3406C59.7074 32.2201 59.8398 32.0625 59.9302 31.8809C60.0206 31.6981 60.0656 31.4963 60.0612 31.2924C60.0222 28.0746 60.0612 23.1581 54.6943 21.9032C49.3273 20.6482 48.601 25.7669 48.2999 28.1918C48.2636 28.4904 48.3335 28.7922 48.4974 29.0443C48.6613 29.2965 48.9087 29.4829 49.1963 29.5709L52.2257 30.5569" fill="white"/>
<path d="M52.2257 30.5661L58.388 32.529C58.5825 32.5909 58.789 32.605 58.9902 32.5704C59.1902 32.5382 59.38 32.4595 59.5441 32.3405C59.7074 32.2201 59.8398 32.0625 59.9302 31.8808C60.0206 31.6981 60.0656 31.4962 60.0612 31.2924C60.2267 27.9435 60.3049 23.2799 54.6943 21.9031C49.3273 20.6505 48.601 25.7784 48.2999 28.2079C48.2636 28.5064 48.3335 28.8082 48.4974 29.0604C48.6613 29.3126 48.9087 29.499 49.1963 29.5869L52.2257 30.573" stroke="black" stroke-width="0.551635" stroke-linecap="round" stroke-linejoin="round"/>
<path d="M57.31 20.892C57.9995 20.6231 57.9582 19.2118 57.0687 19.0532C56.1792 18.8946 56.2734 20.407 56.2734 20.407" stroke="black" stroke-width="0.441308" stroke-linecap="round" stroke-linejoin="round"/>
<path d="M56.0229 27.5759C56.1221 27.581 56.2193 27.5466 56.2934 27.4803C56.3674 27.414 56.4123 27.3212 56.4182 27.222V25.8429C56.4123 25.7431 56.3672 25.6497 56.2927 25.5829C56.2182 25.5162 56.1204 25.4816 56.0206 25.4866C55.921 25.4816 55.8234 25.5163 55.7493 25.5831C55.6752 25.6499 55.6306 25.7433 55.6252 25.8429V27.222C55.6312 27.3216 55.6764 27.4148 55.7509 27.4811C55.8254 27.5475 55.9232 27.5816 56.0229 27.5759Z" fill="black"/>
<path d="M52.3291 25.9693C52.3744 25.9718 52.4197 25.9653 52.4625 25.9503C52.5053 25.9352 52.5447 25.9118 52.5784 25.8815C52.6122 25.8512 52.6396 25.8145 52.6591 25.7736C52.6787 25.7326 52.6899 25.6882 52.6923 25.6429V24.3788C52.6899 24.3335 52.6787 24.2891 52.6591 24.2482C52.6396 24.2072 52.6122 24.1705 52.5784 24.1402C52.5447 24.1099 52.5053 24.0865 52.4625 24.0715C52.4197 24.0564 52.3744 24.0499 52.3291 24.0524C52.238 24.048 52.1489 24.0799 52.0813 24.1411C52.0137 24.2022 51.973 24.2877 51.9683 24.3788V25.6429C51.9736 25.7338 52.0144 25.8189 52.0819 25.88C52.1494 25.941 52.2382 25.9731 52.3291 25.9693Z" fill="black"/>
<path d="M56.1608 28.5391C56.0022 29.185 56.5423 29.9182 57.4204 30.2078C58.3604 30.5089 59.3051 30.1687 59.4706 29.4332C59.6361 28.6977 58.9465 27.9346 57.9996 27.7254C57.1124 27.5301 56.3102 27.8978 56.1608 28.5391Z" fill="#FFD0EE"/>
<path d="M57.1446 29.0055C57.1118 29.0055 57.0798 28.9959 57.0524 28.9779C57.0251 28.96 57.0036 28.9344 56.9906 28.9043L56.8182 28.5136C56.8083 28.4928 56.8027 28.4703 56.8018 28.4473C56.8008 28.4244 56.8046 28.4015 56.8127 28.38C56.8209 28.3585 56.8333 28.3389 56.8493 28.3224C56.8652 28.3058 56.8844 28.2927 56.9055 28.2837C56.9262 28.2735 56.9488 28.2677 56.9718 28.2666C56.9949 28.2654 57.0179 28.2691 57.0395 28.2773C57.0611 28.2855 57.0807 28.2981 57.0972 28.3142C57.1137 28.3303 57.1267 28.3497 57.1354 28.3711L57.3078 28.7618C57.318 28.7824 57.324 28.8048 57.3253 28.8277C57.3265 28.8507 57.3231 28.8736 57.3151 28.8952C57.3071 28.9167 57.2948 28.9364 57.2789 28.953C57.263 28.9696 57.2439 28.9828 57.2227 28.9917C57.198 29.0019 57.1713 29.0066 57.1446 29.0055Z" fill="#DD5E73"/>
<path d="M57.8478 29.1758C57.816 29.1754 57.785 29.1662 57.7581 29.1492C57.7313 29.1321 57.7098 29.1079 57.6961 29.0792L57.5283 28.7184C57.5097 28.6778 57.508 28.6316 57.5235 28.5898C57.539 28.5479 57.5705 28.514 57.6111 28.4954C57.6516 28.4768 57.6979 28.4751 57.7397 28.4906C57.7815 28.5061 57.8154 28.5376 57.834 28.5782L58.0018 28.9367C58.0122 28.9571 58.0182 28.9794 58.0196 29.0023C58.0211 29.0251 58.0178 29.048 58.0101 29.0695C58.0023 29.091 57.9902 29.1108 57.9746 29.1274C57.9589 29.1441 57.94 29.1574 57.919 29.1666C57.8964 29.1752 57.8719 29.1784 57.8478 29.1758Z" fill="#DD5E73"/>
<path d="M58.5626 29.3688C58.5309 29.3692 58.4998 29.3606 58.4729 29.3439C58.446 29.3272 58.4245 29.3031 58.4109 29.2745L58.2316 28.9022C58.2124 28.8619 58.21 28.8157 58.2248 28.7737C58.2397 28.7317 58.2707 28.6973 58.3109 28.6781C58.3511 28.6589 58.3973 28.6564 58.4394 28.6713C58.4814 28.6862 58.5158 28.7171 58.535 28.7574L58.7143 29.1274C58.7244 29.1478 58.7303 29.1699 58.7317 29.1925C58.7331 29.2152 58.73 29.2379 58.7225 29.2593C58.715 29.2807 58.7033 29.3004 58.6881 29.3173C58.6728 29.3341 58.6544 29.3477 58.6338 29.3573C58.6113 29.3665 58.5869 29.3704 58.5626 29.3688Z" fill="#DD5E73"/>
<path d="M49.3319 26.0773C49.2855 26.3518 49.3403 26.6339 49.4861 26.871C49.6319 27.1082 49.8589 27.2843 50.1249 27.3668C50.2607 27.4155 50.4055 27.4339 50.5492 27.4208C50.6929 27.4077 50.832 27.3634 50.9568 27.291C51.0816 27.2185 51.1891 27.1197 51.2717 27.0013C51.3543 26.883 51.41 26.7481 51.435 26.606C51.4808 26.3116 51.4106 26.011 51.2391 25.7674C51.0676 25.5239 50.8082 25.3565 50.5156 25.3004C50.3868 25.2719 50.2535 25.2695 50.1237 25.2933C49.9939 25.3172 49.8702 25.3668 49.7599 25.4392C49.6495 25.5116 49.5548 25.6053 49.4813 25.7149C49.4078 25.8245 49.357 25.9477 49.3319 26.0773Z" fill="#FFD0EE"/>
<path d="M49.9549 26.4106C49.924 26.4101 49.894 26.4001 49.8689 26.382C49.8439 26.3639 49.825 26.3386 49.8147 26.3095L49.7066 26.0015C49.6941 25.9643 49.6968 25.9237 49.714 25.8884C49.7312 25.8532 49.7616 25.8261 49.7986 25.813C49.8168 25.8065 49.8362 25.8036 49.8556 25.8046C49.8749 25.8055 49.8939 25.8103 49.9115 25.8186C49.929 25.827 49.9447 25.8387 49.9576 25.8531C49.9706 25.8675 49.9806 25.8844 49.987 25.9027L50.0951 26.213C50.1016 26.2312 50.1045 26.2506 50.1035 26.27C50.1026 26.2893 50.0978 26.3083 50.0895 26.3259C50.0811 26.3434 50.0694 26.3591 50.055 26.372C50.0406 26.385 50.0237 26.395 50.0054 26.4014C49.9893 26.4076 49.9721 26.4108 49.9549 26.4106Z" fill="#DD5E73"/>
<path d="M50.4144 26.5072C50.3839 26.5065 50.3542 26.4967 50.3293 26.4791C50.3043 26.4615 50.2851 26.4369 50.2742 26.4084L50.1708 26.1257C50.1611 26.1069 50.1556 26.0863 50.1545 26.0652C50.1534 26.0441 50.1568 26.0231 50.1644 26.0034C50.1721 25.9837 50.1838 25.9659 50.1988 25.9511C50.2138 25.9363 50.2318 25.9248 50.2516 25.9174C50.2714 25.9101 50.2925 25.907 50.3136 25.9084C50.3346 25.9098 50.3552 25.9156 50.3738 25.9255C50.3924 25.9354 50.4088 25.9492 50.4217 25.9658C50.4346 25.9825 50.4439 26.0017 50.4489 26.0222L50.5523 26.3073C50.5593 26.3255 50.5625 26.345 50.5619 26.3645C50.5613 26.384 50.5568 26.4032 50.5486 26.4209C50.5405 26.4387 50.5289 26.4547 50.5146 26.4679C50.5002 26.4811 50.4833 26.4914 50.465 26.498C50.4486 26.5033 50.4316 26.5064 50.4144 26.5072Z" fill="#DD5E73"/>
<path d="M50.8605 26.6199C50.8307 26.6197 50.8017 26.6106 50.7772 26.5938C50.7526 26.577 50.7336 26.5533 50.7226 26.5256L50.61 26.2337C50.5957 26.1968 50.5966 26.1558 50.6126 26.1196C50.6285 26.0834 50.6582 26.055 50.695 26.0407C50.7319 26.027 50.7727 26.0282 50.8088 26.0441C50.8448 26.06 50.8732 26.0892 50.8881 26.1257L50.9984 26.4199C51.0054 26.438 51.0088 26.4573 51.0083 26.4767C51.0078 26.4961 51.0035 26.5153 50.9956 26.533C50.9877 26.5507 50.9764 26.5667 50.9623 26.5801C50.9481 26.5934 50.9315 26.6038 50.9134 26.6107C50.8965 26.6172 50.8786 26.6204 50.8605 26.6199Z" fill="#DD5E73"/>
<path d="M52.0968 27.5531C51.1154 27.9875 50.1661 28.569 50.4258 29.4861C50.6557 30.3066 52.4439 30.1274 53.4966 29.9458C54.8964 29.6907 54.8182 29.054 54.6826 28.4702C54.5332 27.8197 53.8138 26.79 52.0968 27.5531Z" fill="#E76B00"/>
<path d="M52.6555 28.3115C52.6233 28.3119 52.5917 28.303 52.5643 28.2859C52.537 28.2688 52.5152 28.2442 52.5015 28.215C52.4105 28.0315 52.2586 27.8852 52.0717 27.8012C52.0483 27.796 52.0263 27.7859 52.0071 27.7716C51.9879 27.7573 51.9719 27.7391 51.9603 27.7182C51.9486 27.6973 51.9414 27.6741 51.9393 27.6503C51.9372 27.6264 51.9402 27.6024 51.948 27.5797C51.9558 27.5571 51.9683 27.5363 51.9847 27.5189C52.0011 27.5014 52.021 27.4876 52.0431 27.4783C52.0652 27.4691 52.089 27.4646 52.1129 27.4652C52.1369 27.4658 52.1604 27.4714 52.1821 27.4818C52.4545 27.5973 52.6764 27.807 52.8072 28.0725C52.8173 28.0928 52.8233 28.1149 52.8247 28.1376C52.8261 28.1602 52.823 28.1829 52.8155 28.2043C52.808 28.2258 52.7963 28.2455 52.781 28.2623C52.7658 28.2791 52.7474 28.2927 52.7268 28.3023C52.704 28.3107 52.6797 28.3139 52.6555 28.3115Z" fill="#D44A00"/>
<path d="M51.8258 28.9249C51.7916 28.925 51.7581 28.9147 51.7298 28.8954C51.7015 28.8762 51.6797 28.8488 51.6672 28.8169C51.5864 28.6085 51.4384 28.433 51.2466 28.3181C51.2063 28.2989 51.1754 28.2645 51.1605 28.2225C51.1456 28.1805 51.1481 28.1343 51.1673 28.094C51.1865 28.0538 51.2209 28.0228 51.2629 28.008C51.3049 27.9931 51.3511 27.9955 51.3914 28.0147C51.6618 28.1697 51.8704 28.4133 51.9821 28.7043C51.9898 28.725 51.9934 28.747 51.9926 28.769C51.9918 28.7911 51.9867 28.8128 51.9775 28.8328C51.9683 28.8529 51.9553 28.871 51.9391 28.886C51.9229 28.901 51.9039 28.9127 51.8833 28.9203C51.8647 28.9262 51.845 28.9278 51.8258 28.9249Z" fill="#D44A00"/>
<path d="M50.9754 29.0171C50.9395 28.8777 50.936 28.7318 50.9651 28.5908C50.9941 28.4498 51.0551 28.3173 51.1432 28.2034C50.6398 28.5413 50.2721 28.9619 50.4123 29.5251C50.6169 30.3479 52.6786 30.1273 53.6302 29.9365C54.2507 29.8101 54.584 29.5503 54.7449 29.2469C54.5689 29.328 54.3837 29.3875 54.1933 29.4239C53.2417 29.617 51.18 29.8399 50.9754 29.0171Z" fill="#D44A00"/>
<path d="M52.0968 27.5529C51.1154 27.9873 50.1661 28.5688 50.4258 29.4859C50.6557 30.3064 52.4439 30.1157 53.4966 29.9456C54.6872 29.741 54.7631 29.0446 54.6826 28.47C54.5907 27.8034 53.8138 26.7898 52.0968 27.5529Z" stroke="black" stroke-width="0.459696" stroke-miterlimit="10"/>
<path d="M52.398 28.8286C52.3616 28.8285 52.3262 28.8166 52.2972 28.7946C52.2681 28.7726 52.2471 28.7418 52.2371 28.7068C52.175 28.5122 52.0421 28.3482 51.8647 28.2471C51.8252 28.2257 51.7957 28.1895 51.7828 28.1464C51.7699 28.1033 51.7746 28.0569 51.7958 28.0172C51.8062 27.9974 51.8204 27.9799 51.8376 27.9657C51.8549 27.9514 51.8748 27.9408 51.8962 27.9344C51.9176 27.928 51.9401 27.9259 51.9623 27.9283C51.9845 27.9307 52.0061 27.9375 52.0256 27.9483C52.2836 28.0945 52.476 28.3338 52.5635 28.6171C52.5755 28.6604 52.5699 28.7067 52.548 28.7459C52.526 28.7851 52.4894 28.814 52.4462 28.8263L52.398 28.8286Z" fill="#D44A00"/>
</g>
<defs>
<clipPath id="clip0_708_158666">
<rect width="201" height="201" rx="16.08" fill="white"/>
</clipPath>
</defs>
</svg>
