<svg width="34" height="34" viewBox="0 0 34 34" fill="none" xmlns="http://www.w3.org/2000/svg">
<rect x="1" y="1" width="32" height="32" rx="8" fill="white" stroke="#33363F"/>
<g clip-path="url(#clip0_37_1169)">
<path d="M10.9221 22C13.0882 22 14.8442 21.2006 14.8442 20.2144C14.8442 19.2283 13.0882 18.4288 10.9221 18.4288C8.75599 18.4288 7 19.2283 7 20.2144C7 21.2006 8.75599 22 10.9221 22Z" fill="#444444"/>
<path d="M23.5587 22C25.7248 22 27.4808 21.2006 27.4808 20.2144C27.4808 19.2283 25.7248 18.4288 23.5587 18.4288C21.3926 18.4288 19.6366 19.2283 19.6366 20.2144C19.6366 21.2006 21.3926 22 23.5587 22Z" fill="#DDDDDD"/>
<path fill-rule="evenodd" clip-rule="evenodd" d="M9.88456 20.2144C9.84901 20.2146 9.81379 20.2076 9.78098 20.1939C9.74818 20.1802 9.71844 20.1601 9.69353 20.1347C9.66862 20.1094 9.64903 20.0793 9.63593 20.0462C9.62283 20.0132 9.61648 19.9779 9.61725 19.9423C9.7509 15.5317 13.1124 12 17.2394 12C21.3663 12 24.7278 15.5317 24.8615 19.9423C24.8622 19.9779 24.8559 20.0132 24.8428 20.0462C24.8297 20.0793 24.8101 20.1094 24.7852 20.1347C24.7603 20.1601 24.7306 20.1802 24.6977 20.1939C24.6649 20.2076 24.6297 20.2146 24.5942 20.2144H22.0874C22.0152 20.2135 21.946 20.1848 21.8943 20.1344C21.8426 20.0839 21.8123 20.0155 21.8096 19.9433C21.6894 17.1106 19.6894 14.8567 17.2403 14.8567C14.7913 14.8567 12.7913 17.1106 12.6711 19.9433C12.6684 20.0155 12.638 20.0839 12.5863 20.1344C12.5346 20.1848 12.4655 20.2135 12.3932 20.2144H9.88456Z" fill="#FF957E"/>
</g>
<defs>
<clipPath id="clip0_37_1169">
<rect width="20.4808" height="10" fill="white" transform="translate(7 12)"/>
</clipPath>
</defs>
</svg>
