<svg xmlns="http://www.w3.org/2000/svg" width="32" height="32" fill="none" viewBox="0 0 32 32"><g clip-path="url(#a)"><rect width="32" height="32" fill="#FFE804" rx="8"/><path fill="#fff" d="m16.444 4.444-1.51.89-1.245 1.421-.978 2.49-.356 2.577-2.577.356-3.823 2.933L4.445 20l.622 3.555.8-.622.622 1.6 1.244-1.244.445 1.51.444.534 1.422-2.4 2.311-.178v1.6l-.888.89v1.244l2.222.178.71-.89v-2.844l.268-.355 1.688.355.178.89v1.51l-.889 1.334.89.622 1.955-.445.266-4.977.623-.356 1.777.622 1.156 3.378 1.511-2.311.889 1.422 1.422-1.422 1.067.267.178-4.445-1.423-4.622-2.666-1.956L21.422 12l-1.067-.445-.977-4.977-1.6-1.778-1.334-.267v-.089Z"/><path fill="#000" d="M27.911 20.622v-.267l-.089-.178c0-.088-.178-.444 0-.533 0-.178 0-.266-.178-.444.178-.09 0-.267 0-.445v-.266l.178-.09c-.178 0 0-.266-.178-.266 0-.178-.177-.267 0-.267l-.088-.355v-.089a3.555 3.555 0 0 1-.178-1.067c-.178 0-.178-.089-.178-.178v-.266c-.089 0-.178-.178-.089-.267-.178 0-.089-.089-.178-.178v-.355l-.177-.356c0-.178-.178-.178-.178-.266v-.09H26.4v-.266l-.178-.089a2.654 2.654 0 0 0-.267-.355v.088c-.088 0 0-.088 0-.177h-.177v-.178H25.6v-.178h-.267l-.355-.267V12.8c-.09 0 0 0 0-.09h-.445L24 12.445c0-.089-.178 0-.178-.178-.089 0 0 .178-.089 0-.089 0-.178 0-.266-.177 0 .177-.09 0-.267 0a.71.71 0 0 1-.356-.267s-.266-.089-.355 0l-.089-.178s0 .09-.089 0h-.978c-.177-.089-.266-.178-.355 0H20.8l-.089-.267v-1.244c.089-.089.089-.355 0-.355v-.356l-.089-.178c-.089 0-.089 0 0 0l-.178-.355v-.267c0 .089 0 .089 0 0v-.356c-.177-.177-.088-.266 0-.444h-.177v-.178l-.09-.178-.088-.177L20 6.933s0-.267-.178-.267l-.089-.177h-.089v-.09l-.088-.088v-.089l-.178-.444v.088l-.09-.088H19.2s-.178-.09 0-.267h-.267l-.266-.533c-.178-.09-.356-.178-.356-.356-.267 0-.355-.178-.533-.356l-.267.09c-.178-.267-.622-.267-.889-.267 0 .089 0 .089 0 0h-.178c-.177 0-.088.177-.177.177v-.088l-.445.088-.266.178s-.356 0-.267.09c0-.09 0-.09 0 0v.088l-.089-.089c0 .178-.267.178-.356.356l-.266.177-.445.445c-.177 0-.266.089-.266.178l-.09.177-.266.356c0 .089 0 .178-.089 0l-.089.267-.178.355v.09H12.8l-.622.088c-.534 0-1.156-.267-1.6 0-.178-.178-.445 0-.534-.089 0 .089-.177.089-.088 0H9.6v.178c-.089 0-.089 0 0 .089h.178c.089.089 0 0 0 .089.178 0 .178 0 0 0l.355.089h.445c.178.177.444.266.622.177-.178.178.178 0 .356.09l.444.177h.533V8l.267.089c0 .089-.178.089-.089.177v.267s0 .178-.178.178v.178c-.178 0 0 .266-.178.355v.622s0 .178-.177.09v1.777H12c-.356-.178-.622 0-.889-.089h-.444l-.445.178-.8.267h-.178l-.533.355-.178.178-.177.089-.178.178-.356.266-.089.178c-.089 0-.177 0-.266.178L7.2 13.6l-.178.089-.444.444-.178.356-.178.088-.178.178-.088.178-.178.267v.089l-.09.088v.267H5.6L5.333 16v.266l-.089.09c-.177.088-.177.177-.177.355 0 0 0 .178-.09.089 0 .089-.177.266 0 .355H4.89a.889.889 0 0 0-.178.445l-.178.533c0 .178 0 .356-.177.445v.977l-.09.445c0 .089-.177.177-.088.266-.178 0 0 .09 0 .178h-.09v1.067l.09.533c.178.09.178.267.178.356-.09.178 0 .71 0 .71h.088l.09.623c0 .178 0 .178.177.267.178.177 0 .444.267.355 0 .356.444.09.533-.089V24c.178-.356.178-.356 0 0 .178-.178.356-.267.356-.445v.267l.177.355c0 .267.178.445.356.534h.356c.177 0 .266-.178.355-.356L7.378 24l.178-.267h.177c0 .178 0 .267.178.356-.267.088 0 .444 0 .622v.889c.178.089.178.089 0 0l.445.355s.533-.266.355-.355H8.8c.178 0 .267-.267.356-.445l.177-.266v-.09l.09-.355c0-.089 0-.089 0 0 .177 0 .177-.178.266-.267-.089-.088 0-.088 0-.177v-.09l.178-.177.177-.267v-.088c0-.09.267 0 .356-.178 0-.178.178-.178.355-.267.09 0 .09 0 0 0h1.423v.089c0 .178-.267.356-.09.622-.088.09 0 .178 0 .356v.533c-.444 0-.532.444-.888.711l-.178.445v.533l.09.355.177.356.267.178c.088.089.177.089.355 0h.267l.177-.178-.444.178c0-.089 0-.089 0 0l.444-.178.445.089.267-.089h.444l.445-.089.444-.355.178-.445v-.533c.178-.445 0-.8 0-1.156.178-.266 0-.444 0-.533v-1.067c.178 0 .355.178.444.09l.356.088H16c0-.089 0-.089 0 0h-.622l.533.089h.267v.711c-.178 0 0 .356 0 .444v.623l.177.089c-.177.177-.177.355-.088.533-.178 0-.356.089-.356.267-.178 0-.267.177-.355.266l-.178.623v.177l.089.267s.088 0 0 .089c.177 0 .355.267.533.355.267.09.267.09 0 0l.267.09h.355c0 .177.178.088.267.088-.089.09 0 0 .178.09h.266c.267.177.534 0 .711 0l.534-.534.178-.267c0 .267-.623.533-.89.622 0 .178-.266.09-.533.178.267 0 .445 0 .623-.178.177-.089.8-.355.8-.622V25.6c.177-.178 0-.445.088-.623v-.888c.178-.356 0-.623.178-1.067-.089 0-.178-.267-.089-.356-.089 0-.089 0 0 0v-.088c.09-.356-.177-.623.356-.712h.8c-.178-.177-.178-.177 0 0l.355.178c.178 0 .178.267.267.267l.178.178c0 .177 0 .266.178.444l.088.178.178.355v.178s.178 0 0 .09l.178.088v.355c0 .267 0 .356.178.534v.533h.089c0-.178 0-.178 0 0v.445c0 .177 0 0 .178 0 0 .088 0 .088 0 0-.09 0-.178.177-.178 0-.09.177.089.088.178.088l-.09.267v.356c.356.355.623 0 .712-.356l.178-.089v-.444l.088-.356h.09l.444-.71.444-.534.09.355c.088.178 0 .356.177.356v.178c0-.267 0-.534-.267-.711.178.177.267.444.267.71v.178l.178.267c0 .178.266.356.444.356h.089c.089 0 .178-.09.089-.178l.267-.178c0-.178 0-.355.177-.444 0-.267 0-.267 0 0l.267-.623c0-.177.178-.266.267-.444v-.178l.355.356-.267-.356v.178h.09l.177.267c0 .177.356.177.445.266 0-.088.177 0 .355 0l.267-.177.266-.178v-.267s.09-.266 0-.178v-.177c.178 0 0 0 0-.09.09 0 0-.088 0-.088l.09-.356c0-.177.177-.266 0-.444.266 0 .177-.267.177-.356v-1.333h.09Zm-3.467 4.622.09.178-.09-.089v-.089Zm.178.178c0-.178 0 0-.089 0h.267-.178Zm2.49-3.645c-.09 0 0 .09 0 .178l-.09.534c-.178 0 0 .177-.089.355.178 0 0 .178 0 .178l-.177.178-.09-.178-.177-.267H26.4l-.089-.089h-.267c-.177 0-.266.178-.444.356h-.267l-.089.267v.177l-.355.178v.178L24.71 24c0-.178 0-.534-.178-.445l-.178-.444v.089c.09-.267-.177-.356-.177-.534l-.267.09h-.089v.088l-.355.178v.089c-.178.089-.267.355-.267.444-.178.267-.267.622-.533.8-.178.09 0 .445-.267.445v-.978c-.089 0-.178-.267-.089-.444-.178 0-.267-.267-.267-.356l-.266-.444v-.09l-.178-.355c-.089-.089-.178 0-.178-.178l-.267-.177h-.088l-.267-.356h-.356l-.355-.089h-.445l-.088-.089-.178.09h-.356c-.266 0-.355 0-.444.177l-.178.444v.356l-.089.622h-.089v3.556l-.267.088-.177.09c-.267 0-.356 0-.445.177h-.622c-.267 0-.533 0-.622-.355 0 0 0-.178.178-.267l.266-.267s.178-.177 0-.266c.267 0 .178-.178.267-.356V24.8c-.178 0-.089 0 0 0v-.89l-.089-.266c0-.178 0-.444-.178-.622v-.089l-.089-.178s.09 0 0-.089c.178-.088 0-.266 0-.355 0 0-.177 0-.177-.178-.09 0 0 0 0-.089-.178.178-.356 0-.445 0-.266 0-.355.178-.533 0H15.2l-.178-.089-.178.09v.088h-.177c-.178 0-.267 0-.267.178h-.089l-.089.267v.444c-.089.178-.178.356-.089.622-.177 0 0 .356-.089.445v.355l-.088.445.088.266v.445l-.177.533-.445.178H12.8l-.356.089h-.177l-.178-.09h-.178l-.178-.088c-.178-.267-.089-.445 0-.711 0-.178.267-.267.267-.534-.356 0-.356 0 0 0l.355-.355c.09 0 .09-.178.267-.178v-1.066c0 .088 0 .088 0 0 0-.178 0-.267-.178-.267l.09-.178v-.267l-.09-.088c-.266-.267-.533-.356-.889-.445h-.533s-.178 0-.178.178c-.177-.178-.533 0-.71 0-.09 0-.178.267-.445.267v.088c0 .178-.089 0-.178.09 0 .088-.178.177 0 .266-.267 0-.267.267-.444.356l-.09.177-.177.09-.178.621v.09l-.266.177v.267-.356l-.178-.178c0-.355-.178-.8-.356-.977l-.178-.445H7.29c0 .178-.267.178-.178.356l-.178.089v.088a.536.536 0 0 0-.355.445V24l-.267-.534-.089-.355c-.089-.178 0-.267 0-.356l-.178-.177c-.177 0-.177.088-.355 0v.177l-.089.09c-.267 0-.178.266-.178.355l-.178-.178v-.267c-.177-.266-.177-.622-.266-.889v-1.6c0 .356 0 .356 0 0v-.444c0-.178.178-.356 0-.444l.266-.178c-.088-.445 0-.89.178-1.245-.089 0-.089-.177 0-.177v-.356c0-.178.178-.267.356-.445l.089-.355c.177 0 .177-.267.177-.356L6.222 16v-.09l.267-.444.267-.355.266-.267c0-.089 0-.178.178-.266.089 0 .267-.09.267-.267l.177-.089.178-.178v-.178l.534-.355.355-.267H8.8v-.089h.267c0-.178.089-.178.177-.266-.088 0-.177.177-.266.088 0 .09 0 .09 0 0 .089.09.178 0 .266-.088l.09-.09.444-.177.355-.089c.267-.178.623-.267.89-.178l.71-.089H12s.089 0 0-.088c.267 0 .267.177.444 0V12c.09 0 0-.178 0-.178v-.267l.09-.089c.088-.177.177-.266 0-.444.177 0 .177-.267.177-.444h-.089c0-.445.09-.445 0 0l.178-.267c-.089-.178 0-.267 0-.356v-.177c0-.178 0-.356.178-.534.089 0 0-.178.178-.266-.09 0 0-.09 0-.178v-.356c.177 0 .266-.178.266-.355 0-.178 0-.356.178-.445l.267-.355c0-.09 0-.09 0 0V7.11s.088-.089 0-.178c.355-.089.355-.533.622-.711l.266-.267c0-.177.267-.355.356-.444l.356-.089s.266 0 .177-.178l.267-.089.178-.177h.089l.71-.178h.356c.178 0 .09.089.178.178l.445.177v.09c.266.266.355.266 0 0l.355.355c.178.178.267.533.534.71-.178.179.266.445.266.623v.178c.178 0 0 .178.178.267v.088l.178.267.089.533.088.267v.533l.09.267v.711l.177.622v.89c.178.177.178.177 0 0v-.534.444L20 12h.089c.089.089.267.266.355.178h.623l.355.088h.267s0 .178.178.09l.71.088.356.178c.267.178.711.267.89.533H24v.178c.267 0 .355.267.533.267.267 0 .356.266.534.355l.444.356c.089.178 0 .444.356.355l.177.623c.267.266.267.266 0 0v.177l.178.356c0 .178.178.267.267.444h-.178v.267l.178.178v.267l.178.266c0 .178 0 .356.177.356-.266 0 0 .355 0 .355 0 .267 0 .356 0 0v.267c-.177.178.09.355 0 .533v.178c0-.089 0-.089 0 0v.622c.09 0 .09 0 0 .09v.444l.178.355v.356s-.089.089 0 .177v.09c0 .177 0 .177 0 0h-.089l.09.177v.534h.088Z"/><path fill="#000" d="M17.334 6.222h-.178l-.267.09-.178.355.09.266h.177l.356.09.266-.268V6.4c-.178 0-.178-.178-.266-.178Zm-1.6 0h-.356c-.267.09-.267.267-.267.445v.177l.445.178h.089l.177-.089v-.178c.09-.088.178-.177.09-.355l-.09-.178h-.088Z"/></g><defs><clipPath id="a"><path fill="#fff" d="M0 0h32v32H0z"/></clipPath></defs></svg>