<svg width="24" height="16" viewBox="0 0 24 16" fill="none" xmlns="http://www.w3.org/2000/svg">
<path fill-rule="evenodd" clip-rule="evenodd" d="M12 1.22001C12.7872 0.898874 13.6298 0.735775 14.48 0.74001C19.81 0.74001 24 7.11001 24 15.26H20.31C20.31 10.33 18.48 6.56001 16.38 5.10001C15.8304 4.68701 15.1671 4.4531 14.48 4.43001C13.5385 4.48106 12.6518 4.88868 12 5.57001C10.16 7.26001 8.65 10.79 8.65 15.26H5C4.9113 11.6879 5.8222 8.16212 7.63 5.08001C8.64814 3.36882 10.1762 2.0191 12 1.22001ZM9.15 0.75001C4 1.00001 0 7.30001 0 15.26H3.12C3.12 8.88001 5.54 3.47001 9.15 0.75001ZM14.48 6.27001C13.9682 6.32911 13.4989 6.58344 13.17 6.98001C14.6745 9.47432 15.4312 12.3482 15.35 15.26H18.46C18.46 9.68001 15.88 6.27001 14.48 6.27001Z" fill="url(#paint0_linear_37_827)"/>
<defs>
<linearGradient id="paint0_linear_37_827" x1="24" y1="15" x2="-1.79127e-07" y2="15" gradientUnits="userSpaceOnUse">
<stop stop-color="#FFE804"/>
<stop offset="1" stop-color="#BC9CFF"/>
</linearGradient>
</defs>
</svg>
