<svg width="24" height="24" viewBox="0 0 24 24" fill="none" xmlns="http://www.w3.org/2000/svg">
<g clip-path="url(#clip0_42_1109)">
<path d="M9.15 5C4 5.25 0 11.55 0 19.51H3.12C3.12 13.13 5.54 7.72 9.15 5Z" fill="#BC9CFF"/>
<path d="M14.4799 10.52C13.9681 10.5791 13.4988 10.8335 13.1699 11.23C14.6745 13.7243 15.4311 16.5982 15.3499 19.51H18.4599C18.4599 13.93 15.8799 10.52 14.4799 10.52Z" fill="#BC9CFF"/>
<path d="M14.4801 4.74001C13.6299 4.73578 12.7872 4.89887 12.0001 5.22001C10.1763 6.0191 8.6482 7.36882 7.63005 9.08001C5.82225 12.1621 4.91135 15.6879 5.00005 19.26H8.65005C8.65005 14.79 10.1601 11.26 12.0001 9.57001C12.6518 8.88868 13.5386 8.48106 14.4801 8.43001C15.1671 8.4531 15.8305 8.68701 16.3801 9.10001C18.4801 10.56 20.3101 14.33 20.3101 19.26H24.0001C24.0001 11.11 19.8101 4.74001 14.4801 4.74001Z" fill="#6851B4"/>
</g>
<defs>
<clipPath id="clip0_42_1109">
<rect width="24" height="24" fill="white"/>
</clipPath>
</defs>
</svg>
