<svg width="32" height="32" viewBox="0 0 32 32" fill="none" xmlns="http://www.w3.org/2000/svg">
<g clip-path="url(#clip0_8229_671)">
<path opacity="0.3" d="M11.4062 12.7691C11.4062 12.0165 12.0163 11.4065 12.7688 11.4065H24.5209C25.2735 11.4065 25.8835 12.0165 25.8835 12.7691V24.5213C25.8835 25.2738 25.2735 25.8837 24.5209 25.8837H12.7688C12.0163 25.8837 11.4062 25.2738 11.4062 24.5213V12.7691Z" fill="#FF0093"/>
<path opacity="0.5" d="M23.2097 21.847C23.2097 22.5995 22.5996 23.2094 21.8471 23.2094H10.095C9.34246 23.2094 8.73242 22.5995 8.73242 21.847V10.0947C8.73242 9.34222 9.34246 8.73218 10.095 8.73218H21.8471C22.5996 8.73218 23.2097 9.34222 23.2097 10.0947V21.847Z" fill="#FF0093"/>
<path opacity="0.9" d="M20.5349 19.1718C20.5349 19.9244 19.9249 20.5344 19.1723 20.5344H7.42018C6.66766 20.5344 6.05762 19.9244 6.05762 19.1718V7.4197C6.05762 6.66717 6.66766 6.05713 7.42018 6.05713H19.1723C19.9249 6.05713 20.5349 6.66717 20.5349 7.4197V19.1718Z" fill="#FF0093"/>
</g>
<defs>
<clipPath id="clip0_8229_671">
<rect width="20" height="20" fill="white" transform="translate(6 6)"/>
</clipPath>
</defs>
</svg>
