<svg width="32" height="32" viewBox="0 0 32 32" fill="none" xmlns="http://www.w3.org/2000/svg">
<path d="M0 8C0 3.58172 3.58172 0 8 0H24C28.4183 0 32 3.58172 32 8V24C32 28.4183 28.4183 32 24 32H8C3.58172 32 0 28.4183 0 24V8Z" fill="#FF0420"/>
<path d="M11.3366 20.2525C10.3839 20.2525 9.60336 20.0283 8.99491 19.58C8.39446 19.1237 8.09424 18.4753 8.09424 17.6346C8.09424 17.4585 8.11427 17.2423 8.15427 16.9861C8.2584 16.4097 8.40649 15.7172 8.59862 14.9086C9.143 12.707 10.5481 11.6062 12.8137 11.6062C13.4302 11.6062 13.9825 11.7103 14.4709 11.9184C14.9593 12.1185 15.3436 12.4228 15.6238 12.8311C15.904 13.2314 16.0441 13.7117 16.0441 14.2721C16.0441 14.4402 16.0241 14.6524 15.984 14.9086C15.864 15.6211 15.7198 16.3137 15.5517 16.9861C15.2715 18.0829 14.7872 18.9035 14.0986 19.4479C13.4101 19.9843 12.4895 20.2525 11.3366 20.2525ZM11.5047 18.5233C11.9531 18.5233 12.3333 18.3912 12.6456 18.127C12.9658 17.8628 13.194 17.4585 13.3301 16.9141C13.5142 16.1615 13.6544 15.505 13.7504 14.9446C13.7824 14.7765 13.7984 14.6044 13.7984 14.4282C13.7984 13.6997 13.4181 13.3354 12.6576 13.3354C12.2092 13.3354 11.825 13.4675 11.5047 13.7317C11.1925 13.996 10.9683 14.4002 10.8323 14.9446C10.6882 15.481 10.544 16.1375 10.4 16.9141C10.3679 17.0742 10.3519 17.2423 10.3519 17.4184C10.3519 18.155 10.7362 18.5233 11.5047 18.5233Z" fill="white"/>
<path d="M16.5952 20.1325C16.5071 20.1325 16.439 20.1045 16.391 20.0484C16.351 19.9844 16.339 19.9124 16.355 19.8323L18.0122 12.0265C18.0282 11.9385 18.0723 11.8664 18.1443 11.8103C18.2164 11.7543 18.2924 11.7263 18.3725 11.7263H21.5668C22.4555 11.7263 23.168 11.9104 23.7044 12.2787C24.2488 12.647 24.521 13.1794 24.521 13.8759C24.521 14.076 24.497 14.2842 24.449 14.5003C24.2488 15.421 23.8445 16.1016 23.2361 16.5419C22.6357 16.9822 21.811 17.2024 20.7622 17.2024H19.1411L18.5887 19.8323C18.5726 19.9204 18.5286 19.9924 18.4566 20.0484C18.3845 20.1045 18.3084 20.1325 18.2284 20.1325H16.5952ZM20.8463 15.5451C21.1825 15.5451 21.4748 15.453 21.7229 15.2689C21.9791 15.0848 22.1473 14.8206 22.2273 14.4763C22.2513 14.3402 22.2634 14.2201 22.2634 14.1161C22.2634 13.8839 22.1953 13.7078 22.0592 13.5877C21.9231 13.4596 21.6909 13.3956 21.3627 13.3956H19.9216L19.4653 15.5451H20.8463Z" fill="white"/>
</svg>
