<?xml version="1.0" standalone="no"?>
<!DOCTYPE svg PUBLIC "-//W3C//DTD SVG 20010904//EN"
 "http://www.w3.org/TR/2001/REC-SVG-20010904/DTD/svg10.dtd">
<svg version="1.0" xmlns="http://www.w3.org/2000/svg"
 width="32.000000pt" height="32.000000pt" viewBox="0 0 32.000000 32.000000"
 preserveAspectRatio="xMidYMid meet">

<g transform="translate(0.000000,32.000000) scale(0.100000,-0.100000)"
fill="#000000" stroke="none">
<path d="M91 285 c-32 -28 -56 -85 -48 -115 3 -11 -5 -27 -19 -41 -32 -30 -30
-39 7 -39 32 0 34 -5 14 -53 -14 -33 11 -17 28 18 14 29 22 35 47 35 28 0 30
-2 30 -40 0 -51 18 -53 22 -2 3 32 7 37 31 40 23 3 30 -2 42 -32 9 -20 20 -36
26 -36 7 0 8 7 4 18 -20 47 -18 52 14 52 36 0 39 10 11 35 -13 11 -20 31 -20
53 0 107 -112 171 -189 107z m112 4 c12 -6 30 -21 39 -33 22 -26 24 -96 4 -96
-29 0 -46 13 -46 35 0 30 -26 56 -48 48 -22 -8 -32 -23 -32 -49 0 -21 -17 -34
-46 -34 -10 0 -14 12 -14 38 1 75 78 124 143 91z m-25 -82 c2 -10 -3 -17 -12
-17 -18 0 -29 16 -21 31 9 14 29 6 33 -14z m-88 -92 c0 -8 -4 -15 -9 -15 -13
0 -22 16 -14 24 11 11 23 6 23 -9z m80 0 c0 -8 -4 -15 -10 -15 -5 0 -10 7 -10
15 0 8 5 15 10 15 6 0 10 -7 10 -15z m82 0 c0 -5 -5 -11 -11 -13 -6 -2 -11 4
-11 13 0 9 5 15 11 13 6 -2 11 -8 11 -13z"/>
</g>
</svg>
