<svg width="32" height="32" viewBox="0 0 32 32" fill="none" xmlns="http://www.w3.org/2000/svg">
<path d="M0 8C0 3.58172 3.58172 0 8 0H24C28.4183 0 32 3.58172 32 8V24C32 28.4183 28.4183 32 24 32H8C3.58172 32 0 28.4183 0 24V8Z" fill="#8247E5"/>
<path d="M12.24 8.03C13.4 8.71 14.56 9.41 15.73 10.09C15.9861 10.1948 16.2023 10.3781 16.3479 10.6134C16.4934 10.8487 16.5606 11.1241 16.54 11.4C16.525 11.6765 16.525 11.9535 16.54 12.23C16.5662 12.3764 16.5406 12.5273 16.4676 12.6569C16.3946 12.7865 16.2788 12.8866 16.14 12.94C15.76 13.12 15.41 13.35 15.05 13.56C14.87 13.67 14.79 13.63 14.79 13.41C14.79 13.04 14.79 12.67 14.79 12.3C14.8 12.0834 14.7491 11.8683 14.643 11.6792C14.537 11.4901 14.38 11.3344 14.19 11.23C13.61 10.89 13.04 10.54 12.47 10.23C12.2782 10.1048 12.0541 10.0381 11.825 10.0381C11.5959 10.0381 11.3718 10.1048 11.18 10.23L9.41 11.23C9.2285 11.3246 9.07762 11.4688 8.97494 11.6459C8.87225 11.8229 8.82199 12.0255 8.83 12.23C8.83 12.96 8.83 13.7 8.83 14.43C8.80958 14.634 8.85236 14.8393 8.95252 15.0182C9.05269 15.1971 9.20541 15.3408 9.39 15.43C9.97 15.78 10.55 16.14 11.14 16.48C11.3411 16.615 11.5778 16.6871 11.82 16.6871C12.0622 16.6871 12.2989 16.615 12.5 16.48C14.5 15.21 16.68 14.1 18.73 12.84C18.9775 12.671 19.2703 12.5807 19.57 12.5807C19.8697 12.5807 20.1625 12.671 20.41 12.84C21.48 13.5 22.58 14.11 23.67 14.74C23.8728 14.8448 24.0406 15.0068 24.1525 15.2058C24.2645 15.4048 24.3157 15.6322 24.3 15.86C24.3 17.21 24.3 18.57 24.3 19.92C24.3098 20.1428 24.2557 20.3638 24.1441 20.557C24.0325 20.7501 23.868 20.9073 23.67 21.01L19.97 23.15H19.11L15.44 20.93C15.2414 20.8297 15.0739 20.677 14.9558 20.4884C14.8377 20.2998 14.7735 20.0825 14.77 19.86C14.77 19.47 14.77 19.07 14.77 18.68C14.7656 18.6021 14.7841 18.5246 14.8232 18.4571C14.8623 18.3896 14.9203 18.335 14.99 18.3L16.27 17.56C16.47 17.44 16.56 17.49 16.56 17.72V18.87C16.5481 19.0637 16.5929 19.2566 16.6888 19.4253C16.7846 19.594 16.9275 19.7311 17.1 19.82L18.9 20.82C19.089 20.9379 19.3073 21.0004 19.53 21.0004C19.7527 21.0004 19.971 20.9379 20.16 20.82L21.86 19.82C22.0525 19.721 22.2118 19.568 22.3184 19.3796C22.425 19.1913 22.4742 18.9759 22.46 18.76C22.46 18.08 22.46 17.39 22.46 16.71C22.4745 16.4876 22.4235 16.2658 22.3133 16.0721C22.2031 15.8784 22.0386 15.7212 21.84 15.62C21.32 15.32 20.84 15.03 20.29 14.72C20.0471 14.5536 19.7595 14.4646 19.465 14.4646C19.1705 14.4646 18.8829 14.5536 18.64 14.72C16.64 15.92 14.56 17.09 12.53 18.28C12.2973 18.4391 12.0219 18.5242 11.74 18.5242C11.4581 18.5242 11.1827 18.4391 10.95 18.28C9.95 17.66 8.95 17.07 7.88 16.49C7.67776 16.3977 7.49585 16.2663 7.34479 16.1032C7.19373 15.9401 7.07654 15.7487 7 15.54V10.94C7.14826 10.5567 7.4383 10.2452 7.81 10.07C8.01 9.97 8.2 9.85 8.4 9.73C9.4 9.15 10.4 8.63 11.32 8L12.24 8.03Z" fill="white"/>
</svg>
