<svg width="34" height="34" viewBox="0 0 34 34" fill="none" xmlns="http://www.w3.org/2000/svg">
<rect x="1" y="1" width="32" height="32" rx="8" fill="white" stroke="#33363F"/>
<path d="M16.2625 16.4008C18.5388 16.4008 20.3842 18.2459 20.3842 20.5225H25.785C25.7847 15.2631 21.5213 11 16.2622 11V16.4008H16.2625Z" fill="black"/>
<path d="M16.2625 13.7016H13.5609V16.4031H16.2625V13.7016Z" fill="#0072CE"/>
<path d="M13.5608 13.7016H10.8593V16.4031H13.5608V13.7016Z" fill="#37DBF4"/>
<path d="M9.70157 15.2454H7V17.947H9.70157V15.2454Z" fill="#F2EE83"/>
<path d="M13.5608 16.4031H10.8593V19.1047H13.5608V16.4031Z" fill="#00C08B"/>
<path d="M10.8593 19.1047H8.15771V21.8063H10.8593V19.1047Z" fill="#FFB259"/>
<path d="M14.7186 20.2624H12.0173V22.964H14.7192L14.7186 20.2624Z" fill="#FF585D"/>
<path d="M16.2625 11H13.5609V13.7016H16.2625V11Z" fill="#8FCDFF"/>
</svg>
