<svg width="24" height="24" viewBox="0 0 24 24" fill="none" xmlns="http://www.w3.org/2000/svg">
<g clip-path="url(#clip0_6759_209574)">
<path d="M23.7182 11.278C23.2776 12.8519 22.2417 14.5477 20.9174 15.1962C16.7933 17.2151 14.6496 12.8533 14.9088 9.67381C15.0643 7.76437 15.6835 6.24613 15.2064 4.69333C15.0542 4.19797 14.7307 3.73957 14.2008 3.49141C12.7469 2.81029 11.3241 3.74677 10.6627 4.73893C9.94895 5.80885 9.61391 7.14757 9.70463 8.37109C9.79151 9.54997 10.1995 10.3228 10.8149 11.3783C11.6371 12.7885 12.5126 13.7044 12.8477 14.7872C13.0637 15.4852 13.1865 16.6117 12.1944 16.7063C11.1465 16.8066 11.1993 15.4328 11.1845 14.7436C11.1398 12.6488 9.80927 11.8943 8.80751 9.48133C8.22239 8.07205 7.99439 6.58165 8.33663 5.11045C8.81807 3.04021 9.99119 1.37125 12.1061 0.793809C13.7971 0.332049 15.7555 0.710769 16.8259 2.19157C18.0984 3.95221 17.8502 6.02917 17.3328 7.87477C16.3752 11.289 17.2305 12.9167 18.0288 13.3424C19.5403 14.1484 21.1262 13.2354 21.8299 12.2677C22.5921 11.2194 23.0467 9.30709 22.9747 8.08309C22.9473 7.61557 22.9061 7.21333 22.8432 6.85237" fill="white"/>
<path d="M0 12.0001C0 12.8756 0.09456 13.7291 0.27264 14.5513C0.2544 13.9316 0.31536 13.3182 0.47568 12.746C0.91632 11.1721 1.95216 9.47627 3.27648 8.82779C7.40064 6.80891 9.54432 11.1707 9.28512 14.3502C9.1296 16.2596 8.5104 17.7779 8.98752 19.3307C9.13968 19.826 9.4632 20.2844 9.99312 20.5326C11.447 21.2137 12.8698 20.2772 13.5312 19.2851C14.245 18.2151 14.58 16.8764 14.4893 15.6529C14.4024 14.474 13.9944 13.7012 13.3795 12.6457C12.5573 11.2355 11.6818 10.3196 11.3467 9.23675C11.1307 8.53883 11.0078 7.41227 12 7.31771C13.0478 7.21739 12.995 8.59115 13.0099 9.28043C13.0546 11.3751 14.3851 12.1297 15.3869 14.5427C15.972 15.9519 16.2 17.4423 15.8578 18.9135C15.3763 20.9838 14.2032 22.6527 12.0883 23.2302C10.3973 23.6919 8.43888 23.3132 7.36848 21.8324C6.096 20.0718 6.34416 17.9948 6.8616 16.1492C7.8192 12.735 6.96384 11.1073 6.1656 10.6815C4.65408 9.87611 3.06816 10.7886 2.36448 11.7563C1.60224 12.8046 1.14768 14.7169 1.21968 15.9409C1.26432 16.7003 1.34592 17.2878 1.49664 17.8062" fill="white"/>
<path d="M12 24C18.6274 24 24 18.6274 24 12C24 5.37258 18.6274 0 12 0C5.37258 0 0 5.37258 0 12C0 18.6274 5.37258 24 12 24Z" fill="#E6FA36"/>
<path d="M15.8578 18.914C16.2 17.4428 15.972 15.9524 15.3869 14.5432C14.3851 12.1302 13.0541 11.3752 13.0099 9.28092C12.9955 8.59164 13.0479 7.21788 12 7.3182C11.0079 7.41324 11.1307 8.5398 11.3467 9.23772C11.6818 10.3206 12.5578 11.2364 13.3795 12.6467C13.9949 13.7022 14.4024 14.475 14.4893 15.6539C14.5795 16.8774 14.245 18.2161 13.5312 19.286C12.8693 20.2782 11.4471 21.2147 9.99313 20.5336C9.46321 20.2854 9.13969 19.8265 8.98753 19.3316C8.51089 17.7784 9.12961 16.2606 9.28513 14.3512C9.54433 11.1716 7.40017 6.80988 3.27649 8.82876C1.95217 9.47724 0.916332 11.1726 0.475692 12.747C0.315372 13.3196 0.254412 13.9326 0.272652 14.5523C0.523212 15.7081 0.939852 16.802 1.49665 17.8076C1.34593 17.2888 1.26433 16.7017 1.21969 15.9424C1.14769 14.7188 1.60273 12.806 2.36449 11.7577C3.06769 10.79 4.65409 9.87708 6.16561 10.683C6.96385 11.1088 7.81921 12.7364 6.86161 16.1507C6.34369 17.9968 6.09553 20.0732 7.36849 21.8339C8.43889 23.3147 10.3973 23.6934 12.0883 23.2316C14.2032 22.6532 15.3768 20.9843 15.8578 18.914Z" fill="black"/>
<path d="M23.7182 11.2782C23.8008 10.984 23.8565 10.6787 23.8891 10.3676C23.8891 10.3691 23.8896 10.37 23.8896 10.371C23.7206 9.12732 23.3616 7.94412 22.8422 6.85164C22.9051 7.21308 22.9464 7.61484 22.9737 8.08236C23.0457 9.30588 22.5907 11.2187 21.8289 12.267C21.1257 13.2347 19.5393 14.1476 18.0278 13.3417C17.2296 12.916 16.3742 11.2883 17.3318 7.87404C17.8497 6.02796 18.0979 3.95148 16.8249 2.19084C15.7545 0.710036 13.7961 0.331317 12.1051 0.793076C9.99021 1.37052 8.81661 3.03948 8.33565 5.10972C7.99341 6.58092 8.22141 8.07132 8.80653 9.4806C9.80829 11.8936 11.1393 12.6486 11.1835 14.7428C11.1979 15.4321 11.1456 16.8059 12.1934 16.7056C13.1856 16.6105 13.0627 15.484 12.8467 14.7865C12.5117 13.7036 11.6356 12.7878 10.8139 11.3776C10.1985 10.322 9.79101 9.54924 9.70365 8.37036C9.61341 7.14684 9.94797 5.80812 10.6617 4.7382C11.3236 3.74604 12.7459 2.80956 14.1998 3.49068C14.7297 3.73884 15.0532 4.19772 15.2054 4.6926C15.682 6.24588 15.0633 7.76364 14.9078 9.67308C14.6486 12.8526 16.7928 17.2144 20.9165 15.1955C22.2413 14.548 23.2776 12.8521 23.7182 11.2782Z" fill="black"/>
</g>
<defs>
<clipPath id="clip0_6759_209574">
<rect width="24" height="24" fill="white"/>
</clipPath>
</defs>
</svg>
