<svg width="32" height="32" viewBox="0 0 32 32" fill="none" xmlns="http://www.w3.org/2000/svg">
<path d="M0.5 8C0.5 3.85786 3.85786 0.5 8 0.5H24C28.1421 0.5 31.5 3.85786 31.5 8V24C31.5 28.1421 28.1421 31.5 24 31.5H8C3.85786 31.5 0.5 28.1421 0.5 24V8Z" fill="black" stroke="black"/>
<path d="M17.5867 8.63649L18.0125 9.63382C18.8482 11.592 20.4079 13.1518 22.3662 13.9875L23.3635 14.4133C23.6245 14.5246 23.8365 14.6842 24 14.8743C23.5033 11.3132 20.6868 8.49629 17.1257 8C17.3154 8.16317 17.4754 8.37546 17.5867 8.63649Z" fill="#999999"/>
<path d="M8.63649 14.4133L9.63382 13.9875C11.592 13.1518 13.1518 11.592 13.9879 9.63382L14.4133 8.63649C14.525 8.37546 14.6846 8.16317 14.8743 8C11.3132 8.49629 8.49667 11.3132 8 14.8743C8.16357 14.6842 8.37548 14.5246 8.63649 14.4133Z" fill="#999999"/>
<path d="M23.3635 17.5863L22.3662 18.0121C20.4079 18.8479 18.8482 20.408 18.0125 22.3662L17.5867 23.3632C17.4754 23.6242 17.3154 23.8365 17.1257 24C20.6868 23.5034 23.5033 20.6865 24 17.1253C23.8365 17.3154 23.6245 17.475 23.3635 17.5863Z" fill="#999999"/>
<path d="M14.4133 23.3632L13.9879 22.3662C13.1518 20.408 11.592 18.8479 9.63382 18.0121L8.63649 17.5863C8.37548 17.475 8.16357 17.3154 8 17.1253C8.49667 20.6865 11.3132 23.5034 14.8743 24C14.6846 23.8365 14.525 23.6242 14.4133 23.3632Z" fill="#999999"/>
<path d="M12.3715 15.2177L12.863 15.0078C13.8278 14.5959 14.5966 13.8275 15.0086 12.8626L15.2181 12.3711C15.512 11.6827 16.4879 11.6827 16.7818 12.3711L16.9913 12.8626C17.4032 13.8275 18.172 14.5959 19.1369 15.0078L19.6284 15.2177C20.3168 15.5116 20.3168 16.4872 19.6284 16.7811L19.1369 16.991C18.172 17.4029 17.4032 18.1713 16.9913 19.1366L16.7818 19.6276C16.4879 20.3161 15.512 20.3161 15.2181 19.6276L15.0086 19.1366C14.5966 18.1713 13.8278 17.4029 12.863 16.991L12.3715 16.7811C11.6831 16.4872 11.6831 15.5116 12.3715 15.2177Z" fill="#F2F2F2"/>
</svg>
