<svg width="32" height="32" viewBox="0 0 32 32" fill="none" xmlns="http://www.w3.org/2000/svg">
<g clip-path="url(#clip0_8229_679)">
<path d="M13.8614 16.7844L14.4243 16.2215V14.2548L13.8614 13.6919H13.0938L12.5601 14.2548V16.2215L13.0938 16.7844H13.8614Z" fill="#75FB6E"/>
<path d="M18.9063 16.7625L19.44 16.1995V14.2548L18.9063 13.6919H18.1313L17.5757 14.2548V16.1995L18.1313 16.7625H18.9063Z" fill="#75FB6E"/>
<path d="M31.5175 12.332L30.7425 12.2296L27.9717 14.3571L27.862 15.1321L27.7377 15.2417H26.9847L26.4217 15.7973V16.5431L26.9335 17.0548V17.318L26.3998 17.881L26.4217 21.3683L26.9847 21.902L27.0139 22.1725L27.0286 22.1871L26.5022 22.7062V23.4812L26.2609 23.7151H22.3422L22.1083 23.4812V23.079V19.5552L21.9986 19.4528L21.5454 18.9995V18.729L21.5015 18.6925L22.0498 18.1442V17.3984L22.0133 17.3546L22.1083 17.3473L22.2618 17.1572L23.0368 17.0768L24.9011 14.6788L24.828 13.9331L25.0107 13.743L25.0034 13.6699L25.0107 13.6626L24.9888 13.4505L24.9815 13.3994L25.5444 12.8364L25.4933 8.36212L24.9303 7.82842V7.76993L24.9596 7.53598L24.7475 7.26548L24.8207 6.49052L22.9344 4.09253L22.1595 4.01211L22.0425 3.85858L22.0498 3.85127V3.10555L21.5161 2.54261H20.8289H20.7704L20.5072 2.33059V1.56294L19.915 1H16.0548H15.9452H12.0777L11.4928 1.56294V2.33059L11.2296 2.54261H11.1711H10.4766L9.94288 3.10555V3.85127L9.95019 3.85858L9.84053 4.01211L9.06557 4.09253L7.17204 6.49052L7.25246 7.26548L7.04044 7.53598L7.06968 7.76993V7.82842L6.50674 8.36212L6.45556 12.8364L7.01119 13.3994L6.98926 13.743L7.19397 13.955L7.12086 14.6788L8.98515 17.0768L9.76011 17.1572L9.92095 17.3473L9.98675 17.3546L9.94288 17.3984V18.1442L10.4766 18.7071L10.4546 18.729V18.9995L10.0014 19.4528L9.89171 19.5552V23.079V23.4812L9.65045 23.7151H5.73178L5.49052 23.4812V22.7062L4.95682 22.1725L4.98606 21.902L5.54901 21.3683L5.57094 17.881L5.03724 17.318L5.06648 17.0548L5.57094 16.5431V15.7973L5.01531 15.2417H4.25497L4.13068 15.1321L4.02833 14.3571L1.25017 12.2296L0.482522 12.332L0 12.9461L0.109664 13.721L2.88051 15.8485L3.65547 15.7462L3.71396 15.79L3.70665 15.7973V16.5431L4.24035 17.106H4.26959V17.2668L3.70665 17.8225L3.65547 21.3171L4.18917 21.8801V22.1432H4.15993L3.62623 22.7062V23.4812L4.15993 24.0148H4.93489L5.17615 24.2488V25.0238L5.70985 25.5575H9.62851L10.1841 25.0238V24.2488L10.4254 24.0148H11.2296L11.756 23.4812V23.2106V19.5552L11.2808 18.9995L11.2515 18.7071L11.8145 18.1442V17.3984L11.2515 16.8355H10.4985L10.3742 16.6747L10.4546 15.907L8.56111 13.509L7.78615 13.4286V13.4213V13.3994L8.3491 12.8657L8.37103 8.4133L7.83733 7.85035L7.84464 7.76993L7.86657 7.748L8.64153 7.66758L10.5058 5.26959L10.4254 4.49463L10.4912 4.41421H11.2515L11.8145 3.85127V3.15673V3.10555L12.0777 2.89353H15.9452H16.0548H19.915L20.1855 3.10555V3.15673V3.85127L20.7485 4.41421H21.5088L21.5746 4.49463L21.4942 5.26959L23.3585 7.66758L24.1334 7.748L24.148 7.76993L24.1554 7.85035L23.6217 8.4133L23.6509 12.8657L24.2138 13.3994V13.4286L23.4681 13.509L21.5746 15.907L21.6477 16.6747L21.5088 16.8574L21.4942 16.8355H20.7192L20.1855 17.3984V18.1442L20.7192 18.7071H20.7485L20.7192 18.9995L20.2659 19.5552V23.2106V23.4812L20.7996 24.0148H21.5746L21.8085 24.2488V25.0238L22.3715 25.5575H26.2902L26.8239 25.0238V24.2488L27.0651 24.0148H27.8401L28.3738 23.4812V22.7062L27.8401 22.1432H27.7816V21.8801L28.3153 21.3171L28.2641 17.8225L27.7012 17.2668V17.106H27.7597L28.2934 16.5431V15.7973L28.286 15.79L28.3445 15.7462L29.1195 15.8485L31.8903 13.721L32 12.9461L31.5175 12.332Z" fill="#75FB6E"/>
<path d="M13.5693 23.854L13.0137 24.4096V25.1846L12.7724 25.4259H11.9975L8.2689 29.074V29.827L8.02764 30.061H4.10897L3.86771 29.827V29.0521L3.30477 28.4891H2.53712L2.00342 29.0521V29.827L2.53712 30.3607H3.30477L3.54603 30.5947V31.3697L4.07973 31.9034H7.99839L8.56133 31.3697V30.5947L8.79528 30.3607L8.82453 30.3827H9.59949L13.3354 26.7345V25.9596L13.5474 25.7183H14.2931L14.9072 25.1846V24.4096L14.3443 23.854H13.5693Z" fill="#75FB6E"/>
<path d="M28.7465 28.4891L28.1836 29.0521V29.827L27.9423 30.061H24.0236L23.7824 29.827V29.074L20.0538 25.4259H19.2788L19.0376 25.1846V24.4096L18.4819 23.854H17.707L17.144 24.4096V25.1846L17.7582 25.7183H18.5039L18.7159 25.9596V26.7345L22.4518 30.3827H23.2267L23.2487 30.3607L23.4899 30.5947V31.3697L24.0529 31.9034H27.9716L28.5052 31.3697V30.5947L28.7465 30.3607H29.5142L30.0479 29.827V29.0521L29.5142 28.4891H28.7465Z" fill="#75FB6E"/>
</g>
<defs>
<clipPath id="clip0_8229_679">
<rect width="32" height="30.9034" fill="white" transform="translate(0 1)"/>
</clipPath>
</defs>
</svg>
