<svg width="32" height="32" viewBox="0 0 32 32" fill="none" xmlns="http://www.w3.org/2000/svg">
<mask id="mask0_419_48383" style="mask-type:alpha" maskUnits="userSpaceOnUse" x="0" y="0" width="32" height="32">
<path d="M0 8C0 3.58172 3.58172 0 8 0H24C28.4183 0 32 3.58172 32 8V24C32 28.4183 28.4183 32 24 32H8C3.58172 32 0 28.4183 0 24V8Z" fill="black"/>
</mask>
<g mask="url(#mask0_419_48383)">
<path d="M0 8C0 3.58172 3.58172 0 8 0H24C28.4183 0 32 3.58172 32 8V24C32 28.4183 28.4183 32 24 32H8C3.58172 32 0 28.4183 0 24V8Z" fill="#121826"/>
<path d="M15.9794 7C15.5251 7 15.1568 7.36058 15.1568 7.80538C15.1568 8.25017 15.5251 8.61075 15.9794 8.61075C16.4337 8.61075 16.802 8.25017 16.802 7.80538C16.802 7.36058 16.4337 7 15.9794 7Z" fill="url(#paint0_radial_419_48383)"/>
<path d="M15.9794 7.44297C16.1839 7.44297 16.3496 7.60522 16.3496 7.80537C16.3496 8.00551 16.1839 8.16776 15.9794 8.16776C15.775 8.16776 15.6093 8.00551 15.6093 7.80537C15.6093 7.60522 15.775 7.44293 15.9794 7.44293V7.44297ZM12.4422 9.13423C11.9879 9.13423 11.6196 9.49481 11.6196 9.93961C11.6196 10.3844 11.9878 10.7449 12.4422 10.7449C12.8965 10.7449 13.2648 10.3844 13.2648 9.93961C13.2648 9.49481 12.8965 9.13423 12.4422 9.13423ZM19.599 9.17448C19.1446 9.17448 18.7764 9.53506 18.7764 9.97986C18.7764 10.4247 19.1446 10.7852 19.599 10.7852C20.0533 10.7852 20.4216 10.4247 20.4216 9.97986C20.4216 9.53506 20.0533 9.17448 19.599 9.17448V9.17448Z" fill="url(#paint1_radial_419_48383)"/>
<path d="M12.4422 9.57715C12.6466 9.57715 12.8124 9.7394 12.8124 9.93958C12.8124 10.1397 12.6466 10.302 12.4422 10.302C12.2377 10.302 12.072 10.1397 12.072 9.93958C12.072 9.7394 12.2377 9.57715 12.4422 9.57715ZM19.599 9.6174C19.8034 9.6174 19.9691 9.77965 19.9691 9.97984C19.9691 10.18 19.8034 10.3422 19.599 10.3422C19.3945 10.3422 19.2288 10.18 19.2288 9.97984C19.2288 9.77969 19.3945 9.6174 19.599 9.6174V9.6174ZM15.9794 10.9866C15.457 10.9866 15.0334 11.4012 15.0334 11.9127C15.0334 12.4242 15.457 12.8389 15.9794 12.8389C16.5019 12.8389 16.9255 12.4242 16.9255 11.9127C16.9255 11.4012 16.5019 10.9866 15.9794 10.9866ZM8.8226 11.1074C8.3683 11.1074 8 11.4679 8 11.9127C8 12.3575 8.3683 12.7181 8.8226 12.7181C9.27695 12.7181 9.64525 12.3575 9.64525 11.9127C9.64525 11.4679 9.27695 11.1074 8.8226 11.1074ZM23.1774 11.1074C22.723 11.1074 22.3548 11.4679 22.3548 11.9127C22.3548 12.3575 22.723 12.7181 23.1774 12.7181C23.6317 12.7181 24 12.3575 24 11.9127C24 11.4679 23.6317 11.1074 23.1774 11.1074V11.1074Z" fill="url(#paint2_radial_419_48383)"/>
<path d="M15.9794 11.4295C16.252 11.4295 16.473 11.6458 16.473 11.9127C16.473 12.1796 16.252 12.3959 15.9794 12.3959C15.7068 12.3959 15.4859 12.1796 15.4859 11.9127C15.4859 11.6458 15.7068 11.4295 15.9794 11.4295V11.4295ZM8.82261 11.5503C9.02706 11.5503 9.19281 11.7126 9.19281 11.9127C9.19281 12.1129 9.02706 12.2751 8.82261 12.2751C8.61817 12.2751 8.45245 12.1129 8.45245 11.9127C8.45245 11.7126 8.61817 11.5503 8.82261 11.5503V11.5503ZM23.1774 11.5503C23.3818 11.5503 23.5476 11.7126 23.5476 11.9127C23.5476 12.1129 23.3818 12.2751 23.1774 12.2751C22.973 12.2751 22.8072 12.1129 22.8072 11.9127C22.8072 11.7126 22.973 11.5503 23.1774 11.5503ZM12.3188 13C11.7963 13 11.3727 13.4146 11.3727 13.9261C11.3727 14.4377 11.7963 14.8523 12.3188 14.8523C12.8412 14.8523 13.2648 14.4377 13.2648 13.9261C13.2648 13.4146 12.8412 13 12.3188 13ZM19.599 13C19.0765 13 18.653 13.4146 18.653 13.9261C18.653 14.4377 19.0765 14.8523 19.599 14.8523C20.1214 14.8523 20.545 14.4377 20.545 13.9261C20.545 13.4146 20.1214 13 19.599 13Z" fill="url(#paint3_radial_419_48383)"/>
<path d="M12.3187 13.443C12.5913 13.443 12.8123 13.6593 12.8123 13.9262C12.8123 14.1931 12.5913 14.4094 12.3187 14.4094C12.0461 14.4094 11.8252 14.1931 11.8252 13.9262C11.8252 13.6593 12.0461 13.443 12.3187 13.443ZM19.599 13.443C19.8715 13.443 20.0925 13.6593 20.0925 13.9262C20.0925 14.1931 19.8715 14.4094 19.599 14.4094C19.3264 14.4094 19.1054 14.1931 19.1054 13.9262C19.1054 13.6593 19.3264 13.443 19.599 13.443Z" fill="url(#paint4_radial_419_48383)"/>
<path d="M8.8226 15.1745C8.3683 15.1745 8 15.5351 8 15.9799C8 16.4247 8.3683 16.7853 8.8226 16.7853C9.27695 16.7853 9.64525 16.4247 9.64525 15.9799C9.64525 15.5351 9.27695 15.1745 8.8226 15.1745ZM23.1774 15.1745C22.723 15.1745 22.3548 15.5351 22.3548 15.9799C22.3548 16.4247 22.723 16.7853 23.1774 16.7853C23.6317 16.7853 24 16.4247 24 15.9799C24 15.5351 23.6317 15.1745 23.1774 15.1745ZM16.0206 15.2953C16.4067 15.2953 16.7198 15.6018 16.7198 15.9799C16.7198 16.358 16.4067 16.6645 16.0206 16.6645C15.6344 16.6645 15.3214 16.358 15.3214 15.9799C15.3214 15.6018 15.6344 15.2953 16.0206 15.2953Z" fill="url(#paint5_radial_419_48383)"/>
<path d="M8.82261 15.6174C9.02706 15.6174 9.19281 15.7797 9.19281 15.9798C9.19281 16.18 9.02706 16.3423 8.82261 16.3423C8.61817 16.3423 8.45245 16.18 8.45245 15.9798C8.45245 15.7797 8.61817 15.6174 8.82261 15.6174V15.6174ZM23.1774 15.6174C23.3818 15.6174 23.5476 15.7797 23.5476 15.9798C23.5476 16.18 23.3818 16.3423 23.1774 16.3423C22.973 16.3423 22.8072 16.18 22.8072 15.9798C22.8072 15.7797 22.973 15.6174 23.1774 15.6174ZM12.4422 17.0671C11.9197 17.0671 11.4961 17.4818 11.4961 17.9933C11.4961 18.5048 11.9197 18.9194 12.4422 18.9194C12.9646 18.9194 13.3882 18.5048 13.3882 17.9933C13.3882 17.4818 12.9646 17.0671 12.4422 17.0671V17.0671ZM19.599 17.0671C19.0765 17.0671 18.653 17.4818 18.653 17.9933C18.653 18.5048 19.0765 18.9194 19.599 18.9194C20.1214 18.9194 20.545 18.5048 20.545 17.9933C20.545 17.4818 20.1214 17.0671 19.599 17.0671V17.0671Z" fill="url(#paint6_radial_419_48383)"/>
<path d="M12.4422 17.5101C12.7148 17.5101 12.9357 17.7264 12.9357 17.9933C12.9357 18.2602 12.7148 18.4765 12.4422 18.4765C12.1696 18.4765 11.9486 18.2602 11.9486 17.9933C11.9486 17.7264 12.1696 17.5101 12.4422 17.5101V17.5101ZM19.599 17.5101C19.8716 17.5101 20.0925 17.7264 20.0925 17.9933C20.0925 18.2602 19.8716 18.4765 19.599 18.4765C19.3264 18.4765 19.1054 18.2602 19.1054 17.9933C19.1054 17.7264 19.3264 17.5101 19.599 17.5101V17.5101ZM15.9794 19.0805C15.457 19.0805 15.0334 19.4952 15.0334 20.0067C15.0334 20.5182 15.457 20.9329 15.9794 20.9329C16.5019 20.9329 16.9255 20.5182 16.9255 20.0067C16.9255 19.4952 16.5019 19.0805 15.9794 19.0805ZM8.8226 19.2416C8.3683 19.2416 8 19.6022 8 20.047C8 20.4918 8.3683 20.8524 8.8226 20.8524C9.27695 20.8524 9.64525 20.4918 9.64525 20.047C9.64525 19.6022 9.27695 19.2416 8.8226 19.2416ZM23.1774 19.2416C22.723 19.2416 22.3548 19.6022 22.3548 20.047C22.3548 20.4918 22.723 20.8524 23.1774 20.8524C23.6317 20.8524 24 20.4918 24 20.047C24 19.6022 23.6317 19.2416 23.1774 19.2416Z" fill="url(#paint7_radial_419_48383)"/>
<path d="M15.9794 19.5235C16.252 19.5235 16.473 19.7398 16.473 20.0067C16.473 20.2736 16.252 20.4899 15.9794 20.4899C15.7068 20.4899 15.4859 20.2736 15.4859 20.0067C15.4859 19.7398 15.7068 19.5235 15.9794 19.5235ZM8.82261 19.6845C9.02706 19.6845 9.19281 19.8468 9.19281 20.047C9.19281 20.2471 9.02706 20.4094 8.82261 20.4094C8.61817 20.4094 8.45245 20.2471 8.45245 20.047C8.45245 19.8468 8.61817 19.6845 8.82261 19.6845V19.6845ZM23.1774 19.6845C23.3818 19.6845 23.5476 19.8468 23.5476 20.047C23.5476 20.2471 23.3818 20.4094 23.1774 20.4094C22.973 20.4094 22.8072 20.2471 22.8072 20.047C22.8072 19.8468 22.973 19.6845 23.1774 19.6845ZM12.4422 21.255C11.9879 21.255 11.6196 21.6156 11.6196 22.0604C11.6196 22.5052 11.9878 22.8658 12.4422 22.8658C12.8965 22.8658 13.2648 22.5052 13.2648 22.0604C13.2648 21.6156 12.8965 21.255 12.4422 21.255ZM19.599 21.2953C19.1446 21.2953 18.7763 21.6559 18.7763 22.1007C18.7763 22.5455 19.1446 22.9061 19.599 22.9061C20.0533 22.9061 20.4216 22.5455 20.4216 22.1007C20.4216 21.6559 20.0533 21.2953 19.599 21.2953Z" fill="url(#paint8_radial_419_48383)"/>
<path d="M12.4422 21.698C12.6466 21.698 12.8124 21.8602 12.8124 22.0604C12.8124 22.2606 12.6466 22.4228 12.4422 22.4228C12.2377 22.4228 12.072 22.2606 12.072 22.0604C12.072 21.8602 12.2377 21.698 12.4422 21.698ZM19.599 21.7383C19.8035 21.7383 19.9692 21.9005 19.9692 22.1007C19.9692 22.3008 19.8035 22.4631 19.599 22.4631C19.3946 22.4631 19.2288 22.3008 19.2288 22.1007C19.2288 21.9005 19.3946 21.7383 19.599 21.7383ZM15.9795 23.3893C15.5251 23.3893 15.1568 23.7498 15.1568 24.1946C15.1568 24.6394 15.5251 25 15.9795 25C16.4338 25 16.8021 24.6394 16.8021 24.1946C16.8021 23.7498 16.4338 23.3893 15.9795 23.3893V23.3893Z" fill="url(#paint9_radial_419_48383)"/>
<path d="M15.9794 23.8322C16.1838 23.8322 16.3496 23.9945 16.3496 24.1946C16.3496 24.3948 16.1838 24.5571 15.9794 24.5571C15.775 24.5571 15.6092 24.3948 15.6092 24.1946C15.6092 23.9945 15.775 23.8322 15.9794 23.8322ZM19.2699 13.7972L16.3496 15.5288L16.5848 15.9075L19.5051 14.176L19.2699 13.7972V13.7972ZM12.6761 13.7576L12.4331 14.1313L15.3945 15.9837L15.6375 15.6099L12.6761 13.7576V13.7576ZM11.8843 13.9551L9.16962 15.6061L9.40873 15.9824L12.1234 14.3314L11.8843 13.9551ZM22.9113 15.8855L19.9909 17.617L20.2262 17.9958L23.1465 16.2643L22.9113 15.8855ZM15.5077 16.0466L12.5874 17.7781L12.8226 18.1569L15.7429 16.4254L15.5077 16.0466V16.0466ZM16.5437 15.9944L16.3007 16.3681L19.2622 18.2205L19.5051 17.8467L16.5437 15.9944V15.9944Z" fill="url(#paint10_radial_419_48383)"/>
<path d="M20.0758 13.8205L19.8328 14.1942L22.7943 16.0466L23.0373 15.6728L20.0758 13.8205ZM9.16191 15.9308L8.91895 16.3045L11.8804 18.1569L12.1234 17.7832L9.16191 15.9308V15.9308Z" fill="url(#paint11_radial_419_48383)"/>
</g>
<defs>
<radialGradient id="paint0_radial_419_48383" cx="0" cy="0" r="1" gradientUnits="userSpaceOnUse" gradientTransform="translate(15.9999 16.0001) scale(7.99998 7.83228)">
<stop stop-color="#FF00FF"/>
<stop offset="1" stop-color="#734CE2"/>
</radialGradient>
<radialGradient id="paint1_radial_419_48383" cx="0" cy="0" r="1" gradientUnits="userSpaceOnUse" gradientTransform="translate(16 16.0001) scale(7.99998 7.83228)">
<stop stop-color="#FF00FF"/>
<stop offset="1" stop-color="#734CE2"/>
</radialGradient>
<radialGradient id="paint2_radial_419_48383" cx="0" cy="0" r="1" gradientUnits="userSpaceOnUse" gradientTransform="translate(16 16.0001) scale(7.99998 7.83228)">
<stop stop-color="#FF00FF"/>
<stop offset="1" stop-color="#734CE2"/>
</radialGradient>
<radialGradient id="paint3_radial_419_48383" cx="0" cy="0" r="1" gradientUnits="userSpaceOnUse" gradientTransform="translate(16 16.0001) scale(7.99998 7.83228)">
<stop stop-color="#FF00FF"/>
<stop offset="1" stop-color="#734CE2"/>
</radialGradient>
<radialGradient id="paint4_radial_419_48383" cx="0" cy="0" r="1" gradientUnits="userSpaceOnUse" gradientTransform="translate(15.9999 16.0001) scale(7.99998 7.83228)">
<stop stop-color="#FF00FF"/>
<stop offset="1" stop-color="#734CE2"/>
</radialGradient>
<radialGradient id="paint5_radial_419_48383" cx="0" cy="0" r="1" gradientUnits="userSpaceOnUse" gradientTransform="translate(16 16.0001) scale(7.99998 7.83228)">
<stop stop-color="#FF00FF"/>
<stop offset="1" stop-color="#734CE2"/>
</radialGradient>
<radialGradient id="paint6_radial_419_48383" cx="0" cy="0" r="1" gradientUnits="userSpaceOnUse" gradientTransform="translate(16 16.0001) scale(7.99998 7.83228)">
<stop stop-color="#FF00FF"/>
<stop offset="1" stop-color="#734CE2"/>
</radialGradient>
<radialGradient id="paint7_radial_419_48383" cx="0" cy="0" r="1" gradientUnits="userSpaceOnUse" gradientTransform="translate(16 16.0001) scale(7.99998 7.83228)">
<stop stop-color="#FF00FF"/>
<stop offset="1" stop-color="#734CE2"/>
</radialGradient>
<radialGradient id="paint8_radial_419_48383" cx="0" cy="0" r="1" gradientUnits="userSpaceOnUse" gradientTransform="translate(16 16.0001) scale(7.99998 7.83228)">
<stop stop-color="#FF00FF"/>
<stop offset="1" stop-color="#734CE2"/>
</radialGradient>
<radialGradient id="paint9_radial_419_48383" cx="0" cy="0" r="1" gradientUnits="userSpaceOnUse" gradientTransform="translate(16 16.0001) scale(7.99998 7.83228)">
<stop stop-color="#FF00FF"/>
<stop offset="1" stop-color="#734CE2"/>
</radialGradient>
<radialGradient id="paint10_radial_419_48383" cx="0" cy="0" r="1" gradientUnits="userSpaceOnUse" gradientTransform="translate(15.9999 16.0001) scale(7.99998 7.83228)">
<stop stop-color="#FF00FF"/>
<stop offset="1" stop-color="#734CE2"/>
</radialGradient>
<radialGradient id="paint11_radial_419_48383" cx="0" cy="0" r="1" gradientUnits="userSpaceOnUse" gradientTransform="translate(15.9999 16.0001) scale(7.99998 7.83228)">
<stop stop-color="#FF00FF"/>
<stop offset="1" stop-color="#734CE2"/>
</radialGradient>
</defs>
</svg>
