<svg width="16" height="15" viewBox="0 0 16 15" fill="none" xmlns="http://www.w3.org/2000/svg">
  <path
    d="M1.58579 8.64679C1.56273 8.64679 1.53967 8.64797 1.51661 8.64797C0.998606 7.09515 1.03409 5.55592 1.67035 4.03916C2.30367 2.5295 3.32844 1.36813 4.81622 0.608866C4.7358 0.583438 4.69736 0.613596 4.65893 0.630153C4.19296 0.82884 3.73586 1.04881 3.33021 1.35512C0.957212 3.14626 0.01227 5.55592 0.39959 8.46052C0.644991 10.3025 1.53849 11.8477 2.97896 13.0457C4.29053 14.1367 5.8132 14.686 7.51504 14.7469C8.43279 14.7795 9.32628 14.6334 10.208 14.3927C10.2381 14.3845 10.27 14.3785 10.2878 14.3413C10.2641 14.3413 10.2446 14.3395 10.2257 14.3413C9.05605 14.4613 7.90769 14.3472 6.82733 13.8818C4.85939 13.0339 3.52949 11.6324 3.2084 9.43858C3.11379 8.78989 3.19243 8.14298 3.45203 7.53036C3.49519 7.42865 3.53659 7.3234 3.65781 7.22701C3.65781 7.32576 3.65781 7.39672 3.65781 7.46768C3.66254 8.77984 4.08002 9.95658 4.83869 11.0157C5.60032 12.0789 6.61918 12.8233 7.79829 13.3615C8.66104 13.7553 9.57346 13.9581 10.5154 14.0344C10.7668 14.0545 11.0104 14.0846 11.2605 13.954C13.1338 12.9777 14.443 11.5177 15.126 9.50895C15.3886 8.73667 15.534 7.94193 15.5902 7.13122C15.6151 6.77642 15.6222 6.41867 15.5583 6.05914C15.5068 6.08693 15.511 6.12892 15.5015 6.16617C15.1869 7.40678 14.5578 8.46289 13.5466 9.24522C12.0369 10.4125 10.3168 10.872 8.41978 10.5804C7.18863 10.3912 6.13961 9.85251 5.30702 8.9052C4.08475 7.51381 3.86655 5.61446 4.76418 3.99599C5.32713 2.98068 6.17982 2.28824 7.22707 1.81695C7.25368 1.80512 7.28206 1.79507 7.30808 1.78206C7.3341 1.76905 7.35834 1.75249 7.38318 1.73771C5.9971 2.15223 4.91556 3.00434 3.98127 4.11426C3.99487 4.06636 3.99841 4.04744 4.00492 4.03029C4.15571 3.62346 4.40229 3.27812 4.67903 2.94757C5.6701 1.76314 6.95092 1.12332 8.47004 0.964845C9.42562 0.86491 10.3599 1.0222 11.2694 1.32556C11.4527 1.38646 11.6342 1.45446 11.8418 1.52838C11.8158 1.49704 11.811 1.48758 11.8039 1.48285C11.7702 1.46274 11.7359 1.44382 11.7011 1.42549C10.8436 0.979037 9.92826 0.74901 8.96616 0.678642C8.01353 0.609457 7.0816 0.694017 6.1745 1.00151C4.74408 1.4864 3.62943 2.38285 2.77791 3.61754C2.00623 4.73634 1.61418 5.97931 1.58698 7.337C1.57811 7.77458 1.58579 8.21216 1.58579 8.64975V8.64679ZM8.98509 1.9636C8.68055 1.99553 8.39553 2.09546 8.11524 2.21018C7.83732 2.32372 7.57358 2.46623 7.32168 2.62825C7.06445 2.79382 6.83206 2.99074 6.61268 3.20361C6.39862 3.41117 6.2017 3.6341 5.99829 3.84698C6.78534 2.38522 8.10401 1.71583 9.66393 1.40243C9.49777 1.39297 9.33456 1.42253 9.17136 1.44796C7.89172 1.64724 6.8019 2.20249 5.95453 3.19356C5.08173 4.21538 4.72575 5.38207 5.01846 6.71551C5.12549 7.20454 5.33541 7.64922 5.62989 8.05605C5.45722 7.70835 5.3703 7.33936 5.35788 6.95441C5.34546 6.56354 5.40164 6.18095 5.52404 5.80901C5.66773 5.37379 5.8954 4.93443 6.04796 4.81144C5.88298 5.20881 5.75643 5.61091 5.71268 6.03371C5.62161 6.92189 5.84395 7.68707 6.61149 8.2169C7.11471 8.56401 7.68476 8.68996 8.29205 8.65152C8.98509 8.60717 9.64205 8.41263 10.2848 8.1619C10.3162 8.14948 10.3629 8.15126 10.3676 8.09153C10.1884 8.08326 10.0116 8.07852 9.83601 8.06552C9.06551 8.00993 8.32812 7.84909 7.69422 7.37248C6.8155 6.71256 6.28508 5.88292 6.44178 4.73397C6.563 3.84639 6.9586 3.11491 7.69836 2.58449C8.09159 2.30243 8.52267 2.10138 8.98568 1.96242L8.98509 1.9636Z"
    fill="white" />
</svg>