<svg xmlns="http://www.w3.org/2000/svg" width="24" height="24" viewBox="0 0 24 24" fill="none">
  <g clip-path="url(#clip0_2101_121411)">
    <path
      d="M18 0H6C2.68629 0 0 2.68629 0 6V18C0 21.3137 2.68629 24 6 24H18C21.3137 24 24 21.3137 24 18V6C24 2.68629 21.3137 0 18 0Z"
      fill="white" />
    <path
      d="M7.87178 7.24452H11.4965L11.5028 12.7555C11.5029 12.8871 11.5554 13.0133 11.6485 13.1063C11.7416 13.1993 11.8679 13.2516 11.9995 13.2516C12.0648 13.2515 12.1293 13.2387 12.1896 13.2136C12.2498 13.1886 12.3046 13.152 12.3506 13.1058C12.3967 13.0596 12.4332 13.0048 12.4581 12.9445C12.483 12.8842 12.4957 12.8196 12.4956 12.7543L12.4889 6.74728C12.4887 6.61563 12.4363 6.48943 12.3431 6.39638C12.25 6.30333 12.1237 6.25104 11.9921 6.25098H7.87178C7.74002 6.25098 7.61367 6.30331 7.52051 6.39648C7.42734 6.48964 7.375 6.616 7.375 6.74775C7.375 6.8795 7.42734 7.00586 7.52051 7.09902C7.61367 7.19218 7.74002 7.24452 7.87178 7.24452Z"
      fill="#154618" />
    <path
      d="M6.95668 9.49378H9.24793L9.25397 12.7551V15.0041C9.25388 15.0694 9.26668 15.1341 9.29165 15.1945C9.31662 15.2549 9.35326 15.3098 9.39947 15.356C9.44568 15.4022 9.50056 15.4389 9.56096 15.4638C9.62135 15.4888 9.68608 15.5016 9.75144 15.5015H14.2507C14.316 15.5015 14.3806 15.4886 14.4408 15.4635C14.5011 15.4385 14.5558 15.4018 14.6019 15.3556C14.648 15.3094 14.6845 15.2546 14.7094 15.1943C14.7343 15.134 14.7471 15.0693 14.747 15.0041V12.7542L14.74 4.49701C14.7401 4.36529 14.6879 4.23895 14.5948 4.14575C14.5017 4.05255 14.3754 4.00012 14.2437 4H8.82202C8.69027 4 8.56391 4.05234 8.47075 4.1455C8.37759 4.23866 8.32525 4.36502 8.32525 4.49677C8.32525 4.62853 8.37759 4.75488 8.47075 4.84805C8.56391 4.94121 8.69027 4.99355 8.82202 4.99355H13.7479L13.7546 12.7542V14.5068H10.2475V12.7542L10.2407 8.99561C10.2404 8.86404 10.188 8.73796 10.0948 8.64501C10.0017 8.55206 9.87558 8.49983 9.744 8.49977H6.95575C6.824 8.49977 6.69765 8.55211 6.60448 8.64527C6.51132 8.73843 6.45898 8.86479 6.45898 8.99654C6.45898 9.1283 6.51132 9.25465 6.60448 9.34782C6.69765 9.44098 6.824 9.49332 6.95575 9.49332L6.95668 9.49378Z"
      fill="#154618" />
    <path
      d="M18.7503 15.1377C18.685 15.1377 18.6204 15.1505 18.5602 15.1755C18.4999 15.2005 18.4451 15.2371 18.399 15.2832C18.3529 15.3293 18.3163 15.3841 18.2913 15.4444C18.2663 15.5046 18.2535 15.5692 18.2535 15.6345V19.0036H5.74745V15.6345C5.74745 15.5027 5.69511 15.3764 5.60195 15.2832C5.50879 15.19 5.38243 15.1377 5.25068 15.1377C5.11893 15.1377 4.99257 15.19 4.89941 15.2832C4.80624 15.3764 4.75391 15.5027 4.75391 15.6345V19.5015C4.75391 19.6333 4.80624 19.7596 4.89941 19.8528C4.99257 19.946 5.11893 19.9983 5.25068 19.9983H18.7505C18.8157 19.9983 18.8803 19.9855 18.9406 19.9605C19.0009 19.9355 19.0556 19.8989 19.1018 19.8528C19.1479 19.8067 19.1845 19.7519 19.2095 19.6916C19.2344 19.6314 19.2473 19.5668 19.2473 19.5015V15.6345C19.2473 15.5692 19.2344 15.5046 19.2094 15.4443C19.1845 15.384 19.1478 15.3292 19.1017 15.2831C19.0555 15.237 19.0007 15.2004 18.9404 15.1754C18.8801 15.1505 18.8155 15.1377 18.7503 15.1377Z"
      fill="#154618" />
    <path
      d="M7.99746 16.7568V14.3708C7.99746 14.239 7.94512 14.1127 7.85195 14.0195C7.75879 13.9264 7.63243 13.874 7.50068 13.874C7.36893 13.874 7.24257 13.9264 7.14941 14.0195C7.05625 14.1127 7.00391 14.239 7.00391 14.3708V17.2536C7.00397 17.3853 7.05633 17.5117 7.14948 17.6048C7.24263 17.698 7.36895 17.7503 7.50068 17.7504H16.5004C16.6322 17.7503 16.7585 17.698 16.8516 17.6048C16.9448 17.5117 16.9971 17.3853 16.9972 17.2536V14.3708C16.9972 14.239 16.9449 14.1127 16.8517 14.0195C16.7585 13.9264 16.6322 13.874 16.5004 13.874C16.3687 13.874 16.2423 13.9264 16.1492 14.0195C16.056 14.1127 16.0037 14.239 16.0037 14.3708V16.7568H7.99746Z"
      fill="#154618" />
  </g>
  <defs>
    <clipPath id="clip0_2101_121411">
      <rect width="24" height="24" rx="12" fill="white" />
    </clipPath>
  </defs>
</svg>