<svg xmlns="http://www.w3.org/2000/svg" width="20" height="20" viewBox="0 0 20 20" fill="none">
  <path
    d="M3.59436 5.46422C3.59244 5.51943 3.57418 5.57282 3.5419 5.61765C3.50961 5.66248 3.46476 5.69672 3.41301 5.71605C3.36126 5.73537 3.30493 5.73891 3.25117 5.72622C3.19741 5.71352 3.14862 5.68516 3.11098 5.64473C3.07334 5.6043 3.04854 5.55361 3.03972 5.49907C3.03089 5.44454 3.03845 5.38862 3.06142 5.33838C3.0844 5.28814 3.12176 5.24585 3.16878 5.21685C3.2158 5.18785 3.27036 5.17346 3.32557 5.17548C3.3994 5.17842 3.46908 5.21041 3.51942 5.26449C3.56977 5.31858 3.59671 5.39036 3.59436 5.46422Z"
    fill="#154618" />
  <path
    d="M8.06826 1.9092C8.07613 1.93939 8.07786 1.97085 8.07335 2.00172C8.06885 2.03259 8.0582 2.06224 8.04203 2.08892C8.02586 2.1156 8.0045 2.13876 7.97922 2.15704C7.95394 2.17532 7.92525 2.18834 7.89485 2.19533C6.37086 2.57578 5.02391 3.46843 4.07971 4.72373C4.05805 4.75323 4.02971 4.77718 3.997 4.79361C3.96429 4.81004 3.92816 4.81848 3.89156 4.81824C3.84815 4.81828 3.80559 4.80625 3.76863 4.7835C3.73167 4.76075 3.70175 4.72817 3.68223 4.68941C3.66272 4.65064 3.65436 4.60721 3.6581 4.56396C3.66183 4.52072 3.67752 4.47937 3.7034 4.44453C4.7118 3.10289 6.15052 2.14844 7.77866 1.74099C7.80872 1.73264 7.84015 1.73038 7.8711 1.73436C7.90205 1.73833 7.93189 1.74845 7.95887 1.76412C7.98585 1.7798 8.00943 1.8007 8.02821 1.82562C8.047 1.85053 8.06061 1.87895 8.06826 1.9092Z"
    fill="#154618" />
  <path
    d="M19.0346 10.8955C19.0346 11.382 18.8187 11.8623 18.3938 12.3236C17.9542 12.8014 17.3152 13.2349 16.4967 13.6104C14.7677 14.4046 12.4596 14.8425 9.99966 14.8425C7.53977 14.8425 5.23074 14.4046 3.5018 13.6104C2.68328 13.2349 2.04511 12.8014 1.60463 12.3236C1.17977 11.8623 0.963867 11.382 0.963867 10.8955C0.963867 10.4091 1.17977 9.92789 1.60463 9.46661C2.04511 8.98885 2.68328 8.55531 3.5018 8.179C5.23595 7.38563 7.5389 6.94775 9.99966 6.94775C12.4604 6.94775 14.7686 7.38129 16.4967 8.179C17.3152 8.55531 17.9542 8.98885 18.3938 9.46661C18.8195 9.92789 19.0346 10.4065 19.0346 10.8955Z"
    fill="white" />
  <path
    d="M10.0005 8.13828C6.62842 8.13828 3.89453 9.37299 3.89453 10.8947C3.89453 11.8008 4.86219 12.6046 6.35529 13.1066L7.19462 10.5305L9.17502 10.8973L8.87155 11.8277L10.0213 11.3525L10.5181 11.1462L12.4985 11.5129L12.1829 11.6439L10.075 12.5161L7.78423 13.4639C8.51618 13.5903 9.25769 13.6533 10.0005 13.652C13.3717 13.652 16.1056 12.4173 16.1056 10.8947C16.1056 9.37212 13.3717 8.13828 10.0005 8.13828Z"
    fill="#154618" />
  <path
    d="M9.48138 10.6441L10.0372 10.4135L11.128 9.9626L10.8253 10.893L12.8049 11.2597L14.0006 7.58768L10.1334 9.1883L8.02469 10.0597L7.50098 10.2773L9.48138 10.6441Z"
    fill="#D62500" />
  <path
    d="M17.071 2.92889C15.435 1.29297 13.2825 0.274909 10.9801 0.0481604C8.67766 -0.178589 6.36786 0.400008 4.44422 1.68536C2.52059 2.97072 1.10214 4.88331 0.430573 7.09724C-0.240995 9.31118 -0.124136 11.6895 0.761241 13.8269C1.64662 15.9643 3.24573 17.7287 5.28611 18.8192C7.32649 19.9098 9.68189 20.2592 11.951 19.8078C14.2201 19.3564 16.2625 18.1322 17.7301 16.3438C19.1978 14.5554 20 12.3134 20 9.99989C20.0036 8.68614 19.7466 7.38471 19.2438 6.17096C18.7411 4.95722 18.0025 3.85526 17.071 2.92889ZM3.25934 3.26011C4.58072 1.93871 6.26138 1.03488 8.09233 0.661005C9.92327 0.287128 11.8237 0.459701 13.5574 1.15726C15.291 1.85483 16.7814 3.04661 17.8432 4.58441C18.9049 6.12221 19.4912 7.93819 19.5291 9.80653C19.1103 8.92558 18.18 8.12961 16.8091 7.50011C14.9839 6.66165 12.5657 6.1995 9.99998 6.1995C7.43431 6.1995 5.01517 6.66078 3.19084 7.50011C1.81913 8.12961 0.888755 8.92558 0.469958 9.80653C0.512849 7.34464 1.51343 4.99636 3.25934 3.26011ZM18.3941 12.3236C17.9545 12.8014 17.3155 13.2349 16.497 13.6104C14.768 14.4046 12.4599 14.8425 9.99998 14.8425C7.54009 14.8425 5.23107 14.4046 3.50212 13.6104C2.6836 13.2349 2.04543 12.8014 1.60496 12.3236C1.18009 11.8624 0.964191 11.382 0.964191 10.8956C0.964191 10.4091 1.18009 9.92792 1.60496 9.46664C2.04543 8.98888 2.6836 8.55534 3.50212 8.17903C5.23627 7.38566 7.53922 6.94778 9.99998 6.94778C12.4607 6.94778 14.7689 7.38132 16.497 8.17903C17.3155 8.55534 17.9545 8.98888 18.3941 9.46664C18.819 9.92792 19.0349 10.4083 19.0349 10.8956C19.0349 11.3829 18.8199 11.8624 18.3941 12.3236Z"
    fill="#154618" />
  <path
    d="M16.7395 3.26009C15.4181 1.93869 13.7375 1.03486 11.9065 0.660982C10.0756 0.287106 8.17514 0.459679 6.44149 1.15724C4.70783 1.85481 3.21747 3.04659 2.15572 4.58439C1.09397 6.12219 0.507666 7.93816 0.469727 9.80651C0.888524 8.92556 1.8189 8.12958 3.19061 7.50009C5.01147 6.66162 7.43321 6.19947 9.99975 6.19947C12.5663 6.19947 14.9837 6.66076 16.8089 7.50009C18.1797 8.12958 19.1101 8.92556 19.5289 9.80651C19.486 7.34461 18.4854 4.99634 16.7395 3.26009ZM3.30593 5.73559C3.25083 5.73369 3.19752 5.71551 3.15274 5.68335C3.10795 5.6512 3.07369 5.6065 3.05427 5.5549C3.03485 5.5033 3.03114 5.4471 3.04361 5.3934C3.05609 5.33969 3.08418 5.29088 3.12435 5.25312C3.16453 5.21536 3.21498 5.19034 3.26936 5.18121C3.32373 5.17208 3.37959 5.17926 3.42989 5.20184C3.48019 5.22441 3.52269 5.26137 3.55201 5.30806C3.58133 5.35475 3.59617 5.40908 3.59467 5.46419C3.59355 5.50098 3.58519 5.53718 3.57007 5.57073C3.55495 5.60428 3.53336 5.63453 3.50655 5.65973C3.47973 5.68494 3.44821 5.70461 3.41379 5.71762C3.37936 5.73064 3.34272 5.73675 3.30593 5.73559ZM7.90143 2.19532C6.37744 2.57576 5.0305 3.46842 4.0863 4.72371C4.06464 4.75322 4.03629 4.77717 4.00359 4.7936C3.97088 4.81002 3.93474 4.81847 3.89814 4.81822C3.85474 4.81826 3.81218 4.80624 3.77522 4.78349C3.73825 4.76074 3.70834 4.72816 3.68882 4.68939C3.6693 4.65062 3.66094 4.60719 3.66468 4.56395C3.66842 4.52071 3.68411 4.47936 3.70999 4.44451C4.71839 3.10288 6.15711 2.14843 7.78524 1.74097C7.8441 1.73012 7.90487 1.74222 7.95508 1.77478C8.00529 1.80734 8.04112 1.8579 8.05522 1.91606C8.06932 1.97422 8.0606 2.03557 8.03087 2.08751C8.00114 2.13944 7.95265 2.17802 7.89536 2.19532H7.90143Z"
    fill="white" />
  <path
    d="M3.59436 5.46422C3.59244 5.51943 3.57418 5.57282 3.5419 5.61765C3.50961 5.66248 3.46476 5.69672 3.41301 5.71605C3.36126 5.73537 3.30493 5.73891 3.25117 5.72622C3.19741 5.71352 3.14862 5.68516 3.11098 5.64473C3.07334 5.6043 3.04854 5.55361 3.03972 5.49907C3.03089 5.44454 3.03845 5.38862 3.06142 5.33838C3.0844 5.28814 3.12176 5.24585 3.16878 5.21685C3.2158 5.18785 3.27036 5.17346 3.32557 5.17548C3.3994 5.17842 3.46908 5.21041 3.51942 5.26449C3.56977 5.31858 3.59671 5.39036 3.59436 5.46422Z"
    fill="#154618" />
  <path
    d="M7.89485 2.19533C6.37086 2.57577 5.02391 3.46843 4.07971 4.72372C4.05805 4.75323 4.02971 4.77718 3.997 4.79361C3.96429 4.81004 3.92816 4.81848 3.89156 4.81823C3.84815 4.81828 3.80559 4.80625 3.76863 4.7835C3.73167 4.76075 3.70175 4.72817 3.68223 4.6894C3.66272 4.65064 3.65436 4.60721 3.6581 4.56396C3.66183 4.52072 3.67752 4.47937 3.7034 4.44453C4.7118 3.10289 6.15052 2.14844 7.77866 1.74098C7.83891 1.72558 7.90281 1.73473 7.95631 1.76644C8.00981 1.79815 8.04852 1.84981 8.06393 1.91006C8.07933 1.97031 8.07017 2.03422 8.03847 2.08771C8.00676 2.14121 7.9551 2.17992 7.89485 2.19533Z"
    fill="#154618" />
</svg>