<svg width="32" height="32" viewBox="0 0 32 32" fill="none" xmlns="http://www.w3.org/2000/svg">
<path d="M26.1569 0H5.84389C2.60226 0 0 2.6016 0 5.8432V26.1568C0 29.3984 2.60226 32 5.84389 32H26.1561C29.3522 32 32 29.3984 32 26.1568V5.8432C32 2.6016 29.3985 0 26.1569 0ZM21.2273 7.9888C23.601 7.9888 25.5183 9.9056 25.5183 12.28C25.5183 13.0096 25.3353 13.6944 25.0156 14.3336C24.4681 13.9232 23.8751 13.5576 23.2357 13.3296C23.418 13.0096 23.5099 12.6448 23.5099 12.28C23.5099 11.0472 22.5053 10.0432 21.2729 10.0432C20.0397 10.0432 19.0358 11.0472 19.0358 12.28C19.0358 12.6448 19.127 13.0096 19.31 13.3296C18.6706 13.5576 18.0312 13.8776 17.5293 14.3336C17.1641 13.6944 17.0266 13.0096 17.0266 12.2792C16.9363 9.9056 18.8536 7.9888 21.2273 7.9888ZM10.7727 24.0112C8.3998 24.0112 6.48247 22.0944 6.48247 19.7208H8.53648C8.53648 20.9528 9.54109 21.9576 10.7735 21.9576C12.0059 21.9576 13.0105 20.9528 13.0105 19.7208H15.0645C15.0645 22.0944 13.1464 24.0112 10.7727 24.0112ZM10.7727 17.9856C8.03456 17.9856 5.79755 15.7488 5.79755 13.0096C5.79755 10.2712 8.03456 7.9888 10.7735 7.9888C13.5124 7.9888 15.795 10.2256 15.795 13.0096C15.7494 15.7488 13.5116 17.9856 10.7727 17.9856ZM21.2273 24.0112C18.4884 24.0112 16.2058 21.7744 16.2058 19.0352C16.2058 16.2512 18.4428 14.0144 21.2273 14.0144C23.9662 14.0144 26.2032 16.2512 26.2032 19.036C26.2032 21.7744 23.9662 24.0112 21.2273 24.0112ZM24.194 18.9904C24.194 20.6336 22.8705 21.9112 21.2273 21.9112C19.5841 21.9112 18.2598 20.588 18.2598 18.9904C18.2598 17.3464 19.5841 16.0224 21.2273 16.0224C22.8705 16.0688 24.194 17.392 24.194 18.9904ZM13.6946 13.0096C13.6946 14.6536 12.3711 15.9776 10.7279 15.9776C9.08395 15.9776 7.76043 14.6536 7.76043 13.0096C7.76043 11.3664 9.08395 10.0424 10.7279 10.0424C12.4167 10.0424 13.6946 11.3664 13.6946 13.0104V13.0096Z" fill="#D9B432"/>
</svg>
