<svg width="32" height="32" viewBox="0 0 32 32" fill="none" xmlns="http://www.w3.org/2000/svg">
<path d="M32 2.47278V13.3668L0 26.2392L32 2.47278Z" fill="#00C9FF"/>
<path d="M26.001 2V20.7929C26.001 23.4191 24.9474 25.9378 23.0719 27.7948C21.1964 29.6519 18.6527 30.6951 16.0004 30.6951C13.3481 30.6951 10.8044 29.6519 8.92887 27.7948C7.05339 25.9378 5.99976 23.4191 5.99976 20.7929V12.8741L11.9991 9.60487V20.7929C11.943 21.2811 11.9916 21.7757 12.1418 22.244C12.2922 22.7124 12.5406 23.144 12.8711 23.5107C13.2016 23.8773 13.6066 24.1707 14.0596 24.3715C14.5126 24.5724 15.0033 24.6763 15.4996 24.6763C15.9959 24.6763 16.4866 24.5724 16.9396 24.3715C17.3925 24.1707 17.7976 23.8773 18.128 23.5107C18.4585 23.144 18.7071 22.7124 18.8573 22.244C19.0076 21.7757 19.0563 21.2811 19 20.7929V5.79246L26.001 2Z" fill="#0D67FE"/>
</svg>
