<svg width="24" height="24" viewBox="0 0 24 24" fill="none" xmlns="http://www.w3.org/2000/svg">
<path fill-rule="evenodd" clip-rule="evenodd" d="M12 5.48008C12.7872 5.15894 13.6298 4.99585 14.48 5.00008C19.81 5.00008 24 11.3701 24 19.5201H20.31C20.31 14.5901 18.48 10.8201 16.38 9.36008C15.8304 8.94709 15.1671 8.71317 14.48 8.69008C13.5385 8.74113 12.6518 9.14875 12 9.83008C10.16 11.5201 8.65 15.0501 8.65 19.5201H5C4.9113 15.948 5.8222 12.4222 7.63 9.34008C8.64814 7.62889 10.1762 6.27917 12 5.48008ZM9.15 5.01008C4 5.26008 0 11.5601 0 19.5201H3.12C3.12 13.1401 5.54 7.73008 9.15 5.01008ZM14.48 10.5301C13.9682 10.5892 13.4989 10.8435 13.17 11.2401C14.6745 13.7344 15.4312 16.6083 15.35 19.5201H18.46C18.46 13.9401 15.88 10.5301 14.48 10.5301Z" fill="url(#paint0_linear_2285_90932)"/>
<defs>
<linearGradient id="paint0_linear_2285_90932" x1="24" y1="19.2601" x2="-1.79127e-07" y2="19.2601" gradientUnits="userSpaceOnUse">
<stop stop-color="#FFE804"/>
<stop offset="1" stop-color="#BC9CFF"/>
</linearGradient>
</defs>
</svg>
