<svg width="24" height="24" viewBox="0 0 24 24" fill="none" xmlns="http://www.w3.org/2000/svg">
<path d="M5 21H8V19H5V16H3V19C3 20.1 3.9 21 5 21Z" fill="currentColor"/>
<path d="M19 16V19H16V21H19C20.1 21 21 20.1 21 19V16H19Z" fill="currentColor"/>
<path d="M16 5H19V8H21V5C21 3.9 20.1 3 19 3H16V5Z" fill="currentColor"/>
<path d="M5 8V5H8V3H5C3.9 3 3 3.9 3 5V8H5Z" fill="currentColor"/>
<path d="M12 12C13.66 12 15 10.66 15 9C15 7.34 13.66 6 12 6C10.34 6 9 7.34 9 9C9 10.66 10.34 12 12 12Z" fill="currentColor"/>
<path d="M12 13.9C10 13.9 6 15 6 17V18H18V17C18 15 14 13.9 12 13.9Z" fill="currentColor"/>
</svg>
