<svg width="19" height="18" viewBox="0 0 19 18" fill="none" xmlns="http://www.w3.org/2000/svg">
<path d="M15.9898 12.4545C15.8744 11.0961 15.3275 9.81022 14.429 8.78491C13.5305 7.75959 12.3275 7.04861 10.996 6.7559C11.056 6.7083 11.1134 6.65765 11.1681 6.60414C11.6552 6.11708 11.8279 5.50049 11.5542 5.2268C11.3085 4.98105 10.7858 5.09662 10.3293 5.47572C10.2429 4.79944 9.90382 4.29333 9.49741 4.29333C9.09101 4.29333 8.75191 4.80134 8.66555 5.47572C8.20898 5.09472 7.68636 4.98105 7.44061 5.2268C7.16692 5.50049 7.34028 6.11581 7.8267 6.60414C7.88148 6.65862 7.93913 6.71013 7.99942 6.75845C6.66929 7.05227 5.46791 7.76359 4.57066 8.78855C3.67342 9.81351 3.12731 11.0984 3.01205 12.4558L2.90601 13.7093H4.55005L4.64466 12.5948C4.74539 11.409 5.28764 10.3042 6.1641 9.49916C7.04055 8.69409 8.18731 8.24741 9.3774 8.24754H9.62314C10.8131 8.24757 11.9597 8.69432 12.836 9.49937C13.7124 10.3044 14.2545 11.4091 14.3552 12.5948L14.4499 13.7093H16.0964L15.9898 12.4545Z" fill="white"/>
<path d="M7.89159 12.4538C8.21774 12.4538 8.48214 11.9836 8.48214 11.4035C8.48214 10.8234 8.21774 10.3532 7.89159 10.3532C7.56543 10.3532 7.30103 10.8234 7.30103 11.4035C7.30103 11.9836 7.56543 12.4538 7.89159 12.4538Z" fill="white"/>
<path d="M11.1085 12.4538C11.4347 12.4538 11.6991 11.9836 11.6991 11.4035C11.6991 10.8234 11.4347 10.3532 11.1085 10.3532C10.7823 10.3532 10.5179 10.8234 10.5179 11.4035C10.5179 11.9836 10.7823 12.4538 11.1085 12.4538Z" fill="white"/>
</svg>
