<svg width="24" height="24" viewBox="0 0 24 24" fill="none" xmlns="http://www.w3.org/2000/svg">
<path d="M5.14296 6.74624C5.14296 6.17818 5.60346 5.71767 6.17153 5.71767H10.9715C11.5396 5.71767 12.0001 6.17818 12.0001 6.74624C12.0001 7.3143 11.5396 7.77481 10.9715 7.77481H6.17153C5.60346 7.77481 5.14296 7.3143 5.14296 6.74624Z" fill="currentColor" />
<path fill-rule="evenodd" clip-rule="evenodd" d="M5.14285 1.71436C3.2493 1.71436 1.71428 3.24938 1.71428 5.14293V18.8572C1.71428 20.7508 3.2493 22.2858 5.14285 22.2858H12C13.8935 22.2858 15.4286 20.7508 15.4286 18.8572V12.0001H16.2857C16.7591 12.0001 17.1429 12.3838 17.1429 12.8572V18.0001C17.1429 18.9469 17.9104 19.7144 18.8571 19.7144H20.5714C21.5182 19.7144 22.2857 18.9469 22.2857 18.0001V8.01785C22.2857 6.96638 21.6455 6.02084 20.6693 5.63034L17.4612 4.3471L16.8245 5.93877L20.0326 7.22201C20.358 7.35218 20.5714 7.66736 20.5714 8.01785V18.0001H18.8571V12.8572C18.8571 11.4371 17.7059 10.2858 16.2857 10.2858H15.4286V5.14293C15.4286 3.24938 13.8935 1.71436 12 1.71436H5.14285ZM12 3.42864H5.14285C4.19608 3.42864 3.42856 4.19615 3.42856 5.14293V18.8572C3.42856 19.804 4.19608 20.5715 5.14285 20.5715H12C12.9468 20.5715 13.7143 19.804 13.7143 18.8572V5.14293C13.7143 4.19615 12.9468 3.42864 12 3.42864Z" fill="currentColor" />
</svg>
