<svg width="24" height="24" viewBox="0 0 24 24" fill="none" xmlns="http://www.w3.org/2000/svg">
<path fill-rule="evenodd" clip-rule="evenodd" d="M5.45455 4H18.5455C19.1964 4 19.8208 4.2586 20.2811 4.71892C20.7414 5.17924 21 5.80356 21 6.45454V16.2727C21 16.9237 20.7414 17.548 20.2811 18.0084C19.8208 18.4687 19.1964 18.7273 18.5455 18.7273H5.45455C4.80356 18.7273 4.17924 18.4687 3.71892 18.0084C3.2586 17.548 3 16.9237 3 16.2727V6.45454C3 5.80356 3.2586 5.17924 3.71892 4.71892C4.17924 4.2586 4.80356 4 5.45455 4ZM5.04545 7.75C5.04545 7.97385 5.08954 8.1955 5.17521 8.4023C5.26087 8.60911 5.38642 8.79702 5.5447 8.9553C5.70299 9.11358 5.89089 9.23914 6.0977 9.3248C6.3045 9.41046 6.52616 9.45455 6.75 9.45455C6.97384 9.45455 7.1955 9.41046 7.4023 9.3248C7.60911 9.23914 7.79701 9.11358 7.9553 8.9553C8.11358 8.79702 8.23913 8.60911 8.32479 8.4023C8.41046 8.1955 8.45455 7.97385 8.45455 7.75C8.45455 7.29793 8.27496 6.86437 7.9553 6.54471C7.63563 6.22504 7.20207 6.04545 6.75 6.04545C6.29793 6.04545 5.86437 6.22504 5.5447 6.54471C5.22504 6.86437 5.04545 7.29793 5.04545 7.75ZM5.25434 16.613C5.37941 16.685 5.52118 16.7228 5.66547 16.7228L18.3342 16.7232C18.4848 16.7236 18.6326 16.6828 18.7615 16.605C18.8905 16.5273 18.9956 16.4156 19.0655 16.2823C19.1354 16.1489 19.1673 15.9989 19.1578 15.8486C19.1483 15.6983 19.0977 15.5535 19.0116 15.43L15.4346 10.2853C15.3586 10.1761 15.2573 10.0869 15.1393 10.0253C15.0214 9.9637 14.8903 9.93153 14.7573 9.93153C14.6243 9.93153 14.4932 9.9637 14.3753 10.0253C14.2573 10.0869 14.1561 10.1761 14.0801 10.2853L10.2825 15.7467L8.25869 12.2097C8.18645 12.0836 8.08221 11.9789 7.9565 11.906C7.83079 11.8332 7.68807 11.7948 7.54278 11.7948C7.39749 11.7948 7.25478 11.8332 7.12907 11.906C7.00336 11.9789 6.89912 12.0836 6.82687 12.2097L4.94956 15.4906C4.87806 15.6159 4.84072 15.7578 4.84129 15.9021C4.84186 16.0464 4.88031 16.188 4.9528 16.3128C5.02529 16.4375 5.12927 16.541 5.25434 16.613Z" fill="currentColor"/>
</svg>
