<svg width="24" height="24" viewBox="0 0 24 24" fill="none" xmlns="http://www.w3.org/2000/svg">
<path fill-rule="evenodd" clip-rule="evenodd" d="M2 7H7V5H2V7ZM2 11H7V9H2V11ZM7 13H2V15H7V13ZM16.76 15.17L20.59 19L22 17.59L18.17 13.75C18.69 12.96 19 12.02 19 11C19 8.24 16.76 6 14 6C11.24 6 9 8.24 9 11C9 13.76 11.24 16 14 16C15.02 16 15.96 15.69 16.76 15.17ZM17 11C17 9.35 15.65 8 14 8C12.35 8 11 9.35 11 11C11 12.65 12.35 14 14 14C15.65 14 17 12.65 17 11ZM12 17V19H2V17H12Z" fill="currentColor"/>
</svg>
