<svg width="24" height="24" viewBox="0 0 24 24" fill="none" xmlns="http://www.w3.org/2000/svg">
<path fill-rule="evenodd" clip-rule="evenodd" d="M11 2L15.55 6.55L11 11V7.09C8.16 7.57 6 10.03 6 13C6 15.97 8.16 18.43 11 18.91V20.93C7.05 20.44 4 17.08 4 13C4 8.92 7.06 5.56 11 5.07V2ZM18.31 8.11C19.21 9.27 19.76 10.61 19.93 12H17.91C17.77 11.13 17.43 10.28 16.89 9.53L18.31 8.11ZM13 18.9V20.92C14.39 20.75 15.74 20.21 16.9 19.31L15.46 17.87C14.71 18.41 13.87 18.76 13 18.9ZM18.31 17.89L16.89 16.48C17.43 15.72 17.77 14.87 17.91 14H19.93C19.76 15.39 19.21 16.73 18.31 17.89Z" fill="currentColor"/>
</svg>
