<svg width="24" height="24" viewBox="0 0 24 24" fill="none" xmlns="http://www.w3.org/2000/svg">
<path fill-rule="evenodd" clip-rule="evenodd" d="M12 2C8.68629 2 6 4.68629 6 8C6 11.3137 8.68629 14 12 14C15.3137 14 18 11.3137 18 8C18 4.68629 15.3137 2 12 2ZM8 8C8 5.79086 9.79086 4 12 4C14.2091 4 16 5.79086 16 8C16 10.2091 14.2091 12 12 12C9.79086 12 8 10.2091 8 8Z" fill="currentColor"/>
<path d="M4.72425 20.7497C6.66397 19.0377 9.20957 18 12 18C14.7904 18 17.336 19.0377 19.2757 20.7497C19.6898 21.1152 20.3217 21.0758 20.6872 20.6617C21.0527 20.2477 21.0133 19.6157 20.5992 19.2503C18.3081 17.2281 15.2963 16 12 16C8.70372 16 5.69186 17.2281 3.40078 19.2503C2.98671 19.6157 2.94731 20.2477 3.31277 20.6617C3.67824 21.0758 4.31018 21.1152 4.72425 20.7497Z" fill="currentColor"/>
</svg>
