<svg width="24" height="24" viewBox="0 0 24 24" fill="none" xmlns="http://www.w3.org/2000/svg">
<path fill-rule="evenodd" clip-rule="evenodd" d="M8.82 19H17C19.21 19 21 17.21 21 15C21 12.79 19.21 11 17 11H7C5.9 11 5 10.1 5 9C5 7.9 5.9 7 7 7L15.18 7C15.6 8.16 16.7 9 18 9C19.66 9 21 7.66 21 6C21 4.34 19.66 3 18 3C16.7 3 15.6 3.84 15.18 5L7 5C4.79 5 3 6.79 3 9C3 11.21 4.79 13 7 13H17C18.1 13 19 13.9 19 15C19 16.1 18.1 17 17 17H8.82C8.41 15.84 7.31 15 6 15C4.34 15 3 16.34 3 18C3 19.66 4.34 21 6 21C7.3 21 8.4 20.16 8.82 19ZM17 6C17 5.45 17.45 5 18 5C18.55 5 19 5.45 19 6C19 6.55 18.55 7 18 7C17.45 7 17 6.55 17 6ZM6 17C5.45 17 5 17.45 5 18C5 18.55 5.45 19 6 19C6.55 19 7 18.55 7 18C7 17.45 6.55 17 6 17Z" fill="currentColor"/>
</svg>
