<svg width="24" height="24" viewBox="0 0 24 24" fill="none" xmlns="http://www.w3.org/2000/svg">
<path fill-rule="evenodd" clip-rule="evenodd" d="M19.2001 12C19.2001 12.33 19.1801 12.64 19.1401 12.94L21.1501 14.52C21.3401 14.66 21.3901 14.91 21.2701 15.13L19.3501 18.45C19.2301 18.67 18.9801 18.75 18.7601 18.67L16.3701 17.71C15.8801 18.09 15.3401 18.41 14.7501 18.65L14.3901 21.19C14.3601 21.43 14.1601 21.6 13.9201 21.6H10.0801C9.84011 21.6 9.65011 21.43 9.60011 21.19L9.24011 18.65C8.65011 18.41 8.12011 18.09 7.62011 17.71L5.23011 18.67C5.01011 18.74 4.76011 18.67 4.64011 18.45L2.72011 15.13C2.61011 14.93 2.66011 14.66 2.84011 14.52L4.87011 12.94C4.82011 12.64 4.80011 12.31 4.80011 12C4.80011 11.69 4.84011 11.36 4.89011 11.06L2.86011 9.47999C2.66011 9.33999 2.62011 9.07999 2.74011 8.86999L4.65011 5.54999C4.77011 5.32999 5.02011 5.24999 5.24011 5.32999L7.63011 6.28999C8.12011 5.91999 8.66011 5.58999 9.25011 5.34999L9.61011 2.80999C9.65011 2.56999 9.84011 2.39999 10.0801 2.39999H13.9201C14.1601 2.39999 14.3601 2.56999 14.4001 2.80999L14.7601 5.34999C15.3501 5.58999 15.8801 5.90999 16.3801 6.28999L18.7701 5.32999C18.9901 5.25999 19.2401 5.32999 19.3601 5.54999L21.2801 8.86999C21.3901 9.06999 21.3401 9.33999 21.1601 9.47999L19.1301 11.06C19.1801 11.36 19.2001 11.68 19.2001 12ZM8.40011 12C8.40011 13.98 10.0201 15.6 12.0001 15.6C13.9801 15.6 15.6001 13.98 15.6001 12C15.6001 10.02 13.9801 8.39999 12.0001 8.39999C10.0201 8.39999 8.40011 10.02 8.40011 12Z" fill="currentColor"/>
</svg>
