
<svg width="24" height="24" viewBox="0 0 24 24" fill="none" xmlns="http://www.w3.org/2000/svg">
<path fill-rule="evenodd" clip-rule="evenodd" d="M19.2001 12C19.2001 11.68 19.1801 11.36 19.1301 11.06L21.1601 9.48002C21.3401 9.34002 21.3901 9.07002 21.2801 8.87002L19.3601 5.55002C19.2401 5.33002 18.9901 5.26002 18.7701 5.33002L16.3801 6.29002C15.8801 5.91002 15.3501 5.59002 14.7601 5.35002L14.4001 2.81002C14.3601 2.57002 14.1601 2.40002 13.9201 2.40002H10.0801C9.84011 2.40002 9.65011 2.57002 9.61011 2.81002L9.25011 5.35002C8.66011 5.59002 8.12011 5.92002 7.63011 6.29002L5.24011 5.33002C5.02011 5.25002 4.77011 5.33002 4.65011 5.55002L2.74011 8.87002C2.62011 9.08002 2.66011 9.34002 2.86011 9.48002L4.89011 11.06C4.84011 11.36 4.80011 11.69 4.80011 12C4.80011 12.31 4.82011 12.64 4.87011 12.94L2.84011 14.52C2.66011 14.66 2.61011 14.93 2.72011 15.13L4.64011 18.45C4.76011 18.67 5.01011 18.74 5.23011 18.67L7.62011 17.71C8.12011 18.09 8.65011 18.41 9.24011 18.65L9.60011 21.19C9.65011 21.43 9.84011 21.6 10.0801 21.6H12V15.6C10.0201 15.6 8.40011 13.98 8.40011 12C8.40011 10.02 10.0201 8.40002 12.0001 8.40002C13.9801 8.40002 15.6001 10.02 15.6001 12H19.2001Z" fill="currentColor"/>
<path fill-rule="evenodd" clip-rule="evenodd" d="M13.75 13C13.3358 13 13 13.3358 13 13.75V21.25C13 21.6642 13.3358 22 13.75 22H16.25C16.6642 22 17 21.6642 17 21.25V19.0555L16.5948 18.6503H14.25V16.1503H16.5948L17 15.7451V13.75C17 13.3358 16.6642 13 16.25 13H13.75ZM18 21.25V20.0556L18.3057 20.3614L21.2668 17.4004L18.3058 14.4393L18 14.7451V13.75C18 13.3358 18.3358 13 18.75 13H21.25C21.6642 13 22 13.3358 22 13.75V21.25C22 21.6642 21.6642 22 21.25 22H18.75C18.3358 22 18 21.6642 18 21.25ZM18.3058 15.5L20.2061 17.4004L18.3058 19.3007L17.5987 18.5936L18.2919 17.9004H15V16.9004H18.2919L17.5987 16.2071L18.3058 15.5Z" fill="currentColor"/>
</svg>
