<svg width="24" height="24" viewBox="0 0 24 24" fill="none" xmlns="http://www.w3.org/2000/svg">
<path fill-rule="evenodd" clip-rule="evenodd" d="M1.05469 11.9995C1.05469 5.95592 5.95397 1.05664 11.9975 1.05664C18.0411 1.05664 22.9404 5.95592 22.9404 11.9995C22.9404 18.0431 18.0411 22.9424 11.9975 22.9424C5.95397 22.9424 1.05469 18.0431 1.05469 11.9995ZM11.9975 2.94235C6.99542 2.94235 2.9404 6.99737 2.9404 11.9995C2.9404 17.0016 6.99542 21.0566 11.9975 21.0566C16.9997 21.0566 21.0547 17.0016 21.0547 11.9995C21.0547 6.99737 16.9997 2.94235 11.9975 2.94235Z" fill="currentColor"/>
<path fill-rule="evenodd" clip-rule="evenodd" d="M12.0061 5.05664C12.5268 5.05669 12.9489 5.47887 12.9488 5.99959L12.9483 11.6134L16.9118 15.5769C17.28 15.9451 17.28 16.5421 16.9118 16.9103C16.5435 17.2785 15.9466 17.2785 15.5784 16.9103L11.3387 12.6706C11.1618 12.4938 11.0625 12.2539 11.0625 12.0038L11.0631 5.9994C11.0632 5.47868 11.4853 5.05659 12.0061 5.05664Z" fill="currentColor"/>
</svg>
