<svg width="24" height="24" viewBox="0 0 24 24" fill="none" xmlns="http://www.w3.org/2000/svg">
<path d="M10.4846 21.4766V19.008H13.2823V21.4766H10.4846ZM10.4846 5.04001V2.57144H13.2823V5.04001H10.4846ZM11.904 19.728C10.848 19.728 9.89829 19.5326 9.05486 19.1417C8.21829 18.744 7.536 18.1817 7.008 17.4549C6.48 16.728 6.144 15.8743 6 14.8937L8.77714 14.4617C8.90057 14.9966 9.11657 15.4663 9.42514 15.8709C9.73371 16.2686 10.1143 16.5772 10.5669 16.7966C11.0263 17.0092 11.5269 17.1154 12.0686 17.1154C12.576 17.1154 13.0354 17.0332 13.4469 16.8686C13.8583 16.704 14.1806 16.4777 14.4137 16.1897C14.6469 15.8949 14.7634 15.5726 14.7634 15.2229C14.7634 14.9829 14.712 14.7703 14.6091 14.5852C14.5131 14.4 14.3623 14.2389 14.1566 14.1017C13.9577 13.9646 13.7006 13.8446 13.3851 13.7417L9.72343 12.6103C8.68114 12.288 7.89257 11.8012 7.35771 11.1497C6.82286 10.4983 6.55543 9.69601 6.55543 8.74287C6.55543 7.84459 6.768 7.06287 7.19314 6.39773C7.62514 5.72573 8.23543 5.21144 9.024 4.85487C9.81257 4.49144 10.7383 4.31316 11.8011 4.32001C12.7749 4.33373 13.6423 4.51201 14.4034 4.85487C15.1714 5.19087 15.8091 5.68116 16.3166 6.32573C16.8309 6.96344 17.2046 7.74173 17.4377 8.66059L14.5577 9.17487C14.4617 8.73601 14.2834 8.35201 14.0229 8.02287C13.7623 7.68687 13.4366 7.4263 13.0457 7.24116C12.6549 7.04916 12.2263 6.9463 11.76 6.93259C11.3143 6.91887 10.9063 6.98401 10.536 7.12801C10.1657 7.27201 9.87086 7.4743 9.65143 7.73487C9.43886 7.99544 9.33257 8.28344 9.33257 8.59887C9.33257 8.9623 9.48343 9.27087 9.78514 9.52459C10.0869 9.7783 10.5669 9.99773 11.2251 10.1829L13.8377 10.9234C14.7154 11.1772 15.4251 11.4892 15.9669 11.8594C16.5086 12.2229 16.9063 12.6617 17.16 13.176C17.4137 13.6903 17.5406 14.304 17.5406 15.0172C17.5406 15.9429 17.304 16.7623 16.8309 17.4754C16.3577 18.1886 15.6926 18.744 14.8354 19.1417C13.9851 19.5326 13.008 19.728 11.904 19.728Z" fill="currentColor"/>
</svg>
