<svg width="24" height="24" viewBox="0 0 24 24" fill="none" xmlns="http://www.w3.org/2000/svg">
<path fill-rule="evenodd" clip-rule="evenodd" d="M12 2C6.47998 2 2 6.47998 2 12C2 17.52 6.47998 22 12 22C17.52 22 22 17.52 22 12C22 6.47998 17.52 2 12 2ZM12.88 17.76V19H11.13V17.71C10.39 17.53 8.73999 16.94 8.10999 14.75L9.76001 14.08C9.82001 14.3 10.34 16.17 12.16 16.17C13.09 16.17 14.14 15.69 14.14 14.56C14.14 13.6 13.44 13.1 11.86 12.53C11.8304 12.5195 11.8 12.5089 11.7687 12.498L11.7657 12.4969L11.658 12.4595C10.507 12.0604 8.51001 11.368 8.51001 9.21997C8.51001 9.12 8.52002 6.82001 11.13 6.26001V5H12.88V6.23999C14.72 6.56 15.39 8.03003 15.54 8.46997L13.96 9.14001C13.85 8.78998 13.37 7.79999 12.06 7.79999C11.36 7.79999 10.25 8.16998 10.25 9.19C10.25 10.14 11.11 10.5 12.89 11.09C15.29 11.92 15.9 13.14 15.9 14.54C15.9 17.17 13.4 17.67 12.88 17.76Z" fill="currentColor"/>
</svg>
