<svg width="24" height="24" viewBox="0 0 24 24" fill="none" xmlns="http://www.w3.org/2000/svg">
<path d="M7.00901 12C8.72072 12 10 10.9704 10 9C10 7.02959 8.72072 6 7.00901 6C5.2973 6 4 7.02959 4 9C4 10.9704 5.2973 12 7.00901 12ZM10 18L17 6H14L7 18H10ZM6.98969 10C6.37113 10 6 9.69343 6 9.0073C6 8.30657 6.37113 8 6.98969 8C7.60825 8 8 8.30657 8 9.0073C8 9.69343 7.60825 10 6.98969 10ZM17 18C18.7169 18 20 16.9704 20 15C20 13.0118 18.7169 12 17 12C15.2831 12 14 13.0118 14 15C14 16.9704 15.2831 18 17 18ZM16.9897 16C16.3711 16 16 15.6934 16 15.0073C16 14.3212 16.3711 14 16.9897 14C17.6082 14 18 14.3212 18 15.0073C18 15.6934 17.6082 16 16.9897 16Z" fill="currentColor"/>
</svg>
