<svg width="24" height="24" viewBox="0 0 24 24" fill="none" xmlns="http://www.w3.org/2000/svg">
<path fill-rule="evenodd" clip-rule="evenodd" d="M3 7C3 5.89543 3.89543 5 5 5H6V7H5V19H19V7H18V5H19C20.1046 5 21 5.89543 21 7V19C21 20.1046 20.1046 21 19 21H5C3.89543 21 3 20.1046 3 19V7ZM10 7V5H14V7H10Z" fill="currentColor" />
<path fill-rule="evenodd" clip-rule="evenodd" d="M7 9V3H9V9H7Z" fill="currentColor" />
<path fill-rule="evenodd" clip-rule="evenodd" d="M15 9V3H17V9H15Z" fill="currentColor" />
<path fill-rule="evenodd" clip-rule="evenodd" d="M7 11H17V13H7V11Z" fill="currentColor" />
<path fill-rule="evenodd" clip-rule="evenodd" d="M7 15H17V17H7V15Z" fill="currentColor" />
</svg>
