<svg width="24" height="24" viewBox="0 0 24 24" fill="none" xmlns="http://www.w3.org/2000/svg">
<path fill-rule="evenodd" clip-rule="evenodd" d="M12 2C6.66998 6.54999 4 10.48 4 13.8C4 18.78 7.79999 22 12 22C16.2 22 20 18.78 20 13.8C20 10.48 17.33 6.54999 12 2ZM7.83002 14C8.20001 14 8.5 14.26 8.57001 14.62C8.97998 16.84 10.85 17.6 12.21 17.49C12.64 17.47 13 17.81 13 18.24C13 18.64 12.68 18.97 12.28 18.99C10.15 19.12 7.65997 17.9 7.09003 14.87C7.01001 14.42 7.37 14 7.83002 14Z" fill="currentColor"/>
</svg>
