<svg width="24" height="24" viewBox="0 0 24 24" fill="none" xmlns="http://www.w3.org/2000/svg">
<path fill-rule="evenodd" clip-rule="evenodd" d="M16 11C17.66 11 18.99 9.65997 18.99 8C18.99 6.34003 17.66 5 16 5C14.34 5 13 6.34003 13 8C13 9.65997 14.34 11 16 11ZM8 11C9.65997 11 10.99 9.65997 10.99 8C10.99 6.34003 9.65997 5 8 5C6.34003 5 5 6.34003 5 8C5 9.65997 6.34003 11 8 11ZM8 13C5.66998 13 1 14.17 1 16.5V19H15V16.5C15 14.17 10.33 13 8 13ZM16 13C15.71 13 15.38 13.02 15.03 13.05C16.19 13.89 17 15.02 17 16.5V19H23V16.5C23 14.17 18.33 13 16 13Z" fill="currentColor"/>
</svg>
