<svg width="24" height="24" viewBox="0 0 24 24" fill="none" xmlns="http://www.w3.org/2000/svg">
<path d="M6.85744 6.51419C6.66809 6.51419 6.51459 6.66769 6.51459 6.85705V17.1428C6.51459 17.3321 6.66809 17.4856 6.85744 17.4856H17.1432C17.3325 17.4856 17.486 17.3321 17.486 17.1428V12.6233H20.2289V17.1428C20.2289 18.8469 18.8474 20.2285 17.1432 20.2285H6.85744C5.15325 20.2285 3.77173 18.847 3.77173 17.1428V6.85705C3.77173 5.15285 5.15325 3.77133 6.85744 3.77133H11.3769V6.51419H6.85744Z" fill="currentColor"/>
<path d="M17.486 8.46684V10.2856H20.2289V3.77133H13.7146V6.51419H15.5597L9.16057 12.9133L11.1001 14.8528L17.486 8.46684Z" fill="currentColor"/>
</svg>
