<svg width="25" height="24" viewBox="0 0 25 24" fill="none" xmlns="http://www.w3.org/2000/svg">
<path d="M21.5 16.143V17.5C21.5 18.314 21.119 19.01 20.59 19.557C20.067 20.099 19.357 20.541 18.558 20.891C16.956 21.591 14.814 22 12.5 22C10.186 22 8.044 21.592 6.442 20.891C5.643 20.541 4.933 20.099 4.41 19.557C3.925 19.057 3.565 18.429 3.508 17.701L3.5 17.5V16.143C3.965 16.407 4.462 16.641 4.994 16.838C7.024 17.589 9.679 18.008 12.5 18.008C15.321 18.008 17.976 17.589 20.006 16.838C20.405 16.69 20.784 16.522 21.145 16.335L21.5 16.143ZM3.5 10.643C3.965 10.907 4.462 11.141 4.994 11.338C7.024 12.089 9.679 12.508 12.5 12.508C15.321 12.508 17.976 12.089 20.006 11.338C20.5221 11.1475 21.0218 10.915 21.5 10.643V13.748C20.836 14.2606 20.0983 14.6698 19.312 14.962C17.557 15.612 15.148 16.009 12.5 16.009C9.853 16.009 7.444 15.612 5.688 14.962C4.90169 14.6698 4.16403 14.2606 3.5 13.748V10.643ZM12.5 3C14.814 3 16.956 3.408 18.558 4.109C19.357 4.459 20.067 4.901 20.59 5.443C21.075 5.943 21.435 6.571 21.492 7.299L21.5 7.5V8.248C20.836 8.76058 20.0983 9.16986 19.312 9.462C17.557 10.112 15.148 10.509 12.5 10.509C9.853 10.509 7.444 10.112 5.688 9.462C5.01184 9.21119 4.3714 8.87299 3.783 8.456L3.5 8.248V7.5C3.5 6.686 3.881 5.99 4.41 5.443C4.933 4.901 5.643 4.459 6.442 4.109C8.044 3.409 10.186 3 12.5 3Z" fill="currentColor"/>
</svg>
