<svg width="25" height="24" viewBox="0 0 25 24" fill="none" xmlns="http://www.w3.org/2000/svg">
<path d="M12.167 2C17.69 2 22.167 6.477 22.167 12C22.167 17.523 17.69 22 12.167 22C6.64399 22 2.16699 17.523 2.16699 12C2.16699 6.477 6.64399 2 12.167 2ZM11.46 8.464L8.63099 11.293C8.44352 11.4805 8.33821 11.7348 8.33821 12C8.33821 12.2652 8.44352 12.5195 8.63099 12.707L11.46 15.536C11.6475 15.7235 11.9018 15.8288 12.167 15.8288C12.4322 15.8288 12.6865 15.7235 12.874 15.536L15.703 12.707C15.8905 12.5195 15.9958 12.2652 15.9958 12C15.9958 11.7348 15.8905 11.4805 15.703 11.293L12.874 8.464C12.6865 8.27653 12.4322 8.17121 12.167 8.17121C11.9018 8.17121 11.6475 8.27653 11.46 8.464Z" fill="currentColor"/>
</svg>
