<svg width="25" height="20" viewBox="0 0 25 20" fill="none" xmlns="http://www.w3.org/2000/svg">
<mask id="mask0_11626_19664" style="mask-type:alpha" maskUnits="userSpaceOnUse" x="0" y="0" width="20" height="19">
<path d="M8.01237 1.37466C8.6906 -0.45822 11.283 -0.45822 11.9612 1.37466L13.2047 4.73505C13.4179 5.31131 13.8722 5.76564 14.4485 5.97887L17.8089 7.22233C19.6418 7.90056 19.6418 10.493 17.8089 11.1712L14.4485 12.4146C13.8722 12.6279 13.4179 13.0822 13.2047 13.6585L11.9612 17.0189C11.283 18.8517 8.6906 18.8517 8.01237 17.0189L6.76891 13.6585C6.55568 13.0822 6.10134 12.6279 5.52509 12.4146L2.1647 11.1712C0.331819 10.493 0.331819 7.90056 2.1647 7.22233L5.52509 5.97887C6.10134 5.76564 6.55568 5.3113 6.76891 4.73505L8.01237 1.37466Z" fill="#FFEA02"/>
</mask>
<g mask="url(#mask0_11626_19664)">
<path d="M8.01237 1.37466C8.6906 -0.45822 11.283 -0.45822 11.9612 1.37466L13.2047 4.73505C13.4179 5.31131 13.8722 5.76564 14.4485 5.97887L17.8089 7.22233C19.6418 7.90056 19.6418 10.493 17.8089 11.1712L14.4485 12.4146C13.8722 12.6279 13.4179 13.0822 13.2047 13.6585L11.9612 17.0189C11.283 18.8517 8.6906 18.8517 8.01237 17.0189L6.76891 13.6585C6.55568 13.0822 6.10134 12.6279 5.52509 12.4146L2.1647 11.1712C0.331819 10.493 0.331819 7.90056 2.1647 7.22233L5.52509 5.97887C6.10134 5.76564 6.55568 5.3113 6.76891 4.73505L8.01237 1.37466Z" fill="#FFEA02"/>
<g filter="url(#filter0_f_11626_19664)">
<path d="M10.3805 3.74087C11.0588 1.90799 13.6512 1.90799 14.3294 3.74087L15.5728 7.10126C15.7861 7.67752 16.2404 8.13185 16.8167 8.34508L20.1771 9.58854C22.0099 10.2668 22.0099 12.8592 20.1771 13.5374L16.8167 14.7808C16.2404 14.9941 15.7861 15.4484 15.5728 16.0247L14.3294 19.3851C13.6512 21.2179 11.0588 21.2179 10.3805 19.3851L9.13708 16.0247C8.92384 15.4484 8.46951 14.9941 7.89326 14.7808L4.53286 13.5374C2.69998 12.8592 2.69998 10.2668 4.53286 9.58854L7.89326 8.34508C8.46951 8.13185 8.92384 7.67751 9.13708 7.10126L10.3805 3.74087Z" fill="#FFB802"/>
</g>
<g filter="url(#filter1_f_11626_19664)">
<ellipse cx="5.68166" cy="4.55742" rx="4.96066" ry="1.24016" transform="rotate(-42.5708 5.68166 4.55742)" fill="white"/>
</g>
</g>
<mask id="mask1_11626_19664" style="mask-type:alpha" maskUnits="userSpaceOnUse" x="16" y="12" width="9" height="9">
<path d="M19.4173 12.6994C19.7084 11.9127 20.8211 11.9127 21.1122 12.6994L21.6459 14.1417C21.7374 14.3891 21.9324 14.5841 22.1798 14.6756L23.6221 15.2093C24.4088 15.5004 24.4088 16.6131 23.6221 16.9042L22.1798 17.4379C21.9324 17.5294 21.7374 17.7244 21.6459 17.9718L21.1122 19.4141C20.8211 20.2008 19.7084 20.2008 19.4173 19.4141L18.8836 17.9718C18.7921 17.7244 18.5971 17.5294 18.3497 17.4379L16.9074 16.9042C16.1207 16.6131 16.1207 15.5004 16.9074 15.2093L18.3497 14.6756C18.5971 14.5841 18.7921 14.3891 18.8836 14.1417L19.4173 12.6994Z" fill="#FFEA02"/>
</mask>
<g mask="url(#mask1_11626_19664)">
<path d="M19.4173 12.6994C19.7084 11.9127 20.8211 11.9127 21.1122 12.6994L21.6459 14.1417C21.7374 14.3891 21.9324 14.5841 22.1798 14.6756L23.6221 15.2093C24.4088 15.5004 24.4088 16.6131 23.6221 16.9042L22.1798 17.4379C21.9324 17.5294 21.7374 17.7244 21.6459 17.9718L21.1122 19.4141C20.8211 20.2008 19.7084 20.2008 19.4173 19.4141L18.8836 17.9718C18.7921 17.7244 18.5971 17.5294 18.3497 17.4379L16.9074 16.9042C16.1207 16.6131 16.1207 15.5004 16.9074 15.2093L18.3497 14.6756C18.5971 14.5841 18.7921 14.3891 18.8836 14.1417L19.4173 12.6994Z" fill="#FFEA02"/>
<g filter="url(#filter2_f_11626_19664)">
<path d="M20.4329 13.718C20.724 12.9313 21.8367 12.9313 22.1278 13.718L22.6615 15.1603C22.7531 15.4076 22.9481 15.6026 23.1954 15.6941L24.6377 16.2278C25.4244 16.519 25.4244 17.6316 24.6377 17.9227L23.1954 18.4565C22.9481 18.548 22.7531 18.743 22.6615 18.9903L22.1278 20.4326C21.8367 21.2193 20.724 21.2193 20.4329 20.4326L19.8992 18.9903C19.8077 18.743 19.6127 18.548 19.3654 18.4565L17.923 17.9227C17.1363 17.6316 17.1363 16.519 17.923 16.2278L19.3654 15.6941C19.6127 15.6026 19.8077 15.4076 19.8992 15.1603L20.4329 13.718Z" fill="#FFB802"/>
</g>
<g filter="url(#filter3_f_11626_19664)">
<ellipse cx="18.5302" cy="14.4624" rx="2.12918" ry="0.532295" transform="rotate(-42.5708 18.5302 14.4624)" fill="white"/>
</g>
</g>
<defs>
<filter id="filter0_f_11626_19664" x="0.000308275" y="-0.791684" width="24.7093" height="24.7093" filterUnits="userSpaceOnUse" color-interpolation-filters="sRGB">
<feFlood flood-opacity="0" result="BackgroundImageFix"/>
<feBlend mode="normal" in="SourceGraphic" in2="BackgroundImageFix" result="shape"/>
<feGaussianBlur stdDeviation="1.57895" result="effect1_foregroundBlur_11626_19664"/>
</filter>
<filter id="filter1_f_11626_19664" x="-0.227383" y="-1.08188" width="11.818" height="11.278" filterUnits="userSpaceOnUse" color-interpolation-filters="sRGB">
<feFlood flood-opacity="0" result="BackgroundImageFix"/>
<feBlend mode="normal" in="SourceGraphic" in2="BackgroundImageFix" result="shape"/>
<feGaussianBlur stdDeviation="1.08" result="effect1_foregroundBlur_11626_19664"/>
</filter>
<filter id="filter2_f_11626_19664" x="15.9776" y="11.7725" width="10.6054" height="10.6054" filterUnits="userSpaceOnUse" color-interpolation-filters="sRGB">
<feFlood flood-opacity="0" result="BackgroundImageFix"/>
<feBlend mode="normal" in="SourceGraphic" in2="BackgroundImageFix" result="shape"/>
<feGaussianBlur stdDeviation="0.677705" result="effect1_foregroundBlur_11626_19664"/>
</filter>
<filter id="filter3_f_11626_19664" x="15.5655" y="11.6133" width="5.92908" height="5.69715" filterUnits="userSpaceOnUse" color-interpolation-filters="sRGB">
<feFlood flood-opacity="0" result="BackgroundImageFix"/>
<feBlend mode="normal" in="SourceGraphic" in2="BackgroundImageFix" result="shape"/>
<feGaussianBlur stdDeviation="0.677705" result="effect1_foregroundBlur_11626_19664"/>
</filter>
</defs>
</svg>
