<svg width="25" height="24" viewBox="0 0 25 24" fill="none" xmlns="http://www.w3.org/2000/svg">
<path d="M17.833 3C18.5982 2.99996 19.3345 3.29233 19.8913 3.81728C20.448 4.34224 20.7831 5.06011 20.828 5.824L20.833 6V10.35L21.427 10.086C22.041 9.813 22.749 10.236 22.827 10.884L22.833 11V19C22.8332 19.5046 22.6426 19.9906 22.2995 20.3605C21.9564 20.7305 21.4862 20.9572 20.983 20.995L20.833 21H4.83301C4.32843 21.0002 3.84244 20.8096 3.47246 20.4665C3.10248 20.1234 2.87585 19.6532 2.83801 19.15L2.83301 19V11C2.83301 10.328 3.50801 9.853 4.13001 10.045L4.24001 10.086L4.83301 10.35V6C4.83297 5.23479 5.12533 4.49849 5.65029 3.94174C6.17525 3.38499 6.89312 3.04989 7.65701 3.005L7.83301 3H17.833ZM17.833 5H7.83301C7.56779 5 7.31344 5.10536 7.1259 5.29289C6.93836 5.48043 6.83301 5.73478 6.83301 6V11.239H18.833V6C18.833 5.73478 18.7277 5.48043 18.5401 5.29289C18.3526 5.10536 18.0982 5 17.833 5ZM12.833 8C13.0879 8.00028 13.333 8.09788 13.5184 8.27285C13.7037 8.44782 13.8152 8.68695 13.8302 8.94139C13.8451 9.19584 13.7623 9.44638 13.5987 9.64183C13.4352 9.83729 13.2031 9.9629 12.95 9.993L12.833 10H10.833C10.5781 9.99972 10.333 9.90212 10.1476 9.72715C9.9623 9.55218 9.85077 9.31305 9.83584 9.05861C9.8209 8.80416 9.90368 8.55362 10.0673 8.35817C10.2309 8.16271 10.4629 8.0371 10.716 8.007L10.833 8H12.833Z" fill="currentColor"/>
</svg>
