<?xml version="1.0" encoding="UTF-8"?>
<svg width="18px" height="18px" viewBox="0 0 18 18" version="1.1" xmlns="http://www.w3.org/2000/svg" xmlns:xlink="http://www.w3.org/1999/xlink">
    <title>delete_red_18dp</title>
    <g id="基础服务" stroke="none" stroke-width="1" fill="none" fill-rule="evenodd">
        <g id="钱包及设置弹窗" transform="translate(-306.000000, -575.000000)">
            <g id="编组-23" transform="translate(0.000000, 175.000000)">
                <g id="交易记录" transform="translate(20.000000, 398.000000)">
                    <g id="delete_red_18dp" transform="translate(286.000000, 2.000000)">
                        <polygon id="路径" points="0 0 18 0 18 18 0 18"></polygon>
                        <path d="M12,6.75 L12,14.25 L6,14.25 L6,6.75 L12,6.75 M10.875,2.25 L7.125,2.25 L6.375,3 L3.75,3 L3.75,4.5 L14.25,4.5 L14.25,3 L11.625,3 L10.875,2.25 Z M13.5,5.25 L4.5,5.25 L4.5,14.25 C4.5,15.075 5.175,15.75 6,15.75 L12,15.75 C12.825,15.75 13.5,15.075 13.5,14.25 L13.5,5.25 Z" id="形状" fill="currentColor" fill-rule="nonzero"></path>
                    </g>
                </g>
            </g>
        </g>
    </g>
</svg>