<svg width="24" height="24" viewBox="0 0 24 24" fill="none" xmlns="http://www.w3.org/2000/svg">
<path fill-rule="evenodd" clip-rule="evenodd" d="M12 0C5.376 0 0 5.376 0 12C0 18.624 5.376 24 12 24C18.624 24 24 18.624 24 12C24 5.376 18.624 0 12 0ZM11.9997 21.6001C6.70774 21.6001 2.39974 17.2921 2.39974 12.0001C2.39974 6.70807 6.70774 2.40007 11.9997 2.40007C17.2917 2.40007 21.5997 6.70807 21.5997 12.0001C21.5997 17.2921 17.2917 21.6001 11.9997 21.6001ZM10.0764 14.612L16.7924 7.89609L18.2293 9.34323L10.0764 17.4961L6 13.4197L7.43694 11.9827L10.0764 14.612Z" fill="currentColor"/>
</svg>
