<svg width="28" height="28" viewBox="0 0 28 28" fill="none" xmlns="http://www.w3.org/2000/svg">
<path d="M3.61664 11.4624C3.61664 9.88742 3.94719 8.39506 4.6083 6.98534C5.26942 5.57561 6.21247 4.37492 7.43747 3.38325L8.63331 4.69575C7.60275 5.53186 6.80067 6.53811 6.22706 7.7145C5.65344 8.89089 5.36664 10.1402 5.36664 11.4624H3.61664ZM22.6625 11.4624C22.6625 10.1402 22.3902 8.89089 21.8458 7.7145C21.3014 6.53811 20.5139 5.53186 19.4833 4.69575L20.6791 3.38325C21.8847 4.39436 22.8083 5.59992 23.45 6.99992C24.0916 8.39992 24.4125 9.88742 24.4125 11.4624H22.6625ZM4.66664 22.1666V20.4166H7.11664V11.4916C7.11664 9.89714 7.59789 8.45339 8.56039 7.16034C9.52289 5.86728 10.7916 5.05547 12.3666 4.72492V3.87909C12.3666 3.43186 12.5271 3.06242 12.8479 2.77075C13.1687 2.47909 13.5527 2.33325 14 2.33325C14.4472 2.33325 14.8312 2.47909 15.1521 2.77075C15.4729 3.06242 15.6333 3.43186 15.6333 3.87909V4.72492C17.2083 5.05547 18.4819 5.86728 19.4541 7.16034C20.4264 8.45339 20.9125 9.89714 20.9125 11.4916V20.4166H23.3333V22.1666H4.66664ZM14 25.6666C13.3777 25.6666 12.8333 25.4381 12.3666 24.9812C11.9 24.5242 11.6666 23.9749 11.6666 23.3333H16.3333C16.3333 23.9749 16.1048 24.5242 15.6479 24.9812C15.1909 25.4381 14.6416 25.6666 14 25.6666Z" fill="currentColor"/>
</svg>
