<svg width="24" height="24" viewBox="0 0 24 24" fill="none" xmlns="http://www.w3.org/2000/svg">
<path fill-rule="evenodd" clip-rule="evenodd" d="M1.33325 12C1.33325 6.11201 6.11192 1.33334 11.9999 1.33334C17.8879 1.33334 22.6666 6.11201 22.6666 12C22.6666 17.888 17.8879 22.6667 11.9999 22.6667C6.11192 22.6667 1.33325 17.888 1.33325 12ZM13.0666 16.2667V18.4H10.9333V16.2667H13.0666ZM11.9999 20.5333C7.29592 20.5333 3.46659 16.704 3.46659 12C3.46659 7.29601 7.29592 3.46668 11.9999 3.46668C16.7039 3.46668 20.5333 7.29601 20.5333 12C20.5333 16.704 16.7039 20.5333 11.9999 20.5333ZM7.73325 9.86668C7.73325 7.50934 9.64258 5.60001 11.9999 5.60001C14.3573 5.60001 16.2666 7.50934 16.2666 9.86668C16.2666 11.2351 15.4239 11.9715 14.6034 12.6886C13.825 13.3688 13.0666 14.0316 13.0666 15.2H10.9333C10.9333 13.2573 11.9382 12.487 12.8217 11.8098C13.5148 11.2785 14.1333 10.8045 14.1333 9.86668C14.1333 8.69334 13.1733 7.73334 11.9999 7.73334C10.8266 7.73334 9.86658 8.69334 9.86658 9.86668H7.73325Z" fill="currentColor"/>
</svg>
