<svg width="32" height="32" viewBox="0 0 32 32" fill="none" xmlns="http://www.w3.org/2000/svg">
<path d="M32 16C32 7.16344 24.8366 0 16 0C7.16344 0 0 7.16344 0 16C0 24.8366 7.16344 32 16 32C24.8366 32 32 24.8366 32 16Z" fill="#7524F9"/>
<path fill-rule="evenodd" clip-rule="evenodd" d="M25.5 11.4007V12.4551C25.5003 12.5571 25.4733 12.6573 25.4218 12.7457C25.3703 12.834 25.2963 12.9074 25.207 12.9584L21.7727 14.92L24.8408 16.6677C25.0413 16.7824 25.2078 16.9473 25.3235 17.1459C25.4393 17.3445 25.5003 17.5698 25.5 17.799V20.6106C25.5003 20.84 25.4395 21.0654 25.3238 21.2642C25.208 21.4629 25.0415 21.6279 24.8408 21.7426L16.7717 26.325C16.5713 26.4398 16.344 26.5 16.1126 26.5C15.8811 26.5 15.6538 26.4398 15.4534 26.325L12.813 24.8153C12.7684 24.7898 12.7314 24.7532 12.7057 24.7091C12.68 24.665 12.6664 24.6149 12.6664 24.564C12.6664 24.513 12.68 24.463 12.7057 24.4189C12.7314 24.3748 12.7684 24.3382 12.813 24.3127L21.5288 19.3459C21.551 19.3331 21.5694 19.3148 21.5823 19.2928C21.5951 19.2708 21.6018 19.2458 21.6018 19.2204C21.6018 19.195 21.5951 19.1701 21.5823 19.148C21.5694 19.126 21.551 19.1077 21.5288 19.0949L18.293 17.2443C18.2039 17.1933 18.1029 17.1665 18 17.1665C17.8972 17.1665 17.7961 17.1933 17.707 17.2443L8.85425 22.2931C8.78745 22.3313 8.71168 22.3514 8.63453 22.3514C8.55738 22.3514 8.4816 22.3313 8.4148 22.2931L7.4121 21.7252C7.2106 21.6107 7.04323 21.4455 6.92695 21.2463C6.81068 21.0471 6.74963 20.8211 6.75 20.591V19.4416C6.74995 19.3652 6.77023 19.2901 6.8088 19.2239C6.84738 19.1577 6.90288 19.1027 6.96973 19.0645L19.6626 11.8423C19.6848 11.8296 19.7032 11.8113 19.716 11.7893C19.7289 11.7672 19.7356 11.7423 19.7356 11.7169C19.7356 11.6915 19.7289 11.6665 19.716 11.6445C19.7032 11.6224 19.6848 11.6042 19.6626 11.5914L16.4216 9.73417C16.3326 9.68327 16.2315 9.65645 16.1287 9.65645C16.0258 9.65645 15.9248 9.68327 15.8357 9.73417L7.18945 14.6575C7.14495 14.683 7.09445 14.6963 7.04305 14.6964C6.99165 14.6964 6.94115 14.683 6.89663 14.6576C6.8521 14.6321 6.8151 14.5956 6.78938 14.5515C6.76363 14.5075 6.75005 14.4575 6.75 14.4066V11.3869C6.74973 11.1575 6.8105 10.9321 6.92623 10.7333C7.04195 10.5346 7.20853 10.3696 7.40918 10.2549L15.4768 5.67385C15.6768 5.55995 15.9035 5.5 16.1342 5.5C16.3649 5.5 16.5915 5.55995 16.7915 5.67385L24.8408 10.2708C25.0413 10.3854 25.2075 10.55 25.3233 10.7484C25.439 10.9467 25.5 11.1716 25.5 11.4007Z" fill="white"/>
</svg>
