<svg width="32" height="32" viewBox="0 0 32 32" fill="none" xmlns="http://www.w3.org/2000/svg">
<g clip-path="url(#clip0_3137_121266)">
<path d="M29.6863 11.3521L28.6996 8.67214L29.3858 7.13367C29.429 7.03662 29.4417 6.92881 29.4225 6.82436C29.4033 6.71991 29.353 6.6237 29.2782 6.54834L27.4123 4.66226C27.0117 4.25582 26.504 3.97153 25.9481 3.84249C25.3923 3.71346 24.8112 3.74498 24.2726 3.9334L23.75 4.11505L20.8996 1.02691L16.0644 1H16.033L11.1665 1.03812L8.31828 4.15094L7.81144 3.97152C7.26932 3.78088 6.68406 3.74882 6.12435 3.87911C5.56465 4.00941 5.05372 4.29664 4.65153 4.70712L2.752 6.62907C2.69238 6.68915 2.65234 6.76586 2.63713 6.84911C2.62192 6.93237 2.63226 7.01828 2.66678 7.09555L3.38219 8.69232L2.3999 11.3701L3.03458 13.7854L5.92985 24.7924C6.2634 26.0603 7.03075 27.1713 8.0985 27.9321C8.0985 27.9321 11.6127 30.4102 15.0799 32.6619C15.3541 32.8808 15.6945 33 16.0454 33C16.3962 33 16.7366 32.8808 17.0108 32.6619C20.9063 30.1097 23.9877 27.9231 23.9877 27.9231C25.0547 27.1619 25.8212 26.051 26.1542 24.7834L29.0337 13.7719L29.6863 11.3521Z" fill="url(#paint0_linear_3137_121266)"/>
<path d="M16.8402 20.8365C16.6556 20.7538 16.4652 20.6849 16.2706 20.6301H15.9274C15.7328 20.6849 15.5424 20.7538 15.3578 20.8365L14.4944 21.1953C14.2208 21.3097 13.7812 21.5137 13.5188 21.6438L11.931 22.4713C11.8735 22.49 11.8229 22.5254 11.7857 22.5731C11.7485 22.6208 11.7265 22.6785 11.7224 22.7388C11.7183 22.7991 11.7323 22.8593 11.7627 22.9115C11.7931 22.9638 11.8384 23.0057 11.8929 23.032L13.2721 24.0053C13.5143 24.1758 13.8956 24.4763 14.1198 24.6781L14.5078 25.0123C14.7321 25.2052 15.0976 25.5259 15.3197 25.7232L15.6875 26.0484C15.8011 26.1431 15.9443 26.1949 16.0923 26.1949C16.2402 26.1949 16.3834 26.1431 16.4971 26.0484L16.8828 25.712L17.6946 25.0033L18.0849 24.6624C18.3091 24.4673 18.6881 24.1668 18.9303 23.9896L20.3096 23.0029C20.3641 22.9767 20.4095 22.9346 20.4398 22.8822C20.47 22.8298 20.4838 22.7694 20.4792 22.7091C20.4746 22.6487 20.4518 22.5912 20.414 22.544C20.3761 22.4967 20.3249 22.4621 20.267 22.4444L18.6814 21.6393C18.4168 21.5048 17.9772 21.3029 17.7014 21.1908L16.8402 20.8365Z" fill="white"/>
<path d="M26.6182 11.9512L26.663 11.8077C26.6657 11.6157 26.6537 11.4238 26.6271 11.2336C26.4936 10.8939 26.3221 10.5704 26.1158 10.2692L25.2188 8.95278C25.0528 8.70609 24.7702 8.31587 24.5796 8.08488L23.3775 6.58005C23.2679 6.43338 23.1488 6.29405 23.0209 6.16292H22.9963C22.9963 6.16292 22.7541 6.20553 22.4625 6.26159L20.6258 6.61593L19.8207 6.77068C19.5534 6.78324 19.2862 6.74441 19.0335 6.6563L17.5825 6.18758C17.2999 6.09563 16.8334 5.96332 16.5441 5.90052C16.2393 5.86812 15.9318 5.86812 15.6269 5.90052C15.3376 5.9678 14.8711 6.09788 14.5885 6.18983L13.1375 6.66079C12.8849 6.74889 12.6177 6.78772 12.3504 6.77516L11.5453 6.62266L9.70627 6.27056C9.41473 6.2145 9.17476 6.16964 9.17252 6.17189H9.14785C9.02003 6.30301 8.90091 6.44236 8.79127 6.58902L7.59144 8.09384C7.40754 8.31811 7.11824 8.71731 6.95229 8.96176L6.05522 10.2782C5.90029 10.5052 5.75876 10.7411 5.63136 10.9846C5.55451 11.2562 5.51379 11.5367 5.51025 11.8189L5.55511 11.9624C5.5767 12.0546 5.60442 12.1453 5.63809 12.2338C5.82423 12.4581 6.14268 12.8303 6.34677 13.0479L9.48649 16.385C9.59072 16.5066 9.66047 16.654 9.68847 16.8118C9.71647 16.9695 9.70171 17.1319 9.64572 17.282L9.13215 18.4998C9.01537 18.8224 9.00671 19.1743 9.10748 19.5023L9.21064 19.7848C9.3792 20.2438 9.66814 20.6489 10.0472 20.9577L10.5405 21.3592C10.6687 21.4516 10.8183 21.51 10.9752 21.5288C11.1321 21.5477 11.2912 21.5263 11.4376 21.4668L13.1914 20.6303C13.5133 20.4692 13.8145 20.2696 14.0884 20.036L15.4923 18.7689C15.5483 18.7184 15.5935 18.6572 15.6253 18.5889C15.6571 18.5207 15.6749 18.4467 15.6777 18.3714C15.6804 18.2961 15.668 18.221 15.6411 18.1506C15.6143 18.0802 15.5736 18.0159 15.5215 17.9615L12.3526 15.8265C12.2326 15.7414 12.1472 15.616 12.1118 15.4732C12.0764 15.3304 12.0934 15.1797 12.1597 15.0483L13.3887 12.7384C13.4586 12.597 13.4999 12.4432 13.5103 12.2858C13.5207 12.1284 13.5 11.9705 13.4493 11.8211C13.2967 11.5362 13.0503 11.3128 12.7518 11.1887L8.89891 9.73323C8.62082 9.62783 8.63652 9.50897 8.93031 9.49102L11.1932 9.26676C11.548 9.24419 11.9042 9.27596 12.2494 9.36095L14.2185 9.9104C14.3583 9.95254 14.4781 10.0439 14.5556 10.1677C14.6331 10.2914 14.6632 10.439 14.6401 10.5832L13.8664 14.8084C13.8147 15.0424 13.8018 15.2833 13.8283 15.5215C13.8597 15.6225 14.1243 15.7458 14.4136 15.8176L15.6134 16.0732C15.9619 16.1373 16.3191 16.1373 16.6675 16.0732L17.7462 15.8288C18.0355 15.7637 18.2979 15.6269 18.3315 15.526C18.3574 15.2877 18.3437 15.0467 18.2912 14.8129L17.513 10.5877C17.4899 10.4435 17.52 10.2959 17.5975 10.1721C17.675 10.0484 17.7948 9.95702 17.9346 9.91489L19.9036 9.36319C20.2489 9.27816 20.6051 9.2464 20.9599 9.269L23.2228 9.47981C23.5188 9.50672 23.5323 9.61661 23.2564 9.72202L19.4058 11.182C19.1073 11.3061 18.8609 11.5295 18.7083 11.8144C18.6062 12.1161 18.628 12.446 18.7689 12.7317L20.0001 15.0416C20.0664 15.1729 20.0834 15.3237 20.048 15.4665C20.0127 15.6093 19.9272 15.7347 19.8072 15.8198L16.6406 17.9593C16.5884 18.0137 16.5478 18.078 16.5209 18.1484C16.4941 18.2188 16.4817 18.2939 16.4844 18.3692C16.4871 18.4444 16.5049 18.5184 16.5368 18.5867C16.5686 18.655 16.6138 18.7162 16.6697 18.7667L18.0759 20.0338C18.3499 20.2666 18.6511 20.4654 18.9729 20.6258L20.7267 21.4601C20.8733 21.5193 21.0325 21.5403 21.1894 21.521C21.3463 21.5018 21.4958 21.443 21.6238 21.3502L22.1172 20.9465C22.4966 20.6371 22.7856 20.2312 22.9537 19.7714L23.0568 19.4888C23.1576 19.1608 23.1489 18.809 23.0322 18.4863L22.5163 17.2686C22.4604 17.1184 22.4456 16.9561 22.4736 16.7983C22.5016 16.6406 22.5713 16.4932 22.6756 16.3715L25.8153 13.0299C26.0194 12.8057 26.3356 12.4468 26.5217 12.2159C26.5597 12.1299 26.5919 12.0415 26.6182 11.9512Z" fill="white"/>
</g>
<defs>
<linearGradient id="paint0_linear_3137_121266" x1="2.40887" y1="17.0014" x2="29.6774" y2="17.0014" gradientUnits="userSpaceOnUse">
<stop stop-color="#F1562B"/>
<stop offset="0.3" stop-color="#F1542B"/>
<stop offset="0.41" stop-color="#F04D2A"/>
<stop offset="0.49" stop-color="#EF4229"/>
<stop offset="0.5" stop-color="#EF4029"/>
<stop offset="0.56" stop-color="#E83E28"/>
<stop offset="0.67" stop-color="#E13C26"/>
<stop offset="1" stop-color="#DF3C26"/>
</linearGradient>
<clipPath id="clip0_3137_121266">
<rect width="32" height="32" fill="white"/>
</clipPath>
</defs>
</svg>
