<?xml version="1.0" encoding="UTF-8"?>
<svg width="32px" height="32px" viewBox="0 0 32 32" version="1.1" xmlns="http://www.w3.org/2000/svg" xmlns:xlink="http://www.w3.org/1999/xlink">
    <title>WalletConnect</title>
    <defs>
        <radialGradient cx="14.2459714%" cy="82.9640779%" fx="14.2459714%" fy="82.9640779%" r="97.6569253%" id="radialGradient-1">
            <stop stop-color="#1253FC" offset="0%"></stop>
            <stop stop-color="#4C7CF8" offset="100%"></stop>
        </radialGradient>
        <filter color-interpolation-filters="auto" id="filter-2">
            <feColorMatrix in="SourceGraphic" type="matrix" values="0 0 0 0 1.000000 0 0 0 0 1.000000 0 0 0 0 1.000000 0 0 0 1.000000 0"></feColorMatrix>
        </filter>
    </defs>
    <g id="控件" stroke="none" stroke-width="1" fill="none" fill-rule="evenodd">
        <g id="钱包-Huobi" transform="translate(-16.000000, -16.000000)">
            <g id="WalletConnect" transform="translate(16.000000, 16.000000)">
                <g id="未命名" fill="url(#radialGradient-1)" fill-rule="nonzero">
                    <path d="M16,0 C24.836556,0 32,7.163444 32,16 C32,24.836556 24.836556,32 16,32 C7.163444,32 0,24.836556 0,16 C0,7.163444 7.163444,0 16,0 Z" id="路径"></path>
                </g>
                <g filter="url(#filter-2)" id="heco">
                    <g transform="translate(8.888889, 5.333333)">
                        <path d="M9.77777778,6.56528272 C9.77777778,3.50266975 8.1802334,0.868073441 6.96574747,0.0102563438 C6.95996869,0.00845797311 6.87336379,-0.0382994199 6.88105745,0.0839888876 C6.88105745,0.0857875045 6.87913403,0.0857875045 6.87913403,0.0875861214 C6.77904815,6.00239441 3.54554242,7.60473067 1.7671117,9.76457253 C-2.33636671,14.7478573 1.4803265,20.2112381 5.36631388,21.2200883 C7.54123275,21.7847818 4.86396105,20.2202641 4.51943926,16.9148132 C4.10177646,12.9206857 9.77777778,9.87247313 9.77777778,6.56528272 Z" id="路径" fill="#2D3338" fill-rule="nonzero"></path>
                        <path d="M11.2932296,8.01552828 C11.2668533,7.99856497 11.2303947,7.98734177 11.2040185,8.02675148 C11.1330817,8.80415072 10.275719,10.4677543 9.18934224,11.9942806 C5.50455525,17.1729727 7.60436459,19.6703485 8.78604691,21.0109638 C9.47110885,21.7902479 8.78604691,21.0109638 10.4987017,20.2148878 C10.6324734,20.1528604 13.8429923,18.4854872 14.1895742,14.6869058 C14.5280542,11.0085239 12.1424903,8.68960556 11.2932296,8.01552828 Z" id="路径" fill="#01943F" fill-rule="nonzero"></path>
                    </g>
                </g>
            </g>
        </g>
    </g>
</svg>