<svg width="32" height="32" viewBox="0 0 32 32" fill="none" xmlns="http://www.w3.org/2000/svg">
<g clip-path="url(#clip0_5313_179352)">
<path fill-rule="evenodd" clip-rule="evenodd" d="M16.0028 26.7602L5.24537 16.0028L16.0028 5.24537L26.7602 16.0028L16.0028 26.7602ZM16.0028 13.0046C14.3521 13.0046 13.0046 14.3465 13.0046 16.0028C13.0046 17.6591 14.3465 19.001 16.0028 19.001C17.6591 19.001 19.001 17.6591 19.001 16.0028C19.001 14.3465 17.6591 13.0046 16.0028 13.0046ZM0.635845 14.4644C-0.211948 15.3122 -0.211948 16.6934 0.635845 17.5356L14.4644 31.3642C15.3122 32.2119 16.6934 32.2119 17.5356 31.3642L31.3642 17.5356C32.2119 16.6878 32.2119 15.3066 31.3642 14.4644L17.5356 0.635845C16.6878 -0.211948 15.3066 -0.211948 14.4644 0.635845L0.635845 14.4644Z" fill="#28CD96"/>
</g>
<defs>
<clipPath id="clip0_5313_179352">
<rect width="32" height="32" fill="white"/>
</clipPath>
</defs>
</svg>
