<svg width="72" height="72" viewBox="0 0 72 72" fill="none" xmlns="http://www.w3.org/2000/svg">
<circle cx="36" cy="36" r="36" fill="black"/>
<path fill-rule="evenodd" clip-rule="evenodd" d="M14.25 46.4721C15.1398 46.4721 15.8611 47.1934 15.8611 48.0832C15.8611 48.973 15.1398 49.6943 14.25 49.6943C13.3602 49.6943 12.6389 48.973 12.6389 48.0832C12.6389 47.1934 13.3602 46.4721 14.25 46.4721ZM36 46.4721C36.8898 46.4721 37.6111 47.1934 37.6111 48.0832C37.6111 48.973 36.8898 49.6943 36 49.6943C35.1102 49.6943 34.3889 48.973 34.3889 48.0832C34.3889 47.1934 35.1102 46.4721 36 46.4721ZM57.75 46.4721C58.6398 46.4721 59.3611 47.1934 59.3611 48.0832C59.3611 48.973 58.6398 49.6943 57.75 49.6943C56.8602 49.6943 56.1389 48.973 56.1389 48.0832C56.1389 47.1934 56.8602 46.4721 57.75 46.4721ZM19.0833 40.0276C20.418 40.0276 21.5 41.1096 21.5 42.4443C21.5 43.779 20.418 44.861 19.0833 44.861C17.7486 44.861 16.6667 43.779 16.6667 42.4443C16.6667 41.1096 17.7486 40.0276 19.0833 40.0276ZM30.3611 40.0276C31.6958 40.0276 32.7778 41.1096 32.7778 42.4443C32.7778 43.779 31.6958 44.861 30.3611 44.861C29.0264 44.861 27.9444 43.779 27.9444 42.4443C27.9444 41.1096 29.0264 40.0276 30.3611 40.0276ZM41.6389 40.0276C42.9736 40.0276 44.0556 41.1096 44.0556 42.4443C44.0556 43.779 42.9736 44.861 41.6389 44.861C40.3042 44.861 39.2222 43.779 39.2222 42.4443C39.2222 41.1096 40.3042 40.0276 41.6389 40.0276ZM52.9167 40.0276C54.2514 40.0276 55.3333 41.1096 55.3333 42.4443C55.3333 43.779 54.2514 44.861 52.9167 44.861C51.582 44.861 50.5 43.779 50.5 42.4443C50.5 41.1096 51.582 40.0276 52.9167 40.0276ZM8.61111 40.8332C9.5009 40.8332 10.2222 41.5545 10.2222 42.4443C10.2222 43.3341 9.5009 44.0554 8.61111 44.0554C7.72132 44.0554 7 43.3341 7 42.4443C7 41.5545 7.72132 40.8332 8.61111 40.8332ZM63.3889 40.8332C64.2787 40.8332 65 41.5545 65 42.4443C65 43.3341 64.2787 44.0554 63.3889 44.0554C62.4991 44.0554 61.7778 43.3341 61.7778 42.4443C61.7778 41.5545 62.4991 40.8332 63.3889 40.8332ZM24.7222 33.5832C26.5018 33.5832 27.9444 35.0258 27.9444 36.8054C27.9444 38.585 26.5018 40.0276 24.7222 40.0276C22.9426 40.0276 21.5 38.585 21.5 36.8054C21.5 35.0258 22.9426 33.5832 24.7222 33.5832ZM47.2778 33.5832C49.0574 33.5832 50.5 35.0258 50.5 36.8054C50.5 38.585 49.0574 40.0276 47.2778 40.0276C45.4982 40.0276 44.0556 38.585 44.0556 36.8054C44.0556 35.0258 45.4982 33.5832 47.2778 33.5832ZM14.25 34.3888C15.5847 34.3888 16.6667 35.4707 16.6667 36.8054C16.6667 38.1401 15.5847 39.2221 14.25 39.2221C12.9153 39.2221 11.8333 38.1401 11.8333 36.8054C11.8333 35.4707 12.9153 34.3888 14.25 34.3888ZM36 34.3888C37.3347 34.3888 38.4167 35.4707 38.4167 36.8054C38.4167 38.1401 37.3347 39.2221 36 39.2221C34.6653 39.2221 33.5833 38.1401 33.5833 36.8054C33.5833 35.4707 34.6653 34.3888 36 34.3888ZM57.75 34.3888C59.0847 34.3888 60.1667 35.4707 60.1667 36.8054C60.1667 38.1401 59.0847 39.2221 57.75 39.2221C56.4153 39.2221 55.3333 38.1401 55.3333 36.8054C55.3333 35.4707 56.4153 34.3888 57.75 34.3888ZM19.0833 27.9443C20.8629 27.9443 22.3056 29.3869 22.3056 31.1665C22.3056 32.9461 20.8629 34.3888 19.0833 34.3888C17.3037 34.3888 15.8611 32.9461 15.8611 31.1665C15.8611 29.3869 17.3037 27.9443 19.0833 27.9443ZM30.3611 27.9443C32.1407 27.9443 33.5833 29.3869 33.5833 31.1665C33.5833 32.9461 32.1407 34.3888 30.3611 34.3888C28.5815 34.3888 27.1389 32.9461 27.1389 31.1665C27.1389 29.3869 28.5815 27.9443 30.3611 27.9443ZM41.6389 27.9443C43.4185 27.9443 44.8611 29.3869 44.8611 31.1665C44.8611 32.9461 43.4185 34.3888 41.6389 34.3888C39.8593 34.3888 38.4167 32.9461 38.4167 31.1665C38.4167 29.3869 39.8593 27.9443 41.6389 27.9443ZM52.9167 27.9443C54.6963 27.9443 56.1389 29.3869 56.1389 31.1665C56.1389 32.9461 54.6963 34.3888 52.9167 34.3888C51.1371 34.3888 49.6944 32.9461 49.6944 31.1665C49.6944 29.3869 51.1371 27.9443 52.9167 27.9443ZM24.7222 22.3054C26.5018 22.3054 27.9444 23.7481 27.9444 25.5276C27.9444 27.3072 26.5018 28.7499 24.7222 28.7499C22.9426 28.7499 21.5 27.3072 21.5 25.5276C21.5 23.7481 22.9426 22.3054 24.7222 22.3054ZM47.2778 22.3054C49.0574 22.3054 50.5 23.7481 50.5 25.5276C50.5 27.3072 49.0574 28.7499 47.2778 28.7499C45.4982 28.7499 44.0556 27.3072 44.0556 25.5276C44.0556 23.7481 45.4982 22.3054 47.2778 22.3054Z" fill="white"/>
</svg>
