<svg width="24" height="24" viewBox="0 0 24 24" fill="none" xmlns="http://www.w3.org/2000/svg">
<path fill-rule="evenodd" clip-rule="evenodd" d="M18 7C18 9.20914 16.2091 11 14 11C11.7909 11 10 9.20914 10 7C10 4.79086 11.7909 3 14 3C16.2091 3 18 4.79086 18 7ZM16 7C16 8.10457 15.1046 9 14 9C12.8954 9 12 8.10457 12 7C12 5.89543 12.8954 5 14 5C15.1046 5 16 5.89543 16 7ZM19.5 7C19.5 7.3415 19.4689 7.67572 19.4093 8H21C21.5523 8 22 7.55228 22 7C22 6.44772 21.5523 6 21 6H19.4093C19.4689 6.32428 19.5 6.6585 19.5 7ZM8.5907 8H3C2.44772 8 2 7.55228 2 7C2 6.44772 2.44772 6 3 6H8.5907C8.53113 6.32428 8.5 6.6585 8.5 7C8.5 7.3415 8.53113 7.67572 8.5907 8ZM15 17C15 19.2091 13.2091 21 11 21C8.79086 21 7 19.2091 7 17C7 14.7909 8.79086 13 11 13C13.2091 13 15 14.7909 15 17ZM13 17C13 18.1046 12.1046 19 11 19C9.89542 19 9 18.1046 9 17C9 15.8954 9.89542 15 11 15C12.1046 15 13 15.8954 13 17ZM16.4093 18C16.4689 17.6757 16.5 17.3415 16.5 17C16.5 16.6585 16.4689 16.3243 16.4093 16H21C21.5523 16 22 16.4477 22 17C22 17.5523 21.5523 18 21 18H16.4093ZM3 18H5.5907C5.53113 17.6757 5.5 17.3415 5.5 17C5.5 16.6585 5.53113 16.3243 5.5907 16H3C2.44772 16 2 16.4477 2 17C2 17.5523 2.44772 18 3 18Z" fill="currentColor"/>
</svg>
