<svg width="24" height="24" viewBox="0 0 24 24" fill="none" xmlns="http://www.w3.org/2000/svg">
<path d="M11.5171 9.77737C11.5171 8.89959 12.237 8.18848 13.1257 8.18848C14.0143 8.18848 14.7342 8.89959 14.7342 9.77737C14.7342 10.6551 14.0143 11.3663 13.1257 11.3663C12.237 11.3663 11.5171 10.6551 11.5171 9.77737Z" fill="currentColor"/>
<path fill-rule="evenodd" clip-rule="evenodd" d="M5.27425 9.37778C5.47672 5.26667 8.90759 2 13.1259 2C17.4791 2 21 5.47778 21 9.77778C21 12.8778 19.1552 15.5556 16.5005 16.8V22H8.62637V18.6667H7.5015C6.26414 18.6667 5.25175 17.6667 5.25175 16.4444V13.1111H3.56444C3.10324 13.1111 2.83327 12.5889 3.11449 12.2222L5.27425 9.37778ZM15.1844 12.4222C14.9482 12.6 14.7008 12.7444 14.4309 12.8555L14.251 14.033C14.2472 14.0704 14.2332 14.104 14.2121 14.1322C14.1703 14.1879 14.1005 14.2222 14.0258 14.2222H12.226C12.1135 14.2222 12.0235 14.1444 12.001 14.0333L11.8323 12.8556C11.5511 12.7444 11.3036 12.6 11.0674 12.4222L9.95373 12.8667C9.85249 12.9 9.72875 12.8667 9.67251 12.7667L8.77261 11.2222C8.72731 11.1506 8.73309 11.0574 8.78405 10.989C8.79642 10.9724 8.81146 10.9572 8.82909 10.9441L9.77374 10.211C9.76249 10.0666 9.75125 9.92218 9.75125 9.77778C9.75125 9.63333 9.77375 9.47778 9.79624 9.34444L8.8401 8.61111C8.75011 8.54444 8.72761 8.43333 8.78386 8.32222L9.68376 6.78889C9.68863 6.78023 9.69391 6.77208 9.69958 6.76442C9.75936 6.68336 9.86137 6.65807 9.95397 6.68856L11.0788 7.13301C11.3038 6.96638 11.5624 6.81087 11.8323 6.69976L12.001 5.52222C12.0086 5.48482 12.0238 5.4512 12.0449 5.42305C12.0866 5.36737 12.1514 5.33301 12.2262 5.33301H14.026C14.1385 5.33301 14.2285 5.41079 14.251 5.5219L14.4197 6.69967C14.6897 6.81079 14.9372 6.95523 15.1734 7.13301L16.2983 6.68856C16.3995 6.65523 16.5232 6.68856 16.5682 6.78856L17.4681 8.3219C17.5134 8.40243 17.5077 8.49737 17.4567 8.56611C17.4443 8.58285 17.4293 8.59805 17.4116 8.61111L16.4558 9.34424C16.4895 9.47754 16.5007 9.62194 16.5007 9.77745C16.5007 9.9219 16.4895 10.0663 16.4782 10.2108L17.4119 10.9441C17.5019 11.0108 17.5244 11.1219 17.4681 11.2219L16.5682 12.7663C16.5634 12.775 16.558 12.7832 16.5522 12.7908C16.4909 12.8719 16.3803 12.8972 16.298 12.8667L15.1844 12.4222Z" fill="currentColor"/>
</svg>
