<svg width="24" height="24" viewBox="0 0 24 24" fill="none" xmlns="http://www.w3.org/2000/svg">
<path fill-rule="evenodd" clip-rule="evenodd" d="M12.3131 12.0642C12.6141 9.72296 12.8534 6.39632 11.5793 4.44172C11.1945 3.85137 10.6716 3.38618 9.97064 3.11111C9.97064 3.11111 9.89704 3.87006 9.61695 4.94716C9.25444 6.34119 8.54606 8.26817 7.20369 9.77243C4.86456 12.3937 3.85455 18.2407 9.45266 20.3817C10.2504 20.708 11.1307 20.8889 12.0559 20.8889C12.6589 20.8889 13.2448 20.8121 13.8027 20.668C15.5592 20.2263 17.0854 19.1183 17.9344 17.539C18.4016 16.6979 18.6665 15.7446 18.6665 14.7344C18.6665 14.6564 18.6596 14.585 18.6458 14.5208C18.6221 13.2059 18.2143 11.7403 17.3028 10.1763C16.9243 9.52678 16.4589 8.86034 15.898 8.18069C15.8026 8.95911 15.5928 9.70663 15.3175 10.4004C14.9642 11.2906 14.503 12.0922 14.0367 12.7569C13.8257 13.0579 13.6135 13.3308 13.4099 13.5711C12.7889 14.3042 12.2472 14.7344 12.0559 14.7344C11.9673 14.7344 11.9877 14.4257 12.0559 13.9078C12.0816 13.7132 12.114 13.489 12.1499 13.2406C12.1639 13.1437 12.1785 13.0431 12.1934 12.9392C12.2321 12.6686 12.2732 12.3751 12.3131 12.0642ZM16.3804 12.3764C16.0885 12.9225 15.775 13.418 15.4666 13.8527C14.986 14.5298 14.4884 15.1005 14.0466 15.5213C13.8288 15.7287 13.5963 15.9268 13.3627 16.0865C13.2472 16.1655 13.0993 16.2574 12.9285 16.3359C12.7934 16.398 12.4722 16.5344 12.0559 16.5344C11.0994 16.5344 10.5841 15.867 10.404 15.5012C10.2485 15.1853 10.2178 14.8956 10.2081 14.7921C10.1846 14.543 10.2035 14.2955 10.2169 14.1468C10.2448 13.8373 10.3045 13.4249 10.3647 13.0088C10.3694 12.9767 10.374 12.9445 10.3787 12.9124C10.5162 11.9604 10.6856 10.7579 10.737 9.51917C10.7675 8.7834 10.7535 8.08352 10.6812 7.45297C10.2113 8.60698 9.531 9.86789 8.5467 10.9709C7.67914 11.9431 7.03102 13.5865 7.14663 15.122C7.25031 16.4991 7.96138 17.8842 10.0956 18.7005L10.1149 18.7079L10.1341 18.7157C10.7175 18.9543 11.3665 19.0889 12.0559 19.0889C12.5057 19.0889 12.9404 19.0316 13.3526 18.9252L13.3638 18.9223L13.3638 18.9223C14.6793 18.5916 15.7628 17.777 16.349 16.6867L16.3548 16.6758L16.3609 16.6649C16.6754 16.0987 16.854 15.4695 16.8659 14.8057L16.8493 14.7282L16.8461 14.5533C16.8346 13.9178 16.6991 13.1879 16.3804 12.3764Z" fill="currentColor"/>
<path opacity="0.2" d="M19.4073 9.77775C20.2255 9.77775 20.8887 9.11447 20.8887 8.29627C20.8887 7.47807 20.2255 6.81479 19.4073 6.81479C18.5891 6.81479 17.9258 7.47807 17.9258 8.29627C17.9258 9.11447 18.5891 9.77775 19.4073 9.77775Z" fill="currentColor"/>
<path opacity="0.2" d="M4.2222 7.55557C4.83584 7.55557 5.33331 7.0581 5.33331 6.44445C5.33331 5.8308 4.83584 5.33334 4.2222 5.33334C3.60855 5.33334 3.11108 5.8308 3.11108 6.44445C3.11108 7.0581 3.60855 7.55557 4.2222 7.55557Z" fill="currentColor"/>
</svg>
