<?xml version="1.0" encoding="UTF-8"?>
<svg width="12px" height="12px" viewBox="0 0 12 12" version="1.1" xmlns="http://www.w3.org/2000/svg" xmlns:xlink="http://www.w3.org/1999/xlink">
    <title>link-45deg</title>
    <defs>
        <filter color-interpolation-filters="auto" id="filter-1">
            <feColorMatrix in="SourceGraphic" type="matrix" values="0 0 0 0 1.000000 0 0 0 0 1.000000 0 0 0 0 1.000000 0 0 0 1.000000 0"></feColorMatrix>
        </filter>
    </defs>
    <g id="补充需求" stroke="none" stroke-width="1" fill="none" fill-rule="evenodd">
        <g id="连接钱包-手机" transform="translate(-41.000000, -363.000000)">
            <g id="弹窗" transform="translate(18.000000, 168.000000)">
                <g id="link-45deg" transform="translate(20.000000, 192.000000)" filter="url(#filter-1)">
                    <g transform="translate(3.000000, 3.000000)">
                        <path d="M2.30011391,5.10619321 L0.898025463,6.56271633 C-0.299341821,7.80657018 -0.299341821,9.82325575 0.898025463,11.0671096 C2.09539275,12.3109635 4.03670868,12.3109635 5.23407597,11.0671096 L7.10216466,9.12543265 C7.80576245,8.39441436 8.12404987,7.35411906 7.95584491,6.33525157 C7.78763994,5.31638409 7.15386957,4.44570538 6.25600633,4 L5.65715514,4.62210098 C5.59635077,4.68536373 5.54347401,4.75634425 5.49977786,4.83336053 C6.19535567,5.0410875 6.73331287,5.61546833 6.91413031,6.34347495 C7.09494774,7.07148157 6.89165881,7.84454112 6.3796599,8.37593898 L4.51259314,10.3165543 C3.71397202,11.1461811 2.41915135,11.1461811 1.62053023,10.3165543 C0.821909105,9.48692755 0.821909105,8.14183678 1.62053023,7.31221 L2.430921,6.47141823 C2.31658242,6.02631528 2.27240791,5.56491023 2.30011391,5.10513161 L2.30011391,5.10619321 Z" id="路径" fill="#CCCCCC" fill-rule="nonzero"></path>
                        <path d="M4.89783534,2.87388711 C4.19423755,3.60500242 3.87595013,4.64543579 4.04415509,5.6644385 C4.21236006,6.6834412 4.84613043,7.55423546 5.74399367,8 L6.5359897,7.17608459 C5.83079376,6.97956041 5.28005615,6.4071263 5.09119596,5.6743727 C4.90233577,4.94161911 5.10403901,4.15984412 5.6203401,3.62348025 L7.48740686,1.68260735 C8.28602798,0.852870465 9.58084865,0.852870465 10.3794698,1.68260735 C11.1780909,2.51234423 11.1780909,3.85761352 10.3794698,4.68735041 L9.569079,5.52825377 C9.6835352,5.97418737 9.72747821,6.43604716 9.69988609,6.89472172 L11.1019745,5.4380053 C12.2993418,4.19398636 12.2993418,2.17703314 11.1019745,0.933014205 C9.90460725,-0.311004735 7.96329132,-0.311004735 6.76592403,0.933014205 L4.89783534,2.87388711 Z" id="路径" fill="#CCCCCC" fill-rule="nonzero"></path>
                    </g>
                </g>
            </g>
        </g>
    </g>
</svg>