<svg width="24" height="24" viewBox="0 0 24 24" fill="none" xmlns="http://www.w3.org/2000/svg">
<path fill-rule="evenodd" clip-rule="evenodd" d="M11.99 1V4C16.41 4 19.99 7.58 19.99 12C19.99 13.57 19.53 15.03 18.75 16.26L17.29 14.8C17.74 13.97 17.99 13.01 17.99 12C17.99 8.69 15.3 6 11.99 6V9L7.98999 5L11.99 1ZM5.98999 12C5.98999 15.31 8.67999 18 11.99 18V15L15.99 19L11.99 23V20C7.56999 20 3.98999 16.42 3.98999 12C3.98999 10.43 4.44999 8.97 5.22999 7.74L6.68999 9.2C6.23999 10.03 5.98999 10.99 5.98999 12Z" fill="currentColor"/>
</svg>
