<svg width="24" height="24" viewBox="0 0 24 24" fill="none" xmlns="http://www.w3.org/2000/svg">
<path d="M16.5435 15.0947C15.9199 15.0947 15.3388 15.2901 14.863 15.6219L10.291 12.4153C10.3 12.3253 10.3052 12.2353 10.3052 12.1427C10.3052 12.1273 10.3026 12.1131 10.3026 12.0977L15.0572 8.73557C15.4969 8.98114 16.0035 9.12257 16.5435 9.12257C18.2342 9.12257 19.6048 7.752 19.6048 6.06129C19.6048 4.37057 18.2355 3 16.5435 3C14.854 3 13.4835 4.37057 13.4835 6.06129C13.4835 6.303 13.513 6.53829 13.5658 6.76457L9.20719 9.84771C8.70062 9.43629 8.05519 9.18943 7.3519 9.18943C5.72162 9.18943 4.3999 10.5111 4.3999 12.1427C4.3999 13.773 5.72162 15.0947 7.3519 15.0947C8.05005 15.0947 8.68776 14.8517 9.19305 14.448L13.6352 17.5633C13.6082 17.7214 13.5928 17.8821 13.5928 18.0467C13.5928 19.6783 14.9145 21 16.5448 21C18.1763 21 19.498 19.6783 19.498 18.0467C19.498 16.4151 18.175 15.0947 16.5435 15.0947Z" fill="currentColor"/>
</svg>
