<svg width="24" height="24" viewBox="0 0 24 24" fill="none" xmlns="http://www.w3.org/2000/svg">
<path fill-rule="evenodd" clip-rule="evenodd" d="M11 2V4C11 4.55 11.45 5 12 5C12.55 5 13 4.55 13 4V2C13 1.45 12.55 1 12 1C11.45 1 11 1.45 11 2ZM7 12C7 14.76 9.24 17 12 17C14.76 17 17 14.76 17 12C17 9.24 14.76 7 12 7C9.24 7 7 9.24 7 12ZM2 13H4C4.55 13 5 12.55 5 12C5 11.45 4.55 11 4 11H2C1.45 11 1 11.45 1 12C1 12.55 1.45 13 2 13ZM22 13H20C19.45 13 19 12.55 19 12C19 11.45 19.45 11 20 11H22C22.55 11 23 11.45 23 12C23 12.55 22.55 13 22 13ZM11 22V20C11 19.45 11.45 19 12 19C12.55 19 13 19.45 13 20V22C13 22.55 12.55 23 12 23C11.45 23 11 22.55 11 22ZM5.99 4.58C5.6 4.19 4.96 4.19 4.58 4.58C4.19 4.97 4.19 5.61 4.58 5.99L5.64 7.05C6.03 7.44 6.67 7.44 7.05 7.05C7.43 6.66 7.44 6.02 7.05 5.64L5.99 4.58ZM16.95 16.95C17.33 16.56 17.97 16.56 18.36 16.95L19.42 18.01C19.81 18.39 19.81 19.03 19.42 19.42C19.04 19.81 18.4 19.81 18.01 19.42L16.95 18.36C16.56 17.98 16.56 17.34 16.95 16.95ZM19.42 5.99C19.81 5.6 19.81 4.96 19.42 4.58C19.03 4.19 18.39 4.19 18.01 4.58L16.95 5.64C16.56 6.03 16.56 6.67 16.95 7.05C17.34 7.43 17.98 7.44 18.36 7.05L19.42 5.99ZM7.05 16.95C7.44 17.33 7.44 17.97 7.05 18.36L5.99 19.42C5.61 19.81 4.97 19.8 4.58 19.42C4.19 19.04 4.19 18.4 4.58 18.01L5.64 16.95C6.02 16.56 6.66 16.56 7.05 16.95Z" fill="currentColor"/>
</svg>
