<svg width="24" height="24" viewBox="0 0 24 24" fill="none" xmlns="http://www.w3.org/2000/svg">
<path fill-rule="evenodd" clip-rule="evenodd" d="M11.5969 7.18617C13.1008 5.21049 16.9902 1.46852 17.8322 2.06331C18.5817 2.59276 16.6638 6.37999 15.1726 8.59917C19.141 10.1349 22 14.4786 22 19.5966C22 20.4976 21.604 21.2716 20.9238 21.919C20.7114 22.1212 20.4029 21.9186 20.4216 21.6007C20.4243 21.5547 20.4256 21.5081 20.4256 21.4612C20.4256 16.1638 16.6822 11.9966 12 11.9966C7.31779 11.9966 3.47 16.1638 3.47 21.4612C3.47 21.4803 3.4702 21.4993 3.47067 21.5183C3.47804 21.8369 3.1572 22.0072 2.95166 21.7957C2.34788 21.1739 2 20.441 2 19.5966C2 14.7634 4.54972 10.6207 8.17445 8.87883C7.831 7.12522 7.95159 4.11367 8.91324 4.00314C9.69463 3.91334 10.8009 5.76504 11.4425 7.39674L11.5969 7.18617ZM15 16C15.5523 16 16 17.0508 16 18.347C16 19.6433 15.5523 20 15 20C14.4477 20 14 19.6433 14 18.347C14 17.0508 14.4477 16 15 16ZM6.57054 16L12 18.7221L7.08839 20L6.76029 19.0737L9.19834 18.4392L6 16.8357L6.57054 16Z" fill="currentColor"/>
</svg>
