<?xml version="1.0" encoding="UTF-8"?>
<svg width="60px" height="60px" viewBox="0 0 60 60" version="1.1" xmlns="http://www.w3.org/2000/svg" xmlns:xlink="http://www.w3.org/1999/xlink">
    <title>no_found</title>
    <defs>
        <rect id="path-1" x="0" y="0" width="60" height="60" rx="16"></rect>
    </defs>
    <g id="页面-1" stroke="none" stroke-width="1" fill="none" fill-rule="evenodd" opacity="0.5">
        <g id="图标" transform="translate(-1045.000000, -599.000000)">
            <g id="no_found" transform="translate(1045.000000, 599.000000)">
                <mask id="mask-2" fill="white">
                    <use xlink:href="#path-1"></use>
                </mask>
                <use id="蒙版" fill-opacity="0" fill="#FFFFFF" xlink:href="#path-1"></use>
                <g id="编组" opacity="0.4" mask="url(#mask-2)">
                    <polygon id="Fill-1" fill="#727272" points="0 0 0 37.5847037 0.00577271062 37.5847037 0.00577271062 60 59.9942273 60 59.9942273 37.5847037 60 37.5847037 60 0"></polygon>
                    <polygon id="Fill-2" fill="#ABABAB" points="0 0 0 24.4128836 0.00377446464 24.4128836 0.00377446464 38.9726017 38.9689051 38.9726017 38.9689051 24.4128836 38.9726795 24.4128836 38.9726795 0"></polygon>
                    <polygon id="Fill-3" fill="#ABABAB" points="20.9274304 20.927308 20.9309828 59.9001317 59.8961134 59.9001317 59.8961134 45.3404136 59.8998879 45.3404136 59.8998879 20.927308"></polygon>
                    <path d="M23.3955306,4.84714102 C33.8645633,4.84714102 42.351336,13.3339451 42.351336,23.8030166 C42.351336,27.652066 41.2042004,31.2331473 39.2331675,34.2230318 L55.7027942,50.692158 L50.591725,56.315465 L33.8795764,39.598389 C30.8768505,41.5954615 27.2720875,42.7591143 23.3955306,42.7591143 C12.9264979,42.7591143 4.4395031,34.2723101 4.4395031,23.8030166 C4.4395031,13.3339451 12.9264979,4.84714102 23.3955306,4.84714102 Z M23.3955084,12.5507186 C17.1809634,12.5507186 12.1431632,17.5885374 12.1431632,23.8031054 C12.1431632,30.0176734 17.1809634,35.0554922 23.3955084,35.0554922 C29.6100534,35.0554922 34.6478536,30.0176734 34.6478536,23.8031054 C34.6478536,17.5885374 29.6100534,12.5507186 23.3955084,12.5507186 Z" id="形状结合" fill="#444446"></path>
                </g>
            </g>
        </g>
    </g>
</svg>