<?xml version="1.0" encoding="UTF-8"?>
<svg width="60px" height="60px" viewBox="0 0 60 60" version="1.1" xmlns="http://www.w3.org/2000/svg" xmlns:xlink="http://www.w3.org/1999/xlink">
    <title>no_liquidity</title>
    <defs>
        <rect id="path-1" x="0" y="0" width="60" height="60" rx="16"></rect>
    </defs>
    <g id="页面-1" stroke="none" stroke-width="1" fill="none" fill-rule="evenodd" opacity="0.5">
        <g id="亮色模式-图标" transform="translate(-961.000000, -474.000000)">
            <g id="no_liquidity" transform="translate(961.000000, 474.000000)">
                <mask id="mask-2" fill="white">
                    <use xlink:href="#path-1"></use>
                </mask>
                <g id="蒙版"></g>
                <g id="编组" mask="url(#mask-2)" fill-opacity="0.4">
                    <polygon id="Fill-1" fill="#727272" points="0 30.1053723 60 30.1053723 60 0 0 0"></polygon>
                    <polygon id="Fill-2" fill="#ABABAB" points="0.00577273198 59.8096615 59.9944493 59.8096615 59.9944493 30.0566589 0.00577273198 30.0566589"></polygon>
                </g>
                <path d="M30.311705,29.7519946 L30.311705,29.7519946 C30.067696,29.7519946 29.8252413,29.7459998 29.5843407,29.7342323 C19.0371153,29.2197931 14.137176,16.2924259 21.5689024,8.7421365 L30.1738255,0 L38.860899,8.66265042 C46.4940049,16.2739975 41.3929081,29.5046552 30.650964,29.7482201 C30.5381737,29.7506624 30.4251613,29.7519946 30.311705,29.7519946" id="Fill-3" fill-opacity="0.4" fill="#727272" mask="url(#mask-2)"></path>
                <path d="M30.311705,59.7519946 L30.311705,59.7519946 C30.067696,59.7519946 29.8252413,59.7459998 29.5843407,59.7342323 C19.0371153,59.2197931 14.137176,46.2924259 21.5689024,38.7421365 L30.1738255,30 L38.860899,38.6626504 C46.4940049,46.2739975 41.3929081,59.5046552 30.650964,59.7482201 C30.5381737,59.7506624 30.4251613,59.7519946 30.311705,59.7519946" id="Fill-5" fill-opacity="0.4" fill="#727272" mask="url(#mask-2)"></path>
            </g>
        </g>
    </g>
</svg>