<?xml version="1.0" encoding="UTF-8"?>
<svg width="24px" height="24px" viewBox="0 0 24 24" version="1.1" xmlns="http://www.w3.org/2000/svg" xmlns:xlink="http://www.w3.org/1999/xlink">
    <title>ICON/loading_18dp</title>
    <g id="页面-1" stroke="none" stroke-width="1" fill="none" fill-rule="evenodd">
        <g id="图标" transform="translate(-1933.000000, -170.000000)">
            <g id="ICON/loading_18dp" transform="translate(1933.000000, 170.000000)">
                <polygon id="路径" points="0 0 24 0 24 24 0 24"></polygon>
                <path d="M12,4 C16.0146038,4 19.3385317,6.95713521 19.9123985,10.8120205 L17.9343481,11.109346 C17.5040888,8.21802047 15.0110676,6 12,6 C8.6862915,6 6,8.6862915 6,12 C6,15.3137085 8.6862915,18 12,18 L12,20 L12,20 C7.581722,20 4,16.418278 4,12 C4,7.581722 7.581722,4 12,4 Z M15.8568174,16.596371 L17.1429362,18.1280637 C16.3837571,18.7658675 15.5043492,19.2651942 14.5436078,19.5871483 L13.9073633,17.690476 C14.6278905,17.4490687 15.2874304,17.0746451 15.8568174,16.596371 Z M17.9098952,13.0416923 L19.8797086,13.3897893 C19.7034338,14.3961338 19.339081,15.3377635 18.8242196,16.1771088 L17.1181067,15.1329262 C17.5043942,14.5032127 17.7777256,13.7967328 17.9098952,13.0416923 Z" id="形状" fill="currentColor" fill-rule="nonzero"></path>
            </g>
        </g>
    </g>
</svg>