<?xml version="1.0" encoding="UTF-8"?>
<svg width="60px" height="60px" viewBox="0 0 60 60" version="1.1" xmlns="http://www.w3.org/2000/svg" xmlns:xlink="http://www.w3.org/1999/xlink">
    <title>select_token</title>
    <defs>
        <rect id="path-1" x="0" y="0" width="60" height="60" rx="16"></rect>
        <polygon id="path-3" points="0 0 29.8277062 0 29.8277062 29.7330614 0 29.7330614"></polygon>
    </defs>
    <g id="页面-1" stroke="none" stroke-width="1" fill="none" fill-rule="evenodd" opacity="0.5">
        <g id="亮色模式-图标" transform="translate(-861.000000, -474.000000)">
            <g id="select_token" transform="translate(861.000000, 474.000000)">
                <mask id="mask-2" fill="white">
                    <use xlink:href="#path-1"></use>
                </mask>
                <g id="蒙版"></g>
                <g id="编组" mask="url(#mask-2)">
                    <polygon id="Fill-1" fill-opacity="0.4" fill="#727272" points="0 30.1053723 60 30.1053723 60 0 0 0"></polygon>
                    <polygon id="Fill-2" fill-opacity="0.4" fill="#ABABAB" points="0.00577273198 59.8096615 59.9944493 59.8096615 59.9944493 30.0566589 0.00577273198 30.0566589"></polygon>
                    <g transform="translate(0.386351, 0.210722)">
                        <path d="M59.4395565,14.8873019 C59.4395565,23.0977514 52.7625039,29.7538437 44.5257035,29.7538437 C36.2891251,29.7538437 29.6118504,23.0977514 29.6118504,14.8873019 C29.6118504,6.67685248 36.2891251,0.0207601735 44.5257035,0.0207601735 C52.7625039,0.0207601735 59.4395565,6.67685248 59.4395565,14.8873019" id="Fill-3" fill-opacity="0.4" fill="#727272"></path>
                        <g transform="translate(29.664227, 30.056216)">
                            <mask id="mask-4" fill="white">
                                <use xlink:href="#path-3"></use>
                            </mask>
                            <g id="Clip-6"></g>
                            <path d="M29.8277062,14.8665417 C29.8277062,23.0769912 23.1506535,29.7330835 14.9138531,29.7330835 C6.67727468,29.7330835 0,23.0769912 0,14.8665417 C0,6.65609231 6.67727468,0 14.9138531,0 C23.1506535,0 29.8277062,6.65609231 29.8277062,14.8665417" id="Fill-5" fill-opacity="0.4" fill="#727272" mask="url(#mask-4)"></path>
                        </g>
                        <path d="M29.8277062,14.8665417 C29.8277062,23.0769912 23.1506535,29.7330835 14.9138531,29.7330835 C6.67727468,29.7330835 0,23.0769912 0,14.8665417 C0,6.65609231 6.67727468,0 14.9138531,0 C23.1506535,0 29.8277062,6.65609231 29.8277062,14.8665417" id="Fill-7" fill-opacity="0.4" fill="#727272"></path>
                        <g transform="translate(0.000000, 30.056216)" fill="#727272" fill-opacity="0.4" id="Fill-9">
                            <path d="M29.8277062,14.8665417 C29.8277062,23.0769912 23.1506535,29.7330835 14.9138531,29.7330835 C6.67727468,29.7330835 0,23.0769912 0,14.8665417 C0,6.65609231 6.67727468,0 14.9138531,0 C23.1506535,0 29.8277062,6.65609231 29.8277062,14.8665417"></path>
                        </g>
                        <path d="M51.9178866,14.8873019 C51.9178866,18.9570042 48.6083349,22.2560569 44.5256813,22.2560569 C40.4432496,22.2560569 37.1334759,18.9570042 37.1334759,14.8873019 C37.1334759,10.8175997 40.4432496,7.51854694 44.5256813,7.51854694 C48.6083349,7.51854694 51.9178866,10.8175997 51.9178866,14.8873019" id="Fill-11" fill="#444446"></path>
                    </g>
                </g>
            </g>
        </g>
    </g>
</svg>