<svg
  width="18"
  height="18"
  viewBox="0 0 18 18"
  fill="none"
  xmlns="http://www.w3.org/2000/svg"
>
  <path
    fill-rule="evenodd"
    clip-rule="evenodd"
    d="M11.4336 10.8372C11.0062 10.8827 10.6593 10.7156 10.3929 10.4042C10.0417 9.99344 9.95732 9.52532 10.1401 9.02662C10.3068 8.57198 10.6333 8.27141 11.1418 8.18169C11.7187 8.07984 12.3176 8.45042 12.522 9.03277C12.5766 9.18811 12.6008 9.34917 12.607 9.46955C12.6026 10.1984 12.1068 10.7656 11.4336 10.8372ZM7.48128 10.5343C6.97846 10.9735 6.27005 10.9442 5.79476 10.476C5.2491 9.93843 5.25974 9.02569 5.81772 8.50374C6.40579 7.95365 7.35171 8.09838 7.75425 8.80195C7.87899 9.02005 7.94259 9.25499 7.94136 9.55169C7.93247 9.90735 7.79401 10.2611 7.48128 10.5343ZM15.9499 10.2594C15.7791 8.31681 15.0783 6.55704 13.9424 4.94847C13.8905 4.8751 13.834 4.8088 13.7464 4.77165C12.9026 4.41448 12.0266 4.15965 11.1181 4.00507C10.9989 3.98477 10.9355 4.02579 10.8877 4.12199C10.817 4.26394 10.7358 4.40117 10.6689 4.54454C10.6179 4.65389 10.5394 4.68404 10.4213 4.66829C9.46426 4.54092 8.50681 4.53848 7.54981 4.66753C7.43818 4.68261 7.3642 4.65448 7.31758 4.55035C7.26506 4.43276 7.19292 4.32308 7.14287 4.20463C7.06968 4.0316 6.95937 3.9787 6.76047 4.01787C5.92953 4.1813 5.12339 4.41667 4.34074 4.72936C4.18732 4.79069 4.07859 4.88234 3.98816 5.01485C2.89419 6.61803 2.20338 8.35742 2.03782 10.2757C1.9846 10.8921 1.98971 11.5086 2.03958 12.1248C2.04891 12.2403 2.06562 12.3508 2.18227 12.43C3.18246 13.1091 4.26623 13.6261 5.43321 13.9851C5.5437 14.019 5.61469 13.9962 5.68084 13.9055C5.88651 13.6235 6.07714 13.3332 6.24991 13.0315C6.31263 12.9219 6.28888 12.8661 6.16854 12.8213C5.89082 12.7178 5.61742 12.6035 5.36011 12.4583C5.29765 12.4231 5.17283 12.4076 5.2103 12.3157C5.25103 12.2158 5.35105 12.1374 5.47984 12.1411C5.53139 12.1425 5.58276 12.1733 5.63308 12.1934C7.71818 13.0225 9.82282 13.0879 11.9476 12.3405C12.1073 12.2844 12.2621 12.2154 12.421 12.1571C12.5272 12.1181 12.7282 12.1984 12.7557 12.2981C12.7893 12.4201 12.6646 12.4327 12.5934 12.4702C12.3429 12.6021 12.0857 12.7224 11.8169 12.8165C11.6906 12.8607 11.6571 12.9215 11.7283 13.0391C11.8989 13.3214 12.0738 13.6006 12.2685 13.8688C12.352 13.9839 12.4437 14.0073 12.58 13.965C13.7222 13.6106 14.7861 13.107 15.7713 12.4496C15.8755 12.38 15.9317 12.297 15.9387 12.1775C15.9586 11.8406 15.9804 11.5038 16 11.1904C15.983 10.8638 15.9764 10.5608 15.9499 10.2594Z"
    fill="currentColor"
  />
</svg>
