<svg width="24" height="24" viewBox="0 0 24 24" fill="none" xmlns="http://www.w3.org/2000/svg">
<path d="M10.0002 7C8.89567 7 8.00024 7.89543 8.00024 9V11C8.00024 12.1046 8.89567 13 10.0002 13H14.0002V15H8.00024V17H11.0002V18H13.0002V17H14.0002C15.1048 17 16.0002 16.1046 16.0002 15V13C16.0002 11.8954 15.1048 11 14.0002 11H10.0002V9H16.0002V7H13.0002V6H11.0002V7H10.0002Z" fill="currentColor" />
<path fill-rule="evenodd" clip-rule="evenodd" d="M12.0002 2C6.4774 2 2.00024 6.47715 2.00024 12C2.00024 17.5228 6.4774 22 12.0002 22C17.5231 22 22.0002 17.5228 22.0002 12C22.0002 6.47715 17.5231 2 12.0002 2ZM4.00024 12C4.00024 7.58172 7.58197 4 12.0002 4C16.4185 4 20.0002 7.58172 20.0002 12C20.0002 16.4183 16.4185 20 12.0002 20C7.58197 20 4.00024 16.4183 4.00024 12Z" fill="currentColor" />
</svg>
