<svg width="24" height="24" viewBox="0 0 24 24" fill="none" xmlns="http://www.w3.org/2000/svg">
<path d="M12.0008 17.4401C7.58179 17.4401 4 16.1208 4 14V16.1599C4 18.281 7.58203 20 12.0008 20C16.4196 20 20 18.281 20 16.1599V14C20.001 16.1208 16.4199 17.4401 12.0008 17.4401ZM12.0008 13.44C7.58179 13.44 4 12.121 4 10V12.1601C4 14.2808 7.58203 16 12.0008 16C16.4196 16 20 14.2806 20 12.1601V10C20.001 12.121 16.4199 13.44 12.0008 13.44ZM12.0004 4C7.58157 4 4 5.53495 4 7.42863V8.57137C4 10.465 7.58181 12 12.0004 12C16.4189 12 20 10.465 20 8.57137V7.42863C20 5.53495 16.4191 4 12.0004 4Z" fill="currentColor"/>
</svg>
