<svg width="24" height="24" viewBox="0 0 24 24" fill="none" xmlns="http://www.w3.org/2000/svg">
<path d="M8.37872 10.7197L12.091 7.00734L15.8033 10.7197L14.7427 11.7803L12.7767 9.81428V15.6952L11.2767 15.6952V9.94304L9.43938 11.7803L8.37872 10.7197Z" fill="currentColor"/>
<path fill-rule="evenodd" clip-rule="evenodd" d="M24 11.9999C24 18.6274 18.6274 23.9999 12 23.9999C5.37258 23.9999 0 18.6274 0 11.9999C0 5.37252 5.37258 -6.10352e-05 12 -6.10352e-05C18.6274 -6.10352e-05 24 5.37252 24 11.9999ZM22.5 11.9999C22.5 17.7989 17.799 22.4999 12 22.4999C6.20101 22.4999 1.5 17.7989 1.5 11.9999C1.5 6.20095 6.20101 1.49994 12 1.49994C17.799 1.49994 22.5 6.20095 22.5 11.9999Z" fill="currentColor"/>
</svg>
