<svg xmlns="http://www.w3.org/2000/svg" width="41" height="48" viewBox="0 0 41 48" fill="none">
  <g opacity="0.1">
    <path
      d="M69.3733 -7.24829V16.7239C69.3733 20.9663 67.7575 25.1065 64.7744 28.5311C63.8422 29.6045 62.7857 30.5757 61.667 31.4446L61.6049 31.4957H47.9325V9.26134H35.2544H22.452H21.3334H8.65527L8.84172 9.10801L19.5932 0.827625L23.5707 -2.18806C28.0453 -5.66378 33.5764 -7.24829 39.6668 -7.24829H69.3733Z"
      fill="url(#paint0_linear_2049_57770)" />
    <path
      d="M61.6048 31.5474L61.5426 31.5985L60.7969 32.1607L58.0624 34.3075L48.1809 41.9234L47.2487 42.639C42.7741 46.0636 36.8701 47.9548 30.8418 47.9548H0.886719V37.2209L0.948865 31.4962L1.01102 23.8803C1.07316 18.309 3.80765 13.0443 8.7173 9.2619H21.3332H21.3954V31.4962L61.6048 31.5474Z"
      fill="url(#paint1_linear_2049_57770)" />
  </g>
  <defs>
    <linearGradient id="paint0_linear_2049_57770" x1="40.5027" y1="-9.613" x2="37.8436" y2="51.3238"
      gradientUnits="userSpaceOnUse">
      <stop stop-color="#48EF8A" />
      <stop offset="0.5458" stop-color="#43B4A6" />
      <stop offset="0.6918" stop-color="#2D796F" />
      <stop offset="0.9662" />
    </linearGradient>
    <linearGradient id="paint1_linear_2049_57770" x1="33.1012" y1="50.9719" x2="26.0861" y2="-11.7811"
      gradientUnits="userSpaceOnUse">
      <stop stop-color="#FF5F96" />
      <stop offset="0.6103" stop-color="#FF33AF" />
      <stop offset="1" />
    </linearGradient>
  </defs>
</svg>