<svg xmlns="http://www.w3.org/2000/svg" width="41" height="49" viewBox="0 0 41 49" fill="none">
  <g opacity="0.1" clip-path="url(#clip0_2049_57744)">
    <path
      d="M63.1864 2.81575C61.5413 -1.0709 59.1861 -4.56212 56.1887 -7.55958C55.6162 -8.13198 55.0264 -8.68035 54.419 -9.20469C54.3513 -9.26149 54.2836 -9.32048 54.2158 -9.37728C51.6903 -11.5227 48.872 -13.2574 45.8068 -14.5529C41.7803 -16.257 37.5026 -17.12 33.0938 -17.12C28.6872 -17.12 24.4094 -16.257 20.383 -14.5551C16.4941 -12.91 13.0007 -10.5592 10.0033 -7.56176C7.00362 -4.5643 4.65065 -1.07309 3.00555 2.81356C1.30145 6.84004 0.438477 11.1134 0.438477 15.52C0.438477 19.9266 1.30145 24.2 3.00555 28.2243C4.65065 32.1109 7.0058 35.6021 10.0033 38.5996C10.4883 39.0846 10.9886 39.5543 11.4998 40.0044C11.5959 40.0896 11.6943 40.1748 11.7904 40.2578C14.3618 42.4753 17.2435 44.2668 20.383 45.5929C24.4094 47.2948 28.6872 48.1578 33.0938 48.1578C37.5026 48.1578 41.7781 47.2948 45.8046 45.5929C49.6934 43.95 53.1868 41.597 56.1843 38.5996C59.1839 35.6021 61.5369 32.1109 63.182 28.2243C64.8839 24.2 65.7491 19.9244 65.7491 15.52C65.7513 11.1134 64.8883 6.84003 63.1864 2.81575ZM33.0938 46.4013C25.7225 46.4013 18.9454 43.808 13.6299 39.4866L45.9968 25.8647L34.9137 14.6177L34.9093 14.6221L34.8874 14.6002L12.7014 38.7001C6.26518 33.0351 2.19719 24.744 2.19719 15.52C2.19719 -1.50785 16.0572 -15.3613 33.0938 -15.3613C40.3755 -15.3613 47.0761 -12.8292 52.3632 -8.60388L23.7977 3.37067L34.8874 14.598L34.8918 14.5937L34.9137 14.6155L53.2895 -7.83267C59.8415 -2.16546 63.9925 6.20209 63.9925 15.52C63.9925 32.5479 50.1326 46.4013 33.0938 46.4013ZM17.0971 36.2903L34.9333 16.916L43.2004 25.3054L17.0971 36.2903ZM49.4225 -5.63264L34.7979 12.232L26.6007 3.93433L49.4225 -5.63264Z"
      fill="url(#paint0_linear_2049_57744)" />
  </g>
  <defs>
    <linearGradient id="paint0_linear_2049_57744" x1="56.1813" y1="-7.5661" x2="10.0091" y2="38.6061"
      gradientUnits="userSpaceOnUse">
      <stop stop-color="#3EF8F3" />
      <stop offset="1" stop-color="#07AEFE" />
    </linearGradient>
    <clipPath id="clip0_2049_57744">
      <rect width="65.28" height="65.28" fill="white" transform="translate(0.438477 -17.12)" />
    </clipPath>
  </defs>
</svg>