<svg xmlns="http://www.w3.org/2000/svg" width="44" height="52" viewBox="0 0 44 52" fill="none">
  <g opacity="0.1">
    <path
      d="M15.487 0.976233H29.9851L30.0102 23.019C30.011 23.5455 30.2206 24.0502 30.5932 24.4222C30.9657 24.7942 31.4707 25.0032 31.9972 25.0032C32.2581 25.0031 32.5165 24.9515 32.7575 24.8514C32.9984 24.7514 33.2173 24.6048 33.4016 24.4201C33.5859 24.2354 33.732 24.0161 33.8315 23.7749C33.9309 23.5337 33.9819 23.2753 33.9814 23.0143L33.9545 -1.01261C33.9537 -1.5392 33.7441 -2.04397 33.3715 -2.41615C32.999 -2.78833 32.4941 -2.9975 31.9675 -2.99774H15.487C14.96 -2.99774 14.4546 -2.7884 14.082 -2.41577C13.7093 -2.04313 13.5 -1.53773 13.5 -1.01075C13.5 -0.483771 13.7093 0.0216253 14.082 0.394258C14.4546 0.76689 14.96 0.976233 15.487 0.976233Z"
      fill="#154618" />
    <path
      d="M11.8257 9.97397H20.9902L21.0143 23.0186V32.0139C21.014 32.2753 21.0652 32.5342 21.165 32.7758C21.2649 33.0174 21.4115 33.2369 21.5963 33.4217C21.7811 33.6066 22.0006 33.7531 22.2422 33.853C22.4838 33.9529 22.7427 34.0041 23.0041 34.0037H41.0004C41.2614 34.0035 41.5198 33.9518 41.7608 33.8517C42.0019 33.7515 42.2208 33.6049 42.4052 33.4201C42.5895 33.2353 42.7357 33.016 42.8352 32.7747C42.9348 32.5335 42.9859 32.2749 42.9855 32.0139V23.0149L42.9576 -10.0121C42.9579 -10.5389 42.7489 -11.0443 42.3766 -11.417C42.0044 -11.7898 41.4993 -11.9995 40.9725 -12H19.2866C18.7596 -12 18.2543 -11.7907 17.8816 -11.418C17.509 -11.0454 17.2996 -10.54 17.2996 -10.013C17.2996 -9.48603 17.509 -8.98063 17.8816 -8.608C18.2543 -8.23536 18.7596 -8.02602 19.2866 -8.02602H38.9892L39.0162 23.0149V30.0251H24.9883V23.0149L24.9614 7.98141C24.9601 7.45515 24.7503 6.95085 24.3778 6.57907C24.0053 6.20729 23.5006 5.99838 22.9744 5.99813H11.8219C11.295 5.99813 10.7896 6.20748 10.4169 6.58011C10.0443 6.95275 9.83496 7.45814 9.83496 7.98512C9.83496 8.51211 10.0443 9.01751 10.4169 9.39014C10.7896 9.76277 11.295 9.97211 11.8219 9.97211L11.8257 9.97397Z"
      fill="#154618" />
    <path
      d="M58.998 32.558C58.737 32.558 58.4786 32.6094 58.2376 32.7093C57.9965 32.8091 57.7774 32.9555 57.5929 33.14C57.4084 33.3245 57.2621 33.5436 57.1622 33.7846C57.0624 34.0257 57.011 34.2841 57.011 34.545V48.0209H6.9896V34.545C6.9896 34.0181 6.78026 33.5126 6.40763 33.14C6.03499 32.7674 5.5296 32.558 5.00261 32.558C4.47563 32.558 3.97023 32.7674 3.5976 33.14C3.22497 33.5126 3.01562 34.0181 3.01562 34.545V50.0125C3.01562 50.5395 3.22497 51.0449 3.5976 51.4175C3.97023 51.7901 4.47563 51.9995 5.00261 51.9995H58.9989C59.2598 51.9995 59.5182 51.9481 59.7593 51.8482C60.0003 51.7484 60.2194 51.602 60.4039 51.4175C60.5884 51.233 60.7348 51.014 60.8346 50.7729C60.9345 50.5318 60.9859 50.2734 60.9859 50.0125V34.545C60.9859 34.284 60.9344 34.0256 60.8345 33.7844C60.7346 33.5433 60.5882 33.3242 60.4036 33.1397C60.219 32.9552 59.9998 32.8088 59.7586 32.709C59.5174 32.6092 59.259 32.5579 58.998 32.558Z"
      fill="#154618" />
    <path
      d="M15.9876 39.0284V29.4847C15.9876 28.9577 15.7783 28.4524 15.4057 28.0797C15.033 27.7071 14.5276 27.4977 14.0007 27.4977C13.4737 27.4977 12.9683 27.7071 12.5956 28.0797C12.223 28.4524 12.0137 28.9577 12.0137 29.4847V41.0154C12.0139 41.5423 12.2233 42.0476 12.5959 42.4201C12.9685 42.7927 13.4738 43.0021 14.0007 43.0024H49.9979C50.5248 43.0021 51.03 42.7927 51.4026 42.4201C51.7752 42.0476 51.9846 41.5423 51.9848 41.0154V29.4847C51.9848 28.9577 51.7755 28.4524 51.4029 28.0797C51.0302 27.7071 50.5248 27.4977 49.9979 27.4977C49.4709 27.4977 48.9655 27.7071 48.5928 28.0797C48.2202 28.4524 48.0109 28.9577 48.0109 29.4847V39.0284H15.9876Z"
      fill="#154618" />
  </g>
</svg>