<svg xmlns="http://www.w3.org/2000/svg" width="48" height="51" viewBox="0 0 48 51" fill="none">
  <g opacity="0.1">
    <path
      d="M11.5002 4.48565C11.494 4.66232 11.4356 4.83319 11.3323 4.97664C11.229 5.12009 11.0855 5.22967 10.9199 5.29151C10.7543 5.35335 10.574 5.36468 10.402 5.32405C10.2299 5.28343 10.0738 5.19269 9.95337 5.0633C9.83292 4.93391 9.75356 4.7717 9.72533 4.5972C9.6971 4.42269 9.72128 4.24373 9.7948 4.08297C9.86832 3.92221 9.98787 3.78687 10.1383 3.69408C10.2888 3.60129 10.4634 3.55522 10.6401 3.5617C10.8763 3.57109 11.0993 3.67348 11.2604 3.84654C11.4215 4.0196 11.5077 4.24932 11.5002 4.48565Z"
      fill="#154618" />
    <path
      d="M25.8184 -6.89016C25.8436 -6.79356 25.8492 -6.69289 25.8347 -6.59411C25.8203 -6.49532 25.7862 -6.40044 25.7345 -6.31506C25.6827 -6.22969 25.6144 -6.15556 25.5335 -6.09707C25.4526 -6.03858 25.3608 -5.99691 25.2635 -5.97453C20.3867 -4.75711 16.0765 -1.90062 13.0551 2.11633C12.9858 2.21075 12.8951 2.28738 12.7904 2.33996C12.6857 2.39253 12.5701 2.41954 12.453 2.41877C12.3141 2.41889 12.1779 2.38041 12.0596 2.30761C11.9413 2.23481 11.8456 2.13056 11.7831 2.00651C11.7207 1.88245 11.6939 1.74347 11.7059 1.60509C11.7179 1.46672 11.7681 1.33439 11.8509 1.22289C15.0778 -3.07034 19.6817 -6.12459 24.8917 -7.42844C24.9879 -7.45515 25.0885 -7.46237 25.1875 -7.44965C25.2866 -7.43693 25.382 -7.40455 25.4684 -7.3544C25.5547 -7.30425 25.6302 -7.23735 25.6903 -7.15763C25.7504 -7.0779 25.794 -6.98697 25.8184 -6.89016Z"
      fill="#154618" />
    <path
      d="M32 13.0424C21.2094 13.0424 12.4609 16.9935 12.4609 21.863C12.4609 24.7625 15.5574 27.3346 20.3354 28.9411L23.0212 20.6977L29.3585 21.8713L28.3874 24.8485L32.0666 23.328L33.6564 22.6677L39.9937 23.8413L38.9837 24.2603L32.2386 27.0516L24.908 30.0843C27.2502 30.489 29.623 30.6904 32 30.6864C42.7878 30.6864 51.5362 26.7353 51.5362 21.863C51.5362 16.9907 42.7878 13.0424 32 13.0424Z"
      fill="#154618" />
    <path
      d="M30.3402 21.0613L32.1188 20.3233L35.6093 18.8804L34.6409 21.8576L40.9754 23.0313L44.8017 11.2807L32.4267 16.4027L25.6788 19.1912L24.0029 19.8876L30.3402 21.0613Z"
      fill="#D62500" />
    <path
      d="M54.6272 -3.62756C49.3922 -8.86248 42.504 -12.1203 35.1362 -12.8459C27.7685 -13.5715 20.3771 -11.72 14.2215 -7.60684C8.06588 -3.4937 3.52685 2.62658 1.37783 9.71118C-0.771186 16.7958 -0.397236 24.4063 2.43597 31.2461C5.26918 38.0859 10.3863 43.7317 16.9156 47.2216C23.4448 50.7114 30.9821 51.8294 38.2432 50.385C45.5042 48.9406 52.0399 45.0232 56.7365 39.3003C61.433 33.5774 64 26.403 63.9999 18.9997C64.0116 14.7956 63.1892 10.6311 61.5803 6.74709C59.9715 2.86309 57.6081 -0.663177 54.6272 -3.62756ZM10.4299 -2.56764C14.6583 -6.79611 20.0364 -9.68838 25.8955 -10.8848C31.7545 -12.0812 37.836 -11.529 43.3836 -9.29675C48.9313 -7.06455 53.7005 -3.25085 57.0981 1.67011C60.4957 6.59108 62.3719 12.4022 62.4933 18.3809C61.1531 15.5619 58.1759 13.0147 53.7892 11.0004C47.9486 8.31728 40.2101 6.83839 32 6.83839C23.7898 6.83839 16.0485 8.3145 10.2107 11.0004C5.82121 13.0147 2.84402 15.5619 1.50386 18.3809C1.64112 10.5028 4.84299 2.98836 10.4299 -2.56764ZM58.8613 26.4357C57.4545 27.9645 55.4096 29.3518 52.7903 30.5533C47.2577 33.0948 39.8716 34.496 32 34.496C24.1283 34.496 16.7394 33.0948 11.2068 30.5533C8.58753 29.3518 6.54539 27.9645 5.13587 26.4357C3.7763 24.9596 3.08541 23.4224 3.08541 21.8659C3.08541 20.3093 3.7763 18.7694 5.13587 17.2932C6.54539 15.7644 8.58753 14.3771 11.2068 13.1729C16.7561 10.6341 24.1255 9.23291 32 9.23291C39.8744 9.23291 47.2605 10.6202 52.7903 13.1729C55.4096 14.3771 57.4545 15.7644 58.8613 17.2932C60.2208 18.7694 60.9117 20.3065 60.9117 21.8659C60.9117 23.4252 60.2236 24.9596 58.8613 26.4357Z"
      fill="#154618" />
    <path
      d="M11.5002 4.48565C11.494 4.66232 11.4356 4.83319 11.3323 4.97664C11.229 5.12009 11.0855 5.22967 10.9199 5.29151C10.7543 5.35335 10.574 5.36468 10.402 5.32405C10.2299 5.28343 10.0738 5.19269 9.95337 5.0633C9.83292 4.93391 9.75356 4.7717 9.72533 4.5972C9.6971 4.42269 9.72128 4.24373 9.7948 4.08297C9.86832 3.92221 9.98787 3.78687 10.1383 3.69408C10.2888 3.60129 10.4634 3.55522 10.6401 3.5617C10.8763 3.57109 11.0993 3.67348 11.2604 3.84654C11.4215 4.0196 11.5077 4.24932 11.5002 4.48565Z"
      fill="#154618" />
    <path
      d="M25.2635 -5.97484C20.3867 -4.75742 16.0765 -1.90093 13.0551 2.11602C12.9858 2.21044 12.8951 2.28707 12.7904 2.33965C12.6857 2.39222 12.5701 2.41923 12.453 2.41845C12.3141 2.41858 12.1779 2.3801 12.0596 2.3073C11.9413 2.2345 11.8456 2.13025 11.7831 2.0062C11.7207 1.88214 11.6939 1.74316 11.7059 1.60478C11.7179 1.46641 11.7681 1.33408 11.8509 1.22258C15.0778 -3.07065 19.6817 -6.1249 24.8917 -7.42875C25.0845 -7.47806 25.289 -7.44875 25.4602 -7.34728C25.6314 -7.24582 25.7553 -7.0805 25.8046 -6.8877C25.8539 -6.6949 25.8246 -6.49041 25.7231 -6.31921C25.6216 -6.14802 25.4563 -6.02414 25.2635 -5.97484Z"
      fill="#154618" />
  </g>
</svg>