<svg height="692pt" viewBox="0 0 619 692" width="619pt" xmlns="http://www.w3.org/2000/svg"><path d="m280.46 17.3c18.85-10.03 43.1-9.37 61.23 1.99 78.77 45.29 157.52 90.59 236.28 135.88 17.98 10.27 30.16 30.12 30.76 50.87v275.89c.49 19.03-8.56 38.11-23.76 49.6-83.95 48.66-167.91 97.29-251.9 145.88-14.93 5.88-32.32 5.81-47.05-.66-10.1-5.39-19.93-11.25-29.88-16.91-25.72-14.85-51.49-29.62-77.2-44.49 7.13-11.82 13.88-23.88 21.17-35.61 34.11 19.55 68.15 39.21 102.24 58.77 5.43 2.44 12.28 2.51 17.36-.81 28.11-16.31 56.23-32.61 84.36-48.89 28.58-16.52 57.15-33.07 85.69-49.67 7.92-4.6 15.84-9.2 23.78-13.77 14.97-8.59 29.86-17.33 44.83-25.93 5.77-3.22 8.74-10.05 8.75-16.47-.04-14.36.09-28.73-.07-43.09.18-76.95.01-153.9.09-230.85.24-7.26-3.78-14.44-10.07-18.06-79.37-45.64-158.72-91.3-238.08-136.94-6.26-3.47-14.38-3.15-20.42.66-78.73 45.56-157.48 91.1-236.15 136.78-6.59 3.53-10.68 11.06-10.31 18.5.21 73.45.1 146.9.48 220.34-12.68 20.02-25.84 39.75-38.67 59.68-.95 1.49-1.95 2.96-3.1 4.31-.23-95.74-.02-191.5-.1-287.25.31-22.52 14.44-43.97 34.72-53.61 78.35-45.36 156.61-90.87 235.02-136.14z" fill="#8cbfdf"/><path d="m298.57 54.69c6.04-3.81 14.16-4.13 20.42-.66 79.36 45.64 158.71 91.3 238.08 136.94 6.29 3.62 10.31 10.8 10.07 18.06-.08 76.95.09 153.9-.09 230.85-6.25-8.84-11.77-18.21-17.74-27.25-38.11-59.38-76.26-118.73-114.34-178.12l-.71.13c-16.14 27.89-32.81 55.48-48.94 83.38 42.77 69.1 85.49 138.23 128.22 207.35-7.94 4.57-15.86 9.17-23.78 13.77-40.35-63.61-80.71-127.22-121.07-190.83l-.73-.41c-19.01 31.61-37.43 63.61-56.36 95.28 4.29 7.87 9.61 15.25 14.3 22.94 26.05 40.9 52.13 81.79 78.17 122.69-28.13 16.28-56.25 32.58-84.36 48.89-5.08 3.32-11.93 3.25-17.36.81-34.09-19.56-68.13-39.22-102.24-58.77 73.38-124.27 146.6-248.63 219.92-372.94l-.41-.3c-25.22.18-50.45.2-75.67.29-7.21.39-14.55-.37-21.69.39-73.43 121.29-146.88 242.57-220.46 363.77-8.47-4.83-16.92-9.69-25.34-14.61 19.61-32.21 39.88-64.05 59.74-96.12 51.98-83.37 103.96-166.73 155.94-250.1.66-1.19 1.78-2.22 1.79-3.66-13.31-.19-26.61-.72-39.92-.97-20.59.3-41.98 3.68-59.65 14.9-6.98 4.5-13.13 10.36-17.61 17.37-41.35 64.21-82.86 128.31-124.16 192.55-.38-73.44-.27-146.89-.48-220.34-.37-7.44 3.72-14.97 10.31-18.5 78.67-45.68 157.42-91.22 236.15-136.78z" fill="#2b374d"/><path d="m194.36 220.39c17.67-11.22 39.06-14.6 59.65-14.9 13.31.25 26.61.78 39.92.97-.01 1.44-1.13 2.47-1.79 3.66-51.98 83.37-103.96 166.73-155.94 250.1-19.86 32.07-40.13 63.91-59.74 96.12-13.05-7.52-26.09-15.05-39.14-22.57-9.44-4.83-16.23-13.58-21.12-22.76-2.5-5.29-4.79-10.85-5.38-16.71 1.15-1.35 2.15-2.82 3.1-4.31 12.83-19.93 25.99-39.66 38.67-59.68 41.3-64.24 82.81-128.34 124.16-192.55 4.48-7.01 10.63-12.87 17.61-17.37z" fill="#fff"/><path d="m343.95 206.79c25.22-.09 50.45-.11 75.67-.29l.41.3c-73.32 124.31-146.54 248.67-219.92 372.94-7.29 11.73-14.04 23.79-21.17 35.61-25.73-14.78-51.42-29.61-77.14-44.4 73.58-121.2 147.03-242.48 220.46-363.77 7.14-.76 14.48 0 21.69-.39z" fill="#fff"/><g fill="#00a2f7"><path d="m434.26 234.64.71-.13c38.08 59.39 76.23 118.74 114.34 178.12 5.97 9.04 11.49 18.41 17.74 27.25.16 14.36.03 28.73.07 43.09-.01 6.42-2.98 13.25-8.75 16.47-14.97 8.6-29.86 17.34-44.83 25.93-42.73-69.12-85.45-138.25-128.22-207.35 16.13-27.9 32.8-55.49 48.94-83.38z"/><path d="m311.6 443.18c18.93-31.67 37.35-63.67 56.36-95.28l.73.41c40.36 63.61 80.72 127.22 121.07 190.83-28.54 16.6-57.11 33.15-85.69 49.67-26.04-40.9-52.12-81.79-78.17-122.69-4.69-7.69-10.01-15.07-14.3-22.94z"/></g></svg>