<svg width="24" height="24" viewBox="0 0 24 24" fill="none" xmlns="http://www.w3.org/2000/svg">
<g>
<path d="M24 12C24 5.37231 18.6277 0 12 0C5.37231 0 0 5.37231 0 12C0 18.6277 5.37231 24 12 24C18.6277 24 24 18.6277 24 12Z" fill="#E36E1B"/>
<path d="M4.45581 5.33717V8.19963C5.09089 7.85809 5.72043 7.89963 6.34535 7.82948V5.00024C5.6595 5.00024 5.09089 5.00578 4.45581 5.33717ZM9.99519 5.65378C9.40831 5.43062 8.80535 5.25227 8.1915 5.12024V7.91717C8.79704 8.02886 9.39796 8.20978 9.99519 8.4184V5.65378Z" fill="white"/>
<path d="M8.1915 10.7122V7.91624C7.58381 7.79608 6.96164 7.76684 6.34535 7.82947V10.6587C6.95998 10.5848 7.58218 10.6029 8.1915 10.7122ZM4.45581 11.063V13.9245C5.09089 13.5599 5.72043 13.5793 6.34535 13.4879V10.6587C5.6992 10.7132 5.09089 10.7085 4.45581 11.063ZM8.1915 10.7122V13.5092C8.79704 13.5996 9.39796 13.7602 9.99519 13.9476V11.183C9.39889 10.9845 8.79704 10.8138 8.1915 10.7122ZM6.34535 13.4879V16.3172C6.95678 16.2219 7.57897 16.2182 8.1915 16.3061V13.5092C7.58058 13.4106 6.95838 13.4034 6.34535 13.4879ZM18.373 12.2713C19.0746 11.6732 19.4706 10.7113 19.4706 9.72085C19.4706 8.18762 18.5475 7.55993 16.6275 7.36516V6.02762C16.2144 6.0047 15.8028 5.96033 15.3943 5.8947V7.22947C15.0042 7.17048 14.6162 7.09782 14.2312 7.01162V5.66762C13.8046 5.56788 13.3804 5.45769 12.9592 5.33716V6.69408C12.5579 6.58263 12.1579 6.46662 11.7592 6.34608V9.07931C11.1749 8.85962 10.5869 8.62516 9.99612 8.41839V11.183C10.5869 11.3796 11.1749 11.603 11.7592 11.8135V14.5458C11.1749 14.3473 10.5869 14.1341 9.99612 13.9476V16.7122C10.5869 16.8876 11.1749 17.0907 11.7592 17.2799C12.1607 17.3722 12.5604 17.4609 12.9592 17.5421V18.899C13.3857 18.9821 13.8093 19.0559 14.2321 19.1159V17.771C14.6217 17.8292 15.0084 17.8762 15.3952 17.9067V19.2405C15.8078 19.2692 16.2186 19.2793 16.6266 19.2645V17.939C18.757 17.819 19.8638 16.1012 19.8638 14.387C19.8638 13.1224 19.2961 12.5085 18.373 12.2713ZM14.234 9.21223C14.6226 9.29254 15.0093 9.35993 15.3933 9.41254C15.5959 9.44041 15.799 9.46349 16.0026 9.48177L16.0266 9.48547L16.1115 9.49747L16.118 9.49839L16.2075 9.515L16.2223 9.5187C16.25 9.52424 16.2777 9.52977 16.3035 9.53716H16.3063C16.3358 9.54454 16.3644 9.55285 16.3912 9.56116C16.472 9.58496 16.5505 9.61617 16.6257 9.65439C16.9487 9.82147 17.113 10.1067 17.113 10.5295C17.113 10.9596 16.9487 11.2652 16.6257 11.4202C16.5525 11.4547 16.4757 11.4807 16.3967 11.4978C16.3949 11.4978 16.393 11.4978 16.3912 11.4996C16.3635 11.5052 16.3358 11.5107 16.3063 11.5144H16.3035C16.2765 11.5183 16.2494 11.5214 16.2223 11.5236L16.2066 11.5255C16.1768 11.5279 16.1469 11.5295 16.117 11.5301H16.1115C16.0431 11.5311 15.9748 11.5293 15.9066 11.5245C15.7349 11.5107 15.5641 11.4932 15.3924 11.4729C15.0084 11.4267 14.6217 11.3621 14.234 11.2882V9.21039V9.21223ZM16.6247 15.7541C16.573 15.7626 16.521 15.7688 16.4687 15.7725L16.441 15.7744C16.4217 15.7754 16.4023 15.776 16.3829 15.7762L16.357 15.7772H16.2712C15.9781 15.7707 15.6853 15.7538 15.3933 15.7264C15.0052 15.6894 14.6185 15.6386 14.234 15.5741V13.3919C14.6226 13.4621 15.0093 13.5193 15.3933 13.5609C15.7136 13.5961 16.035 13.6186 16.357 13.6282L16.3829 13.6301L16.442 13.6347L16.4687 13.6365L16.526 13.643L16.549 13.6449L16.6257 13.6559C17.2127 13.7464 17.5192 14.0473 17.5192 14.6593C17.5192 15.2658 17.2118 15.6525 16.6247 15.7541Z" fill="white"/>
</g>
</svg>
