<svg xmlns="http://www.w3.org/2000/svg" xmlns:xlink="http://www.w3.org/1999/xlink" width="7.5in" height="7.5in" version="1.1" style="shape-rendering:geometricPrecision; text-rendering:geometricPrecision; image-rendering:optimizeQuality; fill-rule:evenodd; clip-rule:evenodd" viewBox="0 0 7500 7500">
    <defs>
        <style type="text/css">
            .fil0 {fill:none}
            .fil1 {fill:#f0b90b}
            .fil2 {fill:#fff}
        </style>
    </defs>
    <g id="Layer_x0020_1">
        <metadata id="CorelCorpID_0Corel-Layer"/>
        <rect class="fil0" width="7500" height="7500"/>
        <g id="_2419820813232">
            <circle class="fil1" cx="3750" cy="3750" r="3500"/>
            <g>
                <path class="fil2" d="M2779 3351l971 -971 971 972 565 -565 -1536 -1537 -1536 1536 565 565 0 0zm-1529 399l565 -565 565 565 -565 565 -565 -565zm1529 399l971 971 971 -972 566 565 0 0 -1537 1537 -1536 -1536 -1 -1 566 -564 0 0zm2341 -399l565 -565 565 565 -565 565 -565 -565z"/>
            </g>
            <g>
                <path class="fil2" d="M4380 3750l0 0 -630 -632 -466 467 0 0 -54 54 -111 111 -1 1 1 1 630 630 631 -631 0 0 0 0 0 -1zm0 0l0 0 0 0z"/>
            </g>
        </g>
    </g>
<style xmlns="">#yddContainer{display:block;font-family:Microsoft YaHei;position:relative;width:100%;height:100%;top:-4px;left:-4px;font-size:12px;border:1px solid}#yddTop{display:block;height:22px}#yddTopBorderlr{display:block;position:static;height:17px;padding:2px 28px;line-height:17px;font-size:12px;color:#5079bb;font-weight:bold;border-style:none solid;border-width:1px}#yddTopBorderlr .ydd-sp{position:absolute;top:2px;height:0;overflow:hidden}.ydd-icon{left:5px;width:17px;padding:0px 0px 0px 0px;padding-top:17px;background-position:-16px -44px}.ydd-close{right:5px;width:16px;padding-top:16px;background-position:left -44px}#yddKeyTitle{float:left;text-decoration:none}#yddMiddle{display:block;margin-bottom:10px}.ydd-tabs{display:block;margin:5px 0;padding:0 5px;height:18px;border-bottom:1px solid}.ydd-tab{display:block;float:left;height:18px;margin:0 5px -1px 0;padding:0 4px;line-height:18px;border:1px solid;border-bottom:none}.ydd-trans-container{display:block;line-height:160%}.ydd-trans-container a{text-decoration:none;}#yddBottom{position:absolute;bottom:0;left:0;width:100%;height:22px;line-height:22px;overflow:hidden;background-position:left -22px}.ydd-padding010{padding:0 10px}#yddWrapper{color:#252525;z-index:10001;background:url(chrome-extension://eopjamdnofihpioajgfdikhhbobonhbb/ab20.png);}#yddContainer{background:#fff;border-color:#4b7598}#yddTopBorderlr{border-color:#f0f8fc}#yddWrapper .ydd-sp{background-image:url(chrome-extension://eopjamdnofihpioajgfdikhhbobonhbb/ydd-sprite.png)}#yddWrapper a,#yddWrapper a:hover,#yddWrapper a:visited{color:#50799b}#yddWrapper .ydd-tabs{color:#959595}.ydd-tabs,.ydd-tab{background:#fff;border-color:#d5e7f3}#yddBottom{color:#363636}#yddWrapper{min-width:250px;max-width:400px;}</style></svg>