<svg width="24" height="24" viewBox="0 0 24 24" fill="none" xmlns="http://www.w3.org/2000/svg">
<g id="bitcoinchain 1" clip-path="url(#clip0_68_34440)">
<g id="Clip path group">
<mask id="mask0_68_34440" style="mask-type:luminance" maskUnits="userSpaceOnUse" x="0" y="0" width="24" height="24">
<g id="clip0_240_54028">
<path id="Vector" d="M24 0H0V24H24V0Z" fill="white"/>
</g>
</mask>
<g mask="url(#mask0_68_34440)">
<g id="Group">
<path id="Vector_2" d="M23.6392 14.9031C22.0365 21.3316 15.5254 25.2441 9.09602 23.6409C2.66927 22.0382 -1.2431 15.5266 0.360399 9.09847C1.9624 2.6691 8.47352 -1.24365 14.901 0.359098C21.33 1.96185 25.242 8.4741 23.6392 14.9031Z" fill="#E8AB61"/>
<path id="Vector_3" d="M17.2901 10.2908C17.5289 8.69402 16.3131 7.83564 14.6508 7.26302L15.1901 5.10002L13.8735 4.77189L13.3485 6.87789C13.0023 6.79164 12.6468 6.71027 12.2936 6.62964L12.8223 4.50977L11.5065 4.18164L10.9668 6.34389C10.6803 6.27864 10.3991 6.21414 10.1261 6.14627L10.1276 6.13952L8.31184 5.68614L7.96159 7.09239C7.96159 7.09239 8.93847 7.31627 8.91784 7.33014C9.45109 7.46327 9.54747 7.81614 9.53134 8.09589L8.91709 10.56C8.95384 10.5694 9.00147 10.5829 9.05397 10.6039C9.01009 10.593 8.96322 10.581 8.91484 10.5694L8.05384 14.0213C7.98859 14.1833 7.82322 14.4263 7.45047 14.334C7.46359 14.3531 6.49347 14.0951 6.49347 14.0951L5.83984 15.6022L7.55322 16.0294C7.87197 16.1092 8.18434 16.1929 8.49184 16.2717L7.94697 18.4594L9.26209 18.7875L9.80172 16.623C10.161 16.7205 10.5097 16.8105 10.851 16.8952L10.3132 19.0497L11.6298 19.3777L12.1747 17.1942C14.4198 17.619 16.1081 17.4477 16.8186 15.417C17.3913 13.782 16.7901 12.8389 15.6089 12.2239C16.4691 12.0255 17.1171 11.4596 17.2901 10.2908ZM14.2818 14.5091C13.875 16.1442 11.1221 15.2602 10.2296 15.0387L10.9526 12.1403C11.8451 12.363 14.7071 12.804 14.2818 14.5091ZM14.6891 10.2671C14.3178 11.7544 12.0266 10.9988 11.2833 10.8135L11.9388 8.18477C12.6821 8.37002 15.0756 8.71577 14.6891 10.2671Z" fill="#101010"/>
</g>
</g>
</g>
</g>
<defs>
<clipPath id="clip0_68_34440">
<rect width="24" height="24" fill="white"/>
</clipPath>
</defs>
</svg>
