<svg width="24" height="24" fill="none" xmlns="http://www.w3.org/2000/svg" viewBox="0 0 24 24"><path fill="#FFE804" d="M0 0h24v24H0z"/><path d="M12.333 3.333 11.2 4l-.933 1.067-.734 1.866-.266 1.934-1.934.266-2.866 2.2L3.333 15l.467 2.667.6-.467.467 1.2.933-.933.333 1.133.334.4 1.066-1.8 1.734-.133v1.2l-.667.666v.934l1.667.133.533-.667V17.2l.2-.267 1.267.267.133.667V19l-.667 1 .667.467 1.467-.334.2-3.733.466-.267 1.334.467.866 2.533 1.134-1.733.666 1.067L19.6 17.4l.8.2.133-3.333-1.066-3.467-2-1.467-1.4-.333-.8-.333-.734-3.734-1.2-1.333-1-.2v-.067Z" fill="#fff"/><path d="M20.933 15.466v-.2l-.066-.133c0-.067-.134-.333 0-.4 0-.133 0-.2-.134-.333.134-.067 0-.2 0-.334v-.2l.134-.066c-.134 0 0-.2-.134-.2 0-.134-.133-.2 0-.2l-.066-.267v-.067a2.666 2.666 0 0 1-.134-.8c-.133 0-.133-.066-.133-.133v-.2c-.067 0-.133-.133-.067-.2-.133 0-.066-.067-.133-.133v-.267l-.133-.267c0-.133-.134-.133-.134-.2V10.8H19.8v-.2l-.133-.067a2.014 2.014 0 0 0-.2-.267v.067c-.067 0 0-.067 0-.133h-.134v-.134H19.2v-.133H19l-.267-.2V9.6c-.066 0 0 0 0-.067H18.4l-.4-.2c0-.067-.133 0-.133-.133-.067 0 0 .133-.067 0-.067 0-.133 0-.2-.134 0 .134-.067 0-.2 0a.534.534 0 0 1-.267-.2s-.2-.066-.266 0l-.067-.133s0 .067-.067 0H16c-.133-.067-.2-.133-.267 0H15.6l-.067-.2V7.6c.067-.067.067-.267 0-.267v-.267l-.066-.133c-.067 0-.067 0 0 0l-.134-.267v-.2c0 .067 0 .067 0 0V6.2c-.133-.134-.066-.2 0-.334H15.2v-.133l-.067-.133-.066-.134L15 5.2s0-.2-.133-.2l-.067-.134h-.067V4.8l-.066-.067v-.067l-.134-.333V4.4l-.066-.067H14.4s-.133-.067 0-.2h-.2l-.2-.4c-.133-.067-.267-.133-.267-.267-.2 0-.266-.133-.4-.266l-.2.066c-.133-.2-.466-.2-.666-.2 0 .067 0 .067 0 0h-.134c-.133 0-.066.134-.133.134v-.067l-.333.067-.2.133s-.267 0-.2.067c0-.067 0-.067 0 0v.066L11.4 3.4c0 .133-.2.133-.267.266l-.2.134-.333.333c-.133 0-.2.067-.2.133l-.067.134-.2.266c0 .067 0 .134-.066 0l-.067.2-.133.267V5.2H9.6l-.467.066c-.4 0-.866-.2-1.2 0-.133-.133-.333 0-.4-.066 0 .066-.133.066-.066 0H7.2v.133c-.067 0-.067 0 0 .067h.133c.067.066 0 0 0 .066.134 0 .134 0 0 0l.267.067h.333c.134.133.334.2.467.133-.133.134.133 0 .267.067L9 5.866h.4V6l.2.066c0 .067-.133.067-.067.134v.2s0 .133-.133.133v.133c-.133 0 0 .2-.133.267V7.4s0 .133-.134.066V8.8H9c-.267-.134-.467 0-.667-.067H8l-.333.133-.6.2h-.134l-.4.267-.133.133-.133.067-.134.133-.266.2L5.8 10c-.067 0-.133 0-.2.133l-.2.067-.133.066-.334.334-.133.266-.133.067-.134.133-.066.134-.134.2v.066l-.066.067v.2H4.2L4 12v.2l-.067.066c-.133.067-.133.134-.133.267 0 0 0 .133-.067.067 0 .066-.133.2 0 .266h-.066a.667.667 0 0 0-.134.334l-.133.4c0 .133 0 .266-.133.333v.733L3.2 15c0 .066-.133.133-.067.2-.133 0 0 .066 0 .133h-.066v.8l.066.4c.134.067.134.2.134.267-.067.133 0 .533 0 .533h.066l.067.467c0 .133 0 .133.133.2.134.133 0 .333.2.266 0 .267.334.067.4-.066V18c.134-.267.134-.267 0 0 .134-.134.267-.2.267-.334v.2l.133.267c0 .2.134.333.267.4h.267c.133 0 .2-.133.266-.267l.2-.266.134-.2H5.8c0 .133 0 .2.133.266-.2.067 0 .334 0 .467v.667c.134.066.134.066 0 0l.334.266s.4-.2.266-.266H6.6c.133 0 .2-.2.267-.334l.133-.2V18.6l.067-.267c0-.067 0-.067 0 0 .133 0 .133-.133.2-.2-.067-.067 0-.067 0-.133v-.067L7.4 17.8l.133-.2v-.067c0-.067.2 0 .267-.133 0-.134.133-.134.267-.2.066 0 .066 0 0 0h1.066v.066c0 .134-.2.267-.066.467-.067.067 0 .133 0 .267v.4c-.334 0-.4.333-.667.533l-.133.333v.4l.066.267.134.267.2.133c.066.067.133.067.266 0h.2l.134-.133-.334.133c0-.067 0-.067 0 0l.334-.133.333.066.2-.066h.333l.334-.067.333-.267.133-.333v-.4c.134-.333 0-.6 0-.867.134-.2 0-.333 0-.4v-.8c.134 0 .267.134.334.067l.266.067H12c0-.067 0-.067 0 0h-.467l.4.066h.2v.534c-.133 0 0 .266 0 .333v.467l.134.066c-.134.134-.134.267-.067.4-.133 0-.267.067-.267.2-.133 0-.2.134-.266.2l-.134.467v.133l.067.2s.067 0 0 .067c.133 0 .267.2.4.267.2.066.2.066 0 0l.2.066h.267c0 .134.133.067.2.067-.067.067 0 0 .133.067h.2c.2.133.4 0 .533 0l.4-.4.134-.2c0 .2-.467.4-.667.466 0 .134-.2.067-.4.134.2 0 .333 0 .467-.134.133-.066.6-.266.6-.466v-1c.133-.134 0-.334.066-.467v-.667c.134-.266 0-.466.134-.8-.067 0-.134-.2-.067-.266-.067 0-.067 0 0 0v-.067c.067-.267-.133-.467.267-.533h.6c-.134-.134-.134-.134 0 0l.266.133c.134 0 .134.2.2.2l.134.133c0 .134 0 .2.133.334l.067.133.133.267v.133s.133 0 0 .067l.133.066v.267c0 .2 0 .267.134.4v.4h.066c0-.133 0-.133 0 0v.333c0 .134 0 0 .134 0 0 .067 0 .067 0 0-.067 0-.134.134-.134 0-.066.134.067.067.134.067l-.067.2v.267c.267.266.467 0 .533-.267l.134-.067v-.333l.066-.267h.067l.333-.533.334-.4.066.267c.067.133 0 .266.134.266v.134c0-.2 0-.4-.2-.534.133.134.2.334.2.534v.133l.133.2c0 .133.2.267.333.267h.067c.067 0 .133-.067.067-.134l.2-.133c0-.133 0-.267.133-.333 0-.2 0-.2 0 0l.2-.467c0-.133.133-.2.2-.333v-.134l.267.267-.2-.267v.134h.066l.134.2c0 .133.266.133.333.2 0-.067.133 0 .267 0l.2-.134.2-.133v-.2s.066-.2 0-.133v-.134c.133 0 0 0 0-.066.066 0 0-.067 0-.067l.066-.267c0-.133.134-.2 0-.333.2 0 .134-.2.134-.267v-1h.066Zm-2.6 3.467.067.133-.067-.066v-.067Zm.134.133c0-.133 0 0-.067 0h.2-.133Zm1.866-2.733c-.066 0 0 .067 0 .133l-.066.4c-.134 0 0 .134-.067.267.133 0 0 .133 0 .133l-.133.134-.067-.134-.133-.2H19.8L19.733 17h-.2c-.133 0-.2.133-.333.266H19l-.067.2v.134l-.266.133v.133l-.134.134c0-.134 0-.4-.133-.334l-.133-.333v.067c.066-.2-.134-.267-.134-.4l-.2.066h-.066v.067l-.267.133v.067c-.133.067-.2.267-.2.333-.133.2-.2.467-.4.6-.133.067 0 .334-.2.334v-.734c-.067 0-.133-.2-.067-.333-.133 0-.2-.2-.2-.267l-.2-.333v-.067L16.2 16.6c-.067-.067-.133 0-.133-.134l-.2-.133H15.8l-.2-.267h-.267L15.067 16h-.334l-.066-.067-.134.067h-.266c-.2 0-.267 0-.334.133l-.133.333v.267l-.067.467h-.066v2.666l-.2.067-.134.067c-.2 0-.266 0-.333.133h-.467c-.2 0-.4 0-.466-.267 0 0 0-.133.133-.2l.2-.2s.133-.133 0-.2c.2 0 .133-.133.2-.266v-.4c-.067 0-.133 0 0 0v-.667l-.067-.2c0-.133 0-.333-.133-.467V17.2l-.067-.134s.067 0 0-.066c.134-.067 0-.2 0-.267 0 0-.133 0-.133-.133-.067 0 0 0 0-.067-.133.133-.267 0-.333 0-.2 0-.267.133-.4 0H11.4l-.133-.067-.134.067v.067H11c-.133 0-.2 0-.2.133h-.067l-.066.2v.333c-.067.134-.134.267-.067.467-.133 0 0 .267-.067.333v.267l-.066.333.066.2v.334l-.133.4-.333.133H9.6l-.267.067H9.2l-.133-.067h-.134l-.133-.067c-.133-.2-.067-.333 0-.533 0-.133.2-.2.2-.4-.267 0-.267 0 0 0l.267-.267c.066 0 .066-.133.2-.133v-.8c0 .067 0 .067 0 0 0-.133 0-.2-.134-.2L9.4 17.2V17l-.067-.067c-.2-.2-.4-.267-.666-.333h-.4s-.134 0-.134.133c-.133-.133-.4 0-.533 0-.067 0-.133.2-.333.2V17c0 .133-.067 0-.134.066 0 .067-.133.134 0 .2-.2 0-.2.2-.333.267l-.067.133-.133.067-.133.467v.066l-.2.134v.2-.267l-.134-.133c0-.267-.133-.6-.266-.734l-.134-.333h-.266c0 .133-.2.133-.134.267l-.133.066v.067a.402.402 0 0 0-.267.333V18l-.2-.4-.066-.267c-.067-.133 0-.2 0-.267l-.134-.133c-.133 0-.133.067-.266 0v.133l-.067.067c-.2 0-.133.2-.133.267l-.134-.134v-.2c-.133-.2-.133-.466-.2-.666v-1.2c0 .266 0 .266 0 0v-.334c0-.133.134-.266 0-.333l.2-.133c-.066-.334 0-.667.134-.934-.067 0-.067-.133 0-.133v-.267c0-.133.133-.2.266-.333l.067-.267c.133 0 .133-.2.133-.266l.134-.2v-.067l.2-.333.2-.267.2-.2c0-.067 0-.133.133-.2.067 0 .2-.067.2-.2l.133-.067.134-.133V10.4l.4-.267.266-.2H6.6v-.067h.2c0-.133.067-.133.133-.2-.066 0-.133.134-.2.067 0 .067 0 .067 0 0 .067.067.134 0 .2-.067L7 9.6l.333-.134L7.6 9.4c.2-.134.467-.2.667-.134L8.8 9.2H9s.067 0 0-.067c.2 0 .2.133.333 0V9c.067 0 0-.134 0-.134v-.2L9.4 8.6c.067-.134.133-.2 0-.334.133 0 .133-.2.133-.333h-.066c.066-.333 0-.333 0 0l.133-.2c-.067-.133 0-.2 0-.267v-.133c0-.133 0-.267.133-.4.067 0 0-.133.134-.2-.067 0 0-.067 0-.133v-.267c.133 0 .2-.133.2-.267 0-.133 0-.266.133-.333l.2-.267c0-.066 0-.066 0 0v-.133s.067-.067 0-.133c.267-.067.267-.4.467-.534l.2-.2c0-.133.2-.266.266-.333l.267-.067s.2 0 .133-.133l.2-.067.134-.133h.066l.534-.133h.266c.134 0 .067.066.134.133l.333.133v.067c.267.2.2.2 0 0l.267.267c.133.133.2.4.4.533-.134.133.2.333.2.467v.133c.133 0 0 .133.133.2V5.6l.133.2.067.4.067.2v.4l.066.2v.533l.134.467v.666c.133.134.133.134 0 0v-.4.334L15 9h.067c.066.066.2.2.266.133h.467l.267.067h.2s0 .133.133.066l.533.067.267.133c.2.134.533.2.667.4H18V10c.2 0 .267.2.4.2.2 0 .267.2.4.266l.333.267c.067.133 0 .333.267.267l.133.466c.2.2.2.2 0 0v.134l.134.266c0 .134.133.2.2.334h-.134v.2l.134.133v.2l.133.2c0 .133 0 .267.133.267-.2 0 0 .266 0 .266 0 .267 0 .2 0 0v.2c-.133.134.067.267 0 .4v.134c0-.067 0-.067 0 0v.466c.067 0 .067 0 0 .067v.333l.134.267v.267s-.067.066 0 .133v.067c0 .133 0 .133 0 0H20.2l.067.133v.4h.066Z" fill="#000"/><path d="M13 4.667h-.133l-.2.066-.134.267.067.2h.133l.267.067.2-.2V4.8c-.133 0-.133-.133-.2-.133Zm-1.2 0h-.267c-.2.066-.2.2-.2.333v.133l.334.134h.066l.134-.067v-.133c.066-.067.133-.134.066-.267l-.066-.133H11.8Z" fill="#000"/></svg>