<svg width="24" height="24" viewBox="0 0 24 24" viewBox="0 0 24 24" fill="none" xmlns="http://www.w3.org/2000/svg">
<rect width="24" height="24" rx="12" fill="#FFE804"/>
<path d="M12.3333 3.33325L11.1999 3.99992L10.2666 5.06659L9.53325 6.93325L9.26658 8.86659L7.33325 9.13325L4.46659 11.3333L3.33325 14.9999L3.79992 17.6666L4.39992 17.1999L4.86659 18.3999L5.79992 17.4666L6.13325 18.5999L6.46658 18.9999L7.53325 17.1999L9.26658 17.0666V18.2666L8.59992 18.9333V19.8666L10.2666 19.9999L10.7999 19.3333V17.1999L10.9999 16.9333L12.2666 17.1999L12.3999 17.8666V18.9999L11.7333 19.9999L12.3999 20.4666L13.8666 20.1333L14.0666 16.3999L14.5333 16.1333L15.8666 16.5999L16.7333 19.1333L17.8666 17.3999L18.5333 18.4666L19.5999 17.3999L20.3999 17.5999L20.5333 14.2666L19.4666 10.7999L17.4666 9.33325L16.0666 8.99992L15.2666 8.66658L14.5333 4.93325L13.3333 3.59992L12.3333 3.39992V3.33325Z" fill="white"/>
<path d="M20.9333 15.4664V15.2664L20.8666 15.1331C20.8666 15.0664 20.7333 14.7997 20.8666 14.7331C20.8666 14.5997 20.8666 14.5331 20.7333 14.3997C20.8666 14.3331 20.7333 14.1997 20.7333 14.0664V13.8664L20.8666 13.7997C20.7333 13.7997 20.8666 13.5997 20.7333 13.5997C20.7333 13.4664 20.6 13.3997 20.7333 13.3997L20.6666 13.1331V13.0664C20.5817 12.8081 20.5367 12.5383 20.5333 12.2664C20.4 12.2664 20.4 12.1997 20.4 12.1331V11.9331C20.3333 11.9331 20.2666 11.7997 20.3333 11.7331C20.2 11.7331 20.2666 11.6664 20.2 11.5997V11.3331L20.0666 11.0664C20.0666 10.9331 19.9333 10.9331 19.9333 10.8664V10.7997H19.8V10.5997L19.6666 10.5331C19.6075 10.4388 19.5406 10.3496 19.4667 10.2664V10.3331C19.4 10.3331 19.4667 10.2664 19.4667 10.1997H19.3333V10.0664H19.2V9.93307H19L18.7333 9.73307V9.59974C18.6666 9.59974 18.7333 9.59974 18.7333 9.53307H18.4L18 9.33307C18 9.26641 17.8666 9.33307 17.8666 9.19974C17.8 9.19974 17.8666 9.33307 17.8 9.19974C17.7333 9.19974 17.6666 9.19974 17.6 9.06641C17.6 9.19974 17.5333 9.06641 17.4 9.06641C17.292 9.02994 17.1986 8.95985 17.1333 8.86641C17.1333 8.86641 16.9333 8.79974 16.8666 8.86641L16.8 8.73307C16.8 8.73307 16.8 8.79974 16.7333 8.73307H16C15.8666 8.66641 15.8 8.59974 15.7333 8.73307H15.6L15.5333 8.53307V7.59974C15.6 7.53307 15.6 7.33307 15.5333 7.33307V7.06641L15.4667 6.93307C15.4 6.93307 15.4 6.93307 15.4667 6.93307L15.3333 6.66641V6.46641C15.3333 6.53307 15.3333 6.53307 15.3333 6.46641V6.19974C15.2 6.06641 15.2666 5.99974 15.3333 5.86641H15.2V5.73307L15.1333 5.59974L15.0666 5.46641L15 5.19974C15 5.19974 15 4.99974 14.8666 4.99974L14.8 4.86641H14.7333V4.79974L14.6666 4.73307V4.66641L14.5333 4.33307V4.39974L14.4667 4.33307H14.4C14.4 4.33307 14.2666 4.26641 14.4 4.13307H14.2L14 3.73307C13.8666 3.66641 13.7333 3.59974 13.7333 3.46641C13.5333 3.46641 13.4666 3.33307 13.3333 3.19974L13.1333 3.26641C13 3.06641 12.6666 3.06641 12.4667 3.06641C12.4667 3.13307 12.4667 3.13307 12.4667 3.06641H12.3333C12.2 3.06641 12.2666 3.19974 12.2 3.19974V3.13307L11.8666 3.19974L11.6666 3.33307C11.6666 3.33307 11.4 3.33307 11.4667 3.39974C11.4667 3.33307 11.4667 3.33307 11.4667 3.39974V3.46641L11.4 3.39974C11.4 3.53307 11.2 3.53307 11.1333 3.66641L10.9333 3.79974L10.6 4.13307C10.4666 4.13307 10.4 4.19974 10.4 4.26641L10.3333 4.39974L10.1333 4.66641C10.1333 4.73307 10.1333 4.79974 10.0666 4.66641L9.99998 4.86641L9.86665 5.13307V5.19974H9.59998L9.13332 5.26641C8.73332 5.26641 8.26665 5.06641 7.93332 5.26641C7.79998 5.13307 7.59998 5.26641 7.53332 5.19974C7.53332 5.26641 7.39998 5.26641 7.46665 5.19974H7.19998V5.33307C7.13332 5.33307 7.13332 5.33307 7.19998 5.39974H7.33332C7.39998 5.46641 7.33332 5.39974 7.33332 5.46641C7.46665 5.46641 7.46665 5.46641 7.33332 5.46641L7.59998 5.53307H7.93332C8.06665 5.66641 8.26665 5.73307 8.39998 5.66641C8.26665 5.79974 8.53332 5.66641 8.66665 5.73307L8.99998 5.86641H9.39998V5.99974L9.59998 6.06641C9.59998 6.13307 9.46665 6.13307 9.53332 6.19974V6.39974C9.53332 6.39974 9.53332 6.53307 9.39998 6.53307V6.66641C9.26665 6.66641 9.39998 6.86641 9.26665 6.93307V7.39974C9.26665 7.39974 9.26665 7.53307 9.13332 7.46641V8.79974H8.99998C8.73332 8.66641 8.53332 8.79974 8.33332 8.73307H7.99998L7.66665 8.86641L7.06665 9.06641H6.93332L6.53332 9.33307L6.39998 9.46641L6.26665 9.53307L6.13332 9.66641L5.86665 9.86641L5.79998 9.99974C5.73332 9.99974 5.66665 9.99974 5.59998 10.1331L5.39998 10.1997L5.26665 10.2664L4.93332 10.5997L4.79998 10.8664L4.66665 10.9331L4.53332 11.0664L4.46665 11.1997L4.33332 11.3997V11.4664L4.26665 11.5331V11.7331H4.19998L3.99998 11.9997V12.1997L3.93332 12.2664C3.79998 12.3331 3.79998 12.3997 3.79998 12.5331C3.79998 12.5331 3.79998 12.6664 3.73332 12.5997C3.73332 12.6664 3.59998 12.7997 3.73332 12.8664H3.66665C3.59256 12.9632 3.54645 13.0785 3.53332 13.1997L3.39998 13.5997C3.39998 13.7331 3.39998 13.8664 3.26665 13.9331V14.6664L3.19998 14.9997C3.19998 15.0664 3.06665 15.1331 3.13332 15.1997C2.99998 15.1997 3.13332 15.2664 3.13332 15.3331H3.06665V16.1331L3.13332 16.5331C3.26665 16.5997 3.26665 16.7331 3.26665 16.7997C3.19998 16.9331 3.26665 17.3331 3.26665 17.3331H3.33332L3.39998 17.7997C3.39998 17.9331 3.39998 17.9331 3.53332 17.9997C3.66665 18.1331 3.53332 18.3331 3.73332 18.2664C3.73332 18.5331 4.06665 18.3331 4.13332 18.1997V17.9997C4.26665 17.7331 4.26665 17.7331 4.13332 17.9997C4.26665 17.8664 4.39998 17.7997 4.39998 17.6664V17.8664L4.53332 18.1331C4.53332 18.3331 4.66665 18.4664 4.79998 18.5331H5.06665C5.19998 18.5331 5.26665 18.3997 5.33332 18.2664L5.53332 17.9997L5.66665 17.7997H5.79998C5.79998 17.9331 5.79998 17.9997 5.93332 18.0664C5.73332 18.1331 5.93332 18.3997 5.93332 18.5331V19.1997C6.06665 19.2664 6.06665 19.2664 5.93332 19.1997L6.26665 19.4664C6.26665 19.4664 6.66665 19.2664 6.53332 19.1997H6.59998C6.73332 19.1997 6.79998 18.9997 6.86665 18.8664L6.99998 18.6664V18.5997L7.06665 18.3331C7.06665 18.2664 7.06665 18.2664 7.06665 18.3331C7.19998 18.3331 7.19998 18.1997 7.26665 18.1331C7.19998 18.0664 7.26665 18.0664 7.26665 17.9997V17.9331L7.39998 17.7997L7.53332 17.5997V17.5331C7.53332 17.4664 7.73332 17.5331 7.79998 17.3997C7.79998 17.2664 7.93332 17.2664 8.06665 17.1997C8.13332 17.1997 8.13332 17.1997 8.06665 17.1997H9.13332V17.2664C9.13332 17.3997 8.93332 17.5331 9.06665 17.7331C8.99998 17.7997 9.06665 17.8664 9.06665 17.9997V18.3997C8.73332 18.3997 8.66665 18.7331 8.39998 18.9331L8.26665 19.2664V19.6664L8.33332 19.9331L8.46665 20.1997L8.66665 20.3331C8.73332 20.3997 8.79998 20.3997 8.93332 20.3331H9.13332L9.26665 20.1997L8.93332 20.3331C8.93332 20.2664 8.93332 20.2664 8.93332 20.3331L9.26665 20.1997L9.59998 20.2664L9.79998 20.1997H10.1333L10.4667 20.1331L10.8 19.8664L10.9333 19.5331V19.1331C11.0666 18.7997 10.9333 18.5331 10.9333 18.2664C11.0666 18.0664 10.9333 17.9331 10.9333 17.8664V17.0664C11.0666 17.0664 11.2 17.1997 11.2666 17.1331L11.5333 17.1997H12C12 17.1331 12 17.1331 12 17.1997H11.5333L11.9333 17.2664H12.1333V17.7997C12 17.7997 12.1333 18.0664 12.1333 18.1331V18.5997L12.2666 18.6664C12.1333 18.7997 12.1333 18.9331 12.2 19.0664C12.0666 19.0664 11.9333 19.1331 11.9333 19.2664C11.8 19.2664 11.7333 19.3997 11.6666 19.4664L11.5333 19.9331V20.0664L11.6 20.2664C11.6 20.2664 11.6666 20.2664 11.6 20.3331C11.7333 20.3331 11.8666 20.5331 12 20.5997C12.2 20.6664 12.2 20.6664 12 20.5997L12.2 20.6664H12.4667C12.4667 20.7997 12.6 20.7331 12.6666 20.7331C12.6 20.7997 12.6666 20.7331 12.8 20.7997H13C13.2 20.9331 13.4 20.7997 13.5333 20.7997L13.9333 20.3997L14.0666 20.1997C14.0666 20.3997 13.6 20.5997 13.4 20.6664C13.4 20.7997 13.2 20.7331 13 20.7997C13.2 20.7997 13.3333 20.7997 13.4667 20.6664C13.6 20.5997 14.0666 20.3997 14.0666 20.1997V19.1997C14.2 19.0664 14.0667 18.8664 14.1333 18.7331V18.0664C14.2667 17.7997 14.1333 17.5997 14.2666 17.2664C14.2 17.2664 14.1333 17.0664 14.2 16.9997C14.1333 16.9997 14.1333 16.9997 14.2 16.9997V16.9331C14.2666 16.6664 14.0667 16.4664 14.4667 16.3997H15.0666C14.9333 16.2664 14.9333 16.2664 15.0666 16.3997L15.3333 16.5331C15.4666 16.5331 15.4666 16.7331 15.5333 16.7331L15.6666 16.8664C15.6666 16.9997 15.6666 17.0664 15.8 17.1997L15.8666 17.3331L16 17.5997V17.7331C16 17.7331 16.1333 17.7331 16 17.7997L16.1333 17.8664V18.1331C16.1333 18.3331 16.1333 18.3997 16.2666 18.5331V18.9331H16.3333C16.3333 18.7997 16.3333 18.7997 16.3333 18.9331V19.2664C16.3333 19.3997 16.3333 19.2664 16.4667 19.2664C16.4667 19.3331 16.4667 19.3331 16.4667 19.2664C16.4 19.2664 16.3333 19.3997 16.3333 19.2664C16.2666 19.3997 16.4 19.3331 16.4667 19.3331L16.4 19.5331V19.7997C16.6666 20.0664 16.8666 19.7997 16.9333 19.5331L17.0666 19.4664V19.1331L17.1333 18.8664H17.2L17.5333 18.3331L17.8666 17.9331L17.9333 18.1997C18 18.3331 17.9333 18.4664 18.0666 18.4664V18.5997C18.0666 18.3997 18.0666 18.1997 17.8666 18.0664C18 18.1997 18.0666 18.3997 18.0666 18.5997V18.7331L18.2 18.9331C18.2 19.0664 18.4 19.1997 18.5333 19.1997H18.6C18.6666 19.1997 18.7333 19.1331 18.6666 19.0664L18.8666 18.9331C18.8666 18.7997 18.8666 18.6664 19 18.5997C19 18.3997 19 18.3997 19 18.5997L19.2 18.1331C19.2 17.9997 19.3333 17.9331 19.4 17.7997V17.6664L19.6666 17.9331L19.4667 17.6664V17.7997H19.5333L19.6666 17.9997C19.6666 18.1331 19.9333 18.1331 20 18.1997C20 18.1331 20.1333 18.1997 20.2666 18.1997L20.4667 18.0664L20.6666 17.9331V17.7331C20.6666 17.7331 20.7333 17.5331 20.6666 17.5997V17.4664C20.8 17.4664 20.6666 17.4664 20.6666 17.3997C20.7333 17.3997 20.6666 17.3331 20.6666 17.3331L20.7333 17.0664C20.7333 16.9331 20.8666 16.8664 20.7333 16.7331C20.9333 16.7331 20.8666 16.5331 20.8666 16.4664V15.4664H20.9333ZM18.3333 18.9331L18.4 19.0664L18.3333 18.9997V18.9331ZM18.4667 19.0664C18.4667 18.9331 18.4666 19.0664 18.4 19.0664H18.6H18.4667ZM20.3333 16.3331C20.2666 16.3331 20.3333 16.3997 20.3333 16.4664L20.2666 16.8664C20.1333 16.8664 20.2666 16.9997 20.2 17.1331C20.3333 17.1331 20.2 17.2664 20.2 17.2664L20.0666 17.3997L20 17.2664L19.8666 17.0664H19.8L19.7333 16.9997H19.5333C19.4 16.9997 19.3333 17.1331 19.2 17.2664H19L18.9333 17.4664V17.5997L18.6666 17.7331V17.8664L18.5333 17.9997C18.5333 17.8664 18.5333 17.5997 18.4 17.6664L18.2666 17.3331V17.3997C18.3333 17.1997 18.1333 17.1331 18.1333 16.9997L17.9333 17.0664H17.8666V17.1331L17.6 17.2664V17.3331C17.4666 17.3997 17.4 17.5997 17.4 17.6664C17.2666 17.8664 17.2 18.1331 17 18.2664C16.8666 18.3331 17 18.5997 16.8 18.5997V17.8664C16.7333 17.8664 16.6666 17.6664 16.7333 17.5331C16.6 17.5331 16.5333 17.3331 16.5333 17.2664L16.3333 16.9331V16.8664L16.2 16.5997C16.1333 16.5331 16.0666 16.5997 16.0666 16.4664L15.8666 16.3331H15.8L15.6 16.0664H15.3333L15.0666 15.9997H14.7333L14.6666 15.9331L14.5333 15.9997H14.2666C14.0666 15.9997 14 15.9997 13.9333 16.1331L13.8 16.4664V16.7331L13.7333 17.1997H13.6666V19.8664L13.4667 19.9331L13.3333 19.9997C13.1333 19.9997 13.0666 19.9997 13 20.1331H12.5333C12.3333 20.1331 12.1333 20.1331 12.0666 19.8664C12.0666 19.8664 12.0666 19.7331 12.2 19.6664L12.4 19.4664C12.4 19.4664 12.5333 19.3331 12.4 19.2664C12.6 19.2664 12.5333 19.1331 12.6 18.9997V18.5997C12.4666 18.5997 12.5333 18.5997 12.6 18.5997V17.9331L12.5333 17.7331C12.5333 17.5997 12.5333 17.3997 12.4 17.2664V17.1997L12.3333 17.0664C12.3333 17.0664 12.4 17.0664 12.3333 16.9997C12.4667 16.9331 12.3333 16.7997 12.3333 16.7331C12.3333 16.7331 12.2 16.7331 12.2 16.5997C12.1333 16.5997 12.2 16.5997 12.2 16.5331C12.0666 16.6664 11.9333 16.5331 11.8666 16.5331C11.6666 16.5331 11.6 16.6664 11.4667 16.5331H11.4L11.2666 16.4664L11.1333 16.5331V16.5997H11C10.8666 16.5997 10.8 16.5997 10.8 16.7331H10.7333L10.6666 16.9331V17.2664C10.6 17.3997 10.5333 17.5331 10.6 17.7331C10.4666 17.7331 10.6 17.9997 10.5333 18.0664V18.3331L10.4667 18.6664L10.5333 18.8664V19.1997L10.4 19.5997L10.0666 19.7331H9.59998L9.33332 19.7997H9.19998L9.06665 19.7331H8.93332L8.79998 19.6664C8.66665 19.4664 8.73332 19.3331 8.79998 19.1331C8.79998 18.9997 8.99998 18.9331 8.99998 18.7331C8.73332 18.7331 8.73332 18.7331 8.99998 18.7331L9.26665 18.4664C9.33332 18.4664 9.33332 18.3331 9.46665 18.3331V17.5331C9.46665 17.5997 9.46665 17.5997 9.46665 17.5331C9.46665 17.3997 9.46665 17.3331 9.33332 17.3331L9.39998 17.1997V16.9997L9.33332 16.9331C9.13332 16.7331 8.93332 16.6664 8.66665 16.5997H8.26665C8.26665 16.5997 8.13332 16.5997 8.13332 16.7331C7.99998 16.5997 7.73332 16.7331 7.59998 16.7331C7.53332 16.7331 7.46665 16.9331 7.26665 16.9331V16.9997C7.26665 17.1331 7.19998 16.9997 7.13332 17.0664C7.13332 17.1331 6.99998 17.1997 7.13332 17.2664C6.93332 17.2664 6.93332 17.4664 6.79998 17.5331L6.73332 17.6664L6.59998 17.7331L6.46665 18.1997V18.2664L6.26665 18.3997V18.5997V18.3331L6.13332 18.1997C6.13332 17.9331 5.99998 17.5997 5.86665 17.4664L5.73332 17.1331H5.46665C5.46665 17.2664 5.26665 17.2664 5.33332 17.3997L5.19998 17.4664V17.5331C4.99998 17.5997 4.93332 17.7997 4.93332 17.8664V17.9997L4.73332 17.5997L4.66665 17.3331C4.59998 17.1997 4.66665 17.1331 4.66665 17.0664L4.53332 16.9331C4.39998 16.9331 4.39998 16.9997 4.26665 16.9331V17.0664L4.19998 17.1331C3.99998 17.1331 4.06665 17.3331 4.06665 17.3997L3.93332 17.2664V17.0664C3.79998 16.8664 3.79998 16.5997 3.73332 16.3997V15.1997C3.73332 15.4664 3.73332 15.4664 3.73332 15.1997V14.8664C3.73332 14.7331 3.86665 14.5997 3.73332 14.5331L3.93332 14.3997C3.86665 14.0664 3.93332 13.7331 4.06665 13.4664C3.99998 13.4664 3.99998 13.3331 4.06665 13.3331V13.0664C4.06665 12.9331 4.19998 12.8664 4.33332 12.7331L4.39998 12.4664C4.53332 12.4664 4.53332 12.2664 4.53332 12.1997L4.66665 11.9997V11.9331L4.86665 11.5997L5.06665 11.3331L5.26665 11.1331C5.26665 11.0664 5.26665 10.9997 5.39998 10.9331C5.46665 10.9331 5.59998 10.8664 5.59998 10.7331L5.73332 10.6664L5.86665 10.5331V10.3997L6.26665 10.1331L6.53332 9.93307H6.59998V9.86641H6.79998C6.79998 9.73307 6.86665 9.73307 6.93332 9.66641C6.86665 9.66641 6.79998 9.79974 6.73332 9.73307C6.73332 9.79974 6.73332 9.79974 6.73332 9.73307C6.79998 9.79974 6.86665 9.73307 6.93332 9.66641L6.99998 9.59974L7.33332 9.46641L7.59998 9.39974C7.79998 9.26641 8.06665 9.19974 8.26665 9.2664L8.79998 9.19974H8.99998C8.99998 9.19974 9.06665 9.19974 8.99998 9.13307C9.19998 9.13307 9.19998 9.26641 9.33332 9.13307V8.99974C9.39998 8.99974 9.33332 8.86641 9.33332 8.86641V8.66641L9.39998 8.59974C9.46665 8.4664 9.53332 8.39974 9.39998 8.26641C9.53332 8.26641 9.53332 8.06641 9.53332 7.93307H9.46665C9.46665 7.59974 9.53332 7.59974 9.46665 7.93307L9.59998 7.73307C9.53332 7.59974 9.59998 7.53307 9.59998 7.46641V7.33307C9.59998 7.19974 9.59998 7.06641 9.73332 6.93307C9.79998 6.93307 9.73332 6.79974 9.86665 6.73307C9.79998 6.73307 9.86665 6.66641 9.86665 6.59974V6.33307C9.99998 6.33307 10.0666 6.19974 10.0666 6.06641C10.0666 5.93307 10.0667 5.79974 10.2 5.73307L10.4 5.46641C10.4 5.39974 10.4 5.39974 10.4 5.46641V5.33307C10.4 5.33307 10.4667 5.26641 10.4 5.19974C10.6666 5.13307 10.6666 4.79974 10.8666 4.66641L11.0666 4.46641C11.0666 4.33307 11.2666 4.19974 11.3333 4.13307L11.6 4.06641C11.6 4.06641 11.8 4.06641 11.7333 3.93307L11.9333 3.86641L12.0666 3.73307H12.1333L12.6666 3.59974H12.9333C13.0666 3.59974 13 3.66641 13.0666 3.73307L13.4 3.86641V3.93307C13.6 4.13307 13.6666 4.13307 13.4 3.93307L13.6666 4.19974C13.8 4.33307 13.8666 4.59974 14.0666 4.73307C13.9333 4.86641 14.2666 5.06641 14.2666 5.19974V5.33307C14.4 5.33307 14.2666 5.46641 14.4 5.53307V5.59974L14.5333 5.79974L14.6 6.19974L14.6666 6.39974V6.79974L14.7333 6.99974V7.53307L14.8666 7.99974V8.66641C15 8.79974 15 8.79974 14.8666 8.66641V8.26641V8.59974L15 8.99974H15.0666C15.1333 9.06641 15.2666 9.19974 15.3333 9.13307H15.8L16.0666 9.19974H16.2666C16.2666 9.19974 16.2666 9.33307 16.4 9.2664L16.9333 9.33307L17.2 9.46641C17.4 9.59974 17.7333 9.66641 17.8666 9.86641H18V9.99974C18.2 9.99974 18.2666 10.1997 18.4 10.1997C18.6 10.1997 18.6666 10.3997 18.8 10.4664L19.1333 10.7331C19.2 10.8664 19.1333 11.0664 19.4 10.9997L19.5333 11.4664C19.7333 11.6664 19.7333 11.6664 19.5333 11.4664V11.5997L19.6666 11.8664C19.6666 11.9997 19.8 12.0664 19.8666 12.1997H19.7333V12.3997L19.8666 12.5331V12.7331L20 12.9331C20 13.0664 20 13.1997 20.1333 13.1997C19.9333 13.1997 20.1333 13.4664 20.1333 13.4664C20.1333 13.6664 20.1333 13.7331 20.1333 13.4664V13.6664C20 13.7997 20.2 13.9331 20.1333 14.0664V14.1997C20.1333 14.1331 20.1333 14.1331 20.1333 14.1997V14.6664C20.2 14.6664 20.2 14.6664 20.1333 14.7331V15.0664L20.2666 15.3331V15.5997C20.2666 15.5997 20.2 15.6664 20.2666 15.7331V15.7997C20.2666 15.9331 20.2666 15.9331 20.2666 15.7997H20.2L20.2666 15.9331V16.3331H20.3333Z" fill="black"/>
<path d="M12.9999 4.66675H12.8666L12.6666 4.73341L12.5333 5.00008L12.5999 5.20008H12.7333L12.9999 5.26675L13.1999 5.06675V4.80008C13.0666 4.80008 13.0666 4.66675 12.9999 4.66675ZM11.7999 4.66675H11.5333C11.3333 4.73341 11.3333 4.86675 11.3333 5.00008V5.13341L11.6666 5.26675H11.7333L11.8666 5.20008V5.06675C11.9333 5.00008 11.9999 4.93341 11.9333 4.80008L11.8666 4.66675H11.7999Z" fill="black"/>
</svg>
