<svg width="24" height="24" viewBox="0 0 24 24" fill="none" xmlns="http://www.w3.org/2000/svg">
<path d="M0 12C0 18.6274 5.37258 24 12 24C18.6274 24 24 18.6274 24 12C24 5.37258 18.6274 0 12 0C5.37258 0 0 5.37258 0 12Z" fill="url(#paint0_linear_11314_657)"/>
<path d="M5 5.69361C5 5.25081 5.41265 4.92411 5.8516 5.01536L15.7337 7.07396C16.4821 7.22951 16.4821 8.27696 15.7337 8.43146L5.8516 10.4838C5.4116 10.5751 5 10.2484 5 9.80456V5.69361ZM5 14.1945C5 13.7506 5.41265 13.4249 5.8516 13.5152L15.7337 15.5738C16.4821 15.7293 16.4821 16.7768 15.7337 16.9313L5.8516 18.9847C5.4116 19.0759 5 18.7492 5 18.3054V14.1945ZM18.1485 14.713C18.5885 14.8042 19 14.4724 19 14.0337V9.97046C19 9.52661 18.5874 9.20096 18.1485 9.29121L8.29895 11.3238C7.55055 11.4794 7.55055 12.532 8.29895 12.6814L18.1485 14.713Z" fill="white"/>
<defs>
<linearGradient id="paint0_linear_11314_657" x1="24" y1="12" x2="0" y2="12" gradientUnits="userSpaceOnUse">
<stop stop-color="#7856FF"/>
<stop offset="0.580153" stop-color="#3492CF"/>
<stop offset="1" stop-color="#2BDA9B"/>
</linearGradient>
</defs>
</svg>
