<svg width="24" height="24" viewBox="0 0 24 24" fill="none" xmlns="http://www.w3.org/2000/svg">
<path d="M24 12C24 5.37258 18.6274 0 12 0C5.37258 0 0 5.37258 0 12C0 18.6274 5.37258 24 12 24C18.6274 24 24 18.6274 24 12Z" fill="white"/>
<path fill-rule="evenodd" clip-rule="evenodd" d="M5.2211 4.69388L8.8751 5.52253C8.9201 5.53093 8.9511 5.57028 8.9511 5.61518V18.4573C8.9511 18.5023 8.9176 18.5443 8.8726 18.5528L5.2181 19.3058C5.1566 19.3198 5.1001 19.2718 5.1001 19.2103V4.78938C5.1001 4.72758 5.1591 4.67983 5.2211 4.69388ZM18.7796 4.69388L15.1251 5.52253C15.0801 5.53093 15.0491 5.57028 15.0491 5.61518V18.4573C15.0491 18.5023 15.0831 18.5443 15.1281 18.5528L18.7821 19.3058C18.8441 19.3198 18.9001 19.2718 18.9001 19.2103V4.78938C18.9001 4.72758 18.8411 4.67983 18.7796 4.69388ZM13.9256 10.1123V13.7947V13.879H13.8416H10.1591H10.0746V13.7947V10.1123V10.028H10.1591H13.8416H13.9256V10.1123Z" fill="url(#paint0_linear_10156_5414)"/>
<path fill-rule="evenodd" clip-rule="evenodd" d="M8.5596 5.85238L5.4916 5.15673V18.8498L8.5596 18.2178V5.85238ZM15.4406 5.85238V18.2178L18.5086 18.8498V5.15673L15.4406 5.85238ZM8.8751 5.52253C8.9201 5.53093 8.9511 5.57028 8.9511 5.61518V18.4573C8.9511 18.5023 8.9176 18.5443 8.8726 18.5528L5.2181 19.3058C5.1566 19.3198 5.1001 19.2718 5.1001 19.2103V4.78938C5.1001 4.72758 5.1591 4.67983 5.2211 4.69388L8.8751 5.52253ZM18.7821 19.3058L15.1281 18.5528C15.0831 18.5443 15.0491 18.5023 15.0491 18.4573V5.61518C15.0491 5.57028 15.0801 5.53093 15.1251 5.52253L18.7796 4.69388C18.8411 4.67983 18.9001 4.72758 18.9001 4.78938V19.2103C18.9001 19.2718 18.8441 19.3198 18.7821 19.3058ZM13.5341 13.4875V10.4195H10.4661V13.4875H13.5341ZM10.0746 13.879V10.028H13.9256V13.879H10.0746Z" fill="black"/>
<defs>
<linearGradient id="paint0_linear_10156_5414" x1="16.5681" y1="4.69143" x2="16.4376" y2="19.3083" gradientUnits="userSpaceOnUse">
<stop offset="0.055"/>
<stop offset="0.4999" stop-color="#808080"/>
<stop offset="0.5"/>
<stop offset="0.97" stop-color="#666666"/>
</linearGradient>
</defs>
</svg>
