
<svg xmlns="http://www.w3.org/2000/svg" width="24" height="24" viewBox="0 0 24 24" fill="none"><script xmlns="" id="argent-x-extension" data-extension-id="dlcobpjiigpikoobohmabehhmhfoodbb"/>
<g>
<path d="M14.3 -0.000110953C14.18 -0.020111 14.06 0.059889 14.04 0.179889L12.56 8.77989H11.44L9.96 0.179889C9.94 0.059889 9.82 -0.020111 9.7 -0.000110953C4.4 1.03989 0.34 5.63989 0.02 11.2399C0.02 11.2399 0 11.4799 0 11.5999C0 11.6199 0 11.6199 0 11.6399C0 11.6799 0 11.7199 0 11.7799C0 11.7999 0 11.7999 0 11.8399C0 11.8999 0 11.9599 0 12.0199C0 17.9599 4.18 22.9199 9.7 24.0199C9.82 24.0399 9.94 23.9599 9.96 23.8399L11.44 15.2399H12.56L14.04 23.8599C14.06 23.9799 14.18 24.0599 14.3 24.0399C19.58 22.9799 23.64 18.3999 23.98 12.7999C23.98 12.7999 24 12.5599 24 12.4399C24 12.4199 24 12.4199 24 12.3999C24 12.3599 24 12.3199 24 12.2599C24 12.2399 24 12.2399 24 12.1999C24 12.1399 24 12.0799 24 12.0199C24 6.03989 19.84 1.09989 14.3 -0.000110953Z" fill="#FF6C15"/>
</g>
</svg>
