<svg width="24" height="24" viewBox="0 0 24 24" fill="none" xmlns="http://www.w3.org/2000/svg">
<path d="M0 12C0 18.6274 5.37258 24 12 24C18.6274 24 24 18.6274 24 12C24 5.37258 18.6274 0 12 0C5.37258 0 0 5.37258 0 12Z" fill="#121212"/>
<path d="M15.5387 17.9973H6V7.94678H8.18247V16.0495H15.5387V17.9963V17.9973Z" fill="white"/>
<path d="M15.5386 9.89355C16.6137 9.89355 17.4853 9.02195 17.4853 7.94678C17.4853 6.8716 16.6137 6 15.5386 6C14.4633 6 13.5918 6.8716 13.5918 7.94678C13.5918 9.02195 14.4633 9.89355 15.5386 9.89355Z" fill="white"/>
</svg>
