<svg width="24" height="24" viewBox="0 0 24 24" fill="none" xmlns="http://www.w3.org/2000/svg"><g><rect width="24" height="24" rx="12" fill="#fff"/><path fill-rule="evenodd" clip-rule="evenodd" d="M5.58 20.606A10.72 10.72 0 0 1 1.262 12C1.263 6.07 6.07 1.263 12 1.263c4.894 0 10.238 2.925 11.53 7.404C22.087 3.662 17.473 0 12 0 5.373 0 0 5.373 0 12s5.373 12 12 12 12-5.373 12-12v-.632h-.747a21.577 21.577 0 0 1-1.449-.075c-.9-.08-1.927-.232-2.626-.512-1.125-.449-1.76-1.045-2.486-1.742L16.65 9c-.727-.699-1.544-1.483-2.96-2.15-1.395-.656-2.937-.55-4.07-.317a10.319 10.319 0 0 0-1.832.562c-.57.24-1.124.524-1.684.788a73.87 73.87 0 0 0 1.732.499 6.356 6.356 0 0 1 1.375.657c.586.376 1.072.85 1.27 1.432-1.243.163-2.41.71-3.281 1.223a13.438 13.438 0 0 0-1.639 1.139c-.07.058-1.194 1.048-1.194 1.048s1.449.154 2.164.298c.475.096 1.117.25 1.785.483.672.235 1.35.542 1.914.935.564.394.978.85 1.182 1.371.594 1.518.011 2.997-1.16 3.83-1.156.821-2.914 1.017-4.673-.19zm4.094 1.878c.468-.152.91-.374 1.31-.658 1.593-1.132 2.431-3.206 1.604-5.32-.325-.83-.945-1.464-1.635-1.946-.69-.482-1.485-.835-2.22-1.091-.484-.169-.951-.3-1.36-.398.153-.1.309-.197.467-.29.972-.572 2.196-1.097 3.37-1.097 1.77 0 3.088.543 4.347 1.126l.344.16c1.125.528 2.306 1.083 3.678 1.083 1.33 0 2.367-.377 3.081-.766-.636 5.323-5.166 9.45-10.66 9.45-.799 0-1.577-.087-2.326-.253zm11.622-9.973a5.289 5.289 0 0 1-1.717.279c-1.076 0-2.001-.432-3.175-.98l-.317-.146c-1.175-.545-2.535-1.122-4.306-1.226-.237-1.172-1.126-1.973-1.887-2.463a6.731 6.731 0 0 0-.253-.155c.076-.017.154-.035.233-.051 1.023-.21 2.244-.263 3.278.223 1.227.578 1.92 1.243 2.64 1.935l.025.023c.74.712 1.525 1.458 2.892 2.004.76.304 1.743.467 2.587.557z" fill="url(#b)"/></g><defs><linearGradient id="b" x1="0" y1="24" x2="24.43" y2="23.554" gradientUnits="userSpaceOnUse"><stop stop-color="#29CCB9"/><stop offset=".495" stop-color="#0091FF"/><stop offset="1" stop-color="#FF66B7"/></linearGradient></defs></svg>
