<svg width="24" height="24" viewBox="0 0 24 24" fill="none" xmlns="http://www.w3.org/2000/svg"><g><path d="M12 24c6.627 0 12-5.373 12-12S18.627 0 12 0 0 5.373 0 12s5.373 12 12 12z" fill="#000"/><path fill-rule="evenodd" clip-rule="evenodd" d="m12.958 5.9.477-3.071A9.405 9.405 0 0 0 12 2.719h-.008v6.265H12c.264 0 .525.034.777.1l.81-3.052a6.247 6.247 0 0 0-.629-.132zM10.49 9.388 8.93 6.702a6.22 6.22 0 0 0-.535.348L6.533 4.499a9.34 9.34 0 0 1 1.24-.764L9.19 6.501c.287-.146.586-.27.892-.371l-.964-2.955a9.27 9.27 0 0 1 1.417-.341l.496 3.119c-.21.033-.418.08-.624.134l.807 3c-.253.067-.497.17-.724.301zM3.724 7.794 6.54 9.227a6.12 6.12 0 0 0-.366.887l-3.006-.972c.15-.461.337-.915.557-1.348zm13.572 1.133-2.685 1.56c.132.228.233.472.301.725l3-.808c.055.206.1.414.134.623l3.119-.496a9.215 9.215 0 0 0-.342-1.417l-2.954.965a6.14 6.14 0 0 0-.372-.892l2.765-1.42a9.269 9.269 0 0 0-.764-1.238l-2.55 1.863c.125.171.24.35.347.535zM16.2 3.722zm-1.348-.556c.462.149.915.335 1.348.556l-1.43 2.815a6.087 6.087 0 0 0-.888-.366l.97-3.006zm.227 3.481-1.577 2.737c.229.132.439.293.627.48l4.422-4.438a9.305 9.305 0 0 0-1.107-.944L15.62 6.997a6.054 6.054 0 0 0-.54-.35zm-5.694 3.849L6.65 8.917c.107-.185.224-.365.35-.54L4.485 6.554c.284-.392.602-.765.944-1.107L9.865 9.87a3.04 3.04 0 0 0-.48.626zm-3.352-.087 3.052.813c-.067.252-.101.513-.101.778H2.719a9.4 9.4 0 0 1 .111-1.44l3.071.479c.033-.212.077-.422.132-.63zm11.428 4.364 2.815 1.433a9.23 9.23 0 0 0 .557-1.348l-3.006-.972a6.135 6.135 0 0 1-.366.887zm-3.95-.161 1.559 2.686c.184-.107.363-.222.535-.347l1.862 2.55a9.334 9.334 0 0 1-1.24.764L14.81 17.5a6.215 6.215 0 0 1-.893.37l.965 2.955c-.461.15-.938.266-1.418.342l-.495-3.12c.21-.033.418-.08.624-.134l-.807-3a3.01 3.01 0 0 0 .724-.301zm-6.807.46 2.685-1.56a2.982 2.982 0 0 1-.301-.724l-3 .808a6.182 6.182 0 0 1-.134-.623l-3.12.496c.077.48.192.957.343 1.418l2.954-.966c.1.306.224.605.371.892l-2.765 1.42c.221.43.478.846.764 1.238l2.55-1.863a6.076 6.076 0 0 1-.347-.535zM7.8 20.279zm0 0c.434.22.887.407 1.349.556l.97-3.005a6.087 6.087 0 0 1-.888-.366L7.8 20.278zm1.121-2.925h.001zm0 0 1.578-2.737a3.036 3.036 0 0 1-.627-.48L5.45 18.575c.343.342.716.66 1.108.944l1.824-2.515c.174.126.354.242.54.35zm5.695-3.849 2.737 1.579a6.248 6.248 0 0 1-.351.54l2.514 1.825a9.353 9.353 0 0 1-.944 1.107l-4.436-4.425c.187-.187.349-.398.48-.626zm-3.392 1.412zm0 0-.81 3.052c.207.055.417.099.628.132l-.476 3.071c.471.073.954.11 1.434.11h.008v-6.265h-.008a3.03 3.03 0 0 1-.776-.1zm3.692-2.138c.067-.251.101-.513.101-.777h6.265c0 .482-.037.966-.111 1.44l-3.07-.48a6.072 6.072 0 0 1-.132.63l-3.053-.813z" fill="#fff"/></g></svg>
