<?xml version="1.0" encoding="UTF-8"?>
<svg width="24px" height="24px" viewBox="0 0 24 24" version="1.1" xmlns="http://www.w3.org/2000/svg" xmlns:xlink="http://www.w3.org/1999/xlink">
    <g stroke="none" stroke-width="1" fill="none" fill-rule="evenodd">
        <g transform="translate(-223.000000, -266.000000)">
            <g transform="translate(18.000000, 132.000000)">
                <g transform="translate(20.000000, 41.000000)">
                    <g transform="translate(156.000000, 82.000000)">
                        <g transform="translate(29.000000, 11.000000)">
                            <g>
                                <circle fill="#8247E5" fill-rule="nonzero" cx="12" cy="12" r="12"></circle>
                                <path d="M8.01148,5.30068 C8.25312,5.16644 8.54688,5.16644 8.78852,5.30068 L12.38852,7.30068 C12.64248,7.44176 12.8,7.70948 12.8,8 L12.8,9.30068 L11.2,10.2 L11.2,8.47072 L8.4,6.91516 L5.6,8.47072 L5.6,11.52928 L8.4,13.08484 L15.21148,9.30068 C15.45312,9.16644 15.74688,9.16644 15.98852,9.30068 L19.58852,11.30068 C19.84248,11.44176 20,11.70948 20,12 L20,16 C20,16.29052 19.84248,16.55824 19.58852,16.69932 L15.98852,18.69932 C15.74688,18.83356 15.45312,18.83356 15.21148,18.69932 L11.61148,16.69932 C11.35752,16.55824 11.2,16.29052 11.2,16 L11.2,14.69932 L12.8,13.8 L12.8,15.52928 L15.6,17.08484 L18.4,15.52928 L18.4,12.47072 L15.6,10.91516 L8.78852,14.69932 C8.54688,14.83356 8.25312,14.83356 8.01148,14.69932 L4.41148,12.69932 C4.15752,12.55824 4,12.29052 4,12 L4,8 C4,7.70948 4.15752,7.44176 4.41148,7.30068 L8.01148,5.30068 Z" fill="#FFFFFF"></path>
                            </g>
                        </g>
                    </g>
                </g>
            </g>
        </g>
    </g>
</svg>
