<svg width="24" height="24" fill="none" viewBox="0 0 24 24" xmlns="http://www.w3.org/2000/svg"><path d="m22.289 16.217.002-13.915C22.27 1.137 21.348.2 20.18.2H5.657A5.758 5.758 0 0 0 0 5.96c0 1.063.284 1.969.721 2.763.365.662.944 1.286 1.518 1.756.157.128.083.08.576.383.68.417 1.46.624 1.46.624l-.006 8.322c.016.393.06.771.158 1.123a3.721 3.721 0 0 0 2.243 2.51 4.29 4.29 0 0 0 1.541.31l11.6.043A4.192 4.192 0 0 0 24 19.599a4.191 4.191 0 0 0-1.709-3.38l-.002-.002z" fill="#FFEEDA"/><path d="M22.57 19.688a2.764 2.764 0 0 1-2.761 2.675l-7.985-.031a4.165 4.165 0 0 0 1.022-2.736c0-1.639-.977-2.766-.977-2.766h7.94a2.764 2.764 0 0 1 2.762 2.767v.09h-.001z" fill="#EBC28E"/><path d="M2.992 9.295C2.076 8.427 1.426 7.3 1.426 5.959l.002-.142c.074-2.28 1.951-4.114 4.228-4.186h14.523c.38.012.686.286.686.671v12.285c.336.061.496.102.818.22.252.09.61.293.61.293V2.302C22.27 1.137 21.349.2 20.18.2H5.657A5.758 5.758 0 0 0 0 5.96c0 1.828.832 3.386 2.198 4.484.091.073.181.168.426.167.428 0 .728-.337.71-.71-.015-.306-.144-.42-.342-.607z" fill="#190602"/><path d="M19.809 15.403H8.417a1.396 1.396 0 0 0-1.383 1.395v1.633c.021.757.666 1.406 1.428 1.406h.847V18.43h-.847v-1.599h.461c1.438 0 2.496 1.339 2.496 2.767 0 1.264-1.152 2.887-3.086 2.756-1.718-.115-2.64-1.64-2.639-2.756V5.714c0-.628-.509-1.137-1.136-1.137H3.422v1.417h.845v13.603c-.043 2.766 1.97 4.16 4.067 4.16l11.474.034a4.192 4.192 0 0 0 4.189-4.195 4.192 4.192 0 0 0-4.19-4.195l.002.002zm2.76 4.286a2.764 2.764 0 0 1-2.76 2.675l-7.985-.03a4.165 4.165 0 0 0 1.022-2.736c0-1.64-.977-2.767-.977-2.767h7.94a2.764 2.764 0 0 1 2.762 2.767v.091h-.001zM16.743 4.833H8.157V6.25h8.587a.709.709 0 0 0 0-1.417z" fill="#190602"/><path d="M16.743 11.52H8.157v1.416h8.587a.709.709 0 0 0 0-1.416zM18.255 8.177H8.157v1.417h10.098a.709.709 0 0 0 0-1.417z" fill="#190602"/></svg>