<svg width="16" height="14" viewBox="0 0 16 14" fill="none" xmlns="http://www.w3.org/2000/svg">
<g id="Solana Logomark - Color 1" clip-path="url(#clip0_1263_3708)">
<g id="Clip path group">
<mask id="mask0_1263_3708" style="mask-type:luminance" maskUnits="userSpaceOnUse" x="0" y="0" width="16" height="14">
<g id="clip0_476_2430">
<path id="Vector" d="M15.0122 0.700195H0.980469V13.2723H15.0122V0.700195Z" fill="white"/>
</g>
</mask>
<g mask="url(#mask0_1263_3708)">
<g id="Group">
<path id="Vector_2" d="M14.9399 10.6124L12.6236 13.101C12.5732 13.1551 12.5123 13.1982 12.4446 13.2276C12.3769 13.2571 12.3039 13.2723 12.2301 13.2723H1.24938C1.19699 13.2723 1.14573 13.2569 1.10192 13.2281C1.05811 13.1994 1.02364 13.1584 1.00276 13.1103C0.981871 13.0621 0.975479 13.0089 0.984364 12.9572C0.993249 12.9054 1.01703 12.8574 1.05277 12.8191L3.37088 10.3304C3.4211 10.2765 3.48183 10.2335 3.54931 10.204C3.6168 10.1745 3.68959 10.1593 3.76321 10.1592H14.7433C14.7957 10.1592 14.8469 10.1745 14.8907 10.2033C14.9346 10.2321 14.969 10.2731 14.9899 10.3212C15.0108 10.3693 15.0172 10.4226 15.0083 10.4743C14.9994 10.526 14.9757 10.574 14.9399 10.6124ZM12.6236 5.60092C12.5732 5.54685 12.5123 5.50376 12.4446 5.4743C12.3769 5.44484 12.3039 5.42963 12.2301 5.42968H1.24938C1.19699 5.42968 1.14573 5.44501 1.10192 5.4738C1.05811 5.50259 1.02364 5.54357 1.00276 5.59169C0.981871 5.63984 0.975479 5.69302 0.984364 5.74477C0.993249 5.79651 1.01703 5.84449 1.05277 5.88288L3.37088 8.37153C3.4211 8.42548 3.48183 8.46848 3.54931 8.49794C3.6168 8.5274 3.68959 8.54264 3.76321 8.54278H14.7433C14.7957 8.54278 14.8469 8.52744 14.8907 8.49865C14.9346 8.46987 14.969 8.42888 14.9899 8.38072C15.0108 8.33261 15.0172 8.27939 15.0083 8.22769C14.9994 8.17594 14.9757 8.12796 14.9399 8.08958L12.6236 5.60092ZM1.24938 3.81328H12.2301C12.3039 3.81331 12.3769 3.79814 12.4446 3.76868C12.5123 3.73922 12.5732 3.69612 12.6236 3.64206L14.9399 1.15339C14.9757 1.11501 14.9994 1.06701 15.0083 1.01528C15.0172 0.963555 15.0108 0.910353 14.9899 0.862215C14.969 0.814077 14.9346 0.773099 14.8907 0.744315C14.8469 0.715532 14.7957 0.700197 14.7433 0.700195H3.76321C3.68959 0.700321 3.6168 0.715582 3.54931 0.745033C3.48183 0.774485 3.4211 0.8175 3.37088 0.871415L1.05337 3.36008C1.01766 3.39842 0.993892 3.44637 0.984986 3.49804C0.976081 3.54971 0.982422 3.60287 1.00323 3.65099C1.02404 3.6991 1.05842 3.74008 1.10214 3.76891C1.14587 3.79774 1.19704 3.81316 1.24938 3.81328Z" fill="url(#paint0_linear_1263_3708)"/>
</g>
</g>
</g>
</g>
<defs>
<linearGradient id="paint0_linear_1263_3708" x1="2.16491" y1="13.5719" x2="13.7031" y2="0.588288" gradientUnits="userSpaceOnUse">
<stop offset="0.08" stop-color="#9945FF"/>
<stop offset="0.3" stop-color="#8752F3"/>
<stop offset="0.5" stop-color="#5497D5"/>
<stop offset="0.6" stop-color="#43B4CA"/>
<stop offset="0.72" stop-color="#28E0B9"/>
<stop offset="0.97" stop-color="#19FB9B"/>
</linearGradient>
<clipPath id="clip0_1263_3708">
<rect width="14.0349" height="12.6" fill="white" transform="translate(0.980469 0.700195)"/>
</clipPath>
</defs>
</svg>
