<svg xmlns="http://www.w3.org/2000/svg" width="24" height="24" viewBox="0 0 24 24" fill="none">
  <g clip-path="url(#clip0_1445_27)">
    <circle cx="12" cy="12" r="11.7188" fill="#E8FBF7" />
    <path fill-rule="evenodd" clip-rule="evenodd"
      d="M11.1156 0.00697373C11.0422 0.015439 10.819 0.0405682 10.6198 0.0628755C10.4205 0.0851827 10.103 0.128844 9.91416 0.15996C9.72544 0.191038 9.33574 0.276034 9.04824 0.34879C8.76076 0.421546 8.29736 0.560309 8.01849 0.657127C7.73962 0.753982 7.27974 0.938962 6.99657 1.06822C6.71339 1.1975 6.25 1.43804 5.96683 1.60273C5.68365 1.76745 5.34039 1.97944 5.20404 2.07381C5.06771 2.16815 4.77594 2.38436 4.5557 2.55424C4.33544 2.72412 3.87098 3.14632 3.52362 3.49249C3.17621 3.83864 2.76257 4.2849 2.6044 4.48414C2.44624 4.68338 2.20208 5.0157 2.06183 5.22265C1.9216 5.42959 1.70142 5.78137 1.57255 6.00435C1.44365 6.22735 1.24479 6.60715 1.13064 6.84833C1.01649 7.08952 0.84994 7.47561 0.760543 7.70631C0.671146 7.93701 0.528355 8.36846 0.443229 8.66514C0.358103 8.96177 0.245785 9.42506 0.193573 9.69469C0.141361 9.96431 0.0760297 10.3651 0.0483791 10.5852C0.0171435 10.8343 -0.00116303 11.3823 5.74109e-05 12.0343C0.00154482 12.8156 0.0190122 13.2044 0.0686307 13.5595C0.105245 13.8217 0.186479 14.2679 0.249142 14.551C0.311766 14.8342 0.425228 15.2717 0.5012 15.5234C0.577173 15.775 0.711497 16.1612 0.799673 16.3813C0.887851 16.6015 1.02424 16.9191 1.10268 17.0868C1.18117 17.2546 1.33979 17.5634 1.45524 17.7732C1.57064 17.9829 1.80608 18.369 1.97843 18.6312C2.15074 18.8932 2.43571 19.288 2.61169 19.5082C2.78762 19.7284 3.18975 20.1668 3.50527 20.4823C3.82079 20.798 4.25917 21.1989 4.47941 21.3736C4.69966 21.5482 5.09439 21.8331 5.3566 22.0068C5.6188 22.1803 6.05767 22.4427 6.33181 22.5897C6.60599 22.7368 6.89775 22.8862 6.98017 22.9218C7.06263 22.9574 7.34459 23.0721 7.60679 23.1766C7.86899 23.2811 8.24657 23.4152 8.44583 23.4746C8.64512 23.534 8.95152 23.619 9.12673 23.6636C9.30198 23.7081 9.68812 23.7854 9.98484 23.8355C10.2816 23.8855 10.8076 23.9469 11.1537 23.972C11.5251 23.9988 12.033 24.0075 12.3932 23.9932C12.7288 23.9797 13.1579 23.9509 13.3466 23.9289C13.5354 23.907 13.8788 23.8548 14.1095 23.8129C14.3402 23.7709 14.7006 23.694 14.9104 23.6418C15.1201 23.5896 15.4548 23.4952 15.6541 23.4319C15.8533 23.3686 16.2138 23.2395 16.455 23.1448C16.6961 23.0503 17.1363 22.8471 17.4328 22.693C17.7293 22.5392 18.1469 22.3044 18.3608 22.1715C18.5745 22.0385 18.9441 21.7838 19.1818 21.6055C19.4196 21.4272 19.8041 21.1109 20.0364 20.9024C20.2687 20.694 20.5936 20.3765 20.7581 20.1969C20.9228 20.0174 21.2054 19.6866 21.3862 19.4618C21.5669 19.237 21.8419 18.8596 21.9972 18.623C22.1527 18.3863 22.3708 18.0308 22.4821 17.8328C22.5934 17.6348 22.7936 17.2342 22.927 16.9426C23.0604 16.6509 23.2388 16.2124 23.3233 15.9679C23.4079 15.7234 23.5433 15.2661 23.6243 14.9514C23.7053 14.6369 23.8072 14.1455 23.8507 13.8594C23.8942 13.5735 23.9498 13.0374 23.9744 12.6683C24.0086 12.1537 24.0086 11.839 23.974 11.3198C23.9492 10.9473 23.8949 10.4194 23.8535 10.1468C23.812 9.87413 23.7172 9.40641 23.6427 9.10744C23.5684 8.80844 23.4382 8.36229 23.3532 8.11599C23.2683 7.8697 23.1297 7.50516 23.045 7.30592C22.9603 7.10668 22.8156 6.793 22.7232 6.60891C22.6309 6.4248 22.441 6.08165 22.3013 5.84641C22.1617 5.61114 21.9445 5.27275 21.8188 5.0944C21.6929 4.91606 21.4433 4.58996 21.2641 4.36975C21.0847 4.14953 20.7402 3.771 20.4985 3.52852C20.2568 3.28607 19.9132 2.96755 19.7348 2.82074C19.5566 2.6739 19.2991 2.46901 19.1629 2.36541C19.0265 2.2618 18.7691 2.08079 18.5907 1.96314C18.4124 1.84548 18.1276 1.66969 17.9579 1.57245C17.7882 1.47521 17.402 1.27732 17.0997 1.13259C16.7976 0.987919 16.3323 0.790703 16.0658 0.694382C15.7993 0.598022 15.3532 0.460098 15.0742 0.387837C14.7952 0.315577 14.4298 0.229895 14.262 0.197406C14.0942 0.164917 13.7596 0.111304 13.5183 0.078281C13.2574 0.0425512 12.7088 0.012846 12.1643 0.00491455C11.6609 -0.00236869 11.1891 -0.00145349 11.1156 0.00697373ZM13.3657 1.54747C13.649 1.58709 14.0437 1.65585 14.243 1.70027C14.4422 1.74473 14.7511 1.82211 14.9294 1.87228C15.1077 1.92242 15.3652 2.00543 15.5016 2.05676L15.7494 2.15007L15.7598 3.05708C15.7653 3.55597 15.755 3.97904 15.7367 3.99727C15.7179 4.01607 15.5234 3.98972 15.2879 3.93649C15.0592 3.88482 14.752 3.824 14.6052 3.80132C14.4584 3.77863 14.1838 3.74171 13.995 3.71929C13.8062 3.69686 13.3343 3.67849 12.9462 3.67849C12.5582 3.67844 12.0776 3.69752 11.8784 3.72082C11.6791 3.74411 11.3358 3.79853 11.1156 3.84173C10.8953 3.8849 10.5036 3.98919 10.2452 4.07346C9.98672 4.15774 9.54056 4.34298 9.25358 4.48513C8.96666 4.62725 8.57741 4.85245 8.38864 4.98562C8.19984 5.11877 7.86484 5.40789 7.64417 5.62811C7.42349 5.84831 7.15507 6.14666 7.04764 6.2911C6.94024 6.43555 6.77479 6.68437 6.67998 6.84403C6.58521 7.00369 6.44455 7.28712 6.3674 7.47385C6.29028 7.66058 6.1859 7.9952 6.13547 8.21743C6.0661 8.52309 6.04383 8.73291 6.04394 9.07906C6.04405 9.37997 6.06874 9.65419 6.11599 9.87984C6.15549 10.0686 6.24688 10.3617 6.31899 10.5312C6.39115 10.7007 6.50805 10.9238 6.57876 11.027C6.6495 11.1301 6.78533 11.2984 6.88056 11.4009C6.97583 11.5035 7.14504 11.655 7.25656 11.7376C7.36811 11.8204 7.58314 11.9468 7.7344 12.0186C7.88566 12.0904 8.12906 12.1745 8.27532 12.2055C8.42154 12.2364 8.70701 12.2621 8.90968 12.2624C9.11236 12.2628 9.40416 12.239 9.558 12.2095C9.71194 12.1801 9.94941 12.1184 10.0856 12.0725C10.2218 12.0266 10.4611 11.9293 10.6172 11.8562C10.7732 11.7832 11.3654 11.4561 11.9331 11.1294C12.5008 10.8027 13.1712 10.4152 13.4229 10.2683C13.6747 10.1215 13.9624 9.95259 14.0623 9.89288C14.1623 9.83325 14.2516 9.7845 14.2608 9.7845C14.27 9.7845 14.4456 9.68428 14.6512 9.56184C14.8567 9.43941 15.265 9.20085 15.5588 9.03178C15.8524 8.86267 16.9593 8.22299 18.0187 7.61029C19.0779 6.99755 20.1025 6.40383 20.2955 6.29096C20.4884 6.17805 20.6632 6.08569 20.6841 6.08569C20.7049 6.08569 20.8145 6.23586 20.9275 6.41935C21.0406 6.60288 21.2291 6.93319 21.3463 7.15339C21.4636 7.37361 21.6233 7.70822 21.7012 7.89697C21.7791 8.08572 21.9018 8.4116 21.9741 8.62117C22.0462 8.83072 22.1552 9.20822 22.2159 9.46003C22.2767 9.71194 22.3523 10.0689 22.384 10.2534C22.4156 10.4379 22.4612 10.7894 22.4852 11.0347C22.5113 11.3031 22.5204 11.7996 22.508 12.2818C22.4966 12.7223 22.4591 13.2631 22.4248 13.4833C22.3905 13.7035 22.3188 14.0811 22.2654 14.3222C22.2121 14.5634 22.1168 14.9238 22.0538 15.123C21.9907 15.3222 21.8565 15.6912 21.7558 15.9428C21.6551 16.1946 21.4665 16.6063 21.3366 16.858C21.2067 17.1097 20.9584 17.5301 20.7847 17.7922C20.6109 18.0545 20.3516 18.4147 20.2083 18.593C20.0649 18.7713 19.7668 19.1033 19.5457 19.3309C19.3246 19.5584 19.0064 19.8607 18.8386 20.0025C18.6708 20.1443 18.3933 20.3654 18.2217 20.4938C18.0502 20.6221 17.7084 20.8488 17.4623 20.9974C17.2162 21.146 16.8846 21.333 16.7254 21.4128C16.5662 21.4928 16.2728 21.6272 16.0735 21.7117C15.8743 21.7961 15.5311 21.9253 15.3108 21.9987C15.0906 22.0721 14.6958 22.1842 14.4337 22.2478C14.1714 22.3114 13.7596 22.3945 13.5183 22.4324C13.1671 22.4876 12.8592 22.5011 11.9737 22.5C11.0147 22.4987 10.7992 22.4872 10.3529 22.4136C10.0698 22.367 9.615 22.2696 9.34222 22.1971C9.06945 22.1246 8.71968 22.0222 8.56491 21.9695C8.41014 21.9168 8.25996 21.8542 8.23119 21.8302C8.18958 21.7957 8.17886 21.6041 8.17886 20.8954C8.17886 20.0602 8.18322 20.0039 8.24798 20.0039C8.28596 20.0039 8.44474 20.0368 8.60076 20.0769C8.75678 20.1173 9.04748 20.1771 9.24675 20.2103C9.44606 20.2432 9.78066 20.2883 9.99047 20.3105C10.2002 20.3325 10.6894 20.351 11.0774 20.3512C11.5138 20.3516 11.9575 20.3285 12.2407 20.2906C12.4924 20.2568 12.8785 20.1885 13.0988 20.1387C13.3191 20.0889 13.6881 19.9808 13.9188 19.8983C14.1495 19.8158 14.4413 19.6996 14.5671 19.6401C14.693 19.5805 14.9386 19.4495 15.1129 19.3488C15.2872 19.2482 15.5618 19.067 15.723 18.9462C15.8843 18.8254 16.1489 18.6002 16.3111 18.4458C16.4733 18.2913 16.7319 17.9995 16.8857 17.7974C17.0395 17.5955 17.2338 17.3098 17.3174 17.1631C17.401 17.0163 17.5308 16.7492 17.606 16.5697C17.681 16.3902 17.7823 16.0899 17.831 15.9024C17.9071 15.6098 17.9195 15.4697 17.919 14.9132C17.9183 14.3192 17.9096 14.2371 17.8156 13.9299C17.7593 13.7456 17.6513 13.4722 17.5757 13.3223C17.5002 13.1723 17.3732 12.9612 17.2935 12.8534C17.2136 12.7455 17.0425 12.5614 16.9131 12.4441C16.7836 12.327 16.5607 12.1698 16.4177 12.0946C16.2746 12.0194 16.04 11.9194 15.8963 11.8722C15.6701 11.798 15.5555 11.7865 15.0439 11.7874C14.586 11.788 14.401 11.8038 14.2238 11.857C14.0979 11.8949 13.8749 11.97 13.728 12.0238C13.5812 12.0778 13.3667 12.169 13.2514 12.2267C13.1359 12.2843 12.8184 12.4594 12.5457 12.6159C12.2731 12.7724 11.1661 13.4117 10.0858 14.0366C9.00553 14.6614 7.94145 15.2756 7.7212 15.4014C7.50096 15.5272 7.26925 15.6599 7.20633 15.6961C7.1434 15.7323 6.98895 15.8214 6.86309 15.8943C6.73723 15.967 6.23951 16.2543 5.75706 16.5324C5.27461 16.8106 4.53441 17.2422 4.11217 17.4916C3.68993 17.7408 3.32663 17.9448 3.30482 17.9448C3.283 17.9448 3.11873 17.7002 2.93975 17.4013C2.76077 17.1023 2.54285 16.7033 2.4555 16.5147C2.36812 16.326 2.22926 16 2.14696 15.7903C2.06462 15.5806 1.93968 15.2117 1.86931 14.9705C1.79895 14.7293 1.70578 14.3674 1.66225 14.166C1.61874 13.9648 1.55402 13.5788 1.51844 13.3082C1.47477 12.976 1.45379 12.5494 1.4539 11.9962C1.45403 11.4368 1.47473 11.0249 1.51905 10.6997C1.55479 10.4375 1.61947 10.0514 1.66275 9.84169C1.70608 9.63197 1.80028 9.25771 1.87213 9.01C1.94403 8.76226 2.08007 8.36432 2.17446 8.12565C2.26889 7.88701 2.44552 7.49768 2.56691 7.26051C2.68835 7.02332 2.82698 6.76063 2.87503 6.67673C2.92305 6.59286 3.07053 6.3612 3.20276 6.16196C3.33498 5.96272 3.5573 5.65385 3.69677 5.47557C3.83628 5.29731 4.10397 4.98531 4.29166 4.78226C4.47934 4.57921 4.81388 4.25687 5.03506 4.06598C5.25622 3.87506 5.56065 3.62819 5.71153 3.51738C5.86243 3.40657 6.1661 3.20356 6.38634 3.06627C6.60661 2.92896 6.99276 2.71295 7.24447 2.58623C7.49619 2.45951 7.77079 2.3272 7.85469 2.29219C7.93859 2.25715 8.1802 2.16315 8.39157 2.0833C8.60298 2.00346 9.01488 1.87739 9.3069 1.80315C9.59897 1.7289 9.93234 1.65112 10.0477 1.63029C10.1631 1.60948 10.3862 1.57256 10.5435 1.54823C10.7007 1.52391 11.0097 1.48943 11.2299 1.47163C11.4503 1.45382 11.905 1.44738 12.2407 1.45732C12.5762 1.46732 13.0825 1.50789 13.3657 1.54747ZM6.87311 19.4189C6.93055 19.4615 7.01583 19.5634 7.0627 19.6452C7.10954 19.7272 7.14817 19.8591 7.14852 19.9384C7.14886 20.0177 7.12559 20.1378 7.09684 20.2054C7.06808 20.2729 7.00348 20.3659 6.95328 20.412C6.90309 20.4582 6.79516 20.5239 6.71339 20.5582C6.61442 20.5994 6.51896 20.6118 6.42785 20.5949C6.3526 20.5809 6.23608 20.5357 6.16896 20.4946C6.10187 20.4532 6.01175 20.3626 5.96873 20.293C5.9148 20.2057 5.89055 20.1017 5.89055 19.9574C5.89055 19.8031 5.91324 19.7145 5.97727 19.6195C6.02495 19.5488 6.12365 19.4505 6.19658 19.4009C6.30744 19.3255 6.36514 19.3132 6.54893 19.3261C6.69078 19.336 6.8058 19.369 6.87311 19.4189ZM6.27956 19.5002C6.21034 19.5382 6.12037 19.6199 6.07959 19.6817C6.03734 19.7458 6.00542 19.8598 6.00534 19.9467C6.00531 20.0311 6.03852 20.1538 6.07972 20.2213C6.12064 20.2885 6.20923 20.3719 6.27654 20.4067C6.36076 20.4503 6.45317 20.4639 6.5725 20.4504C6.70874 20.4352 6.77247 20.4021 6.869 20.2968C6.93662 20.2229 7.00336 20.1019 7.01728 20.0277C7.03521 19.9321 7.02201 19.8514 6.9719 19.7507C6.93303 19.6724 6.85683 19.5761 6.80256 19.5365C6.74832 19.4969 6.63677 19.4569 6.55465 19.4478C6.45568 19.4367 6.36305 19.4543 6.27956 19.5002ZM6.74443 19.6981C6.78826 19.741 6.80676 19.7941 6.79173 19.8333C6.76884 19.8929 6.75988 19.8932 6.67334 19.8364C6.62185 19.8027 6.53586 19.7751 6.48223 19.7751C6.41446 19.7751 6.37106 19.8052 6.33994 19.8735C6.30905 19.9412 6.30714 19.9907 6.33376 20.033C6.355 20.0666 6.40161 20.1125 6.4373 20.1348C6.48611 20.1653 6.53121 20.159 6.619 20.1087C6.68322 20.0721 6.75157 20.0421 6.77082 20.0421C6.79009 20.0421 6.80587 20.0753 6.80587 20.1162C6.80587 20.1569 6.76774 20.2169 6.7211 20.2495C6.67448 20.2822 6.57876 20.309 6.50843 20.309C6.41785 20.309 6.34791 20.2763 6.269 20.1975C6.18983 20.1184 6.15774 20.0493 6.15835 19.9592C6.15881 19.8894 6.18887 19.7945 6.2251 19.7482C6.26137 19.702 6.33391 19.6469 6.38634 19.6259C6.43879 19.6049 6.5246 19.5966 6.57704 19.6075C6.62947 19.6184 6.70481 19.6592 6.74443 19.6981Z"
      fill="#00261d" />
    <path d="M7.35877 19.0527H5.70044V20.8131H7.35877V19.0527Z" fill="#00261d" />
  </g>
  <defs>
    <clipPath id="clip0_1445_27">
      <rect width="24" height="24" fill="#E8FBF7" />
    </clipPath>
  </defs>
</svg>