<svg width="400" height="400" viewBox="0 0 400 400" fill="none" xmlns="http://www.w3.org/2000/svg">
  <path
    d="M400 0V123.077C327.521 123.077 264.615 154.53 234.53 200C222.222 181.538 215.385 160.684 215.385 138.462C215.385 61.8803 298.12 0 400 0Z"
    fill="black" />
  <path
    d="M400 276.923V400C298.12 400 215.385 338.12 215.385 261.538C215.385 239.316 222.222 218.462 234.53 200C264.615 245.47 327.521 276.923 400 276.923Z"
    fill="url(#paint0_linear_19_424)" />
  <path
    d="M165.47 200C177.778 218.462 184.615 239.316 184.615 261.538C184.615 338.12 101.88 400 0 400V276.923C72.4786 276.923 135.043 245.47 165.47 200Z"
    fill="black" />
  <path
    d="M184.615 138.462C184.615 160.684 177.778 181.538 165.47 200C135.043 154.53 72.4786 123.077 0 123.077V0C101.88 0 184.615 61.8803 184.615 138.462Z"
    fill="url(#paint1_linear_19_424)" />
  <defs>
    <linearGradient id="paint0_linear_19_424" x1="266.571" y1="201.937" x2="401.838" y2="400.794"
      gradientUnits="userSpaceOnUse">
      <stop stop-color="#03CC86" />
      <stop offset="1" stop-color="#007B50" />
    </linearGradient>
    <linearGradient id="paint1_linear_19_424" x1="51.1863" y1="1.93699" x2="186.454" y2="200.794"
      gradientUnits="userSpaceOnUse">
      <stop stop-color="#007B50" />
      <stop offset="1" stop-color="#03CC86" />
    </linearGradient>
  </defs>
</svg>