<svg xmlns="http://www.w3.org/2000/svg" width="24" height="24" viewBox="0 0 24 24" fill="none">
<circle cx="12" cy="12" r="12" fill="url(#paint0_linear_2167_41090)"/>
<path d="M11.9883 12.8604C12.7621 12.3913 13.8657 11.7422 14.7334 11.7422C16.1221 11.7422 17.2833 12.7254 17.2833 14.5933C17.2833 17.573 13.741 20.3202 8.73544 19.1236C8.71889 19.1196 8.70269 19.1322 8.70269 19.149V20.4889V20.652V20.7598C8.70269 20.7708 8.7093 20.7803 8.71954 20.7843C9.40964 21.0424 10.1384 21.2213 10.8946 21.31C16.7593 21.9994 21.8264 17.1075 21.343 11.2222C21.2044 9.53461 20.6334 7.98272 19.7131 6.67001C19.7062 6.66007 19.6939 6.65379 19.6767 6.66272L11.9929 11.1041C11.1196 11.6023 10.1152 12.2255 9.24919 12.2255C7.86044 12.2255 6.69928 11.2423 6.69928 9.37448C6.69928 6.39443 10.242 3.64758 15.2475 4.8445C15.264 4.84848 15.2799 4.83623 15.2799 4.81903V3.23306C15.2799 3.22214 15.2733 3.21221 15.263 3.20857C14.2464 2.83143 13.1475 2.625 11.9999 2.625C6.82235 2.625 2.625 6.82219 2.625 11.9999C2.625 13.964 3.22939 15.7869 4.26186 17.2931C4.2698 17.3044 4.28502 17.308 4.29693 17.3011L11.9883 12.8604Z" fill="#E8FBF7"/>
<defs>
<linearGradient id="paint0_linear_2167_41090" x1="12" y1="0" x2="12" y2="24" gradientUnits="userSpaceOnUse">
<stop offset="0.7" stop-color="#001E1E"/>
<stop offset="1" stop-color="#033729"/>
</linearGradient>
</defs>
</svg>