<svg width="50" height="50" viewBox="0 0 50 50" fill="none" xmlns="http://www.w3.org/2000/svg">
  <path fill-rule="evenodd" clip-rule="evenodd"
    d="M36.2269 20.8221C38.2615 23.3793 39.4783 26.6133 39.4783 30.1311C39.4783 33.649 38.2246 36.9816 36.1365 39.5531L35.9556 39.7754L35.9084 39.4935C35.8673 39.2548 35.82 39.0121 35.7645 38.7694C34.7184 34.1694 31.3109 30.2258 25.7022 27.0309C21.9143 24.879 19.7461 22.291 19.1769 19.3471C18.809 17.4443 19.0823 15.5331 19.6105 13.8954C20.1387 12.26 20.9238 10.8879 21.5917 10.0629L23.7744 7.39263C24.1567 6.92358 24.874 6.92358 25.2561 7.39263L36.229 20.8221H36.2269ZM39.6776 18.1539L25.0527 0.256124C24.7733 -0.0853746 24.2511 -0.0853746 23.9717 0.256124L9.34883 18.1539L9.30157 18.2137C6.61129 21.5566 5 25.8048 5 30.4294C5 41.199 13.7367 49.9298 24.5122 49.9298C35.2877 49.9298 44.0244 41.199 44.0244 30.4294C44.0244 25.8048 42.4131 21.5566 39.7229 18.2156L39.6755 18.156L39.6776 18.1539ZM12.8489 20.7646L14.156 19.162L14.195 19.4582C14.2258 19.6927 14.2649 19.9272 14.3101 20.1638C15.1569 24.6095 18.1801 28.3146 23.2339 31.1844C27.6279 33.688 30.1866 36.5661 30.9223 39.7219C31.2306 41.0385 31.2841 42.3345 31.1505 43.4681L31.1423 43.538L31.0786 43.5689C29.0954 44.5378 26.8654 45.0829 24.5101 45.0829C16.2461 45.0829 9.54613 38.3888 9.54613 30.129C9.54613 26.5824 10.7813 23.3258 12.8447 20.7604L12.8489 20.7646Z"
    fill="#4DA2FF" />
</svg>