<svg width="24" height="24" viewBox="0 0 24 24" fill="none" xmlns="http://www.w3.org/2000/svg">
<rect width="24" height="24" rx="12" fill="#0B101B"/>
<g filter="url(#filter0_d_323_2319)">
<path d="M18.3927 15.5711L16.1055 12.4636C15.857 12.1259 15.4891 11.9236 15.0973 11.879C15.0081 11.8687 14.9284 11.8169 14.8838 11.7389C14.8384 11.6608 14.8336 11.566 14.8695 11.4832C15.0264 11.1217 15.0359 10.7019 14.8671 10.3181L13.3197 6.7837C13.0903 6.25888 12.5719 5.92041 11.9993 5.92041C11.4267 5.92041 10.9082 6.25968 10.6789 6.7837L9.13148 10.3181C8.96343 10.7019 8.97219 11.1217 9.12909 11.4832C9.16492 11.566 9.15935 11.6608 9.11475 11.7389C9.06936 11.8169 8.99051 11.8687 8.90131 11.879C8.50949 11.9236 8.14156 12.1259 7.89309 12.4636L5.60584 15.5711C5.26658 16.0322 5.23234 16.6502 5.51824 17.1464C5.80494 17.6417 6.35764 17.9213 6.92626 17.8583L10.7609 17.4315C11.1774 17.3853 11.5366 17.1679 11.7707 16.8509C11.8241 16.7784 11.9093 16.7354 11.9993 16.7354C12.0893 16.7354 12.1737 16.7784 12.2279 16.8509C12.462 17.1679 12.8212 17.3853 13.2377 17.4315L17.0723 17.8583C17.6409 17.9221 18.1936 17.6425 18.4804 17.1464C18.7662 16.6502 18.732 16.0322 18.3927 15.5711ZM10.1318 10.7617L11.6815 7.22331C11.7373 7.09668 11.8623 7.01465 12.0001 7.01465C12.1379 7.01465 12.2629 7.09668 12.3186 7.22331L13.8684 10.7617C13.917 10.8732 13.9067 11.0022 13.8398 11.1041C13.7728 11.2061 13.6597 11.2674 13.5371 11.2674H10.4622C10.3404 11.2674 10.2265 11.2061 10.1596 11.1041C10.0927 11.0022 10.0824 10.8732 10.131 10.7617H10.1318ZM10.9274 16.1485C10.8724 16.2576 10.7657 16.3308 10.6446 16.3444L6.80601 16.7713C6.66903 16.7864 6.53523 16.7195 6.46595 16.6C6.39666 16.4806 6.40542 16.3316 6.48745 16.2202L8.77708 13.1095C8.84955 13.0115 8.96583 12.9558 9.08768 12.9629C9.20952 12.9693 9.31942 13.037 9.38074 13.1429L9.38313 13.1469L10.9162 15.802L10.9186 15.806C10.9799 15.912 10.9831 16.041 10.9282 16.1493L10.9274 16.1485ZM12.3146 14.9475C12.2494 15.0598 12.1299 15.1299 11.9993 15.1299C11.8695 15.1299 11.7492 15.0606 11.6839 14.9483L10.506 12.9088C10.4407 12.7965 10.4407 12.6571 10.506 12.5448C10.5713 12.4325 10.6908 12.3624 10.8214 12.3624H13.1764C13.3062 12.3624 13.4264 12.4309 13.4917 12.544C13.557 12.6571 13.557 12.7957 13.4917 12.908L12.3146 14.9475ZM17.5334 16.6C17.4641 16.7195 17.3311 16.7872 17.1934 16.7721L13.3548 16.3452C13.2337 16.3316 13.127 16.2584 13.072 16.1493C13.0171 16.0402 13.0202 15.9112 13.0816 15.806L13.084 15.802L14.617 13.1469L14.6194 13.1429C14.6808 13.037 14.7906 12.9693 14.9125 12.9629C15.0343 12.9566 15.1506 13.0115 15.2231 13.1095L17.5127 16.2202C17.5947 16.3316 17.6027 16.4806 17.5342 16.6H17.5334Z" fill="#E81899"/>
</g>
<defs>
<filter id="filter0_d_323_2319" x="3.82301" y="3.9292" width="16.354" height="16.354" filterUnits="userSpaceOnUse" color-interpolation-filters="sRGB">
<feFlood flood-opacity="0" result="BackgroundImageFix"/>
<feColorMatrix in="SourceAlpha" type="matrix" values="0 0 0 0 0 0 0 0 0 0 0 0 0 0 0 0 0 0 127 0" result="hardAlpha"/>
<feOffset dy="0.212389"/>
<feGaussianBlur stdDeviation="0.106195"/>
<feComposite in2="hardAlpha" operator="out"/>
<feColorMatrix type="matrix" values="0 0 0 0 0 0 0 0 0 0 0 0 0 0 0 0 0 0 0.25 0"/>
<feBlend mode="normal" in2="BackgroundImageFix" result="effect1_dropShadow_323_2319"/>
<feBlend mode="normal" in="SourceGraphic" in2="effect1_dropShadow_323_2319" result="shape"/>
</filter>
</defs>
</svg>
