<svg width="24" height="24" viewBox="0 0 24 24" fill="none" xmlns="http://www.w3.org/2000/svg">
<g>
<path d="M24 0H0V24H24V0Z" fill="url(#paint0_linear_10768_7970)"/>
<mask id="mask0_10768_7970" style="mask-type:alpha" maskUnits="userSpaceOnUse" x="16" y="13" width="2" height="5">
<path d="M16.5833 13.8442H17.8335V17.5248H16.5833V13.8442Z" fill="black"/>
</mask>
<g mask="url(#mask0_10768_7970)">
<path d="M17.5879 13.8442H14.3982C14.2627 13.8442 14.1528 13.9541 14.1528 14.0896V17.2794C14.1528 17.4149 14.2627 17.5247 14.3982 17.5247H17.5879C17.7234 17.5247 17.8332 17.4149 17.8332 17.2794V14.0896C17.8332 13.9541 17.7234 13.8442 17.5879 13.8442Z" fill="white" fill-opacity="0.5"/>
</g>
<mask id="mask1_10768_7970" style="mask-type:alpha" maskUnits="userSpaceOnUse" x="16" y="6" width="2" height="5">
<path d="M16.5833 6.47559H17.8335V10.1561H16.5833V6.47559Z" fill="url(#paint1_linear_10768_7970)"/>
</mask>
<g mask="url(#mask1_10768_7970)">
<path d="M17.5879 6.47559H14.3982C14.2627 6.47559 14.1528 6.58543 14.1528 6.72094V9.91071C14.1528 10.0462 14.2627 10.1561 14.3982 10.1561H17.5879C17.7234 10.1561 17.8332 10.0462 17.8332 9.91071V6.72094C17.8332 6.58543 17.7234 6.47559 17.5879 6.47559Z" fill="white" fill-opacity="0.5"/>
</g>
<mask id="mask2_10768_7970" style="mask-type:alpha" maskUnits="userSpaceOnUse" x="18" y="6" width="2" height="5">
<path d="M18.465 6.47559H19.0869V10.1561H18.465V6.47559Z" fill="black"/>
</mask>
<g mask="url(#mask2_10768_7970)">
<path d="M18.8403 6.47559H15.6506C15.5151 6.47559 15.4053 6.58543 15.4053 6.72094V9.91071C15.4053 10.0462 15.5151 10.1561 15.6506 10.1561H18.8403C18.9758 10.1561 19.0857 10.0462 19.0857 9.91071V6.72094C19.0857 6.58543 18.9758 6.47559 18.8403 6.47559Z" fill="white" fill-opacity="0.3"/>
</g>
<mask id="mask3_10768_7970" style="mask-type:alpha" maskUnits="userSpaceOnUse" x="18" y="13" width="2" height="5">
<path d="M18.4674 13.8442H19.0894V17.5248H18.4674V13.8442Z" fill="black"/>
</mask>
<g mask="url(#mask3_10768_7970)">
<path d="M18.8428 13.8442H15.6531C15.5176 13.8442 15.4077 13.9541 15.4077 14.0896V17.2794C15.4077 17.4149 15.5176 17.5247 15.6531 17.5247H18.8428C18.9783 17.5247 19.0881 17.4149 19.0881 17.2794V14.0896C19.0881 13.9541 18.9783 13.8442 18.8428 13.8442Z" fill="white" fill-opacity="0.3"/>
</g>
<path d="M12.0203 10.1646H8.84576C8.71091 10.1646 8.60156 10.2731 8.60156 10.407V13.559C8.60156 13.6929 8.71091 13.8015 8.84576 13.8015H12.0203C12.1552 13.8015 12.2645 13.6929 12.2645 13.559V10.407C12.2645 10.2731 12.1552 10.1646 12.0203 10.1646Z" fill="white"/>
<path d="M8.34569 6.47559H5.156C5.02049 6.47559 4.91064 6.58543 4.91064 6.72094V9.91071C4.91064 10.0462 5.02049 10.1561 5.156 10.1561H8.34569C8.4812 10.1561 8.59104 10.0462 8.59104 9.91071V6.72094C8.59104 6.58543 8.4812 6.47559 8.34569 6.47559Z" fill="white"/>
<path d="M15.7051 6.47559H12.5154C12.3799 6.47559 12.27 6.58543 12.27 6.72094V9.91071C12.27 10.0462 12.3799 10.1561 12.5154 10.1561H15.7051C15.8406 10.1561 15.9504 10.0462 15.9504 9.91071V6.72094C15.9504 6.58543 15.8406 6.47559 15.7051 6.47559Z" fill="white"/>
<path d="M8.34569 13.8362H5.156C5.02049 13.8362 4.91064 13.946 4.91064 14.0815V17.2713C4.91064 17.4068 5.02049 17.5167 5.156 17.5167H8.34569C8.4812 17.5167 8.59104 17.4068 8.59104 17.2713V14.0815C8.59104 13.946 8.4812 13.8362 8.34569 13.8362Z" fill="white"/>
<path d="M15.7051 13.8362H12.5154C12.3799 13.8362 12.27 13.946 12.27 14.0815V17.2713C12.27 17.4068 12.3799 17.5167 12.5154 17.5167H15.7051C15.8406 17.5167 15.9504 17.4068 15.9504 17.2713V14.0815C15.9504 13.946 15.8406 13.8362 15.7051 13.8362Z" fill="white"/>
</g>
<defs>
<linearGradient id="paint0_linear_10768_7970" x1="24" y1="37.4789" x2="4.84812" y2="-3.4381" gradientUnits="userSpaceOnUse">
<stop/>
<stop offset="1" stop-color="#444444"/>
</linearGradient>
<linearGradient id="paint1_linear_10768_7970" x1="16.4765" y1="8.52834" x2="17.8209" y2="8.25615" gradientUnits="userSpaceOnUse">
<stop/>
<stop offset="1" stop-color="white"/>
</linearGradient>
</defs>
</svg>
