<svg width="24" height="24" viewBox="0 0 24 24" fill="none" xmlns="http://www.w3.org/2000/svg">
<g>
<mask id="mask0_9986_91152" style="mask-type:luminance" maskUnits="userSpaceOnUse" x="0" y="0" width="24" height="24">
<path d="M24 0H0V24H24V0Z" fill="white"/>
</mask>
<g mask="url(#mask0_9986_91152)">
<path d="M12 24C5.37277 24 0 18.6273 0 12C0 5.37277 5.37277 0 12 0C18.6273 0 24 5.37277 24 12C24 18.6273 18.6285 24 12 24Z" fill="#FE5161"/>
<path d="M12.0547 5.56372C7.87252 5.56372 6.21826 8.11956 6.21826 11.8829C6.21826 15.6462 7.87252 18.3274 12.0547 18.3274C16.237 18.3274 17.891 15.646 17.891 11.8829C17.891 8.11975 16.237 5.56372 12.0547 5.56372ZM12.0553 16.265C10.1478 16.265 9.15982 15.1456 8.86162 13.2616C8.83916 13.1196 8.94779 12.9905 9.09108 12.9905H14.99C15.1328 12.9905 15.2414 13.1188 15.2198 13.2606C14.9297 15.1452 13.9634 16.265 12.0555 16.265H12.0553ZM9.0663 10.9476C8.92513 10.9476 8.81728 10.8221 8.83626 10.6814C9.10077 8.72213 10.0901 7.62614 12.0553 7.62614C14.0206 7.62614 14.9872 8.72252 15.2439 10.6824C15.2623 10.8227 15.1547 10.9476 15.0137 10.9476H9.0663Z" fill="white"/>
</g>
</g>
</svg>
