<svg width="32" height="32" viewBox="0 0 90 90" fill="none" xmlns="http://www.w3.org/2000/svg">
  <g clip-path="url(#clip0_1737_111)">
    <path
      d="M45 89.5C69.5767 89.5 89.5 69.5767 89.5 45C89.5 20.4233 69.5767 0.5 45 0.5C20.4233 0.5 0.5 20.4233 0.5 45C0.5 69.5767 20.4233 89.5 45 89.5Z"
      fill="#005741" />
    <path
      d="M56.5594 54.836V60.846H31.7663C32.1083 56.8905 33.3847 54.1075 37.7986 50.194L56.5594 34.1889V48.2337H63.3129V22.3945H24.9112V35.2744H31.6647V29.148H52.0664L33.3971 45.0812L33.3524 45.1233C25.5283 52.0505 24.9062 57.6415 24.9062 64.229V67.6045H63.3154V54.841H56.5619L56.5594 54.836Z"
      fill="white" />
  </g>
  <defs>
    <clipPath id="clip0_1737_111">
      <rect width="89" height="89" fill="white" transform="translate(0.5 0.5)" />
    </clipPath>
  </defs>
</svg>