<svg height="26" viewBox="0 0 110 26" width="110" xmlns="http://www.w3.org/2000/svg"><path d="m75.740369 22c1.0924143 0 1.9779438 1.557254 1.9779438 3.4778845 0 .0464544-.0008708.0923926-.0019156.1383309.5865218-.6926865 1.2709133-1.0361048 1.7931755-.8169089.5311435.222981.7570101.9714127.6495624 1.8929299-.026296.4366712-.135311.9161836-.3326178 1.3965563-.1144135.2785542-.2504211.536118-.4003603.7682178 7.7844748 1.7189841 13.3050591 8.0823738 13.2185088 19.1429895h-4.7378006c.0734894-9.375182-5.3979858-14.0041028-12.5572786-14.1496599-7.7963167-.158461-12.1118145 5.0062337-12.6114378 14.1496599h-4.7381488c.607071-11.106726 5.4291579-17.8740967 13.8997657-19.2044125-.1354851-.1956246-.3852097-.591175-.4964886-.8213823-.6640165-1.3717806-.5696297-2.7843378.210716-3.1552846.623963-.2964478 1.4974765.1636226 2.1620155 1.0615686-.0087073-.1321369-.0135834-.2663385-.0135834-.4026047 0-1.9206305.8855295-3.4778845 1.9779438-3.4778845zm47.231959 8.6666667c1.21404 0 2.348092.2239727 3.402474.6719181 1.054065.4482622 1.968705 1.0603064 2.743288 1.8367663.774582.776143 1.385712 1.6967437 1.833074 2.7608516.447045 1.0644248.670883 2.1966433.670883 3.397289 0 1.200329-.223838 2.3325475-.670883 3.3969722-.447362 1.0644248-1.058492 1.9847087-1.833074 2.7608517-.774583.7764598-1.689223 1.3885041-2.743288 1.8367663-1.054382.4479454-2.188434.6719181-3.402474.6719181-1.213724 0-2.351887-.2239727-3.413856-.6719181-1.062601-.4482622-1.981035-1.0603065-2.755618-1.8367663-.774583-.776143-1.385713-1.6964269-1.832758-2.7608517-.447361-1.0644247-.670883-2.1966432-.670883-3.3969722 0-1.2006457.223522-2.3328642.670883-3.397289.447045-1.0641079 1.058175-1.9847086 1.832758-2.7608516.774583-.7764599 1.693017-1.3885041 2.755618-1.8367663 1.061969-.4479454 2.200132-.6719181 3.413856-.6719181zm-19.020704 0c1.19101 0 2.313008.2268438 3.365368.6808474 1.052361.4543196 1.966072 1.0691359 2.741447 1.8447648.774749.775945 1.386493 1.6962738 1.835541 2.7609865.448425 1.0647127.672949 2.2080941.672949 3.4295123 0 1.1885606-.224524 2.311406-.672949 3.3675884-.449048 1.0568142-1.060792 1.9727199-1.835541 2.7486648-.775375.7759449-1.689086 1.386654-2.741447 1.8324433-1.05236.4457892-2.174358.6685258-3.365368.6685258h-6.975246v-17.3333333zm55.398656 0c1.214041 0 2.348409.2239727 3.402474.6719181 1.054381.4482622 1.969022 1.0603064 2.743604 1.8367663.774583.776143 1.385713 1.6967437 1.832758 2.7608516.447362 1.0644248.670884 2.1966433.670884 3.397289 0 1.200329-.223522 2.3325475-.670884 3.3969722-.447045 1.0644248-1.058175 1.9847087-1.832758 2.7608517-.774582.7764598-1.689223 1.3885041-2.743604 1.8367663-1.054065.4479454-2.188433.6719181-3.402474.6719181-1.213407 0-2.351886-.2239727-3.413855-.6719181-1.062285-.4482622-1.980719-1.0603065-2.755302-1.8367663-.774899-.776143-1.385713-1.6964269-1.833074-2.7608517-.447361-1.0644247-.670884-2.1966432-.670884-3.3969722 0-1.2006457.223523-2.3328642.670884-3.397289.447361-1.0641079 1.058175-1.9847086 1.833074-2.7608516.774583-.7764599 1.693017-1.3885041 2.755302-1.8367663 1.061969-.4479454 2.200448-.6719181 3.413855-.6719181zm-19.020563 0c1.191033 0 2.312741.2268438 3.365123.6808474 1.052382.4543196 1.966111 1.0691359 2.741501 1.8447648.774765.775945 1.386833 1.6962738 1.835579 2.7609865.448433 1.0647127.672962 2.2080941.672962 3.4295123 0 1.1885606-.224529 2.311406-.672962 3.3675884-.448746 1.0568142-1.060814 1.9727199-1.835579 2.7486648-.77539.7759449-1.689119 1.386654-2.741501 1.8324433-1.052382.4457892-2.17409.6685258-3.365123.6685258h-6.975386v-17.3333333zm-68.9044003 7.8c.7173772 0 1.2990927.6096963 1.2990927 1.3613631v3.3439404c0 .7519172-.5817155 1.3613631-1.2990927 1.3613631-.7176169 0-1.2993324-.6094459-1.2993324-1.3613631v-3.3439404c0-.7516668.5817155-1.3613631 1.2993324-1.3613631zm7.7950359 0c.7176169 0 1.2993324.6096963 1.2993324 1.3613631v3.3439404c0 .7519172-.5817155 1.3613631-1.2993324 1.3613631-.7173772 0-1.2990928-.6094459-1.2990928-1.3613631v-3.3439404c0-.7516668.5817156-1.3613631 1.2990928-1.3613631zm61.0604694-4.0487563h-2.734074v10.0895523h2.734074c.580648 0 1.128883-.1284142 1.645014-.3852427.516131-.2568284.963732-.6087784 1.343113-1.0561672.378764-.4473888.677268-.9775334.894895-1.5904338s.326595-1.2673373.326595-1.9633106c0-.712144-.108968-1.3792638-.326595-2.0004081s-.516131-1.1598499-.894895-1.6151654c-.379381-.4556327-.826982-.8158266-1.343113-1.081216-.516131-.2650723-1.064366-.3976085-1.645014-.3976085zm-17.449625 0c-.620949 0-1.202183.1279501-1.743702.3832183-.541518.2552682-1.007073.6024709-1.397294 1.041608-.390221.4388212-.696913.9654699-.919762 1.5802619-.222848.6141601-.33443 1.2725499-.33443 1.9751693 0 .7023035.111582 1.3606933.33443 1.9751694.222849.614476.529541 1.1411247.919762 1.5799459.390221.4391371.855776.7863398 1.397294 1.041608.541519.2552682 1.122753.3832183 1.743702.3832183.621265 0 1.202499-.1279501 1.744018-.3832183.541518-.2552682 1.007388-.6024709 1.397294-1.041608.390221-.4388212.696914-.9654699.919762-1.5799459.222848-.6144761.33443-1.2728659.33443-1.9751694 0-.7026194-.111582-1.3610092-.33443-1.9751693-.222848-.614792-.529541-1.1414407-.919762-1.5802619-.389906-.4391371-.855776-.7863398-1.397294-1.041608-.541519-.2552682-1.122753-.3832183-1.744018-.3832183zm36.377953 0c-.621265 0-1.202183.1279501-1.743702.3832183-.541518.2552682-1.007073.6024709-1.397609 1.041608-.389906.4388212-.696599.9654699-.919762 1.5802619-.222849.6141601-.334115 1.2725499-.334115 1.9751693 0 .7023035.111266 1.3606933.334115 1.9751694.223163.614476.529856 1.1411247.919762 1.5799459.390536.4391371.856091.7863398 1.397609 1.041608.541519.2552682 1.122437.3832183 1.743702.3832183s1.202499-.1279501 1.743702-.3832183c.541519-.2552682 1.007389-.6024709 1.39761-1.041608.389906-.4388212.696598-.9654699.919446-1.5799459.223164-.6144761.334746-1.2728659.334746-1.9751694 0-.7026194-.111582-1.3610092-.334746-1.9751693-.222848-.614792-.52954-1.1414407-.919446-1.5802619-.390221-.4391371-.856091-.7863398-1.39761-1.041608-.541203-.2552682-1.122437-.3832183-1.743702-.3832183zm-55.257526-.1113164h-2.765803v10.0534787h2.765803c.587698 0 1.142295-.1279551 1.664416-.3838653s.974917-.6066019 1.358389-1.0523911c.383159-.4457892.685127-.9740384.905592-1.5847475.220152-.6107091.330385-1.2628061.330385-1.9562911 0-.7095978-.110233-1.3743324-.330385-1.9932559-.220465-.6189235-.522433-1.155703-.905592-1.6093907-.383472-.4540036-.836268-.8129097-1.358389-1.0773502-.522121-.2641246-1.076718-.3961869-1.664416-.3961869z" fill="#1a1a1b" fill-rule="evenodd" transform="translate(-58 -22)"/></svg>