<svg width="16" height="17" viewBox="0 0 16 17" fill="none" xmlns="http://www.w3.org/2000/svg">
  <g id="ICON/18px/&#229;&#184;&#129;&#231;&#167;&#141;&#232;&#175;&#166;&#230;&#131;&#133;/Default">
    <path id="&#229;&#189;&#162;&#231;&#138;&#182;" fill-rule="evenodd" clip-rule="evenodd"
      d="M7.99998 1.8335C4.31998 1.8335 1.33331 4.82016 1.33331 8.50016C1.33331 12.1802 4.31998 15.1668 7.99998 15.1668C11.68 15.1668 14.6666 12.1802 14.6666 8.50016C14.6666 4.82016 11.68 1.8335 7.99998 1.8335ZM7.33331 5.16683V6.50016H8.66665V5.16683H7.33331ZM7.33331 7.8335V11.8335H8.66665V7.8335H7.33331ZM2.66665 8.50016C2.66665 11.4402 5.05998 13.8335 7.99998 13.8335C10.94 13.8335 13.3333 11.4402 13.3333 8.50016C13.3333 5.56016 10.94 3.16683 7.99998 3.16683C5.05998 3.16683 2.66665 5.56016 2.66665 8.50016Z"
      fill="currentColor" />
  </g>
</svg>