<svg width="12" height="13" viewBox="0 0 12 13" fill="none" xmlns="http://www.w3.org/2000/svg">
<path d="M8.27491 8.04736C7.96313 8.04736 7.67255 8.14507 7.4347 8.31093L5.1487 6.70764C5.1532 6.66264 5.15577 6.61764 5.15577 6.57136C5.15577 6.56364 5.15448 6.55657 5.15448 6.54886L7.53177 4.86779C7.75163 4.99057 8.00491 5.06129 8.27491 5.06129C9.12027 5.06129 9.80555 4.376 9.80555 3.53064C9.80555 2.68529 9.12091 2 8.27491 2C7.4302 2 6.74491 2.68529 6.74491 3.53064C6.74491 3.6515 6.7597 3.76914 6.78605 3.88229L4.60677 5.42386C4.35348 5.21814 4.03077 5.09471 3.67913 5.09471C2.86398 5.09471 2.20312 5.75557 2.20312 6.57136C2.20312 7.3865 2.86398 8.04736 3.67913 8.04736C4.0282 8.04736 4.34705 7.92586 4.5997 7.724L6.82077 9.28164C6.80727 9.36071 6.79955 9.44107 6.79955 9.52336C6.79955 10.3391 7.46041 11 8.27555 11C9.09134 11 9.7522 10.3391 9.7522 9.52336C9.7522 8.70757 9.0907 8.04736 8.27491 8.04736Z" fill="currentColor"/>
</svg>
