<svg width="24" height="24" viewBox="0 0 24 24" fill="none" xmlns="http://www.w3.org/2000/svg">
<path d="M14.4801 5.00008C13.6299 4.99585 12.7872 5.15894 12.0001 5.48008C10.1763 6.27917 8.6482 7.62889 7.63005 9.34008C5.82225 12.4222 4.91135 15.948 5.00005 19.5201H8.65005C8.65005 15.0501 10.1601 11.5201 12.0001 9.83008C12.6518 9.14875 13.5386 8.74113 14.4801 8.69008C15.1671 8.71317 15.8305 8.94709 16.3801 9.36008C18.4801 10.8201 20.3101 14.5901 20.3101 19.5201H24.0001C24.0001 11.3701 19.8101 5.00008 14.4801 5.00008Z" fill="#6851B4"/>
<path d="M9.15 5.01007C4 5.26007 0 11.5601 0 19.5201H3.12C3.12 13.1401 5.54 7.73007 9.15 5.01007Z" fill="#BC9CFF"/>
<path d="M14.4799 10.5301C13.9681 10.5892 13.4988 10.8435 13.1699 11.2401C14.6745 13.7344 15.4311 16.6083 15.3499 19.5201H18.4599C18.4599 13.9401 15.8799 10.5301 14.4799 10.5301Z" fill="#BC9CFF"/>
</svg>
