<svg width="24" height="24" viewBox="0 0 24 24" fill="none" xmlns="http://www.w3.org/2000/svg">
<circle cx="12" cy="12" r="12" fill="#FFE804"/>
<path fill-rule="evenodd" clip-rule="evenodd" d="M12.3 19.5367C15.6492 19.5367 18.6 17.1742 18.6 14.0242C18.6 10.8742 16.2375 9.29921 15.45 8.51171C14.3428 7.40448 13.9947 5.94918 13.8947 4.94827C13.8396 4.39387 13.3048 4.00012 12.841 4.30882C11.933 4.91047 10.6494 6.13897 9.9375 8.51171C9.43114 10.1985 9.9375 11.6617 9.9375 11.6617C9.9375 11.6617 9.15 11.268 8.75625 10.0867C8.62631 9.69768 8.45385 9.22282 8.28139 8.76134C8.03254 8.09748 7.134 8.10299 6.91586 8.77788C6.48431 10.1088 6 11.9003 6 13.2367C6 17.1742 8.95155 19.5367 12.3 19.5367Z" fill="#1A1A1B"/>
<path fill-rule="evenodd" clip-rule="evenodd" d="M11.5123 16.3868C13.4614 16.3868 15.6184 15.1709 16.1287 13.3101C16.2373 12.9147 16.791 12.732 16.902 13.1266C16.9823 13.4156 17.0248 13.7148 17.0248 14.0243C17.0248 16.1994 14.9088 17.9618 12.2998 17.9618C10.6162 17.9618 9.13803 17.2279 8.30171 16.123C8.05443 15.797 8.49543 15.5009 8.85138 15.7033C9.60896 16.1348 10.5256 16.3868 11.5123 16.3868Z" fill="#FFE804"/>
</svg>
