<svg width="46" height="10" viewBox="0 0 46 10" fill="none" xmlns="http://www.w3.org/2000/svg">
<g clip-path="url(#clip0_2428_80390)">
<mask id="mask0_2428_80390" style="mask-type:luminance" maskUnits="userSpaceOnUse" x="0" y="0" width="46" height="10">
<path d="M45.3331 0.333374H0.140137V9.66671H45.3331V0.333374Z" fill="white"/>
</mask>
<g mask="url(#mask0_2428_80390)">
<path d="M23.1756 1.6061C22.8121 1.6061 22.5174 1.89101 22.5174 2.24246V3.30307H24.4919L24.0531 4.57579H22.5174V9.66669H21.2012V2.24246C21.2012 1.1881 22.0852 0.333374 23.1756 0.333374H24.7112L24.2725 1.6061H23.1756Z" fill="black"/>
<path fill-rule="evenodd" clip-rule="evenodd" d="M10.6704 0.757568H13.9611C15.4151 0.757568 16.5938 1.89721 16.5938 3.30302C16.5938 4.01406 16.2923 4.65699 15.8061 5.11883C16.4193 5.58485 16.8131 6.30858 16.8131 7.12124C16.8131 8.52704 15.6345 9.66664 14.1805 9.66664H10.6704V0.757568ZM11.9867 2.0303H13.9611C14.6881 2.0303 15.2775 2.60012 15.2775 3.30302C15.2775 4.00593 14.6881 4.57575 13.9611 4.57575H11.9867V2.0303ZM11.9867 5.8485V8.39391H14.1805C14.9075 8.39391 15.4969 7.82411 15.4969 7.12124C15.4969 6.41832 14.9075 5.8485 14.1805 5.8485H11.9867Z" fill="black"/>
<path d="M19.4462 0.757568H18.1299V2.0303H19.4462V0.757568Z" fill="black"/>
<path d="M19.4462 3.30298H18.1299V9.6666H19.4462V3.30298Z" fill="black"/>
<path d="M25.5889 3.30298V9.6666H26.9052V4.57571H28.6603L29.0991 3.30298H25.5889Z" fill="black"/>
<path fill-rule="evenodd" clip-rule="evenodd" d="M35.2417 6.43176C35.2417 8.21831 34.184 9.66657 32.28 9.66657C30.3761 9.66657 29.3184 8.21831 29.3184 6.43176C29.3184 4.64519 30.3761 3.1969 32.28 3.1969C34.184 3.1969 35.2417 4.64519 35.2417 6.43176ZM33.9254 6.43176C33.9254 7.09391 33.7289 7.59531 33.462 7.90637C33.2178 8.19071 32.8536 8.39384 32.28 8.39384C31.7065 8.39384 31.3422 8.19071 31.0982 7.90637C30.8312 7.59531 30.6347 7.09391 30.6347 6.43176C30.6347 5.76958 30.8312 5.26819 31.0982 4.95713C31.3422 4.67277 31.7065 4.46962 32.28 4.46962C32.8536 4.46962 33.2178 4.67277 33.462 4.95713C33.7289 5.26819 33.9254 5.76958 33.9254 6.43176Z" fill="black"/>
<path d="M40.0691 5.23802C40.062 5.14789 40.0363 5.06006 39.9933 4.97978C39.9463 4.88248 39.8847 4.79235 39.8107 4.71226C39.6555 4.54778 39.4568 4.42741 39.236 4.36418C39.1181 4.33059 38.9966 4.3098 38.8739 4.3022C38.7393 4.29455 38.6042 4.29766 38.4701 4.3115C38.2392 4.32808 38.0169 4.40365 37.8261 4.53048C37.7612 4.57878 37.7071 4.6392 37.6669 4.70813C37.6331 4.76755 37.6117 4.83283 37.6039 4.90026C37.6044 4.90678 37.6044 4.91334 37.6039 4.91988V4.94467C37.6027 4.96428 37.6027 4.98394 37.6039 5.00354C37.6068 5.0353 37.6139 5.06656 37.6253 5.0965C37.6511 5.15948 37.6908 5.21624 37.7417 5.26279C37.9262 5.41762 38.1408 5.53522 38.3729 5.60881C38.5065 5.65533 38.6475 5.69561 38.7927 5.7328L38.8995 5.75858L39.0171 5.78546C39.1014 5.80299 39.1858 5.82161 39.2713 5.84224C39.4411 5.88252 39.6131 5.92801 39.7904 5.98273C39.9777 6.0375 40.1602 6.10657 40.3362 6.18929C40.5431 6.28675 40.7325 6.4158 40.897 6.57147C41.0831 6.75098 41.2206 6.97198 41.2975 7.21498C41.3346 7.32858 41.3597 7.44558 41.3723 7.56411C41.3859 7.67971 41.388 7.79624 41.3787 7.91218C41.3568 8.15564 41.2811 8.39164 41.1565 8.60424C41.0367 8.80731 40.8783 8.98671 40.6897 9.13304C40.5134 9.26831 40.3172 9.37724 40.1076 9.45638C39.7313 9.59078 39.3337 9.66071 38.9327 9.66298C38.5294 9.68204 38.1262 9.62591 37.7449 9.49771C37.3376 9.35531 36.9747 9.11458 36.6907 8.79844C36.5505 8.64064 36.4303 8.46731 36.3328 8.28198C36.2335 8.08798 36.1617 7.88198 36.1191 7.66944L37.3507 7.48251C37.3634 7.58371 37.3915 7.68258 37.4341 7.77584C37.5013 7.92764 37.5999 8.06464 37.7237 8.17844C37.8474 8.29231 37.9938 8.38058 38.1539 8.43791C38.3934 8.52124 38.6475 8.55811 38.9017 8.54638C39.1586 8.54558 39.4127 8.49538 39.6493 8.39871C39.8312 8.32931 39.9823 8.20071 40.0766 8.03511C40.1121 7.96858 40.1335 7.89591 40.1397 7.82131C40.1421 7.77898 40.1421 7.73658 40.1397 7.69424C40.1359 7.65444 40.1284 7.61498 40.1172 7.57651C40.0986 7.51338 40.0649 7.45538 40.0189 7.40711C39.9501 7.33791 39.8699 7.27998 39.7819 7.23564C39.5301 7.11158 39.2635 7.01798 38.9882 6.95678L38.7629 6.90304L38.6389 6.87618L38.5097 6.84731C38.3355 6.80704 38.1604 6.75944 37.9831 6.70164C37.7983 6.64569 37.618 6.57662 37.4437 6.49503C37.2459 6.40121 37.0625 6.2813 36.8989 6.1387C36.703 5.96873 36.5521 5.75588 36.4588 5.51793C36.4128 5.39876 36.3819 5.27458 36.3669 5.14815C36.3591 5.08888 36.3548 5.02921 36.3541 4.96946V4.87443C36.3541 4.83932 36.3541 4.80729 36.3627 4.77114C36.3919 4.52236 36.4815 4.28378 36.6244 4.07496C36.7612 3.87472 36.9399 3.70442 37.1489 3.57504C37.5157 3.36005 37.9318 3.23588 38.3601 3.21352C38.554 3.19622 38.7489 3.19242 38.9433 3.20216C39.149 3.21367 39.3527 3.24658 39.5511 3.30028C39.9679 3.40957 40.3495 3.61924 40.6598 3.9097C40.8164 4.05708 40.9531 4.22296 41.0668 4.40343C41.1904 4.59874 41.2802 4.81226 41.3327 5.03556L40.0691 5.23802Z" fill="black"/>
<path d="M42.481 7.75755V2.03027H43.7973V3.30299H45.333V4.57572H43.7973V7.75755C43.7973 8.10901 44.092 8.39388 44.4554 8.39388H45.333V9.66661H44.4554C43.365 9.66661 42.481 8.81188 42.481 7.75755Z" fill="black"/>
<mask id="mask1_2428_80390" style="mask-type:luminance" maskUnits="userSpaceOnUse" x="0" y="3" width="9" height="7">
<path d="M8.9155 3.30298H0.140137V9.66662H8.9155V3.30298Z" fill="white"/>
</mask>
<g mask="url(#mask1_2428_80390)">
<path d="M4.5278 9.66662H0.140137L6.72164 3.30298H8.9155L4.5278 9.66662Z" fill="url(#paint0_linear_2428_80390)"/>
</g>
</g>
</g>
<defs>
<linearGradient id="paint0_linear_2428_80390" x1="4.5278" y1="3.30298" x2="4.5278" y2="9.66662" gradientUnits="userSpaceOnUse">
<stop stop-color="#12D5D5"/>
<stop offset="0.201333" stop-color="#0BB0F8"/>
<stop offset="0.403244" stop-color="#4584F5"/>
<stop offset="0.602076" stop-color="#AC57C0"/>
<stop offset="0.801867" stop-color="#E65659"/>
<stop offset="1" stop-color="#FFBF12"/>
</linearGradient>
<clipPath id="clip0_2428_80390">
<rect width="45.3333" height="10" fill="white"/>
</clipPath>
</defs>
</svg>
