<svg width="24" height="24" viewBox="0 0 24 24" fill="none" xmlns="http://www.w3.org/2000/svg">
<rect width="24" height="24" rx="8" fill="white" fill-opacity="0.1"/>
<g>
<path d="M6.375 17.8875C5.7875 17.325 5.32812 16.6562 4.99687 15.8812C4.66563 15.1062 4.5 14.2625 4.5 13.35C4.5 12.1 4.99687 10.7406 5.99062 9.27187C6.98438 7.80312 8.4875 6.2125 10.5 4.5C12.5125 6.2125 14.0156 7.80312 15.0094 9.27187C16.0031 10.7406 16.5 12.1 16.5 13.35V13.5H7.875C7.4625 13.5 7.10938 13.6469 6.81562 13.9406C6.52187 14.2344 6.375 14.5875 6.375 15V17.8875Z" fill="white" fill-opacity="0.5"/>
<path d="M8.61914 14.9131C8.63382 14.9212 8.64711 14.9325 8.65625 14.9473L10.333 17.6494V15L10.3408 14.9609C10.356 14.9252 10.3914 14.9005 10.4326 14.9004H11.2539L11.293 14.9082C11.3287 14.9235 11.3535 14.9587 11.3535 15V19.5C11.3535 19.5552 11.3091 19.5996 11.2539 19.5996H10.4326C10.3981 19.5995 10.3658 19.582 10.3477 19.5527L8.6709 16.8496V19.5C8.6709 19.5551 8.62635 19.5994 8.57129 19.5996H7.75C7.69477 19.5996 7.65039 19.5552 7.65039 19.5V15L7.6582 14.9609C7.67344 14.9252 7.70867 14.9004 7.75 14.9004H8.57129L8.61914 14.9131ZM14.9189 14.9082C14.9547 14.9234 14.9795 14.9587 14.9795 15V15.7939C14.9794 15.8491 14.935 15.8936 14.8799 15.8936H12.9932V16.6562H14.5234C14.5783 16.6565 14.6228 16.701 14.623 16.7559V17.5498C14.623 17.6049 14.5785 17.6501 14.5234 17.6504H12.9932V18.6064H14.8799C14.935 18.6064 14.9794 18.6509 14.9795 18.7061V19.5C14.9795 19.5552 14.9351 19.5996 14.8799 19.5996H12.084C12.0288 19.5996 11.9844 19.5552 11.9844 19.5V15L11.9922 14.9609C12.0074 14.9252 12.0427 14.9004 12.084 14.9004H14.8799L14.9189 14.9082ZM16.1191 14.9053C16.1498 14.916 16.174 14.9418 16.1826 14.9746L16.8887 17.6943L17.5957 14.9814L17.6084 14.9512C17.6263 14.9239 17.6574 14.9066 17.6914 14.9062L18.542 14.9004L18.5752 14.9053C18.6062 14.9159 18.6309 14.9415 18.6396 14.9746L19.3457 17.6953L20.0527 14.9746L20.0654 14.9443C20.0835 14.9171 20.1153 14.9005 20.1494 14.9004H21L21.0439 14.9102C21.0576 14.9169 21.0696 14.9271 21.0791 14.9395C21.0886 14.9519 21.0948 14.9665 21.0977 14.9814L21.0957 15.0273L19.8408 19.5273C19.8286 19.5703 19.7888 19.5996 19.7441 19.5996H18.9473C18.9023 19.5994 18.8624 19.5697 18.8506 19.5264L18.1172 16.8408L17.3838 19.5264C17.3719 19.5696 17.3329 19.5994 17.2881 19.5996H16.4902C16.4458 19.5994 16.4067 19.5701 16.3945 19.5273L15.1387 15.0273C15.1303 14.9974 15.1365 14.9643 15.1553 14.9395C15.1741 14.9146 15.2042 14.9005 15.2354 14.9004H16.0859L16.1191 14.9053Z" fill="white" fill-opacity="0.5"/>
</g>
</svg>
